<svg width="640" xmlns="http://www.w3.org/2000/svg" height="480"><g stroke-width="0"><path fill="transparent" d="M278.8 375.1l-6.752-.043-6.598-.377-6.543-.723-6.412-1.021-6.383-1.327-6.188-1.638-6.119-1.921-5.926-2.233-5.818-2.49-5.672-2.725-5.503-2.997-5.37-3.294-5.124-3.519-5.04-3.739-4.769-4.001-4.608-4.173-4.361-4.396-4.176-4.607-3.928-4.831-3.73-4.978-3.481-5.202-3.182-5.34-2.981-5.487-2.696-5.686-2.396-5.823-2.156-5.947-1.818-6.059-1.556-6.222-1.216-6.333-.901-6.408-.6-6.546-.246-6.596.108-6.645.403-6.515.748-6.463 1.068-6.372 1.425-6.256 1.683-6.151 1.978-6.021 2.273-5.89 2.57-5.761 2.801-5.615 3.137-5.462 3.304-5.3 3.616-5.109 3.824-4.925 4.055-4.779 4.24-4.557 4.511-4.387 4.709-4.101 4.878-3.942 5.102-3.694 5.26-3.433 5.445-3.21 5.566-2.973 5.763-2.685 5.924-2.424 6.02-2.148 6.193-1.822 6.29-1.546 6.387-1.269 6.561-.944 6.57-.614 6.744-.289 6.69.057 6.636.402 6.529.661 6.45 1.044 6.32 1.342 6.25 1.624 6.057 1.935 5.95 2.193 5.819 2.491 5.686 2.787 5.502 2.999 5.333 3.27 5.185 3.504 4.978 3.752 4.793 3.963 4.584 4.211 4.4 4.421 4.176 4.608 3.953 4.792 3.705 5.016 3.467 5.14 3.22 5.363 2.957 5.526 2.682 5.623 2.435 5.847 2.117 5.923 1.833 6.122 1.516 6.198 1.28 6.318.9 6.408.561 6.522.261 6.659-.083 6.606-.428 6.554-.787 6.439-1.067 6.373-1.362 6.24-1.683 6.152-2.042 6.036-2.273 5.889-2.506 5.746-2.865 5.63-3.073 5.447-3.344 5.278-3.577 5.131-3.848 4.964-4.03 4.74-4.304 4.572-4.487 4.348-4.694 4.164-4.893 3.879-5.062 3.719-5.285 3.471-5.445 3.21-5.604 2.949-5.764 2.685-5.86 2.409-6.058 2.124-6.181 1.885-6.289 1.546-6.426 1.245-6.497.929-6.633.629-6.682.274"/><g fill="#bfbfbf" fill-rule="evenodd"><path d="M281.77 326.77l-.48 1.38-.18 6.06-1.25 2.79-4.58 1.64-1.97 3.86.09 5.63 3.58 2.72 5.39 3.25 5.91 5.8 3.86 4.52 3.06.17.3 3.33-1.49 3.34.55 2.3.33.26 13.25-2.62 12.78-3.84 12.3-5.15 14.52-8.01 12.86-9.41.22-3.81 2.2-5.67 4.01-5.67 2.26-3.36-3.33-2.51-1.78-.25-4.3 1.88-8.39 1.91-6.87.91-5.65-6.55-8.93.17-6.61-1.14-7.67-3.22-6.1 1.4-8.37.14-3.29 1.57-6.14-2.15-4.06 1.86-3.5 2.85-1.96 2.02-3.15-.66-4.84-.42-4.11-2.99-.77-2.05 1.21-3.58.24-3.05-2.83-2.03-4.32-1.18-4.83.07-.56-2.29 1.5-2.85.72-4.86-2.85-1.72-3.79 1.32-1.5 2.58-2.77.82-3.6-1.22-4.89-3.97-.54-5.1.68-4.61 4.03-5.44 5.33-1.12 3.32.45 2.28 1.26 2.29-.31 2.56-1.33 4.31.41 4.08 1.74 2.88 4.28 2.31 3.28 2.54-.8-.8-4.07-1.59-3.31.73-4.1 1.98-3.36 5.02-3.64 3.02-2.61.22-4.84 1.99-5.43 2.48-3.64 1.78-.52 1.01-2.56 2.47-3.88 2.28-1.07 2.3 1.23 1.76-2.05 3.8-2.12 2.76-1.58-1.05-2.55-3.81.6-1.78-.52-.27-2.76-2.56-.73-2.52 2.06-2.78 1.35-.29-1.26 2.77-2.88 4.54-2.37 2.82-.3 3.81-1.63 1.22-2.81-1.32-3.58-3.85-4.52-6.95-5.25-4.09-.44-2.29-.45-2.32-3.02-6.88-2.94-2.55.8.03 4.35.32 5.62 1.82 2-1.49 2.31-.68 4.88-.73 4.37-2.84-2.53-2.04-3.28-.31-3.82-3.33-1.48-5.12-1.19-1.83-2.76.45-5.9 3.02-4.66 4.78-4.66 4.29-3.17 1.97-2.56-2.3-2.51-3.04 1.08-3.32-.99-.56-3.33-.3-3.05-2.28.04-.69 4.38-2.05 1.81-1.74-1.25-.1-5.36-1.31-3.52-2.83-1.5-2.31-3.55-3.81.33-2.27 2.1 2.82 2.47.57 3.06 3.33 2.5-.47 3.34-10.3-7.99-5.37-4.76-2.85-4.05-.03-3.59-1.09-4.79-2.33-1.02-4.3.08-1.79 1.05-2.29-.46-2.53.27-.97 2.58-1.02 1.81-4.86-.92-3.01 2.07-1.73 3.63-.99 3.07-2.8-.45-2.84-2.25 1.06 3.31 4.37 1.96 4.84 1.72 4.1 2.23 1.58 4.29.31 4.85-1.68 7.18-2.22 7.44-.44 5.9.06 3.34.81 3.54-3.02 3.63-2.75 4.67-2.71 6.16-1.19 7.44-.89 10.48 1.07 3.81 2.12 7.12 1.58 5.58 2.38 6.63 3.07 3.27 2.58.96-2.59-3.02-1.33-3.81-.79-4.34-.81-3.8 2.01-.54 1.06 3.04 1.85 7.38 3.93 7.86 1.08 4.31-1.01 2.83 2.37 3.54 4.59 2.21 6.95 6.28 4.31 1.71 6.67 2.16 7.64 3.2 3.87 2.51 3.59 3.22 2.88 6.34 5.62 2.2 3.6 1.22 4.06-.56 4.31.42"/><path d="M267.43 297.91l3.05-1.35 4.85 1.18 5.61 1.71 4.31.42 3.86 1.75-1 2.04-4.58.61-3.82-2.77-4.63-2.23-7.65-1.36m22.96 4.94l-.2 2.05 3.31 1.25 3.06.44 5.32-.85-3.59-2.02.25-1.25-2.07-.75-6.08 1.13m18.96-74.68l1.8 1.77 3.35 2.74 3.57 2.99 1.05 2.28-5.62.12-3.57-4.01-1.31-2.82.73-3.07m-23.92-20.76l-3.31-.98-4.08-.7 4.04-3.12.19-4.37-1.83-2.76-4.85-1.45-3.32-1.48-3.35-4.31 2.76-2.61 3.85.99 4.85 2.49 4.61 2.44 1.83 4.06 1.54 1.23 3.82 1.74 2.36 4.06-2.03 2.31-.69 3.36-3.04.55-3.35-1.45m18.54-3.92l4.6 2.97 2.06 1.02 4.57-1.38 5.54-1.9-5.36-1.93-1.8-2.81.45-4.86.4-8.41 3.03-2.87-.05-4.58-4.88-4.78-5.14-3.74-6.16-1.95-5.09-3.23-5.88-.14-4.55 1.6-2.27 2.86-2.56.3-.23-2.04-3.58.04-4.29 1.88.78 2.81-1.97 4.89 2.09 3.03 4.05 2.47 1.75-6.16 1.99-2.33 1.35 4.31 3.56 3.52 3.33 1.48 5.16 3.97 4.38 4.03 1.09 7.66 3.08 1.7.55 2.57m17.29-21l.59 4.32 1.52 2.3 2.8 1.21 3.54-4.13 1.44-5.16-3.07-2.24-3.3 1.08-1.5 2.04-2.02.58"/><path d="M375.22 161.35l1.82 4.33-.21 4.31 1.05 3.57 3.6 2.25-.25 2.82-3.02 1.04-2.03-.18-2.76 1.31 5.62 2.47-.74 2.31-5.1.06.55 2.84 1.3 3.51.08 4.11 2.32 3.78 1.82 3.56 2.83 2.53-1.26 1.76-.48 1.81-.97 3.89-3.02 2.34-4.87-2.98-.28-2.83-2.86-2.49-.02-3.58 2.49-2.62-.27-3.79-4.63-1.21-2.28.04-1.55-2.53.45-5.9-3.37-6.32-3.34-2.25-1.09-4.03-.85-5.62-4.12-6.09-1.08-4.57-3.33-1.21-3.54-1.99-2.08-1.24-1.26 1.32 1.82 2-3.02 2.34 2.79.71 3.11 2.27 3.34 3.27 4.09 2.23-4.06 1.85-1.23 2.59-3.59-.72-4.32-2.21-3.41-5.59-2.58-1.99-5.85-2.95-4.37-2.23-3.07-4.3 3.5-2.09 6.36-1.13-.78-2.81-2.56-.73-.74 1.54-4.37.1.75-2.84-2.8-1.2-1.81-2.54-5.13-3.25-7.71-5.24-1.53.83-1.45 1.8-3.31 1.08-2.08-.98-3.82-.69-5.06.36-2.54 1.56-5.32.85-4.84-.69-3.33-1.22-.52-2.54-5.12-.16-2 1.84-5.33.35-4.84 1.11.04 2.78-2.53 1.56-5.34.63-2 1.57.78 2.54-2.28 1.34-6.35.86-.47 2.3-.21 2.85-2.04 1.27-3.51 3.66-2.53 2.59-3.25 2.63-4.07.82 1.01-1.54 1.99-3.09-.55-1.8-3.27.07-1.81-2.54-1.58-2.55 2.51-2.82 2.75-2.35 2.29-.3 2.04-3.87-.59-4.32 3.05-1.35 4.27-2.1.22-4.84-2.33-2.05-2.29-.73 11.85-4.25 9.96-2.77 9.67-1.88 12.11-1.38 10.77-.27 12.61.83 15.66 2.67 15.3 4.61 10.43 4.5 10.77 5.69 9.1 5.94 8.54 6.41 7.5 7.05 5.03 5.31.21 1.21"/><path d="M345.64 176.96l-2.28 1.06 1.01 2.26 2.37 3.54.78 2.54 1.07 3.81 3.61 3.01 2.51.21-1.02-2.26-3.12-2.76-.26-1.57 3.08 1.27 3.35 1.71 3.05.98-.02-2.56.11-.26.1-.25.07-.29.01-.26.01-.54-.06-.52-.11-.5-.09-.38-.08-.22-.03-.12-2.04-1.22-6.39-2.69-2.82-1.26-2.81-2.73m38.35-5.6l-.23 3.38 1.07 3.81-1.02 2.07-1.75.05 1.54 2.53 3.11 3.99.3 5.39-2.79-.71-1.79.29-.43 6.12.33 5.34-.74 2.57.29 4.62-1.5 2.59-.94 3.31 1.55 4.59 2.62 6.07-.2 4.37-.14 8.95 1.12 8.12 2.11 6.62 3.38 7.36 4.38 4.79 5.13 1.19 2.98-4.69 2.02-3.07 2.77-1.25.67-8.24.08-7.64-.33-7.84-.98-9.22-2.07-10.82-2.58-9.24-2.91-8.2-3.62-8.16-3.72-7.24-4.52-7.26-3.19-4.54"/></g></g></svg>