<?xml version="1.0" encoding="utf-8"?>
<!-- Generator: Adobe Illustrator 19.2.0, SVG Export Plug-In . SVG Version: 6.00 Build 0)  -->
<svg version="1.1" id="Layer_1" xmlns="http://www.w3.org/2000/svg" xmlns:xlink="http://www.w3.org/1999/xlink" x="0px" y="0px"
	 viewBox="0 0 281.4 257" style="enable-background:new 0 0 281.4 257;" xml:space="preserve">
<style type="text/css">
	.st0{fill:#EEB01E;}
	.st1{fill:#6D6D6D;}
	.st2{fill:#119A56;}
	.st3{fill:#EFB21B;}
	.st4{fill:#547DBC;}
	.st5{fill:#D94737;}
	.st6{fill:#FEFEFE;}
	.st7{fill:#6C6D6D;}
	.st8{fill:#6C6C6C;}
	.st9{fill:#FDFDFD;}
	.st10{fill:#6D6E6D;}
	.st11{fill:#707070;}
	.st12{fill:#C24234;}
	.st13{fill:#4F71B1;}
	.st14{fill:#6E6E6E;}
	.st15{fill:#5272B2;}
	.st16{fill:#D34637;}
	.st17{fill:#AA3F34;}
	.st18{fill:#CA4639;}
	.st19{fill:#D94736;}
	.st20{fill:#B54034;}
	.st21{fill:#D44537;}
</style>
<g id="dXyP6M_1_">
	<g>
		<path class="st0" d="M15.1,31.2c0.3-1.7,0.6-3.4,1.5-4.9c2.3-3.8,5.6-5.7,10.1-5.7c75.4,0,150.8,0,226.2,0c0.5,0,1.1,0,1.6,0
			c0.2,0,0.3,0,0.5,0c1.9-0.1,3.7,0.1,5.2,1.4l0,0c2.7,1.2,4.3,3.4,5.3,6.2c0.1,0.3-0.1,0.6,0.1,0.9c0.4,30.3,0.4,60.6,0,91
			c-0.2,0.2,0.1,0.5-0.2,0.7c-0.1,0-0.1,0.1,0,0.1c-0.2,1.2-0.6,2.3-1.6,3.1l0,0c-0.7,1.3-1.7,2.3-3.1,2.8c-0.1,0.1-0.3,0.2-0.4,0.3
			c-1.4,1.4-3.2,1.3-5,1.5c-0.5,0.1-1.1,0-1.6,0c-45.9,0-91.9,0-137.8,0c-1.2,0-2.2,0.2-3.2,0.8c-0.8,0.5-1.6,1-2.5,1.2
			c-0.1,0-0.1,0-0.1,0.1c-1,1.3-2.4,2.2-3.6,3.3c-1.8,1.7-3.5,3.5-5.4,5c-0.6,0.5-1.3,1-2.1,1.3l0,0c-0.9,0.9-1.8,1.6-3.1,1.9l0,0
			c-1,1-2.4,1.4-3.7,1.7c-0.3,0.1-0.6,0.2-0.9,0.3c-0.3,0.5-0.8,0.3-1.3,0.4l-0.1,0l-0.1,0c-0.5,0.3-1.1,0.3-1.7,0.2
			c-0.2,0-0.3,0-0.5,0c-1.8,0.4-3.1-0.7-3.2-2.4c-0.1-1.8,0.4-3.3,1.4-4.7c0.6-0.9,0.7-2.1,0.9-3.2c0.3-1.7-0.1-3.3-0.7-4.9
			c-0.2-0.6-0.6-0.8-1.1-0.8c-0.2,0-0.5,0-0.7,0c-18.4,0-36.8,0-55.2,0c-1.6,0-3.2,0.1-4.8-0.1c-2.3-0.3-4.1-1.4-5.6-3
			c-0.7-0.7-1.7-1.2-1.7-2.4l0,0c-1.4-1.5-1.9-3.4-1.6-5.4c0-0.4,0-0.7,0-1.1c0-28.2,0-56.3,0-84.5C15.1,31.8,15.1,31.5,15.1,31.2z"
			/>
		<path class="st1" d="M197.8,173.5c-0.6,0.7-1.3,1.4-1.9,2.1c-0.1,0.2-0.2,0.4-0.5,0.5c-1,0.6-2,1.2-3.1,1.9
			c3.7,1.3,6.4,3.6,8.4,6.8c0.3,0.4,0.7,0.7,0.6,1.2c0.4,1,0.5,2.2,0.8,3.3c0.1,1.3,0.1,2.6,0,4c-0.3,1.7-0.7,3.3-1.5,4.9
			c-0.2,0.8-0.5,1.5-1.2,1.9c-0.5,0.6-1.1,1.2-1.6,1.9c-0.2,0.6-0.7,1-1.2,1.2c-0.7,0.5-1.4,1-2,1.5c-0.2,0.3-0.4,0.3-0.7,0.4
			c-2.2,1.1-4.5,1.9-7,2.2c-0.4,0.1-0.8,0.1-1.2,0.1c-7.1,0-14.2,0-21.3,0c-1.3,0-1.3,0-1.3-1.2c0-18.1,0-36.2,0-54.3
			c0-0.4-0.1-0.8,0.1-1.1c7.4,0,14.8,0,22.2,0c0.4,0.2,0.9,0,1.2,0.2c1.4,0.4,2.8,0.8,4.2,1.2c0.3,0.2,0.8,0,0.9,0.5
			c0.2,0.1,0.3,0.2,0.5,0.3c0.3,0.2,0.7,0.2,0.9,0.6c0.5,0.4,1.1,0.7,1.6,1.1c0.3,0,0.5,0.2,0.5,0.5c1.1,1.2,2.3,2.4,3.1,3.8
			c1.1,1.8,1.5,3.7,1.9,5.7c0.1,1,0.1,2,0,3c-0.2,1.5-0.7,3-1.2,4.4c-0.1,0.3-0.1,0.6-0.5,0.7c-0.2,0.1-0.2,0.3-0.2,0.4
			C198.1,173.2,198,173.4,197.8,173.5z"/>
		<path class="st1" d="M207.8,183.7c0-0.2,0-0.4-0.1-0.7c-0.2-0.4,0-0.8-0.2-1.2c0-0.8,0-1.5-0.1-2.3c-0.1-0.5-0.1-1.1,0-1.6
			c0-0.7,0-1.4,0.1-2.1c0.2-0.4,0-0.8,0.2-1.2c0-1.4,0.4-2.8,0.8-4.2c-0.1-0.7,0.2-1.4,0.6-1.9c1-3,2.5-5.7,4.5-8.1
			c0.2-0.5,0.6-0.9,1.1-1.3c0.8-0.8,1.6-1.6,2.4-2.4c0.3-0.3,0.6-0.7,1-0.8c0.8-0.7,1.6-1.4,2.5-1.9c0.2-0.3,0.4-0.3,0.7-0.4
			c1.2-0.7,2.4-1.4,3.8-1.9c0.2-0.5,0.7-0.2,1-0.4c1.6-0.5,3.3-0.9,4.9-1.4c0.4-0.3,0.8,0,1.2-0.2c1.1-0.1,2.2-0.2,3.2-0.3
			c1.2-0.1,2.3-0.1,3.5,0c1.8,0.3,3.6,0.5,5.4,0.8c0.5,0.2,1.1-0.1,1.4,0.4c0.1,0,0.2,0,0.2,0c0.2,0.3,0.7-0.1,0.9,0.3
			c0.9,0.4,1.9,0.7,2.8,1.1c0.1,0.1,0.4,0,0.5,0.3c0.3,0.2,0.6,0.4,0.9,0.4c0.6,0.1,1.1,0.3,1.4,0.8c0.8,0.4,1.4,1.2,2.3,1.6
			c0.5,0.1,0.8,0.4,1,0.9c0.4,0.4,0.7,0.7,1.1,1.1c0.8,0.7,1,1.3,0.1,2c-0.1,0.4-0.3,0.6-0.7,0.7c-0.5,0.3-0.8,0.8-1.1,1.2
			c-0.1,0.3-0.4,0.6-0.7,0.7c-0.5,0.5-0.9,0.9-1.4,1.4c0,0.1-0.1,0.1-0.2,0.1c-0.1-0.1-0.2-0.2-0.3-0.3c-0.2-0.2-0.5-0.4-0.6-0.7
			c-1.1-1-2.3-2-3.6-2.8c-0.1-0.1-0.3-0.1-0.4-0.2c-2.2-1.2-4.5-2.1-7-2.4c-0.4-0.1-0.8,0-1.2-0.2c-1.6-0.2-3.1-0.2-4.7,0
			c-0.4,0.2-0.8-0.1-1.2,0.2c-2.5,0.2-4.8,1.1-7,2.3c-0.5,0.2-1,0.3-1.4,0.8c-0.2,0.4-0.6,0.5-1,0.7c-0.1,0.1-0.3,0.2-0.4,0.3
			c-0.1,0.4-0.4,0.6-0.8,0.6c-0.4,0.1-0.7,0.4-0.9,0.7c-0.2,0.5-0.6,0.7-1,0.9c-0.1,0.2-0.3,0.3-0.4,0.5c-0.3,0.5-0.7,0.8-1.1,1.1
			c-0.7,0.7-1.3,1.6-1.7,2.5c-0.2,0.8-0.7,1.5-1.1,2.2c-1,2.1-1.7,4.4-1.7,6.7c-0.3,0.6,0,1.3-0.2,1.9c0,0.6,0,1.3,0,1.9
			c0.2,0.5,0,1.1,0.1,1.7c0,2.6,0.7,5,1.8,7.3c0.4,0.2,0.4,0.6,0.5,1c0,0.3,0.1,0.5,0.3,0.6c0.2,0.1,0.4,0.3,0.4,0.6
			c0,0.1,0,0.1,0.1,0.1c0.6,0.6,1.3,1.2,1.6,2.1c0.4,0.8,1,1.3,1.7,1.9c0.2,0.1,0.4,0.2,0.5,0.5c0.3,0.2,0.6,0.5,0.9,0.7
			c0.6,0.2,1.2,0.5,1.4,1.2c2.5,1.9,5.3,3.1,8.4,3.5c0.3,0.1,0.6,0,0.9,0.2c0.2,0,0.4,0,0.7,0.1c0.6,0.1,1.3,0,1.9,0.2
			c0.7,0,1.4,0,2.1,0c0.5-0.2,1,0.1,1.5-0.2c0.3,0,0.6,0,0.9-0.1c0.3-0.2,0.7,0,1-0.2c1-0.1,1.9-0.3,2.8-0.7
			c0.2-0.1,0.4-0.2,0.7-0.2c0.5-0.2,1.1-0.5,1.6-0.7c0.5-0.3,0.9-0.6,1.5-0.7c1.1-0.8,2.3-1.6,3.4-2.4c0.2-0.3,0.4-0.4,0.7-0.6
			c0.5-0.5,1-1,1.4-1.5c0.2-0.3,0.4-0.7,0.7-0.9c0.2-0.2,0.3-0.5,0.5-0.7c0.1-0.2,0.2-0.5,0.4-0.7c0.1,0,0.1-0.1,0.1-0.2
			c0.1-0.4,0.1-0.8,0.5-1l0,0c0-0.4,0.1-0.7,0.4-1c0.3-1.1,0.6-2.2,1-3.3c-0.1-0.3,0.2-0.6,0.2-0.9c0-0.2,0-0.4,0.1-0.7
			c0.4-1-0.1-1.1-0.9-1.1c-6.2,0-12.5,0-18.7,0c-0.3,0-0.7,0.2-0.9-0.2c0-1.9,0.1-3.8,0-5.7c0-0.9,0.3-0.9,0.9-0.9c1.5,0,3,0,4.6,0
			c7,0,14,0,21,0c0.5,0,1-0.2,1.4,0.4c0.2,0.3,0,0.7,0.2,1c0,0.4,0,0.7,0.1,1.1c0.1,1.3,0.1,2.6,0,4c0,0.5,0,0.9-0.1,1.4
			c-0.2,0.4,0,0.8-0.2,1.2c0,0.2,0,0.3,0,0.5c0.1,0.3-0.2,0.6-0.2,0.9c-0.7,3.4-1.9,6.6-3.9,9.4c-0.2,0.2,0,0.6-0.3,0.7
			c-0.3,0.3-0.3,0.7-0.7,0.9c-0.7,0.8-1.4,1.6-2.1,2.3c0,0.2-0.2,0.4-0.4,0.4c-0.8,0.4-1.4,1.2-2.1,1.7c-0.1,0.2-0.2,0.4-0.5,0.5
			c-2.5,1.5-4.9,3-7.8,3.8c-1.3,0.4-2.6,0.7-3.9,0.9c-0.3,0.1-0.6,0.1-0.9,0.2c-0.3,0-0.6,0.1-0.9,0.1c-0.5,0.2-1.1-0.1-1.7,0.2
			c-1.4,0-2.9,0-4.3,0c-0.6-0.2-1.2,0-1.7-0.2c-2-0.2-3.9-0.6-5.8-1.2c-0.6,0-1.2-0.2-1.7-0.6c-1-0.3-1.9-0.7-2.7-1.2
			c-0.5-0.1-0.9-0.3-1.3-0.6c-0.7-0.5-1.4-0.9-2.1-1.4c-0.3-0.1-0.5-0.2-0.6-0.5l0,0c-0.3-0.1-0.5-0.4-0.8-0.6
			c-1.4-0.9-2.4-2.2-3.6-3.3c-0.2-0.1-0.4-0.2-0.4-0.5c-1.1-1.2-2.1-2.5-2.9-4c-0.3-0.1-0.3-0.4-0.5-0.7c-0.4-0.6-0.8-1.2-1-1.9
			c-0.2-0.3-0.4-0.6-0.4-1c-0.9-1.8-1.3-3.8-1.7-5.8C207.9,184.4,208,184,207.8,183.7z"/>
		<path class="st1" d="M96.6,173.5c0.4-3.2,1.5-6.3,3.1-9.1c0.1-0.3,0.2-0.6,0.4-0.8c0.4-0.4,0.5-1.1,1-1.5c0.1-0.5,0.4-0.8,0.7-1.1
			c0.1-0.1,0.1-0.2,0.2-0.2c0.1-0.4,0.4-0.7,0.7-0.9c0.5-0.7,1-1.3,1.6-1.8c0.1-0.3,0.4-0.5,0.7-0.7c0.1-0.1,0.2-0.2,0.3-0.3
			c0.1-0.2,0.2-0.3,0.4-0.4c0.6-0.5,1.1-1,1.7-1.4c0.3-0.5,0.7-0.7,1.3-0.9c0.7-0.7,1.5-1,2.3-1.5c0.2-0.3,0.5-0.3,0.8-0.4
			c1.3-0.7,2.6-1.3,3.9-1.7c0.3-0.3,0.8-0.2,1.2-0.4c1.6-0.3,3.1-0.7,4.7-1c0.4-0.2,0.8,0,1.2-0.2c0.5,0,0.9,0,1.4-0.1
			c1.2-0.1,2.3-0.1,3.5,0c0.3,0,0.6,0,0.9,0c0.6-0.3,1.1,0.2,1.6,0.2c1.8,0.4,3.6,0.8,5.3,1.2c0.5,0,0.9,0.1,1.2,0.5
			c0.8,0.3,1.6,0.7,2.3,1c0.4-0.1,0.6,0.1,0.7,0.4c0.4,0.3,0.8,0.7,1.4,0.8c0.5-0.1,0.7,0.3,1,0.6c0.9,0.7,1.9,1.4,2.8,2.2
			c0.2,0.1,0.4,0.2,0.5,0.5l0,0c0.4,0.2,0.7,0.5,0.9,1c0,0.2,0.4,0.3,0,0.7c-1.7,1.4-3.2,3.1-4.7,4.6c0,0.1-0.1,0.1-0.2,0.1
			c-0.1-0.1-0.2-0.2-0.3-0.3c-0.4-0.2-0.7-0.5-0.9-0.9c-0.2-0.2-0.3-0.3-0.5-0.5c-0.2-0.1-0.4-0.2-0.5-0.4c-0.8-0.6-1.5-1.1-2.3-1.7
			c-0.5,0-0.8-0.4-1.2-0.6c-2-0.9-4.1-1.6-6.3-1.9c-0.5-0.2-1,0-1.5-0.2c-1.4-0.2-2.8-0.1-4.2,0c-0.5,0.1-0.9,0.3-1.4,0.2
			c-0.5,0.1-1.1,0.2-1.6,0.3c-0.2,0.1-0.5,0.1-0.7,0.2c-0.7,0.1-1.5,0.3-2.1,0.7c-0.3,0.3-0.8,0.3-1.2,0.5c-0.6,0.3-1.3,0.4-1.9,0.9
			c-0.2,0.3-0.4,0.4-0.7,0.5c-0.2,0-0.4,0-0.4,0.2c-0.2,0.4-0.6,0.5-1,0.7c-0.4,0.2-0.7,0.3-0.9,0.7c-0.1,0.3-0.2,0.4-0.5,0.5
			c-0.5,0-0.5,0.6-0.9,0.8c-0.2,0.3-0.4,0.5-0.7,0.6c-0.6,0.3-0.9,0.9-1.2,1.4c-0.1,0.4-0.3,0.6-0.6,0.8c-0.5,0.4-0.8,0.9-1,1.6
			c-0.1,0.3-0.2,0.6-0.5,0.7c-0.5,0.6-0.8,1.3-1,2.1c0,0.4-0.2,0.6-0.4,1c-0.9,2.1-1.3,4.3-1.2,6.5c-0.2,1.1-0.2,2.1,0,3.2
			c-0.1,1.3,0.1,2.5,0.4,3.7c0.5,0.3,0.2,0.8,0.3,1.2c0.2,1.6,0.8,3.1,1.7,4.4c0.3,0.2,0.4,0.5,0.4,0.8c0.5,1.1,1.2,2.2,2.1,3
			c0.3,0.1,0.4,0.2,0.5,0.5c0.5,0.8,1.2,1.2,1.9,1.8c0.4,0.1,0.6,0.4,0.8,0.7c0,0.2,0.2,0.2,0.4,0.3c0.4,0.1,0.6,0.3,0.8,0.6
			c2.2,1.7,4.7,2.8,7.5,3.4c0.3,0,0.7,0,1,0.2c0,0.1,0.1,0.1,0.2,0c0.2,0.1,0.6-0.1,0.8,0.2c0.3,0,0.6,0,0.9,0.1
			c0.5,0.3,1-0.1,1.5,0.2c0.8,0,1.6,0,2.4,0c0.5-0.2,1.1,0.1,1.7-0.2c2.3,0,4.4-0.9,6.5-1.7c0.2-0.3,0.6-0.3,0.9-0.4
			c0.1,0,0.2,0,0.2-0.1c0.5-0.6,1.1-0.9,1.8-1.1c1.5-1.2,3.1-2.2,4.3-3.7c0.1-0.5,0.4-0.9,0.9-1.2c0.9-1.1,1.4-2.5,1.9-3.7
			c0-0.3,0.1-0.5,0.2-0.7c0.5-1.5,0.7-3.1,0.9-4.7c-0.5-0.2-1-0.1-1.5-0.1c-6,0-12.1,0-18.1,0c-0.8,0-1.1-0.2-1.1-1
			c0.1-1.7,0-3.4,0-5.1c0-0.3-0.1-0.6,0.2-0.7c8.6,0,17.3,0.1,25.9,0c1.3,0,1.9,0.3,2,1.6c0.2,0.5,0,1,0.2,1.5c0,0.9,0,1.8,0,2.7
			c-0.3,0.6,0.1,1.3-0.2,1.9c-0.3,3.2-1.2,6.2-2.4,9.2c-0.2,0.2-0.1,0.5-0.4,0.7c-1.2,1.8-2.3,3.7-3.8,5.3c-0.2,0.3-0.7,0.3-0.8,0.8
			c-0.2,0.3-0.4,0.6-0.7,0.7c-1.1,0.9-2.2,1.8-3.2,2.6c-0.3,0.6-0.9,0.8-1.5,0.9c-0.1,0-0.1,0-0.2,0.1c-0.2,0.5-0.7,0.5-1.2,0.7l0,0
			c-0.4,0.3-0.9,0.6-1.4,0.7c-0.3,0-0.5,0.1-0.7,0.3c-0.3,0.3-0.8,0.3-1.2,0.4c-1.2,0.3-2.3,0.6-3.5,1c-0.3,0.3-0.7,0-1,0.2
			c-0.2,0-0.3,0-0.5,0c-0.3,0.1-0.6,0.1-0.9,0.2c-0.3,0-0.6,0-0.9,0.1c-0.5,0.2-1.1-0.1-1.7,0.2c-1.4,0-2.7,0-4.1,0
			c-0.5-0.3-1.1,0-1.7-0.2c-2-0.2-4-0.5-5.9-1.2c-0.2-0.2-0.5,0-0.7-0.2c-0.5-0.2-0.9-0.3-1.4-0.5c-0.4-0.1-1-0.1-1.2-0.6
			c-0.5,0-0.8-0.3-1.2-0.5c-0.3,0-0.6-0.1-0.7-0.4c-0.6-0.2-1.1-0.6-1.7-1c-0.2-0.1-0.5-0.2-0.6-0.4c-0.1-0.1-0.3-0.2-0.4-0.3
			c-0.4-0.1-0.6-0.4-0.8-0.6c-0.5-0.2-0.9-0.6-1.3-1c-0.6-0.2-1.1-0.5-1.3-1.1c-1-0.7-1.5-1.8-2.4-2.6c-0.2-0.1-0.3-0.3-0.4-0.5l0,0
			c-0.3-0.3-0.5-0.6-0.7-1l0,0c-0.3-0.1-0.4-0.4-0.5-0.6c-0.2-0.4-0.5-0.8-0.7-1.2c-0.3-0.2-0.3-0.5-0.4-0.7c-1.8-3-2.9-6.2-3.3-9.6
			c-0.3-0.3-0.3-0.6-0.2-1c0-0.3,0-0.6-0.1-0.9c-0.2-0.5,0-1-0.2-1.5c0-1.2,0-2.4,0-3.6c0.2-0.6,0-1.2,0.2-1.7c0-0.3,0-0.6,0.1-0.9
			C96.6,174.2,96.4,173.8,96.6,173.5z"/>
		<path class="st2" d="M65.2,186.8c-0.2,0-0.3,0.1-0.5,0.1c-1.6,1-3.4,1.2-5.1,1.4c-0.5,0.1-1,0-1.5,0c-5.1,0.2-9.6-1.4-13.7-4.3
			c-0.4-0.3-0.8-0.7-1.3-1c-1-0.7-1.7-1.8-2.9-2.4c-5.2-2.6-10.9,0-12.2,5.7c-0.1,0.6,0,1.3-0.7,1.6c-1.9,0.3-3.9,0.1-5.8,0.1
			c-1.8,0-3.6,0-5.4,0c-0.5,0-1.1,0.1-1.6-0.3c-0.3-0.8-0.2-1.6-0.1-2.4c0-0.2,0-0.3,0-0.5c0.1-1.1,0.3-2.2,0.5-3.3
			c0.1-0.5,0.2-1,0.7-1.3l0,0c0.2-0.4,0.1-0.9,0.5-1.2l0,0c0.4-1.2,0.8-2.5,1.8-3.3c0.2-0.2,0.3-0.5,0.5-0.7c1.2-2.1,2.8-3.8,5-4.9
			c0.1,0,0.1,0,0.2-0.1c1.8-1.7,4-2.6,6.4-3.2c0.4-0.1,0.8-0.1,1.3-0.2l0.1,0l0.1,0c0.4-0.3,0.8,0,1.2-0.2c0.1,0,0.3,0,0.4,0
			c0.9-0.1,1.7-0.7,2.7-0.5c5.6-0.1,10.6,1.7,14.9,5.3c0.4,0.3,0.8,0.7,1.2,1.1c2.5,2.4,5.3,3.1,8.5,1.9c3.1-1.1,4.9-3.3,5.4-6.6
			c0.1-0.6,0.2-1.1,0.9-1.2c4-0.2,7.9-0.1,11.9-0.1c0.3,0,0.5,0.1,0.8,0.2c0.2,0.1,0.3,0.3,0.3,0.6c-0.1,2.1-0.2,4.1-0.9,6
			c-0.1,0.3-0.3,0.6-0.6,0.8c-0.1,0.3-0.4,0.6-0.3,0.9c-0.2,0.4-0.1,0.9-0.5,1.1l0.1,0l-0.1,0c-0.1,1-0.8,1.6-1.4,2.4
			c-0.3,0.2-0.5,0.3-0.4,0.7c-0.1,0.5-0.4,0.9-0.8,1.3c-1.4,1.4-2.6,2.9-4.3,4c-0.6,0.4-1.1,0.7-1.8,0.9l0,0
			c-0.3,0.4-0.7,0.6-1.2,0.7c-0.2,0.1-0.4,0.2-0.6,0.3C66.5,186.7,65.8,186.7,65.2,186.8z"/>
		<path class="st3" d="M79.4,166.6c-4.3,0-8.7,0-13,0c-0.6-0.1-0.5-0.6-0.5-1c-0.4-3.1-2.1-5.2-4.8-6.4c-3-1.4-5.9-0.9-8.5,1.1
			c-0.2,0.2-0.5,0.4-0.8,0.5c-0.6,0-0.9-0.4-1.3-0.7c-2.5-2.5-5.1-5-7.6-7.6c-0.3-0.3-0.6-0.5-0.6-1c0.1-1.1,1.1-1.4,1.9-1.8
			c0.1-0.1,0.1-0.1,0.2-0.2c0.5-0.9,1.3-1.3,2.3-1.5l0,0c1.3-1.4,3-1.7,4.8-2.1c0.1,0,0.3,0,0.4-0.1c1.1-0.8,2.4-1,3.8-0.8
			c0.7,0.1,1.5,0.1,2.2,0c2.4-0.4,4.6,0.1,6.8,1c1.6,0.6,3.2,1,4.5,2.1c0.2,0.2,0.5,0.4,0.7,0.6l0,0c0.9,0.3,1.7,0.7,2.1,1.6l0,0
			c1.7,1.2,3.1,2.6,4,4.5c0,0.3,0.2,0.5,0.4,0.7c1,0.9,1.5,2.2,1.7,3.5l0,0c0.6,0.8,1.1,1.7,0.9,2.8c0,0.2,0.1,0.3,0.1,0.5
			C79.5,163,79.7,165.7,79.4,166.6z"/>
		<path class="st4" d="M14.6,187.8c4.4,0,8.7,0,13.1,0c0.4,0.3,0.3,0.7,0.4,1.1c1.4,6.7,8.3,9.3,13.6,5.1c0.2-0.1,0.4-0.3,0.6-0.3
			c0.4,0,0.7,0.3,1,0.6c2.6,2.6,5.3,5.2,7.9,7.9c0.3,0.3,0.6,0.5,0.6,1c-0.6,1.1-1.6,1.8-2.7,2.3l0,0c-0.2,0.3-0.5,0.3-0.7,0.5
			c-0.1,0-0.1,0-0.2,0.1c-0.3,0.4-0.7,0.8-1.3,0.8c-1.6,0.5-3.2,1.3-4.8,1.7c-5,1.2-9.8,1-14.6-1.1c-0.9-0.4-1.7-1-2.6-1.2
			c-0.6-0.1-1-0.3-1.3-0.8c-0.6-0.9-1.3-1.6-2.4-1.9c-0.7-0.1-0.7-0.8-1.1-1.3l0,0c-1.5-1.3-2.7-2.8-3.2-4.7
			c-0.2-0.3-0.3-0.6-0.5-0.9c-0.9-1.3-1.2-2.9-1.4-4.5c0-0.1,0-0.3-0.1-0.4c-0.1-0.4-0.3-0.7-0.2-1.2c0-0.2,0-0.3,0-0.5
			C14.4,189.2,14.3,188.4,14.6,187.8z"/>
		<path class="st5" d="M42.4,151.4c3,3.1,6,6.2,9.2,9.1c0.1,0.1,0.1,0.3,0,0.4c-1.5,1.6-2,3.6-2.4,5.7c-0.4,0.6-0.3,1.5-0.7,2.2
			c-0.4-0.1-0.5-0.4-0.5-0.7c-0.3-1.2-0.7-1.5-2-1.1c-0.4,0.2-0.8,0.1-1-0.2c-1.1-1.4-2.5-1.5-4.1-1.1c-0.5,0.1-1,0.4-1.4-0.2
			c-0.2-0.3-0.6,0-1,0c-0.9,0-1.8,0.6-2.8,0.3c0-2.2,0.1-4.4,1.3-6.4l0,0c0.4-2.4,1.7-4.3,3.3-6.1c0.1-0.1,0.2-0.2,0.2-0.3
			c0.3-0.4,0.5-0.8,0.8-1.2C41.7,151.5,41.9,151.1,42.4,151.4z"/>
		<path class="st6" d="M22.5,224.8c1.3-0.8,2-0.6,2.8,0.8c0.3,0.4,0.4,0.9,1.1,0.9c0.6-0.1,0.6-0.5,0.8-1c0.3-0.7,1-1.1,1.6-1.1
			c2.5,0.1,5-0.4,7.5,0.2c0.1,0.2,0.1,0.5,0.2,0.7c0,0.2,0,0.3,0,0.5c-0.2,0.2-0.2,0.6-0.6,0.6c-1.4-0.5-2.8-0.9-4.3-0.8
			c-0.6-0.2-1.1-0.2-1.5,0.3c-0.5,0.4-1.1,0.7-1.7,1.1c-0.3,0-0.4,0.3-0.5,0.6c-1,1.2-1.1,2.8-1.2,4.2c0,0.4-0.3,0.8,0.1,1.2
			c0.2,0.4,0.4,0.9,0.5,1.3c0,0.3,0.1,0.6,0.4,0.7c0.6,0.4,1,0.9,1.5,1.4c0.3,0.4,0.8,0.6,1.3,0.7c0.1,0.1,0.3,0.2,0.2,0.4
			c-0.2,0.4-0.5,0.6-0.8,0.5c-0.7-0.3-1.3-0.6-2-0.3c-0.1,0.1-0.3-0.1-0.3-0.4c-0.1-1.4-0.5-1.7-1.9-1.5c-0.2,0-0.3,0-0.4-0.2
			c-0.6-0.6-1.1-0.6-1.8-0.1c-1.8,1.2-3.9,1.1-5.6-0.1c-1.7-1.2-2.3-3.2-1.8-5.4c0.4-1.9,2-3.2,4.1-3.5c1.3-0.2,2.4,0.2,3.4,0.9
			c0.2,0.1,0.5,0.3,0.7,0.1c0.3-0.2,0.1-0.5,0-0.7c-0.1-0.3-0.1-0.6-0.6-0.5c-0.5,0-0.9-0.2-1.3-0.5
			C22.4,225.4,22.4,225.1,22.5,224.8z"/>
		<path class="st6" d="M76.5,237.5c-0.3,0.5-0.8,0.5-1.2,0.4c-1.2-0.2-2.5-0.1-3.7,0c-0.4,0-0.8,0-1-0.5c-0.1-1.5-0.1-1.5-1.5-1.6
			c-1,0-2,0-3-0.1c-0.5,0-0.9-0.2-0.9-0.8c0-1-0.2-2,0.2-3c1-0.6,2-0.2,3.1-0.3c0.5,0,1.1,0.1,1.4-0.6c0-0.1,0.2-0.2,0.2-0.4
			c-0.2,0-0.3,0.1-0.5,0.1c-1.3,0-2.7,0.3-4-0.2c-0.6-1.1-0.4-2.2-0.2-3.3c0.1-0.5,0.5-0.5,0.9-0.6c1.1-0.1,2.2-0.1,3.3-0.1
			c0.8,0,1.2-0.1,1.1-0.9c0-0.2,0.1-0.4,0.3-0.6c0.4-0.4,0.7-1.2,1.4-0.3c0.7-0.6,1.5-0.1,2.2-0.3c0.8-0.2,1.1,0.1,1.6,0.5
			c0.1,0.1,0.1,0.1,0.1,0.2c0,0.1,0,0.1,0,0.1c-0.3,0.3-0.7,0.5-1.1,0.6c-0.4,0.1-0.7,0.2-0.9,0.6c-0.2,0.2-0.4,0.4-0.6,0.5
			c-0.6,0-0.4,0.4-0.5,0.8c-0.9,1.7-1.1,3.5-0.7,5.4c-0.4,0.8,0,1.3,0.8,1.6c0.4,0.3,0.7,0.6,1,1c0.1,0.3,0.3,0.4,0.6,0.4
			C75.2,236.8,76,236.9,76.5,237.5z"/>
		<path class="st1" d="M177.5,229.3c-0.4,0.5-0.8,1-0.9,1.6c-0.1,0.3-0.1,0.6-0.4,0.7c-0.1,0-0.1,0.1-0.1,0.1
			c-0.1,0.4-0.2,0.8-0.6,1c-0.5,0.5-0.7,1.2-1,1.8c-0.5,0.3-1,0.4-1.4-0.2c-0.2-0.3-0.3-0.6-0.5-0.9c-0.3-0.2-0.3-0.5-0.4-0.7
			c0-0.1,0-0.2-0.1-0.2c-0.3-0.3-0.6-0.5-0.6-1c-0.3-0.6-0.7-1.2-1-1.8c-0.2,0.1-0.4-0.8-0.7,0c0,2,0,4,0,6c0,1.7,0,1.7-1.6,1.4
			c0-2.8,0-5.7,0-8.5c0-0.6-0.1-1.3,0-1.9c0.1-0.4-0.4-1.1,0.4-1.2c0.7-0.1,1.2,0,1.5,0.7c0.1,0.2,0.3,0.5,0.4,0.7
			c0.3,0.3,0.5,0.6,0.6,1c0,0.1,0,0.1,0.1,0.2c0.3,0.2,0.3,0.4,0.4,0.7l0,0c0.3,0.2,0.4,0.5,0.4,0.8c0.2,0.7,0.6,1.2,1,1.8
			c0.4,0.1,0.2,0.5,0.4,0.7c0.2,0.4,0.4,0.3,0.5,0c0.3-0.5,0.6-1,0.9-1.5c0.1-0.3,0.2-0.6,0.4-0.8c0.6-1,1.1-1.9,1.7-2.9
			c0.2-0.3,0.2-0.6,0.5-0.9c0.2-0.4,0.5-0.5,0.9-0.5c0.6-0.2,1.1-0.2,1.1,0.7c0,3.6,0,7.3,0,10.9c0,0.1-0.1,0.1-0.1,0.2
			c-0.5,0-0.9,0-1.4,0c-0.3-1.2-0.1-2.4-0.1-3.7c-0.1-1.2,0-2.4,0-3.6C177.9,229.7,178.2,229.2,177.5,229.3z"/>
		<path class="st1" d="M48.1,232.7c0-2.1,0-4.1,0-6.2c0-0.6,0-1,0.8-1c0.8,0,0.7,0.4,0.7,1c0,3.3,0,6.6,0,10c0,0.4,0,0.9-0.5,1.1
			c-0.4,0.1-0.7,0-0.9-0.2c-0.8-0.2-0.8-0.9-1.2-1.4c-0.4-0.3-0.5-0.7-0.7-1.1c-0.4-0.6-0.8-1.3-1.2-1.9c-0.3-0.2-0.3-0.4-0.4-0.7
			c-0.4-0.6-0.8-1.3-1.2-1.9c-0.1-0.1-0.1-0.2-0.1-0.3c-0.6-0.4-0.6-1.3-1.3-1.7c0,2.7,0,5.2,0,7.8c0,0.4,0.2,0.9-0.2,1.2
			c-0.4,0.3-0.8,0.3-1.2,0c-0.4-0.3-0.2-0.8-0.2-1.2c0-3.1,0-6.1,0-9.2c0-0.4-0.4-1.1,0.3-1.3c0.6-0.2,1.4-0.3,1.9,0.4
			c0.4,0.2,0.4,0.6,0.6,0.9c0.7,1.4,1.6,2.7,2.5,4c0.5,0.4,0.9,0.8,0.9,1.4c0,0.4,0.5,0.6,0.6,0.9c0.3,0.2,0.6,0.4,0.6,0.8
			C48,233.7,48.2,233.2,48.1,232.7z"/>
		<path class="st1" d="M53.8,229.3c0,2.3,0,4.5,0,6.8c0,0.7,0.1,1.3-1,1.2c-1.1-0.1-0.6-0.7-0.6-1.2c0-3,0-5.9,0-8.9
			c0-1.6,0-1.6,1.6-1.7c0.1-0.1,0.2-0.1,0.2,0c0.3,0.5,0.7,0.9,1,1.4c0.2,0.1,0.3,0.3,0.4,0.5c0.1,0.5,0.4,0.8,0.7,1.1
			c0.3,0.1,0.4,0.4,0.5,0.7l0,0c0.3,0.2,0.4,0.4,0.5,0.8c0.1,0.4,0.3,0.8,0.7,1.1c0.2,0.1,0.2,0.3,0.3,0.4c0.4,0.8,0.9,1.6,1.5,2.3
			c0.6-0.2,0.3-0.6,0.3-1c0-2.1,0-4.2,0-6.3c0-0.4-0.1-0.8,0.1-1.1l0,0c0.5-0.4,1-0.4,1.5,0c0.3,0.4,0.2,0.8,0.2,1.2
			c0,3,0,6.1,0,9.1c0,0.5,0.1,0.9-0.3,1.3c-0.1,0-0.2,0-0.2,0c-0.6,0.2-1.2,0.4-1.8-0.1c-0.2-0.3-0.3-0.6-0.5-0.9
			c-0.6-0.6-1-1.3-1.2-2.1c-0.1-0.5-0.5-0.9-0.8-1.3c-0.2-0.4-0.5-0.7-0.7-1.1c-0.4-0.6-0.8-1.3-1.2-1.9c-0.4-0.4-0.7-0.9-0.9-1.2
			c0-0.3-0.2-0.2-0.1-0.2c0,0,0,0,0,0.1C54,228.7,53.9,229,53.8,229.3z"/>
		<path class="st1" d="M129.3,231.5c-0.2-0.3-0.4-0.6-0.5-0.9c-0.7-0.3-0.9-1.1-1.4-1.7c-0.4,2.5-0.3,5.1-0.3,7.6
			c0,0.2,0.1,0.5-0.1,0.6c-0.5,0-0.9,0-1.4,0c-0.3-0.5-0.1-1.1-0.1-1.6c0-3,0-6,0-9c0-0.4-0.1-0.8,0.1-1.1c0.8,0.1,1.8-0.3,2.3,0.7
			c0.3,0.2,0.4,0.4,0.5,0.7c1.2,2.2,2.6,4.3,4,6.3c0.2,0.2,0.3,0.4,0.5,0.6c0.1,0.1,0,0.2,0.1,0.2c0,0,0-0.2,0.1-0.3
			c0-2.4,0-4.8,0-7.3c0-0.4-0.2-0.9,0.5-1c0.4-0.1,0.9-0.4,1.1,0.3c0,3.7,0,7.5,0,11.2c0.1,0.2,0,0.3-0.2,0.3
			c-1.4,0.3-2.1-0.5-2.6-1.7c-0.4-0.2-0.6-0.7-0.7-1.1c-0.4-0.6-0.8-1.3-1.2-1.9C129.5,232.4,129.4,232,129.3,231.5z"/>
		<path class="st7" d="M145.9,235.2c-0.2-0.2-0.3-0.5-0.5-0.7c-0.1-0.1-0.2-0.3-0.2-0.5c-1.1-3.4-0.4-6.4,2.8-8.2
			c1.2-0.7,2.6-0.5,4-0.5c0.3-0.2,0.5,0.1,0.7,0.2c0.1,0,0.2,0,0.2,0.1c0.4,0,0.7,0.1,0.9,0.5c0.3,0.2,0.6,0.5,0.9,0.7
			c0.2,0.1,0.4,0.2,0.5,0.5c1.8,2.2,2,4.7,0.9,7.3c-0.1,0.4-0.3,0.8-0.7,1c-0.5,0.4-0.9,0.8-1.4,1.2c-0.3,0.4-0.8,0.5-1.2,0.6
			c-1.4,0.3-2.8,0.4-4.2,0c-0.5-0.1-1-0.4-1.4-0.7c-0.3-0.2-0.5-0.5-0.8-0.7C146.3,235.6,146.1,235.4,145.9,235.2z"/>
		<path class="st7" d="M27.2,234.4c-0.2-0.5-0.3-0.9-0.5-1.4c-0.3-0.4,0.1-0.9-0.2-1.2c0.1-1.6,0.2-3.2,1.4-4.4
			c0.1-0.1,0.2-0.3,0.4-0.4c0.4-0.6,1.1-0.8,1.7-1.2c0.4-0.4,0.9-0.4,1.4-0.4c1.6-0.1,3.2,0.1,4.6,0.9c0.3,0.1,0.6,0.2,0.7,0.5
			c0.1,0.1,0.1,0.1,0.2,0.2c0.4,0.1,0.4,0.4,0.5,0.7c0.1,0.1,0.1,0.2,0.2,0.3c0.3,0.1,0.5,0.3,0.4,0.7c0.2,0.6,0.4,1.2,0.6,1.9
			c0.1,0.5,0.1,1.1,0,1.6c-0.1,0.5-0.2,1-0.3,1.6c-0.1,0.5-0.1,1-0.5,1.4c-0.6,0.8-1.3,1.5-2.2,2c-0.3,0.3-0.8,0-1.1,0.3
			c-1.3,0.4-2.6,0.2-4,0.2c-0.1-0.1-0.1-0.1-0.2-0.2c-0.5-0.1-1-0.3-1.5-0.7c-0.6-0.4-1-0.9-1.4-1.4C27.4,235,27.3,234.7,27.2,234.4
			z"/>
		<path class="st8" d="M218.6,227.9c0.1,0.3,0.2,0.6,0.4,0.7c0.4,0.1,0.4,0.4,0.5,0.7c0.3,0.6,0.5,1.2,1,1.6
			c0.2,0.1,0.4,0.3,0.4,0.6c0.2,0.7,0.6,1.3,1.1,1.8c1,0.3,0.6-0.5,0.7-0.9c0-1.9,0-3.8,0-5.7c0-0.4-0.1-0.8,0.1-1.1
			c0.5,0,0.9,0,1.4,0c0.3,0.9,0.1,1.8,0.1,2.7c0,2.7,0,5.4,0,8.2c0,0.3,0.1,0.6-0.1,0.9c-0.6-0.2-1.4,0.4-1.9-0.5
			c-0.3-0.2-0.3-0.5-0.4-0.7c-0.6-1-1.3-2-1.9-3c-0.4-0.3-0.5-0.7-0.6-1c-0.6-0.6-0.8-1.3-1.2-2c-0.4-0.2-0.7-0.6-1-1.1
			c-0.4,1.5-0.2,2.9-0.2,4.3c-0.1,1.3,0.2,2.7-0.1,4c-0.5,0-0.9,0-1.4,0c-0.3-2-0.1-3.9-0.1-5.9c0-1.9-0.2-3.9,0.1-5.8
			c0.6,0.1,1.3-0.2,1.9,0.2C218,226.3,218.3,227.1,218.6,227.9z"/>
		<path class="st1" d="M250.5,237.2c-0.3,0-0.7,0-1,0c-0.5,0-0.5-0.1-0.5-0.6c0.1-1.3,0-2.5,0-3.8c0.2-0.5,0.2-1,0-1.6
			c0.1-1.5,0.2-2.9,0-4.4c-0.1-1,0.1-1.5,1.3-1.4c1.2,0.1,2.4,0,3.6,0c0.4,0.1,0.9,0,1.2,0.5c0.1,0.2,0.3,0.2,0.4,0.2
			c0.3,0.1,0.4,0.2,0.5,0.5c0.2,0.4,0.4,0.8,0.7,1.2c0.4,1,0.4,1.9-0.2,2.8c-0.4,0.5-0.8,1-1.4,1.4c-0.3,0.3-0.5,0.6-0.5,1
			c0.1,0.3,0.2,0.5,0.5,0.7c0.4,0.3,0.7,0.7,0.8,1.1c0.2,0.5,0.4,0.9,0.8,1.2c0.4,0.1,0.4,0.5,0.5,0.7c-0.6,0.6-1.7,0.5-2.2-0.1
			c-0.5-0.8-1-1.5-1.6-2.3c-0.3-0.5-0.8-0.8-0.9-1.5c-0.5-0.5-1.1-0.5-1.7-0.4c-0.3,1.1,0,2.3-0.1,3.4
			C250.6,236.4,250.8,236.9,250.5,237.2z"/>
		<path class="st1" d="M158.6,225.9c0.1-0.1,0.1-0.3,0.2-0.3c2.4,0,5-0.8,7,1.3c0.3,0.2,0.3,0.6,0.5,0.9l0,0c0.4,0.7,0,1.4,0,2.1
			c-0.5,1-1.2,2-2.4,2.4c0.1,0.9,1,1.3,1.1,2.1c0.3,0.7,0.8,1.3,1.3,1.8c0.2,0.1,0.4,0.3,0.4,0.5c-0.6,0.6-1.7,0.6-2.2-0.1
			c-0.6-0.9-1.2-1.8-1.8-2.7c-0.3-0.2-0.3-0.4-0.4-0.7l0,0c-0.3-0.2-0.4-0.6-0.7-0.7c-1-0.2-1.6,0-1.4,1.2c0.1,1.1,0,2.3,0,3.4
			c-0.4,0.3-0.8,0.2-1.2,0.1c-0.1,0-0.2,0-0.2,0c-0.1-0.1-0.2-0.1-0.2-0.3c0-0.3,0-0.6,0-0.8C158.8,232.7,158.8,229.3,158.6,225.9z"
			/>
		<path class="st9" d="M16.7,123c2.6,3.9,6.3,5.5,11,5.4c18.9-0.1,37.8,0,56.7-0.1c1,0,1.6,0.3,1.9,1.2c1.2,2.8,0.9,5.6-0.5,8.2
			c-0.5,1-1.1,2-1.3,3.1c-0.4,2,0.4,3,2.3,3.4c0.2,0,0.5,0.1,0.7,0.2c0,0.3-0.2,0.6,0,1c-0.4,0.2-0.7,0.1-1.1,0.1
			c-0.6,0-1.1-0.7-1.8,0.1c-0.2,0.3-0.9-0.4-0.8-0.6c0.4-0.8-0.3-1.6,0.1-2.4c0.2-0.4,0.3-0.9,0.1-1.3c-0.6-1.5-0.1-2.8,1.1-3.8
			c0.6-0.6,0.7-1.2,0.7-2c-0.2-1.8-0.1-3.5,0.1-5.3c0.1-0.8-0.6-1.6-1.5-1.6c-5.2,0-10.4,0-15.6,0c-13.2,0-26.5,0-39.7,0
			c-2.3,0-4.7,0.2-7-0.1c-0.3,0-0.7,0.2-1,0.2c-0.6,0-1.3-0.1-1.1-0.9c0.2-0.8-0.3-1-0.9-0.9c-0.8,0.1-1.2,0-0.9-0.9
			c0.2-0.6-0.2-0.8-0.8-1C16.2,124.7,15.9,124.2,16.7,123z"/>
		<path class="st1" d="M230.8,235.8c0.1,0,0.2,0,0.2,0c0.1-0.3,0.4-0.3,0.7-0.4c0.2-0.2,0.3-0.4,0.5-0.7c0.2-0.4,0.1-0.8,0-1.2
			c-0.2-0.2-0.3-0.5-0.5-0.7c-0.3-0.1-0.5-0.3-0.7-0.4c-1-0.4-2-0.8-3.1-1.2c-0.3-0.3-0.7-0.3-0.9-0.7c-0.4-0.4-0.7-0.9-0.7-1.4
			c-0.1-0.4-0.2-0.8,0-1.2c0.2-0.4,0.3-0.8,0.5-1.2c0.3-0.6,0.8-1,1.4-1.1c1.5-0.4,2.9-0.3,4.2,0.5c0.5,0.2,0.8,0.5,0.9,1
			c0.4,0.6,0,0.7-0.5,1c-0.7,0.4-1-0.1-1.3-0.6c-0.7-0.2-1.5-0.5-2.2-0.5c-0.8,0.1-1.3,0.5-1.4,1.3c-0.1,0.7,0.2,1.3,0.9,1.6
			c0.6,0.3,1.1,0.5,1.7,0.7c1.2,0.3,2.1,1,3,1.9c0.2,0.1,0.2,0.3,0.3,0.5c0.1,0.4-0.1,0.9,0.2,1.3c-0.1,0.3,0.1,0.7-0.2,1
			c-0.4,0.6-0.8,1.1-1.2,1.7c-0.3,0.2-0.6,0.3-0.9,0.4c-2,0.7-4.3,0-5.5-1.6c-0.4-0.6-0.6-1.3,0.3-1.7c0.2-0.2,0.4-0.3,0.7-0.2l0,0
			c0.4,0.2,0.3,0.6,0.5,0.9c0,0.3,0.2,0.4,0.4,0.5c0.2,0,0.4,0.2,0.5,0.4c0.2,0.2,0.4,0.3,0.7,0.3C229.9,236,230.3,236,230.8,235.8z
			"/>
		<path class="st9" d="M109.9,130.5c1.8-1.3,3.6-2.1,6-2.1c45.2,0.1,90.4,0,135.7,0.1c2.9,0,5.9,0,8.6-1.4c-0.5,1.4-1.4,1.7-2.8,1.6
			c-1.3-0.1-2.5,0-3.8,0c-46.1,0-92.2,0-138.4,0c-1,0-1.6,0.2-1.6,1.2c0.1,0.8-0.5,0.8-0.9,0.8C111.8,130.6,110.9,130.8,109.9,130.5
			z"/>
		<path class="st1" d="M260.2,227.2c0,1,0,1.9-0.1,2.9c0,0.5,0.2,0.7,0.7,0.6c1,0,2.1,0,3.1,0c0.3-0.2,0.6-0.2,0.9,0l0,0
			c0.2,0.5,0.2,0.9,0,1.4c-1.3,0-2.6,0-3.9,0c-0.6,0-0.9,0.1-0.8,0.8c0.1,0.9,0.1,1.8,0.1,2.8c1.4,0.3,2.9,0,4.3,0.1
			c0.4,0,0.8-0.2,1.1,0.2c0.1,1-0.3,1.4-1.4,1.3c-1.6,0-3.2-0.1-4.8,0.1c-0.4,0.1-1-0.1-0.9-0.9c0.1-2.8,0.1-5.5,0-8.3
			c0-0.7,0.1-1.4,0-2.1c-0.1-0.6,0.7-0.3,1-0.5c0.2-0.2,0.5-0.1,0.7,0c1.3,0,2.7,0.1,4,0c1-0.1,1.5,0.3,1.4,1.3
			c-0.3,0.4-0.8,0.2-1.2,0.2C262.9,227.1,261.5,226.9,260.2,227.2z"/>
		<path class="st7" d="M72.1,233.4c-0.6-1.9-0.4-3.7,0.7-5.5c0.1-0.3,0.3-0.6,0.6-0.8c0.2-0.2,0.4-0.3,0.5-0.5
			c0.2-0.4,0.6-0.5,1-0.6c0.4-0.2,0.8-0.3,1.2-0.5c0.3-0.1,0.6-0.3,0.9-0.2c1.8-0.1,3.5,0.2,4.9,1.4c0.3,0.2,0.4,0.4,0.3,0.7
			c-0.6,0.6-1,0.7-1.8,0.1c-1.7-1.4-4.4-0.9-5.9,0.8c-1.5,1.7-1.5,4.6,0,6.2c1.6,1.8,4.2,2.1,6.1,0.6c0.9-0.7,1.4-0.7,2,0.2
			c0.1,0.1,0.1,0.2,0,0.3c-0.9,1-1.8,1.9-3.3,1.8c-0.9,0-1.9,0-2.8,0c-0.7-0.2-1.5-0.4-2.1-1c-0.2,0-0.4-0.2-0.5-0.4
			c-0.3-0.3-0.6-0.7-1-1C72.4,234.7,72.1,234.1,72.1,233.4z"/>
		<path class="st1" d="M24.4,226.4c0.3,0.4,1,0.7,0.4,1.3c-0.5,0.5-0.9,0.3-1.4-0.1c-1.8-1.4-4.5-1.1-6,0.6
			c-1.6,1.7-1.5,4.7,0.1,6.4c1.6,1.7,4.3,1.9,6.2,0.5c1-0.8,1.2-0.7,1.7,0.5c-0.1,0.1-0.1,0.2-0.2,0.3c-0.2,0.3-0.3,0.6-0.7,0.8
			c-0.3,0.2-0.6,0.5-1,0.4c-2,0.6-3.9,0.8-5.8-0.3c-0.2-0.1-0.4-0.2-0.5-0.4c-0.7-0.3-1.1-0.8-1.4-1.5c-0.2-0.1-0.4-0.3-0.4-0.6
			c-0.4-0.4-0.5-1-0.5-1.6c-0.2-0.8,0.1-1.6-0.3-2.4c-0.1-1,0.2-2,0.9-2.8c0.3-0.3,0.6-0.5,0.8-0.9c0.3-0.4,0.6-0.6,1-0.8
			c0.3-0.1,0.6-0.3,0.8-0.5c0.2-0.1,0.5-0.3,0.7,0c0.2,0,0.4,0,0.5-0.1c0.7-0.6,1.6-0.3,2.4-0.4c0.3,0.1,0.7,0.2,0.9,0.5
			c0.5,0.2,0.9,0.4,1.4,0.5C24.1,226.1,24.3,226.2,24.4,226.4z"/>
		<path class="st10" d="M243.5,229.7c-0.1,0.8-0.8,1.3-1.2,1.9c-0.4,0.9-1.2,0.7-1.9,0.9c-3.1,0-3.1,0-3.1,2.9c0,0.4,0,0.7,0,1.1
			c0.1,0.6-0.2,0.7-0.8,0.7c-0.5,0-0.8,0-0.8-0.6c0-3.5,0-7,0-10.5c0-0.6,0.3-0.6,0.8-0.6c1.4,0,2.7,0,4.1,0c0.6,0.2,1.3,0,1.6,0.8
			c0.6,0.6,1,1.3,1.2,2C243.7,228.8,243.7,229.3,243.5,229.7z"/>
		<path class="st7" d="M70.2,230.9c0.1,0.9-0.2,1.3-1.2,1.2c-1.1-0.1-2.3,0-3.5,0c-0.3,1-0.1,2-0.1,3c0,0.5,0.2,0.6,0.7,0.6
			c1.2,0,2.3,0,3.5,0c1.4,0,1.4,0,1.1,1.5c-2,0-4.1,0-6.1,0.1c-0.3,0.2-0.6,0.2-0.8-0.1c-0.2-0.3-0.2-0.7-0.2-1c0-3.2,0-6.4,0-9.6
			c0-0.4,0-0.7,0.2-1c0.5-0.5,1-0.3,1.5-0.1c1.8,0,3.6,0,5.4,0.1c0.3,1.5,0.3,1.5-1.2,1.5c-1.1,0-2.2,0-3.3,0
			c-0.6,0-0.8,0.2-0.8,0.7c0,1-0.1,1.9,0.1,2.9c1.5,0,3,0,4.5,0C70.1,230.6,70.2,230.7,70.2,230.9z"/>
		<path class="st6" d="M65.2,225.5c-0.5,0-0.9,0-1.4,0c-0.3,0.4-0.1,0.8-0.1,1.1c0,3.3,0,6.6,0,9.9c0,0.2,0,0.5,0.2,0.7
			c0.2,0,0.5,0,0.7,0c-0.7,0.9-2.4,1-3.3,0.2c0.3-0.4,0.1-0.8,0.1-1.2c0-3.3,0-6.5,0-9.8c0-0.3,0.1-0.6-0.1-0.9c-0.5,0-0.9,0-1.4,0
			c0-0.9,0.3-1.4,1.3-1c0.9,0.3,1.8-0.1,2.8,0.1C64.7,224.7,65,224.9,65.2,225.5z"/>
		<path class="st1" d="M137,225.5c1.8,0,3.7,0.1,5.5,0c1.2-0.1,1.5,0.4,1.3,1.4c-1.3,0.3-2.7,0.1-4.1,0.1c-1,0-1.3,0.3-1.2,1.2
			c0,0.5,0,1,0,1.5c0,0.4,0.1,0.8,0.6,0.9c0.2,0,0.4,0,0.6,0c1,0.2,2,0.1,3,0c0.7,0.1,0.7,0.7,0.6,1.2c-0.1,0.6-0.6,0.3-0.9,0.4
			c-1.2,0.1-2.5,0.1-3.7,0.1c-0.2,1.3-0.1,2.7-0.1,4c0,0.3,0.2,0.8-0.3,0.9c-0.3,0-0.6,0-1,0c-0.5-0.1-0.4-0.5-0.4-0.8
			c0-3.4,0.1-6.8,0-10.3C136.8,226,136.8,225.7,137,225.5z"/>
		<path class="st7" d="M83.8,225.5c2.2,0,4.4,0.1,6.6,0c1.1-0.1,1.6,0.3,1.6,1.3c-0.5,0.5-1.1,0.1-1.6,0.2c-0.6,0.1-1.1-0.1-1.7,0.1
			l0,0c-0.2,2.8-0.1,5.7-0.1,8.5c0,0.5,0.1,1.1-0.1,1.6c-0.5-0.3-1,0.5-1.4,0c-0.2-3,0-5.9-0.1-8.9c0-1.3,0-1.3-1.4-1.3
			c-0.2,0-0.5,0-0.7,0C83.5,227,83.5,227,83.8,225.5z"/>
		<path class="st11" d="M121.5,225.6c1.6-0.2,1.6-0.2,1.6,1.3c0,3.2,0,6.3,0,9.5c0,0.9-0.3,1.1-1.2,0.9c-0.6-0.1-0.4-0.4-0.4-0.7
			c0-3.4,0-6.7,0-10.1C121.5,226.2,121.5,225.9,121.5,225.6z"/>
		<path class="st11" d="M212.9,231.4c0,1.6,0,3.3,0,4.9c0,0.6-0.1,0.9-0.8,1c-0.8,0-0.7-0.5-0.7-1c0-3.3,0-6.6,0-9.8
			c0-0.5,0-1,0.8-1c0.7,0,0.8,0.4,0.8,1C212.9,228.1,212.9,229.8,212.9,231.4z"/>
		<path class="st9" d="M163.1,150.5c0,0.5-0.1,1-0.1,1.5c0,17.8,0,35.7,0,53.5c0,1.8-0.2,1.5,1.6,1.5c7.4,0,14.8,0,22.1,0
			c-0.3,0.3-0.7,0.2-1.1,0.2c-7.2,0-14.4,0-21.6,0c-1,0-1.3-0.2-1.3-1.2c0-18.2,0-36.3,0-54.5C162.8,151.2,162.7,150.8,163.1,150.5z
			"/>
		<path class="st9" d="M98.8,140.1c3.5-2.5,6.3-5.8,9.6-8.6c0.4-0.4,1-0.7,1.4-1c0.3,1.4,0,1.8-1.3,2c-0.8,0.2-0.5,0.8-0.4,1.1
			c0.2,0.9-0.3,0.9-0.8,0.6c-0.8-0.3-1.1,0.4-1.1,0.8c0.3,1.4-0.7,1.3-1.4,1.2c-0.9-0.1-0.6,0.3-0.6,0.8h0c-0.3,0.1-0.3,0.4-0.5,0.6
			c-0.5,0.7-1.5,1.2-1.4,2.3c-0.5,0-1.1,0-1.6,0C100,140.1,99.4,140.1,98.8,140.1z"/>
		<path class="st12" d="M57.5,192.7c-0.1,0.1-0.1,0.1,0,0.2c-0.2,0.4,0,1-0.4,1.4c0,0.1-0.1,0.1,0,0.2c-0.1,0.4-0.1,0.9-0.4,1.2l0,0
			c-0.1,0.1-0.2,0.1-0.3,0.1c-1.5-1.3-2.9-2.8-4.4-4.1c-0.3-0.3-0.5-0.5-0.8-0.7c-0.1-0.1-0.2-0.2-0.4-0.4c-0.1-0.5-1.2-0.6-0.4-1.4
			c0.1,0,0.3,0,0.3,0.1c1.2,1.4,2.7,1.1,4.3,1.1c1,0,2-0.3,3,0.3C58.2,191.5,58,192.1,57.5,192.7z"/>
		<path class="st9" d="M69.9,148.6c-2.3-1.3-4.6-2.5-7.2-3c-3.6-0.8-7.3-0.7-10.9,0.2c0.2-0.3,0.3-0.6,0.1-1
			c-0.2-0.4,0.1-0.6,0.4-0.7c0.7-0.2,0,0.3,0.2,0.4c0.1,0.1,0.3,0.1,0.4,0c1-0.7,1.9-0.6,3,0.2c0.5,0.4,1.4,0.1,2.1-0.1
			c-0.5,0-0.9-0.1-1.4-0.1c0.6-0.2,1.3-0.2,1.9-0.1c0.3,0.1,0.7,0.2,1-0.3c0.2-0.3,0.5-0.6,0.7,0.1c0,0.1,0.2,0.2,0.2,0.2
			c1-0.9,2.1,0.5,3.1-0.2c0.6-0.4,1.2,0.3,1.1,0.8c-0.3,1.4,1,1,1.2,0.9c0.5-0.2,0.9-0.1,1.4-0.1c0.7-0.1,1.7-0.2,1.5,1.1
			c0,0.4,0.2,0.8,0.7,0.8C70.3,147.6,69.9,148.2,69.9,148.6z"/>
		<path class="st8" d="M245.8,225.5c0.2,0,0.5,0,0.7,0c0.3,1.9,0.1,3.8,0.1,5.7c0,2,0.2,4-0.1,6c-0.5,0-0.9,0-1.4,0
			c-0.3-1.6-0.1-3.3-0.1-4.9c0-2.1-0.3-4.1,0-6.2C245.1,225.6,245.1,225.2,245.8,225.5z"/>
		<path class="st9" d="M56.4,195.8c0.1,0,0.1,0,0.2-0.1c0.8,0.5,0.6,1.4,0.9,2.1c0.2,0.5-0.3,0.6-0.7,0.4c-0.8-0.4-1.1,0.1-1.1,0.8
			c0,0.8-0.6,1.5-0.1,2.4c0.3,0.4-0.1,0.7-0.6,0.6c-0.7-0.1-1.1,0.1-1.3,0.9c-0.1,0.5-0.3,1.3-1.2,1c-0.3-0.1-0.5,0.2-0.6,0.7
			c-0.2,1.4-1.6,1.7-2.7,0.8c0.8-0.8,1.9-1.4,2.6-2.4c0-0.1,0-0.2,0.1-0.2C53.5,200.6,55,198.3,56.4,195.8z"/>
		<path class="st9" d="M57.5,192.7c0-0.6,0.3-1.2,0.2-1.9c-0.2-0.4-0.1-0.8-0.1-1.3c0-0.5-0.1-1,0.3-1.4c2.3-0.1,4.6-0.5,6.8-1.2
			c-0.1,0.4-0.1,0.7,0.1,1.1c0.2,0.5,0.1,1-0.6,0.9c-0.3,0-0.8,0.2-1-0.2c-0.3-0.6,0.6-0.4,0.6-0.8c-0.3-0.3-0.7-0.2-0.8,0
			c-0.5,1.3-1.5,0.8-2.4,0.8c-1.6,0-2,0.3-1.7,1.9c0.1,0.6-0.4,1.2,0,1.8c0.1,0.1-0.1,0.3-0.3,0.3c-0.6-0.1,0-0.6-0.3-0.7
			C58.1,192.1,58.2,192.9,57.5,192.7z"/>
		<path class="st9" d="M68.7,185.2c2.6-1.6,4.9-3.7,6.8-6.1c0.8,0.4,0.3,1.2,0.4,1.8c0.1,0.6-0.7,0.5-1,0.5
			c-0.9-0.1-0.7,0.4-0.6,0.9c0,0.3,0.1,0.7-0.1,0.9c-0.3,0.2-0.4-0.3-0.7-0.3c-0.7-0.1-1,0.3-1.1,1c-0.1,1.2-0.4,1.5-1.7,1.2
			C70.1,184.9,69.4,185.4,68.7,185.2z"/>
		<path class="st13" d="M24.6,205.8c0.4-0.3,0.7,0.1,1,0.2c4.5,2.5,9.3,3.4,14.4,2.4c2.2-0.4,4.3-1.1,6.3-2c0.2-0.1,0.4-0.2,0.6,0
			c-0.5,0.9-1.4,0.8-2.1,1.2l0,0c-1.1,0.9-2.4,1.1-3.7,1.2c-0.2,0-0.3,0-0.5,0.1c-0.2,0.2-0.5,0.2-0.7,0.2c-0.2,0-0.5,0.1-0.7,0.1
			c-0.5,0.3-1-0.1-1.5,0.2c-0.9,0-1.8,0-2.8,0c-0.8-0.1-1.6,0-2.3-0.3l0,0c-1.9-0.1-3.8-0.4-5.4-1.6l0,0c-0.7-0.2-1.4-0.4-2-0.8
			C24.9,206.5,24.6,206.3,24.6,205.8z"/>
		<path class="st6" d="M15.8,227.7c-0.7,0.7-0.9,1.6-1,2.5c-0.1,0.1,0,0.6-0.4,0.5c-0.5-1.6-0.3-3.1,0.9-4.1
			c0.1-0.1,0.4-0.3,0.4-0.4c0-1.5,0.9-1.6,2.1-1.6c0.9,0,1.1,0.2,1.1,1c-0.2,0.1-0.5,0.2-0.7,0.3c-0.3,0-0.6,0.1-0.7,0.4
			c-0.3,0.3-0.8,0.4-1,0.8C16.1,227.1,15.7,227.2,15.8,227.7z"/>
		<path class="st9" d="M79.4,166.6c0.1-1.5-0.3-2.9-0.3-4.4c0.8,0,0.8,0.6,0.7,1.1c-0.3,2.1,0.2,4.1,0.2,6.2c0,1-0.4,1.9-0.1,3
			c0.3,1.1-0.7,1.4-1.7,1.5C79,171.5,79.5,169.1,79.4,166.6z"/>
		<path class="st9" d="M265.5,29c-0.9-3-2.7-5.3-5.4-7.1c0.6,0,1.3,0.2,1.9,0c0.4-0.1,0.4,0.2,0.5,0.5c0.2,0.8,0.6,0.9,1.1,0.4
			c0,1.4,1.1,2.2,1.8,3.2C266,26.9,265.8,28,265.5,29z"/>
		<path class="st9" d="M23.6,170.2c-1.8,1.4-3.5,3.1-5,4.9c-0.3-0.8-0.4-1.5,0.3-2.2c0.4-0.5,0.8-0.9,1.4-0.4c0.3-0.3,0-0.5,0-0.7
			c-0.3-1.2,0-1.6,1.3-1.6C22.2,170.2,22.9,170.2,23.6,170.2z"/>
		<path class="st9" d="M37.1,159.4c-0.6,2.1-1.1,4.3-1.1,6.5c0.1,0.1,0.1,0.2,0,0.2c-0.9,0.1-1.9,0.2-2.8,0.2c0.7-0.6,1.8-0.8,2.2-2
			c0.2-0.8,0.2-1.7-0.1-2.3c-0.2-0.5-0.2-0.9,0.1-1.2C35.7,160.3,36.3,159.7,37.1,159.4z"/>
		<path class="st14" d="M104.6,231.2c0.1-0.5,0.4-0.9,1-1c0.4-0.1,0.8-0.3,1.1,0.1c0.6,0.5,1,1.2,0.7,2c-0.3,0.7-0.9,0.8-1.6,0.9
			c-0.7,0.1-0.9-0.4-1.2-0.9C104.4,231.9,104.5,231.5,104.6,231.2z"/>
		<path class="st14" d="M194.7,233.2c-1-0.3-1.3-0.9-1.2-1.9c-0.1-0.3,0.1-0.5,0.2-0.7c0.1-0.3,0.4-0.4,0.7-0.5
			c0.4-0.1,0.8-0.2,1.2,0.1c1.2,1,1.2,1.7,0,2.8C195.3,233.1,195.1,233.6,194.7,233.2z"/>
		<path class="st9" d="M31.3,166.7c-2.7,0.8-5.3,1.9-7.6,3.4c-0.1-0.4,0.5-0.7,0.1-1.3c-0.2-0.3,0.4-0.4,0.6-0.4
			c1.2,0.1,1.4-0.6,1.2-1.7c0.7,0.6,1.3,0.8,1.7-0.1c0.1-0.2,0.2-0.3,0.3-0.2C28.9,167.3,30.1,166.2,31.3,166.7z"/>
		<path class="st9" d="M76,154.7c-1.2-1.6-2.5-3.1-4-4.5c0.6,0.5,0.8-0.8,1.4-0.4c0.6,0.3,0.6,1,1,1.4c0,0.1,0.1,0.1,0.2,0.1
			c0.5,0.1,1.3,0.1,1.4,0.6C76.3,152.9,76.4,153.8,76,154.7z"/>
		<path class="st9" d="M15.1,117.6c0.2,1.9,0.7,3.7,1.6,5.4c-0.2,0-0.5-0.1-0.7-0.1c-0.5,0.3-1,0.5-1.5,0.1c0.4-0.5-0.9-1.4,0.3-1.8
			c0.2-0.1-0.1-0.2-0.1-0.3C14.2,119.9,14.4,118.1,15.1,117.6z"/>
		<path class="st9" d="M126,176.8c-0.2,2.1,0,4.1-0.1,6.2c0,0.9,0.6,0.6,1,0.6c5.5,0,10.9,0,16.4,0c1.1,0,2.2-0.2,3.2,0.2
			c-1,0-1.9,0-2.9,0c-5.7,0-11.3,0.1-17,0.1c-0.5,0-0.9,0-1-0.7c0-2.1,0-4.1-0.1-6.2C125.7,176.7,125.9,176.8,126,176.8z"/>
		<path class="st6" d="M79.3,237.5c1.2-0.3,2.3-1,3.3-1.9c0.2-0.1,0.4-0.3,0.7-0.2c0.8,0.3,0.9,1.1,0.3,1.7
			C82.3,238.2,80.8,237.9,79.3,237.5z"/>
		<path class="st9" d="M40.4,153.3c-1.2,2-2.4,4-3.3,6.1c-0.1-1.3-0.2-2.5,0.2-3.7c0.1-0.1,0.1-0.3,0.3-0.4c1-0.2,1.6-0.4,1.4-1.7
			C38.9,153.2,39.9,153.6,40.4,153.3z"/>
		<path class="st9" d="M24.6,205.8c0.8,0.8,1.8,1,2.7,1.6c-0.9,0.2-1.9,0.3-2.9,0.2c-0.3,0-0.7,0-0.6-0.5c0.2-0.7-0.1-1.2-0.8-1.5
			c-0.7-0.3-1.3-0.6-0.9-1.5c0.7,0,1.1,0.4,1.4,0.9C23.8,205.4,24.1,205.7,24.6,205.8z"/>
		<path class="st9" d="M126.9,237.2c0-3.1,0-6.1,0-9.2c0.1,0,0.1-0.1,0.2-0.1c0.5,0.9,1.1,1.8,1.6,2.7c-1.8,0.5-1.7,2-1.6,3.4
			c0.1,1,0.1,2.1,0.1,3.1c0,0-0.1,0.1-0.2,0.1C127,237.3,127,237.3,126.9,237.2z"/>
		<path class="st9" d="M42.4,151.4c-0.8,0.3-1.1,1.3-1.8,1.7c0-0.7,0.1-1.4,0.1-2.2c0-0.9,0.1-0.6,0.8-0.8c0.6-0.2,1.2,0,1.6-0.3
			c0.3-0.2,0.7-0.1,1-0.1C43.7,150.3,42.8,150.5,42.4,151.4z"/>
		<path class="st9" d="M237.2,183.4c0.4,0.3,0.9,0.2,1.4,0.2c6.1,0,12.2,0,18.4,0c0.9,0,1.4,0.2,0.9,1.2c0.1-0.7-0.2-1-1-1
			c-6.3,0-12.6,0-18.8,0C237.6,183.8,237.3,183.8,237.2,183.4z"/>
		<path class="st9" d="M27.2,207.4c1.8,0.7,3.6,1.2,5.4,1.6c-0.6,0.1-1.3,0.3-1.9,0.4c-0.5,0-0.8,0-1.1-0.4
			c-0.1-0.2-0.3-0.5-0.7-0.2c-0.3,0.3,0,0.5,0.3,0.7c-1.2,0.2-2,0.1-1.6-1.4C27.6,208,27.4,207.7,27.2,207.4z"/>
		<path class="st9" d="M92,143.7c1.2-0.6,2.5-1.1,3.7-1.7c0.1,0.7,1.2,0.5,1,1.4c0,0.2,0.2,0.5-0.2,0.4
			C95,143.4,93.5,144.1,92,143.7z"/>
		<path class="st9" d="M16.7,197.4c1,1.6,2,3.2,3.2,4.7c-1.1,0.3-1.6-0.3-1.7-1.2c-0.1-0.5-0.3-0.6-0.7-0.7
			c-0.6-0.1-1.3-0.2-0.8-1.1c-0.3-0.2,0-0.5-0.2-0.6C15.9,198,16.2,197.7,16.7,197.4z"/>
		<path class="st6" d="M59.3,236.8c0.4,0.9,1.2,0.2,1.7,0.5c-0.8,0.6-1.7,1-2.5,0.5c-0.9-0.6-1.2-1.7-1.2-2.8c0-0.3,0.1-0.5,0.2-0.8
			c0.5,0.7,0.9,1.3,1.4,2C59.1,236.3,58.9,236.7,59.3,236.8z"/>
		<path class="st9" d="M51.5,145.8c-1.6,0.7-3.2,1.4-4.8,2.1c0.2-0.4,0.1-0.8-0.3-1.1c-0.3-0.3-0.4-0.9,0.2-0.8
			C48.3,146.2,49.8,145.8,51.5,145.8z"/>
		<path class="st9" d="M260.5,126.8c1.1-0.8,2.1-1.8,3.1-2.8c0.2,0.6,0.9,1.4-0.4,1.7c-0.1,0-0.3,0.2-0.3,0.3c-0.3,1.1-0.2,1-1.6,1
			C261,126.9,260.8,126.9,260.5,126.8z"/>
		<path class="st9" d="M245.8,225.5c-0.7-0.1-0.7,0.3-0.7,0.9c0,3.6,0,7.2,0,10.9c-0.4,0.2-0.4,0-0.3-0.3c0.3-2.2-0.1-4.5,0.1-6.7
			c0-0.4,0.1-0.8-0.4-1c-0.1,0-0.2-0.1-0.2-0.1c0.3-1.3,0.5-2.7,1-3.9C245.7,224.4,245.6,225.5,245.8,225.5z"/>
		<path class="st9" d="M14.8,191.9c0.5,1.5,0.9,3,1.4,4.5c-0.5,0-1.1,0-1.7,0c0.1-1.2,0.6-2.4-0.1-3.6
			C14.3,192.7,14.7,192.3,14.8,191.9z"/>
		<path class="st6" d="M35.7,236.8c0.8-0.6,1.5-1.2,2.1-1.9c0.4-0.1,0.5-0.6,1-0.5c0.6,0.9-0.1,1.3-0.8,1.5c-0.6,0.2-0.8,0.4-1,1
			c-0.3,1-0.8,1.1-1.5,0.5C35.3,237.2,35.6,237,35.7,236.8z"/>
		<path class="st9" d="M72,150.2c-0.7-0.5-1.4-1.1-2.1-1.6c0.9-0.9,0.9-0.9,2.1-0.8c0.6,0,0.6,0.5,0.5,0.9
			C72.4,149.2,72.2,149.7,72,150.2z"/>
		<path class="st9" d="M83.8,225.5c-0.3,1.2,0.2,1.5,1.4,1.4c1.8-0.1,1.9,0,1.8,1.8c0,2.8,0,5.6,0,8.4c-0.4-0.6-0.2-1.2-0.2-1.8
			c0-2.4-0.1-4.7,0-7.1c0-0.9-0.4-1.1-1.1-1.1c-0.3,0-0.5,0-0.8,0c-1.4,0-1.6-0.2-1.3-1.6c0,0,0.1,0,0.1,0
			C83.7,225.5,83.7,225.5,83.8,225.5z"/>
		<path class="st9" d="M179.4,237.2c0-3.7,0-7.4,0.1-11c0-0.9-0.6-0.6-1-0.7c-0.1-0.3-0.2-0.9,0.1-0.7c0.4,0.3,1.2,0.2,1.2,1.1
			c-0.1,3.3,0,6.7-0.1,10c0,0.5,0.3,1,0,1.4C179.6,237.3,179.6,237.3,179.4,237.2C179.5,237.3,179.5,237.3,179.4,237.2z"/>
		<path class="st9" d="M260.1,21.9c-1.6-0.7-3.3-1.3-5.2-1.4c0-0.2,0.1-0.5,0.3-0.4c1.2,0.4,2.5,0,3.8,0.3
			C259.9,20.6,260.1,21.2,260.1,21.9z"/>
		<path class="st9" d="M216.7,237.2c0-3,0-6.1,0-9.3c0.7,0.7,1,1.4,1.4,2.1c-0.4,0.1-0.7,0.1-1.1-0.1c0,2.3,0,4.5,0,6.6
			C217,236.8,217,237.1,216.7,237.2z"/>
		<path class="st9" d="M41.1,208.8c1.2-0.4,2.5-0.8,3.7-1.2c-0.2,0.4-0.5,0.8-0.5,1.3c0,0.3-0.2,0.6-0.6,0.6c-0.4,0-0.6,0-0.4-0.5
			c0.1-0.2-0.2-0.2-0.3-0.1C42.5,209,41.6,209,41.1,208.8z"/>
		<path class="st9" d="M137,225.5c0,3.7-0.1,7.5-0.1,11.2c0,0.2,0,0.5,0.3,0.6c-0.5-0.2-0.6-0.3-0.6-1c0.2-3,0-6,0.1-9
			C136.8,226.7,136.1,226,137,225.5z"/>
		<path class="st9" d="M61.2,225.5c0.4-0.2,0.3,0.1,0.3,0.3c-0.1,3.7-0.2,7.4,0.1,11c0,0.3-0.1,0.5-0.4,0.6c0-0.1,0-0.2,0-0.2
			C61.2,233.3,61.2,229.4,61.2,225.5z"/>
		<path class="st9" d="M79,161.7c-0.3-0.9-0.6-1.9-0.9-2.8c0.5,0.1,1.2-0.2,1.4,0.5c0.2,0.8,0.3,1.6-0.1,2.3
			C79.4,161.8,79.1,161.8,79,161.7z"/>
		<path class="st9" d="M18.1,175.8c-0.6,1.1-1.2,2.2-1.8,3.3c0-0.7,0-1.3,0-2C16,175.6,17.1,175.9,18.1,175.8z"/>
		<path class="st9" d="M224.2,237.2c0.1-3.9,0.1-7.8,0-11.7c0.4,0.3,0.2,0.8,0.2,1.2c0,2.3-0.1,4.7,0,7
			C224.5,234.9,224.7,236.1,224.2,237.2z"/>
		<path class="st9" d="M246.5,237.2c0.1-3.9,0.1-7.8,0-11.7c0.3,0.2,0.2,0.5,0.2,0.7c0,3.6,0.1,7.2,0.1,10.7
			C246.8,237.2,246.7,237.2,246.5,237.2z"/>
		<path class="st9" d="M215.3,225.5c-0.1,3.9-0.1,7.8,0,11.7c-0.4,0.1-0.2-0.2-0.2-0.4c0-3.5,0-7.1,0-10.6
			C215.1,226,215.1,225.7,215.3,225.5z"/>
		<path class="st9" d="M125.5,225.5c-0.1,3.9-0.1,7.8,0,11.7c-0.3-0.2-0.3-0.5-0.3-0.7c0.2-3.5,0-7,0.1-10.5
			C125.3,225.9,125.4,225.7,125.5,225.5z"/>
		<path class="st9" d="M95.7,142c1-0.6,2-1.2,3.1-1.9c0,0.5,0.1,1.4-0.1,1.4C97.6,141.5,96.8,142.6,95.7,142z"/>
		<path class="st9" d="M15.8,180.3c-0.4,1.6-0.8,3.1-1.2,4.7c-0.2-1.3,0.4-2.6,0-3.9C14.4,180.5,15.1,180.1,15.8,180.3z"/>
		<path class="st9" d="M65.5,230.6c-0.4-1.1-0.1-2.2-0.2-3.3c0-0.4,0.4-0.4,0.7-0.4c1.1,0,2.2-0.1,3.2,0c1.2,0.1,1.6-0.3,1.4-1.4
			c0.1-0.1,0.2-0.2,0.2-0.3c0,1.9,0,1.9-1.9,1.9c-0.7,0-1.5,0.1-2.2,0c-1.2-0.1-1.3,0.6-1.3,1.5C65.5,229.3,65.5,230,65.5,230.6z"/>
		<path class="st9" d="M70.6,237.2c0.3-1.2-0.2-1.6-1.4-1.4c-1,0.1-2,0-3,0c-0.8,0-1.1-0.3-0.9-1c0.1-0.9-0.3-1.8,0.2-2.7
			c0,0.4,0,0.9,0,1.3c0,2.2,0,2.2,2.2,2.2c0.7,0,1.4,0,2.1,0c0.4,0,0.9-0.2,1,0.3c0.1,0.5,0.6,1.1-0.1,1.6
			C70.6,237.4,70.6,237.3,70.6,237.2z"/>
		<path class="st9" d="M88.4,237.2c0-3,0-5.9,0.1-8.9c0-0.4-0.1-0.9,0.1-1.2c0,2.4,0,4.7,0,7.1c0,0.9,0,1.7,0.3,2.6
			C89.1,237.2,88.7,237.2,88.4,237.2z"/>
		<path class="st9" d="M44.8,207.7c0.7-0.4,1.4-0.8,2.1-1.2c0.4-0.2,0.8-0.4,1.2-0.6c0,0.1-0.1,0.3-0.1,0.4c0,1.5,0,1.6-1.6,1.1
			C45.8,207.2,45.4,207.9,44.8,207.7z"/>
		<path class="st9" d="M222.9,225.5c0,2.9,0,5.8,0,8.7c-0.1,0-0.1,0.1-0.2,0.1c-0.2-0.3-0.4-0.7-0.6-1c0.5-0.2,0.5-0.7,0.5-1.1
			c0-2,0-4,0-6C222.6,225.9,222.6,225.7,222.9,225.5z"/>
		<path class="st9" d="M139.1,230.7c-0.3,0.2-0.5,0.2-0.7-0.1c-0.1-0.1,0-0.3,0-0.5c-0.2-3.1-0.2-3.1,2.9-3.1c0.8,0,1.6,0,2.5,0
			c-0.9,0.5-2,0.1-3,0.2c-0.7,0.1-1.8-0.2-2,0.3C138.5,228.5,138.3,229.7,139.1,230.7z"/>
		<path class="st9" d="M220,193.2c-0.7-0.6-1.2-1.3-1.6-2.1c0.4-0.1,0.6,0.4,1,0.4c0.4,0,1.1-0.4,1.1,0.1
			C220.5,192.1,220.8,192.9,220,193.2z"/>
		<path class="st9" d="M263.6,123.9c0.5-1,1.1-2.1,1.6-3.1c0.1,0.7,0.9,1.6,0.1,2.1C264.8,123.3,264.4,124,263.6,123.9z"/>
		<path class="st9" d="M158.6,225.9c0.2,3.4,0.2,6.8,0,10.2C158.6,232.7,158.6,229.3,158.6,225.9z"/>
		<path class="st9" d="M78.1,158.9c-0.6-1.2-1.2-2.3-1.7-3.5C78.5,155.8,78.1,157.5,78.1,158.9z"/>
		<path class="st9" d="M59.8,225.5c0,2.8,0,5.5,0,8.3c0,0.1,0.2,0.5-0.2,0.4c-0.1,0-0.1-0.2-0.2-0.3c0.4-1,0.1-2.1,0.2-3.2
			c0-1.6,0-3.2-0.1-4.9C59.5,225.6,59.6,225.6,59.8,225.5z"/>
		<path class="st9" d="M177.5,229.3c0.1-0.2,0.2-0.4,0.3-0.6c0.1,0,0.1,0,0.2,0c0,2.8,0,5.7,0,8.5c-0.4-0.3-0.3-0.7-0.3-1.1
			c0-2,0-4.1,0.1-6.1C177.8,229.7,177.8,229.4,177.5,229.3z"/>
		<path class="st6" d="M23.5,237c0.3-0.2,0.5-0.6,0.9-0.5c0.3,0,0.4-0.3,0.7-0.2c0.2,0.4,0.7,0.7,0.4,1.1c-0.4,0.6-1,0-1.5,0.2
			C23.7,237.7,23.4,237.5,23.5,237z"/>
		<path class="st9" d="M46.7,147.9c-0.8,0.5-1.5,1-2.3,1.5c0-0.1,0-0.2,0-0.2C44.6,147.6,45,147.4,46.7,147.9z"/>
		<path class="st6" d="M21.8,225.3c-0.9,0-1.7,0.1-2.6,0.1c0.5-1,2.1-1.3,3-0.6C22.3,225.1,22.1,225.2,21.8,225.3z"/>
		<path class="st9" d="M76,178.4c0.5-0.8,0.9-1.6,1.4-2.4c0.9,1.1,0.8,1-0.5,1.7C76.5,177.8,76.4,178.3,76,178.4z"/>
		<path class="st9" d="M229.3,226.9c0.9-0.4,1.6-0.1,2.2,0.5c-0.4,0-0.6,0.5-0.8,0.5C230.1,227.9,229.4,227.8,229.3,226.9z"/>
		<path class="st9" d="M199.3,199.9c0.4-0.6,0.8-1.3,1.2-1.9c0.1,0.2,0.1,0.4,0.2,0.5c0.5,0.8,0.2,1.2-0.7,1.3
			C199.8,199.9,199.6,199.9,199.3,199.9z"/>
		<path class="st9" d="M19.9,202.1c0.4,0.4,0.8,0.7,1.2,1.1c0.4,0.1,0.8,0.2,0.6,0.8c-0.6,0.1-1.1-0.5-1.8,0
			C20.1,203.2,20,202.7,19.9,202.1z"/>
		<path class="st9" d="M138.2,237.3c0.5-0.7,0.1-1.6,0.2-2.4c0.1-0.9-0.3-1.8,0.2-2.6c0,1.6,0.1,3.2,0.1,4.8
			C138.7,237.8,138.5,237.7,138.2,237.3z"/>
		<path class="st9" d="M138.3,197.8c-0.5,0.5-1.2,0.8-1.8,1.1c0-0.1,0-0.1,0-0.2C136.7,197.5,137.3,197.2,138.3,197.8z"/>
		<path class="st9" d="M228.2,225.5c-0.5,0.4-0.9,0.7-1.4,1.1C226.6,225.1,226.8,225,228.2,225.5z"/>
		<path class="st9" d="M218.6,227.9c-0.4-0.7-0.9-1.4-1.3-2.1c0.3-0.2,0.6-0.7,0.8,0C218.2,226.5,218.9,227,218.6,227.9z"/>
		<path class="st9" d="M260.2,227.2c1-0.4,2-0.1,2.9-0.2c0.8-0.1,1.6,0.1,2.4-0.1c-0.2,0.5-0.6,0.4-1,0.4
			C263.1,227.2,261.6,227.2,260.2,227.2z"/>
		<path class="st9" d="M256.3,230.7c0.4-0.9,0.4-1.8,0.2-2.8c0.4,0.2,0.8,0.3,0.5,0.9c-0.2,0.3-0.2,0.8-0.1,1.1
			C257.8,231,256.7,230.5,256.3,230.7z"/>
		<path class="st9" d="M265.5,235.9c-1.4-0.3-2.8,0-4.2-0.2c-0.4,0-0.8,0.2-1.2-0.2c1.4,0,2.9,0,4.3,0
			C264.8,235.6,265.3,235.5,265.5,235.9z"/>
		<path class="st9" d="M224.5,197.4c-0.5-0.4-1.1-0.7-1.4-1.2c0.3,0,0.6-0.7,0.9-0.3C224.2,196.3,224.8,196.7,224.5,197.4z"/>
		<path class="st9" d="M240.4,232.5c0.6-0.3,1.3-0.6,1.9-0.9C242.3,233.3,241.3,232.8,240.4,232.5z"/>
		<path class="st9" d="M252.6,153.4c-0.5-0.3-0.9-0.5-1.4-0.8c0.2-0.9,0.7-0.7,1.1-0.2C252.6,152.7,252.5,153.1,252.6,153.4z"/>
		<path class="st15" d="M21.8,203.9c-0.2-0.3-0.4-0.5-0.6-0.8c0.7,0.1,2.1,1.2,2.3,1.9c-0.5-0.3-0.9-0.6-1.4-0.9
			C22,204.1,21.9,204,21.8,203.9z"/>
		<path class="st9" d="M209.2,168.5c-0.2,0.6-0.4,1.3-0.6,1.9C207.9,169.3,207.9,169.3,209.2,168.5z"/>
		<path class="st9" d="M141.2,204.6c0.4-0.4,0.9-0.7,1.5-0.9c0.3,0.4,0.1,0.7-0.2,1C141.9,205.2,141.6,204.9,141.2,204.6z"/>
		<path class="st9" d="M242.3,226.3c-0.5-0.3-1.1-0.5-1.6-0.8c0.6-0.1,1.2-0.2,1.8-0.3C242.7,225.6,242.2,225.9,242.3,226.3z"/>
		<path class="st9" d="M250.5,237.2c0-1.2,0-2.5,0.1-3.7c0-0.3-0.2-0.7,0.2-0.9c0,1.2,0,2.4,0,3.6
			C250.7,236.5,250.9,237,250.5,237.2z"/>
		<path class="st9" d="M102.8,159.9c-0.2,0.4-0.4,0.7-0.7,0.9c0.2-0.5-1-0.2-0.6-0.9c0.2-0.3,0.4-0.5,0.7-0.1
			C102.3,159.9,102.7,159.6,102.8,159.9z"/>
		<path class="st9" d="M14.6,187.8c0,0.7,0,1.4-0.1,2.1c-0.3-1.5-0.3-3,0-4.4C14.6,186.2,14.6,187,14.6,187.8z"/>
		<path class="st9" d="M165.1,234.5c-0.4-0.5-0.8-1.1-1.2-1.6c-0.1-0.2-0.3-0.4,0.1-0.5C164.3,233,165.4,233.4,165.1,234.5z"/>
		<path class="st9" d="M265.3,183.3c0-1.3,0-2.6,0-4C265.7,180.6,265.7,182,265.3,183.3z"/>
		<path class="st9" d="M256.3,159.6c0.2-0.2,0.5-0.5,0.7-0.7c0.1,0.1,0.1,0.2,0.2,0.3c0.2,0.3,0.6,0.6,0.3,0.9
			c-0.3,0.4-0.6-0.1-0.9-0.3C256.5,159.7,256.4,159.7,256.3,159.6z"/>
		<path class="st9" d="M139.8,205.4c0.4-0.2,0.8-0.4,1.2-0.7c0,0.3,0.6,0.4,0.2,0.8C140.7,205.8,140.2,205.8,139.8,205.4z"/>
		<path class="st9" d="M202,193.1c0-1.3,0-2.6,0-4C202.3,190.5,202.4,191.8,202,193.1z"/>
		<path class="st9" d="M65.2,186.8c0.5-0.2,1.1-0.5,1.6-0.7C66.9,187.7,65.8,186.6,65.2,186.8z"/>
		<path class="st9" d="M105.1,200.2c0.6,0.2,1,0.7,1.3,1.1C105.6,201.4,104.8,201.5,105.1,200.2z"/>
		<path class="st9" d="M140.3,161.7c0.4,0.2,0.7,0.5,0.9,0.9c-0.3,0.1-0.7,0.6-0.9,0.2C140.1,162.6,139.7,162.1,140.3,161.7z"/>
		<path class="st9" d="M217,169.2c0.2-0.8,0.6-1.5,1.1-2.2C218.4,168.1,217.6,168.6,217,169.2z"/>
		<path class="st9" d="M46.9,232.3c-0.3-0.5-0.6-0.9-0.9-1.4C47.1,231.3,47.4,231.8,46.9,232.3z"/>
		<path class="st9" d="M225.9,206.3c0.6,0.2,1.1,0.4,1.7,0.6C226.9,207.1,226,207.8,225.9,206.3z"/>
		<path class="st9" d="M67.5,185.9c0.4-0.3,0.8-0.5,1.2-0.7C68.7,186.5,68.6,186.5,67.5,185.9z"/>
		<path class="st9" d="M131.1,234.5c0.4,0.3,0.6,0.7,0.7,1.1c-0.3-0.2-0.4,0.6-0.7,0.1C130.8,235.3,130.7,234.9,131.1,234.5z"/>
		<path class="st9" d="M48.1,232.7c0,0.1,0.1,0.2,0.1,0.3c0,0.4,0,0.8,0,1.2c-0.5-0.2-0.6-0.6-0.8-1C47.8,233.2,48,233,48.1,232.7z"
			/>
		<path class="st9" d="M108,165.3c0.1-0.3,0.3-0.6,0.6-0.8c0,0.6,0.9,0.1,0.7,0.6C109.1,165.8,108.4,165.3,108,165.3z"/>
		<path class="st9" d="M256.9,155.4c0.5-0.1,0.9-0.5,1.3,0c0.1,0.2,0,0.4-0.2,0.5C257.5,156.1,257.2,155.9,256.9,155.4z"/>
		<path class="st9" d="M53.8,229.3c0-0.4-0.1-0.8,0.1-1.3c0.4,0.7,0.8,1.1,1,1.8C54.4,229.9,54.3,228.9,53.8,229.3z"/>
		<path class="st9" d="M113.1,205.6c0.4,0.2,0.9,0.2,1.2,0.6C113.5,206.8,113,206.8,113.1,205.6z"/>
		<path class="st9" d="M255.9,155.8c-0.3-0.3-0.7-0.6-1-0.9C256.1,154.6,256.1,154.6,255.9,155.8z"/>
		<path class="st9" d="M108.7,154.5c-0.4,0.4-0.7,0.7-1.3,0.9C107.4,154.4,107.8,154.1,108.7,154.5z"/>
		<path class="st9" d="M227.3,233.8c-0.2,0.1-0.5,0.1-0.7,0.2c-0.3-0.9,0.6-0.8,0.9-1.2C227.7,233.2,227.3,233.5,227.3,233.8z"/>
		<path class="st9" d="M239,149.3c-1.2,0-2.3,0-3.5,0C236.7,148.9,237.8,148.9,239,149.3z"/>
		<path class="st9" d="M88.7,227.2c1-0.5,2.2,0.1,3.3-0.3c-0.1,0.3-0.2,0.5-0.5,0.4C90.5,227.2,89.6,227.2,88.7,227.2z"/>
		<path class="st9" d="M127.6,149.3c-1.2,0-2.3,0-3.5,0C125.3,148.9,126.4,148.9,127.6,149.3z"/>
		<path class="st9" d="M143.5,192.9c-0.1,0.5-0.5,0.9-0.9,1.2C142.3,193.2,142.5,192.8,143.5,192.9z"/>
		<path class="st9" d="M130.2,149.5c-0.6,0.1-1.1-0.1-1.6-0.2c0.1-0.4,0.2-0.8,0.7-0.4C129.5,149.1,129.9,149.3,130.2,149.5z"/>
		<path class="st9" d="M166.3,230c0-0.7,0-1.4,0-2.1C167.6,228.5,166.3,229.3,166.3,230z"/>
		<path class="st9" d="M142.7,230.7c-1,0.2-2,0.2-3,0C140.7,230.8,141.7,230.4,142.7,230.7z"/>
		<path class="st9" d="M198.4,172.5c0.2-0.2,0.3-0.5,0.5-0.7c0.3,0.2,0.5,0.4,0.9,0.6C199.3,172.6,198.9,172.9,198.4,172.5z"/>
		<path class="st9" d="M223.2,161.2c0.2-0.3,0.5-0.5,0.8-0.6c0.1,0.3,0.6,0.5,0.3,0.9C223.9,161.9,223.6,161.3,223.2,161.2z"/>
		<path class="st9" d="M96.4,183.1c0.2,0.3,0.2,0.6,0.2,1c-0.2,0-0.4,0.6-0.6,0.2C95.7,183.7,96.1,183.4,96.4,183.1z"/>
		<path class="st9" d="M103.9,180.3c-0.2-1.1-0.2-2.1,0-3.2C103.9,178.2,103.9,179.3,103.9,180.3z"/>
		<path class="st9" d="M89.8,144.3c0.4-0.1,0.8-0.3,1.3-0.4C91.1,144.7,90.9,144.8,89.8,144.3z"/>
		<path class="st9" d="M200.1,167.3c0-1,0-2,0-3C200.4,165.3,200.4,166.3,200.1,167.3z"/>
		<path class="st9" d="M153.9,226c-0.3-0.2-0.6-0.3-0.9-0.5c0.1-0.3,0.3-0.6,0.7-0.4C153.9,225.4,154.1,225.6,153.9,226z"/>
		<path class="st9" d="M152.9,237.2c0.4-0.2,0.8-0.4,1.2-0.6C154.3,238,153.5,237.5,152.9,237.2z"/>
		<path class="st9" d="M196.5,203c0.4-0.4,0.8-0.8,1.2-1.2C197.9,202.9,197.2,202.9,196.5,203z"/>
		<path class="st9" d="M129.3,231.5c0.3,0.3,0.5,0.6,0.6,1c-0.4,0.2-0.7,0.1-0.9-0.2C128.7,232,129.3,231.8,129.3,231.5z"/>
		<path class="st9" d="M169.8,229.7c-0.1-0.3-0.2-0.7-0.1-1.1c0.4,0.3,0.6,0.7,0.8,1.1C170.3,229.9,170,229.8,169.8,229.7z"/>
		<path class="st9" d="M32.6,209.1c0.8,0.1,1.6,0,2.3,0.3C34.2,209.6,33.4,209.4,32.6,209.1z"/>
		<path class="st9" d="M14.3,230.7c0.1-0.2,0.3-0.3,0.4-0.5c0,0.9,0,1.7,0,2.6C14.3,232.2,14.8,231.3,14.3,230.7z"/>
		<path class="st9" d="M201.2,185.9c-0.2-0.4-0.4-0.8-0.6-1.2C200.8,185.1,202.3,184.9,201.2,185.9z"/>
		<path class="st9" d="M88,144.6c0.5-0.2,1.1-0.2,1.7-0.2c-0.1,0.2-0.2,0.3-0.2,0.5C88.9,144.8,88.4,145,88,144.6z"/>
		<path class="st6" d="M40.8,237.3c0.4,0,0.8,0,1.2,0C41.6,238,41.2,238.3,40.8,237.3z"/>
		<path class="st9" d="M134.6,225.8c-0.3-0.4-0.8-0.1-1.1-0.3c0.5-0.6,1.1-0.2,1.9-0.1C135,225.6,134.8,225.7,134.6,225.8z"/>
		<path class="st9" d="M101.8,161c-0.1,0.5-0.4,0.8-0.7,1.1C100.5,161.2,101.4,161.2,101.8,161z"/>
		<path class="st9" d="M155.5,235.4c0.2-0.3,0.5-0.6,0.7-1c0.1,0.3,0.5,0.6,0.2,0.9C156.2,235.7,155.8,235.4,155.5,235.4z"/>
		<path class="st9" d="M105,157.5c-0.1,0.3-0.3,0.5-0.7,0.7c-0.1-0.2-0.5-0.4-0.3-0.6C104.3,157.3,104.7,157.3,105,157.5z"/>
		<path class="st9" d="M147.3,236.6c0.5,0.1,1,0.4,1.4,0.7C147.9,237.8,147.7,237,147.3,236.6z"/>
		<path class="st9" d="M221.9,204.4c0.5,0,0.9,0.3,1.3,0.6C222.5,205.4,222.1,205.2,221.9,204.4z"/>
		<path class="st9" d="M254.4,233.1c-0.9-0.9,0.2-0.8,0.5-1C254.8,232.4,255,232.9,254.4,233.1z"/>
		<path class="st9" d="M236.4,201.3c-0.6,0-1.3,0.1-1.9-0.2C235.2,200.9,235.8,200.9,236.4,201.3z"/>
		<path class="st9" d="M252.4,233c0.4,0.4,0.8,0.9,0.9,1.5C252.9,234,252.1,233.9,252.4,233z"/>
		<path class="st9" d="M214.8,159.1c-0.3,0.5-0.7,0.9-1.1,1.3C213.9,159.8,213.9,159.1,214.8,159.1z"/>
		<path class="st9" d="M233.4,227c-0.3-0.3-0.6-0.6-0.9-1C233.3,225.8,233.5,226.2,233.4,227z"/>
		<path class="st9" d="M175.5,232.8c0.1-0.4,0.3-0.8,0.6-1C176.1,232.2,176.8,233.1,175.5,232.8z"/>
		<path class="st9" d="M56.6,195.7c0.1-0.4,0.2-0.8,0.4-1.2C57.2,195.1,57.8,195.8,56.6,195.7z"/>
		<path class="st9" d="M90.7,145.1c0.1,0.1,0.6-0.2,0.3,0.3c-0.1,0.1,0.3,0.4-0.1,0.4c-0.3,0-0.5-0.1-0.6-0.4
			C90.2,145.1,90.5,145.1,90.7,145.1z"/>
		<path class="st9" d="M255,226c-0.4-0.2-0.8-0.3-1.2-0.5C255.1,225.3,255.1,225.3,255,226z"/>
		<path class="st9" d="M153.9,184.5c0-0.7-0.1-1.3,0.2-1.9C153.8,183.2,154.7,183.9,153.9,184.5z"/>
		<path class="st9" d="M173.1,234.4c0.4,0.4,0.9,0.4,1.4,0.2c-0.3,0.6-0.8,0.4-1.2,0.4C172.7,235.1,173.1,234.6,173.1,234.4z"/>
		<path class="st9" d="M45.4,235.1c-0.1,0.3-0.3,0.3-0.5,0.3c-0.2,0-0.3-0.2-0.2-0.3c0.1-0.2,0.1-0.4,0.4-0.4
			C45.3,234.8,45.4,234.9,45.4,235.1z"/>
		<path class="st9" d="M219.9,164.5c0.3-0.5,0.6-0.9,1.1-1.1C221,164.1,220.4,164.3,219.9,164.5z"/>
		<path class="st9" d="M77.4,176c0.1-0.4,0.2-0.8,0.5-1.1C78.1,175.4,78.2,175.9,77.4,176z"/>
		<path class="st9" d="M171.2,227.9c-0.3-0.3-0.5-0.6-0.6-1C171.5,226.8,171.3,227.4,171.2,227.9z"/>
		<path class="st9" d="M245.8,150.4c-0.5-0.1-1-0.2-1.4-0.4C244.9,149.9,245.6,149.5,245.8,150.4z"/>
		<path class="st9" d="M221.4,162.9c0.3-0.3,0.7-0.6,1-0.9C222.7,162.5,222.6,162.6,221.4,162.9z"/>
		<path class="st9" d="M138.4,206c0.4-0.3,0.9-0.5,1.4-0.7C139.5,205.9,139.1,206.3,138.4,206z"/>
		<path class="st9" d="M219.4,232c0.3,0.3,0.6,0.6,0.6,1c-0.2,0-0.3,0.6-0.4,0.1C219.4,232.8,219.1,232.4,219.4,232z"/>
		<path class="st6" d="M48.3,237.3c0.4-0.1,0.7,0,0.9,0.2c-0.1,0.2-0.3,0.4-0.6,0.4C48.3,237.9,48.4,237.5,48.3,237.3z"/>
		<path class="st9" d="M122.5,156.6c0.4-0.2,0.9-0.2,1.4-0.2C123.4,156.7,123,157.3,122.5,156.6z"/>
		<path class="st9" d="M101.1,195.5c0.3,0.1,0.4,0.4,0.5,0.6c-0.2,0-0.2,0.6-0.6,0.2C100.8,196,100.7,195.8,101.1,195.5z"/>
		<path class="st9" d="M103.8,199.6c-0.4,0.3-0.8,0.3-1.1,0.1c0,0,0-0.3,0-0.3C103.1,199.3,103.4,199.3,103.8,199.6z"/>
		<path class="st9" d="M82.2,227.4c0.1-0.3-0.2-0.5-0.3-0.7c0.3,0.1,0.6-0.3,0.8,0.1C82.9,227.2,82.4,227.2,82.2,227.4z"/>
		<path class="st9" d="M104.6,185.2c-0.3-0.3-0.2-0.8-0.3-1.2C105.1,184.2,105.1,184.6,104.6,185.2z"/>
		<path class="st9" d="M38.7,234.4c-0.3,0.1-0.5,0.5-1,0.5c0.2-0.4,0.5-0.8,0.7-1.3C38.5,233.9,38.6,234.2,38.7,234.4z"/>
		<path class="st9" d="M236.8,176.7c-0.3,0-0.4-0.2-0.4-0.4c0-0.2,0-0.4,0.2-0.3c0.2,0.1,0.5,0.2,0.5,0.4
			C237.1,176.5,236.9,176.6,236.8,176.7z"/>
		<path class="st9" d="M37.7,209.3c0.5-0.2,1-0.2,1.5-0.2c0.1,0.2,0.1,0.5-0.2,0.4C38.6,209.4,38.2,209.3,37.7,209.3z"/>
		<path class="st9" d="M197.8,155.6c0.2,0,0.2,0.2,0.3,0.4c0,0.2,0,0.4-0.3,0.4c-0.2,0-0.4-0.2-0.6-0.4
			C197.4,155.9,197.6,155.8,197.8,155.6z"/>
		<path class="st9" d="M46.5,234.7c0.4,0.3,0.6,0.7,0.7,1.1C46.5,235.7,46.3,235.4,46.5,234.7z"/>
		<path class="st9" d="M139.8,152.6c-0.2-0.1-0.5-0.2-0.7-0.4c0.1-0.2,0.2-0.7,0.4-0.5C139.8,151.8,139.8,152.2,139.8,152.6z"/>
		<path class="st9" d="M256.6,189.6c0,0.4-0.2,0.7-0.4,1C255.5,189.9,256,189.8,256.6,189.6z"/>
		<path class="st9" d="M142.2,153.9c-0.3-0.2-0.6-0.4-1-0.6C141.6,152.9,141.8,153,142.2,153.9z"/>
		<path class="st9" d="M195.1,154.7c-0.2-0.2-0.4-0.3-0.5-0.5c0.3-0.3,0.7-0.2,1-0.3C195.7,154.4,195.2,154.5,195.1,154.7z"/>
		<path class="st9" d="M265.5,24.9c-0.5,0-0.7-0.2-0.7-0.5c0,0,0.1-0.2,0.1-0.2C265.2,24.2,265.4,24.5,265.5,24.9z"/>
		<path class="st9" d="M231,232.4c0.3,0,0.6,0.1,0.7,0.4c-0.1,0.2-0.3,0.3-0.4,0.5C230.6,233.1,231.2,232.6,231,232.4z"/>
		<path class="st9" d="M111.2,204.7c0.2,0.1,0.5,0.3,0.7,0.4c-0.1,0.2-0.2,0.5-0.5,0.3C111.1,205.3,111,205,111.2,204.7z"/>
		<path class="st9" d="M219.1,202.5c0.3,0.1,0.6,0.2,0.6,0.5c-0.2,0-0.4,0.5-0.7,0.3C218.8,203.1,219.1,202.8,219.1,202.5z"/>
		<path class="st9" d="M248.5,198.6c-0.4,0.3-0.9,0.7-1.5,0.7C247.4,198.8,247.7,198.3,248.5,198.6z"/>
		<path class="st9" d="M135.8,158.5c0.5,0,0.9,0.3,1.2,0.6C136.3,159.5,136.2,158.8,135.8,158.5z"/>
		<path class="st9" d="M112.8,160.5c0.3-0.2,0.7-0.5,1-0.7C113.8,160.5,113.5,160.8,112.8,160.5z"/>
		<path class="st9" d="M88.8,145.2c0.3-0.1,0.5-0.4,0.8-0.3c0.1,0,0.2,0.2,0.1,0.3C89.5,145.4,89.3,145.5,88.8,145.2z"/>
		<path class="st9" d="M21.8,225.3c0.2-0.2,0.3-0.3,0.5-0.5c0.1,0,0.2,0,0.2,0c0.1,0.2,0.2,0.4,0,0.7
			C22.3,225.4,22.1,225.3,21.8,225.3z"/>
		<path class="st9" d="M256.3,162.3c-0.1,0.1-0.2,0.3-0.3,0.3c-0.3,0-0.4-0.2-0.5-0.4c0-0.1,0.1-0.2,0.2-0.2
			C256,161.8,256.1,162.1,256.3,162.3z"/>
		<path class="st9" d="M211.1,193.4c0.3,0.1,0.4,0.4,0.5,0.7c-0.3,0.2-0.6,0.2-0.7-0.1C210.7,193.8,211,193.6,211.1,193.4z"/>
		<path class="st9" d="M254.7,193.2c-0.1,0.4-0.3,0.7-0.7,0.9C253.7,193.4,254.3,193.3,254.7,193.2z"/>
		<path class="st9" d="M57.1,194.3c0.1-0.5,0.2-1,0.4-1.4C57.3,193.4,57.9,194,57.1,194.3z"/>
		<path class="st9" d="M254.5,161.5c0.2-0.3,0.4-0.6,0.7-0.7C255.4,161.5,255.1,161.7,254.5,161.5z"/>
		<path class="st9" d="M124.8,201.3c-0.5,0-1,0.1-1.5-0.2C123.8,201.3,124.4,200.6,124.8,201.3z"/>
		<path class="st9" d="M38.2,228.6c-0.1-0.2-0.3-0.5-0.4-0.7c0.2-0.1,0.4-0.2,0.6,0C38.5,228.2,38.5,228.4,38.2,228.6z"/>
		<path class="st9" d="M215.3,181.4c-0.2-0.5-0.2-1.1-0.1-1.7C215.4,180.3,215.4,180.9,215.3,181.4z"/>
		<path class="st9" d="M139.2,162c-0.4,0-0.7,0.2-0.9-0.2c0-0.1,0.1-0.4,0.1-0.4C138.8,161.4,138.9,161.7,139.2,162z"/>
		<path class="st9" d="M259.9,198.3c0.2-0.3,0.4-0.7,0.7-0.9C260.8,198.1,260.4,198.3,259.9,198.3z"/>
		<path class="st9" d="M113.1,197.3c-0.3-0.1-0.6-0.3-0.8-0.6C112.9,196.5,113.2,196.6,113.1,197.3z"/>
		<path class="st9" d="M44.8,232.1c0.3,0.1,0.4,0.4,0.4,0.7c-0.2,0-0.5,0.3-0.7,0C44.3,232.5,44.8,232.4,44.8,232.1z"/>
		<path class="st9" d="M230.8,235.8c-0.5,0.3-0.9,0.3-1.4,0C229.9,235.7,230.3,235.8,230.8,235.8z"/>
		<path class="st9" d="M243.5,229.7c0-0.5,0-0.9,0-1.4C244,228.8,244,229.3,243.5,229.7z"/>
		<path class="st9" d="M231.6,234.1c-0.3-0.1-0.5-0.3-0.5-0.6c0,0,0.1-0.3,0.3-0.2C231.7,233.5,231.6,233.8,231.6,234.1z"/>
		<path class="st9" d="M116.8,158.2c0.4-0.3,0.7-0.5,1.2-0.5C117.8,158.3,117.3,158.4,116.8,158.2z"/>
		<path class="st9" d="M136.7,151.2c-0.4-0.2-0.8-0.3-1.2-0.5C136.2,150.3,136.5,150.6,136.7,151.2z"/>
		<path class="st9" d="M215.1,177.9c0-0.6-0.1-1.3,0.2-1.9C215.3,176.6,215.5,177.3,215.1,177.9z"/>
		<path class="st9" d="M56.5,229.3c-0.3-0.2-0.4-0.4-0.5-0.7c0.2-0.1,0.4-0.3,0.6,0C56.9,228.9,56.6,229.1,56.5,229.3z"/>
		<path class="st9" d="M255.7,234.9c-0.3-0.4-0.5-0.8-0.8-1.1C255.3,234,255.9,234.1,255.7,234.9z"/>
		<path class="st9" d="M175.4,229.7c0,0.3-0.2,0.6-0.4,0.8C175.1,230.3,174.4,229.5,175.4,229.7z"/>
		<path class="st9" d="M133,233.7c0,0.2,0,0.4,0,0.6c-0.4-0.3-0.6-0.7-0.8-1.1C132.5,233.4,132.7,233.6,133,233.7z"/>
		<path class="st9" d="M207.6,177.9c0,0.5,0,1.1,0,1.6C207.3,179,207.3,178.5,207.6,177.9z"/>
		<path class="st9" d="M56.1,231.7c0.4,0.3,0.6,0.7,0.7,1.1C56.3,232.5,56,232.2,56.1,231.7z"/>
		<path class="st9" d="M191.6,152.3c-0.3-0.2-0.6-0.3-0.9-0.5C190.9,152.2,191.9,151,191.6,152.3z"/>
		<path class="st9" d="M171.5,231.6c0.2,0.3,0.4,0.6,0.6,1C171.6,232.4,171.2,232.2,171.5,231.6z"/>
		<path class="st9" d="M226.1,151.2c-0.3,0.1-0.6,0.3-1,0.4C225.1,150.6,225.8,151.2,226.1,151.2z"/>
		<path class="st9" d="M233.8,232.8c-0.1-0.2-0.2-0.3-0.3-0.5c0.3,0,0.8-0.2,0.9,0.2C234.5,232.9,233.9,232.5,233.8,232.8z"/>
		<path class="st9" d="M43.5,229.9c0,0.1,0.1,0.2,0.1,0.3c-0.3,0.1-0.3,0.7-0.6,0.4C42.8,230.4,43.2,230.1,43.5,229.9z"/>
		<path class="st9" d="M36.8,226.8c-0.2-0.2-0.5-0.4-0.7-0.5c0.2-0.2,0.3-0.3,0.5-0.5C36.7,226.1,36.8,226.4,36.8,226.8z"/>
		<path class="st9" d="M38.8,232.1c0-0.5,0-1.1,0-1.6C39.1,231,39.1,231.5,38.8,232.1z"/>
		<path class="st9" d="M96.4,175.3c0,0.6,0.1,1.2-0.2,1.7C96.3,176.5,96,175.9,96.4,175.3z"/>
		<path class="st9" d="M218.2,155.9c-0.3,0.3-0.6,0.7-1,0.8c0-0.4,0.4-0.6,0.5-0.9C217.8,155.9,218,155.9,218.2,155.9z"/>
		<path class="st9" d="M257.7,185.4c0.1,0.3,0,0.6-0.2,0.9C256.7,185.8,257.8,185.8,257.7,185.4z"/>
		<path class="st9" d="M128.8,201.1c-0.5,0.3-1.1,0.2-1.7,0.2C127.7,200.9,128.3,201.2,128.8,201.1z"/>
		<path class="st9" d="M145.4,156.6c-0.2-0.2-0.3-0.3-0.5-0.5c0.4-0.2,0.7-0.1,1,0.1C145.8,156.3,145.6,156.5,145.4,156.6z"/>
		<path class="st9" d="M136.5,206.8c0.3-0.3,0.7-0.4,1.2-0.4C137.4,206.7,137.1,207,136.5,206.8z"/>
		<path class="st9" d="M121.5,200.9c-0.3,0-0.7,0-1-0.2C121,200.2,121.3,200.5,121.5,200.9z"/>
		<path class="st9" d="M136.3,199c-0.3,0.3-0.6,0.4-0.9,0.4C135.4,198.7,135.9,199,136.3,199z"/>
		<path class="st9" d="M122.2,208.2c0.6,0,1.1-0.1,1.7,0.2C123.4,208.3,122.8,208.6,122.2,208.2z"/>
		<path class="st9" d="M128,208.4c0.5-0.2,1.1-0.2,1.7-0.2C129.2,208.6,128.6,208.3,128,208.4z"/>
		<path class="st9" d="M233.4,208.2c0.6,0,1.2-0.1,1.7,0.2C234.5,208.3,233.9,208.6,233.4,208.2z"/>
		<path class="st9" d="M151.2,194.3c0.1-0.2,0.3-0.5,0.4-0.7c-0.1,0.3,0.5,0.4,0.2,0.7C151.7,194.5,151.4,194.3,151.2,194.3z"/>
		<path class="st9" d="M239.4,208.4c0.5-0.2,1.1-0.2,1.7-0.2C240.6,208.6,240,208.3,239.4,208.4z"/>
		<path class="st9" d="M39.9,209.1c0.2-0.2,0.5-0.2,0.7-0.2c0,0.1,0.2,0.3,0,0.4C40.3,209.4,40,209.4,39.9,209.1z"/>
		<path class="st9" d="M14.6,190.3c0.2,0.4,0.3,0.8,0.2,1.2C14.5,191.1,14.1,190.8,14.6,190.3z"/>
		<path class="st9" d="M159,237.3c0.4,0,0.8,0,1.2-0.1C159.9,237.8,159.5,237.8,159,237.3z"/>
		<path class="st9" d="M239.7,156.4c0.4,0,0.8-0.1,1.2,0.2C240.5,156.9,240.1,156.7,239.7,156.4z"/>
		<path class="st9" d="M260.1,225.5c-0.2,0-0.5,0-0.7,0c0-0.2-0.1-0.5,0-0.5C259.8,224.9,259.9,225.2,260.1,225.5z"/>
		<path class="st9" d="M146.4,157.6c-0.3-0.3-0.6-0.7-0.9-1C146,156.6,146.3,157,146.4,157.6z"/>
		<path class="st9" d="M264.8,232.1c0-0.5,0-0.9,0-1.4C265.2,231.1,265.2,231.6,264.8,232.1z"/>
		<path class="st9" d="M17.1,236.4c0.2,0.1,0.4,0.3,0.5,0.4c-0.3-0.1-0.5,0.3-0.8,0.1C16.8,236.8,17,236.5,17.1,236.4z"/>
		<path class="st9" d="M256.2,190.6c-0.1,0.4-0.2,0.7-0.5,1C255.4,191,255.7,190.8,256.2,190.6z"/>
		<path class="st9" d="M209.7,190.5c0.2,0.3,0.4,0.6,0.4,1C209.8,191.3,209.4,191,209.7,190.5z"/>
		<path class="st9" d="M226.3,227.9c0,0.4,0,0.8,0,1.2C226.1,228.6,225.7,228.3,226.3,227.9z"/>
		<path class="st9" d="M100.1,163.6c0,0.3-0.2,0.6-0.4,0.8C99.5,163.9,99.6,163.6,100.1,163.6z"/>
		<path class="st9" d="M173.6,232.1c-0.1-0.2-0.3-0.5-0.4-0.7C174.2,231.1,173.4,231.9,173.6,232.1z"/>
		<path class="st9" d="M106.5,167.6c0.2-0.2,0.3-0.5,0.5-0.7C107.2,167.4,107,167.6,106.5,167.6z"/>
		<path class="st9" d="M248.9,231.3c0.2,0.5,0.2,1,0,1.6C248.9,232.3,248.9,231.8,248.9,231.3z"/>
		<path class="st9" d="M240,201.2c-0.5,0.3-1,0.2-1.5,0.2C239,201,239.5,201.2,240,201.2z"/>
		<path class="st9" d="M105.1,170.6c0-0.4,0.2-0.7,0.4-1C105.8,170.2,105.4,170.4,105.1,170.6z"/>
		<path class="st9" d="M254.7,203.2c0.2-0.2,0.4-0.3,0.5-0.5c0.1,0.1,0.3,0.4,0.3,0.4C255.2,203.5,254.9,203.3,254.7,203.2z"/>
		<path class="st9" d="M214.4,198.1c0.2,0.1,0.4,0.2,0.4,0.5c-0.2,0.1-0.4,0.2-0.6-0.1C214.2,198.3,214.3,198.2,214.4,198.1z"/>
		<path class="st9" d="M35.7,236.8c-0.1,0.2-0.2,0.4-0.2,0.7c-0.2-0.1-0.5-0.2-0.7-0.2C35.1,237.1,35.4,237,35.7,236.8z"/>
		<path class="st9" d="M105.8,156.8c0,0.3-0.2,0.4-0.4,0.4c-0.2-0.2-0.2-0.5,0-0.6C105.6,156.3,105.6,156.8,105.8,156.8z"/>
		<path class="st9" d="M101.6,196.2c0.3,0.2,0.6,0.6,0.7,1C101.9,197,101.6,196.7,101.6,196.2z"/>
		<path class="st9" d="M57,230.1c-0.2-0.2-0.4-0.4-0.5-0.8C57.1,229.3,57.3,229.5,57,230.1z"/>
		<path class="st9" d="M217.6,189.7c-0.2-0.3-0.3-0.6-0.5-1C217.6,188.9,218,189.1,217.6,189.7z"/>
		<path class="st9" d="M106.7,230.3c-0.4,0-0.8-0.1-1.1-0.1C106,230,106.4,229.5,106.7,230.3z"/>
		<path class="st9" d="M252.6,195.5c-0.1,0.4-0.4,0.5-0.7,0.6C251.7,195.5,252.3,195.6,252.6,195.5z"/>
		<path class="st9" d="M193.7,230.7c-0.1,0.2-0.2,0.5-0.2,0.7C193.2,231,192.9,230.7,193.7,230.7z"/>
		<path class="st9" d="M158.6,237c0.1,0.1,0.1,0.2,0.2,0.3c-0.1,0.2-0.2,0.5-0.5,0.3C158,237.2,158.4,237.1,158.6,237z"/>
		<path class="st9" d="M227.1,230.5c0.4,0.1,0.7,0.3,0.9,0.7C227.6,231.1,227.1,231,227.1,230.5z"/>
		<path class="st9" d="M99.9,193.6c0.1,0.2,0.3,0.5,0.4,0.7C100,194.2,99.4,194.3,99.9,193.6z"/>
		<path class="st9" d="M264.8,230.7c-0.3,0-0.6,0-0.9,0C264.2,230.1,264.5,230.1,264.8,230.7z"/>
		<path class="st9" d="M128.1,156.4c0.5,0,1-0.1,1.5,0.2C129.1,156.5,128.5,156.7,128.1,156.4z"/>
		<path class="st9" d="M109.3,193.9c-0.2-0.2-0.3-0.3-0.5-0.5c0.2,0,0.2-0.5,0.5-0.2C109.5,193.4,109.4,193.7,109.3,193.9z"/>
		<path class="st9" d="M227.8,234.7c-0.2-0.3-0.3-0.6-0.5-0.9C227.9,233.8,227.7,234.3,227.8,234.7z"/>
		<path class="st9" d="M145.2,234c0.2,0.1,0.2,0.3,0.2,0.5c-0.2,0.1-0.4,0.2-0.5,0C144.7,234.2,145,234.1,145.2,234z"/>
		<path class="st9" d="M233.9,235.1c0-0.3,0-0.7,0.2-1C234.3,234.5,234.4,234.9,233.9,235.1z"/>
		<path class="st9" d="M254.7,162.6c-0.2,0-0.3-0.1-0.3-0.3c0-0.1,0.2-0.2,0.3-0.2c0.1,0,0.2,0.1,0.4,0.2
			C254.9,162.4,254.8,162.5,254.7,162.6z"/>
		<path class="st9" d="M91.8,224.9c0.4,0.1,0.6,0.2,0.7,0.5C92.2,225.5,92,225.2,91.8,224.9z"/>
		<path class="st9" d="M231.7,235.4c-0.1,0.3-0.4,0.4-0.7,0.4C231,235.3,231.2,235,231.7,235.4z"/>
		<path class="st9" d="M232.2,233.5c0.3,0.4,0.3,0.8,0,1.2C232.3,234.3,232,233.9,232.2,233.5z"/>
		<path class="st9" d="M152.7,225.5c-0.2-0.1-0.5-0.1-0.7-0.2c0.1-0.2,0.2-0.5,0.5-0.4C152.6,225,152.6,225.3,152.7,225.5z"/>
		<path class="st9" d="M15.3,234.3c0.1,0.2,0.3,0.4,0.4,0.6c-0.2,0-0.2,0.4-0.4,0.2C15,234.9,15.2,234.6,15.3,234.3z"/>
		<path class="st9" d="M251.9,162c0.3,0.1,0.5,0.3,0.6,0.7C252.3,162.5,251.7,162.7,251.9,162z"/>
		<path class="st9" d="M116.8,150.5c-0.3,0.3-0.8,0.3-1.2,0.4C115.9,150.4,116.4,150.5,116.8,150.5z"/>
		<path class="st9" d="M128.3,226.9c-0.2-0.2-0.3-0.5-0.5-0.7C128.3,226.3,128.5,226.5,128.3,226.9z"/>
		<path class="st9" d="M265.3,120.7c0-0.3,0-0.5,0.2-0.7c0.1,0.2,0.3,0.5,0.2,0.7C265.7,120.7,265.4,120.7,265.3,120.7z"/>
		<path class="st9" d="M265.1,185.9c0-0.4,0-0.8,0.2-1.2C265.3,185.1,265.6,185.5,265.1,185.9z"/>
		<path class="st9" d="M194.7,233.2c0.3-0.1,0.6-0.1,0.9-0.2C195.3,233.3,195.1,234.1,194.7,233.2z"/>
		<path class="st9" d="M96.2,180.6c0.2,0.5,0.2,1,0.2,1.5C96,181.7,96.2,181.1,96.2,180.6z"/>
		<path class="st9" d="M154.1,179.9c-0.2-0.5-0.2-1-0.2-1.5C154.3,178.8,154.1,179.4,154.1,179.9z"/>
		<path class="st9" d="M25.1,236.3c-0.3,0-0.4,0.6-0.7,0.2c0.2-0.2,0.5-0.4,0.7-0.6C25.1,236,25.1,236.2,25.1,236.3z"/>
		<path class="st9" d="M166.8,236.8c-0.1-0.2-0.3-0.4-0.4-0.5c0.1-0.1,0.3-0.3,0.3-0.3C167,236.3,166.9,236.6,166.8,236.8z"/>
		<path class="st9" d="M252.8,162.9c0.1,0,0.1-0.1,0.2-0.1c0,0.2,0.3,0.4,0.1,0.6c0,0-0.2,0-0.3,0
			C252.6,163.3,252.8,163.1,252.8,162.9z"/>
		<path class="st9" d="M193,153.2c-0.3-0.2-0.6-0.4-0.9-0.6C192.7,152.4,193,152.6,193,153.2z"/>
		<path class="st9" d="M16.3,179.1c-0.1,0.4-0.2,0.8-0.5,1.2C15.7,179.8,15.6,179.3,16.3,179.1z"/>
		<path class="st9" d="M228.7,235.6c-0.3,0-0.4-0.2-0.5-0.4c0.3-0.1,0.5-0.2,0.7,0C229.1,235.4,228.7,235.4,228.7,235.6z"/>
		<path class="st9" d="M67.7,186.6c0.3-0.1,0.6,0,0.7,0.3C68,187.1,67.9,186.7,67.7,186.6z"/>
		<path class="st9" d="M114.2,159.6c0.2-0.2,0.5-0.3,0.7-0.5C114.9,159.6,114.7,159.9,114.2,159.6z"/>
		<path class="st9" d="M224.4,160.3c0.3-0.2,0.7-0.5,1-0.7C225.3,160.2,224.9,160.3,224.4,160.3z"/>
		<path class="st9" d="M83.3,235.4c-0.2,0.1-0.5,0.1-0.7,0.2c0-0.1,0-0.2,0.1-0.2C82.8,235.4,83.1,234.7,83.3,235.4z"/>
		<path class="st9" d="M111.4,161.7c0.2-0.2,0.4-0.3,0.5-0.5c0,0.2,0.2,0.3,0.1,0.5C111.8,162,111.6,161.7,111.4,161.7z"/>
		<path class="st9" d="M104.2,137.1c0.3,0.2,0.3,0.5,0.2,0.8C103.8,137.7,104.3,137.3,104.2,137.1L104.2,137.1z"/>
		<path class="st9" d="M109.8,163.1c0.2-0.3,0.4-0.6,0.7-0.6C110.5,162.9,110.2,163.1,109.8,163.1z"/>
		<path class="st9" d="M134.4,237.3c0.1-0.1,0.1-0.2,0.2-0.2c0.2,0.1,0.6,0.2,0.3,0.5C134.7,237.7,134.5,237.4,134.4,237.3z"/>
		<path class="st9" d="M227.4,232.2c-0.1,0.1-0.1,0.2-0.2,0.2c-0.2,0.1-0.3-0.1-0.3-0.2c0-0.1,0.1-0.2,0.2-0.2
			C227.2,232,227.3,232.1,227.4,232.2z"/>
		<path class="st9" d="M231.7,237.2c0.3-0.2,0.6-0.4,0.9-0.4C232.5,237.2,232.1,237.3,231.7,237.2z"/>
		<path class="st9" d="M145.9,235.2c0.3,0.1,0.5,0.4,0.6,0.7C146.1,235.8,145.9,235.6,145.9,235.2z"/>
		<path class="st9" d="M263.7,22.9c-0.2-0.1-0.6,0.1-0.6-0.2c0-0.3,0.2-0.2,0.4-0.1C263.5,22.7,263.6,22.8,263.7,22.9z"/>
		<path class="st9" d="M141.4,162.9c0.1,0,0.1-0.1,0.2-0.1c0,0.2,0.2,0.3,0.1,0.5c-0.1,0.1-0.2,0.1-0.3,0
			C141.2,163.3,141.4,163.1,141.4,162.9z"/>
		<path class="st9" d="M162.3,233.3c0.2,0.2,0.4,0.4,0.4,0.7C162.3,233.9,162.1,233.7,162.3,233.3z"/>
		<path class="st9" d="M257.1,236.8c-0.2-0.2-0.4-0.5-0.5-0.7C257.1,236.1,257.1,236.4,257.1,236.8z"/>
		<path class="st9" d="M242.4,233.3c-0.1,0-0.2,0-0.2,0c0.1-0.1,0.1-0.3,0.2-0.4c0.1-0.1,0.2-0.1,0.2,0
			C242.6,233.1,242.4,233.2,242.4,233.3z"/>
		<path class="st9" d="M221.9,236c0.2,0.2,0.4,0.4,0.4,0.7C221.8,236.7,221.7,236.5,221.9,236z"/>
		<path class="st9" d="M172.2,232.8c0.1,0.2,0.3,0.5,0.4,0.7C172.1,233.5,171.9,233.2,172.2,232.8z"/>
		<path class="st9" d="M161.6,232.6c0.5,0,0.5,0.4,0.7,0.7C161.9,233.2,161.8,232.9,161.6,232.6z"/>
		<path class="st9" d="M221.6,163.5c0.1,0.1,0.1,0.1,0.2,0.1c-0.1,0.1-0.2,0.2-0.3,0.3c-0.1,0.1-0.2,0-0.2-0.2
			C221.4,163.6,221.5,163.6,221.6,163.5z"/>
		<path class="st9" d="M107.7,202.4c0.3,0.2,0.5,0.4,0.8,0.6C108,203,107.7,202.8,107.7,202.4z"/>
		<path class="st9" d="M108.9,203.3c0.3,0,0.5,0.2,0.6,0.4C109,204,108.9,203.7,108.9,203.3z"/>
		<path class="st9" d="M193.7,204.9c0.2-0.1,0.5-0.3,0.7-0.4C194.4,204.9,194.2,205.1,193.7,204.9z"/>
		<path class="st9" d="M48.3,205.8c0.2-0.3,0.4-0.4,0.7-0.5C49,205.9,48.7,205.8,48.3,205.8z"/>
		<path class="st9" d="M105.8,184.5c0.1,0.2,0.2,0.3,0.2,0.3c-0.1,0.1-0.2,0.3-0.3,0.3c-0.1,0.1-0.2,0-0.2-0.2
			C105.6,184.8,105.7,184.7,105.8,184.5z"/>
		<path class="st9" d="M115.7,206.8c0.3-0.1,0.5,0,0.7,0.2C116.1,207.1,115.7,207.4,115.7,206.8z"/>
		<path class="st9" d="M207.8,183.7c0.2,0.3,0.2,0.6,0.2,1C207.7,184.4,207.6,184.1,207.8,183.7z"/>
		<path class="st9" d="M132,207.9c0.3-0.2,0.6-0.2,1-0.2C132.8,208.3,132.4,207.9,132,207.9z"/>
		<path class="st9" d="M130.7,208.1c0.3-0.2,0.6-0.2,0.9-0.2C131.3,208.2,131,208.4,130.7,208.1z"/>
		<path class="st9" d="M242.1,208.1c0.3-0.2,0.6-0.2,0.9-0.2C242.7,208.2,242.4,208.4,242.1,208.1z"/>
		<path class="st9" d="M36.6,225.3c-0.4-0.1-0.4-0.4-0.2-0.7C36.8,224.7,36.8,225,36.6,225.3z"/>
		<path class="st9" d="M127.4,225.3c-0.1-0.1-0.1-0.2-0.2-0.3c0-0.2,0.1-0.3,0.3-0.3c0.1,0,0.2,0.1,0.2,0.2
			C127.7,225,127.6,225.1,127.4,225.3z"/>
		<path class="st9" d="M54,225.5c-0.1,0-0.2,0-0.2,0c-0.1-0.2-0.2-0.3,0-0.5c0.1,0,0.2,0,0.3,0C54.2,225.2,54,225.3,54,225.5z"/>
		<path class="st9" d="M217.3,155.6c0.1-0.1,0.1-0.3,0.2-0.3c0.2-0.1,0.3,0.1,0.3,0.2c0,0.1-0.1,0.2-0.1,0.3
			C217.6,155.8,217.4,155.7,217.3,155.6z"/>
		<path class="st9" d="M77,225.3c-0.3,0.1-0.6,0.2-0.9,0.2c0-0.1,0-0.1,0-0.2C76.3,225.4,76.6,224.9,77,225.3z"/>
		<path class="st9" d="M207.6,181.8c0.2,0.4,0.2,0.8,0.2,1.2C207.4,182.7,207.6,182.2,207.6,181.8z"/>
		<path class="st9" d="M247.9,158.9c0.2-0.1,0.4,0,0.4,0.2c-0.2,0.1-0.4,0.3-0.6,0.2C247.5,159.1,247.9,159.1,247.9,158.9z"/>
		<path class="st9" d="M218.3,190.9c-0.1-0.2-0.2-0.4-0.4-0.6C218.8,190.1,218.4,190.6,218.3,190.9z"/>
		<path class="st9" d="M255.6,191.7c-0.1,0.3-0.1,0.5-0.4,0.7C254.9,191.9,255.2,191.8,255.6,191.7z"/>
		<path class="st9" d="M233.8,156.6c0.4-0.2,0.8-0.2,1.2-0.2C234.7,156.7,234.2,156.5,233.8,156.6z"/>
		<path class="st9" d="M106.7,190.4c-0.2-0.2-0.4-0.5-0.4-0.8C106.8,189.7,107,189.9,106.7,190.4z"/>
		<path class="st9" d="M222.1,195.5c-0.2-0.2-0.3-0.3-0.5-0.5c0.2,0,0.3-0.2,0.5,0C222.3,195.2,222.2,195.3,222.1,195.5z"/>
		<path class="st9" d="M111.9,196.4c-0.3-0.2-0.5-0.5-0.8-0.7C111.6,195.7,111.9,196,111.9,196.4z"/>
		<path class="st9" d="M102.3,197.1c0.2,0.1,0.4,0.2,0.4,0.5c-0.2,0.1-0.3,0.2-0.5,0C102.1,197.4,102.3,197.3,102.3,197.1z"/>
		<path class="st9" d="M120.1,157c0.2-0.2,0.4-0.2,0.7-0.2C120.6,156.9,120.5,157.5,120.1,157z"/>
		<path class="st9" d="M145.7,188.5c0,0.3,0,0.5-0.2,0.7C145,188.8,145.4,188.6,145.7,188.5z"/>
		<path class="st9" d="M245.4,200c-0.2,0.2-0.4,0.3-0.7,0.2C244.8,199.9,245,199.5,245.4,200z"/>
		<path class="st9" d="M145.9,201.1c0.2-0.2,0.5-0.5,0.7-0.7C146.6,200.9,146.4,201.1,145.9,201.1z"/>
		<path class="st9" d="M122.5,201.1c-0.3,0-0.5,0-0.8-0.2C122,200.9,122.3,200.4,122.5,201.1z"/>
		<path class="st9" d="M233.9,201.1c-0.3,0-0.7,0-0.9-0.2C233.3,200.7,233.6,200.9,233.9,201.1z"/>
		<path class="st9" d="M241.9,200.9c-0.3,0.2-0.6,0.2-1,0.2C241.1,200.5,241.5,200.9,241.9,200.9z"/>
		<path class="st9" d="M257.3,201c0.1-0.1,0.3-0.3,0.4-0.4c0.3,0.1,0.1,0.3,0,0.4C257.6,201.2,257.4,201.3,257.3,201z"/>
		<path class="st9" d="M218.4,201.9c0.3,0.1,0.6,0.3,0.8,0.6C218.7,202.6,218.4,202.3,218.4,201.9z"/>
		<path class="st9" d="M264.9,187.3c0-0.3,0-0.6,0.2-0.9C265.5,186.8,265,187,264.9,187.3z"/>
		<path class="st9" d="M37.6,227.6c-0.2-0.2-0.4-0.4-0.5-0.7C37.5,226.9,37.8,227,37.6,227.6z"/>
		<path class="st9" d="M207.8,174.6c0,0.4,0,0.8-0.2,1.2C207.6,175.4,207.5,175,207.8,174.6z"/>
		<path class="st9" d="M96.6,173.5c0,0.4,0,0.7-0.2,1C96.5,174.1,96.1,173.7,96.6,173.5z"/>
		<path class="st9" d="M197.8,173.5c0.1-0.2,0.3-0.3,0.4-0.5c0,0.2,0.1,0.4,0.1,0.5C198.2,173.7,198,173.5,197.8,173.5z"/>
		<path class="st9" d="M166.3,227.9c-0.2-0.3-0.3-0.6-0.5-0.9C166.3,227.1,166.3,227.5,166.3,227.9z"/>
		<path class="st9" d="M56.7,227.5c-0.1,0.1-0.1,0.2-0.2,0.2c-0.1-0.1-0.3-0.2-0.3-0.3c-0.1-0.2,0.1-0.2,0.2-0.2
			C56.6,227.3,56.6,227.4,56.7,227.5z"/>
		<path class="st9" d="M87.5,145.6c0.3-0.1,0.5-0.1,0.9-0.2C88.1,145.8,87.8,145.9,87.5,145.6z"/>
		<path class="st9" d="M139.3,160.8c0.3,0,0.4,0.2,0.5,0.4c-0.2,0.1-0.3,0.2-0.5,0C139.1,161.1,139.3,161,139.3,160.8z"/>
		<path class="st9" d="M171.7,228.8c-0.1-0.2-0.3-0.5-0.4-0.7C171.7,228.1,172,228.3,171.7,228.8z"/>
		<path class="st9" d="M32.7,166.4c-0.4,0.3-0.8,0.3-1.2,0.2C31.8,166.3,32.3,166.5,32.7,166.4z"/>
		<path class="st9" d="M219.5,229.3c-0.2-0.2-0.3-0.5-0.5-0.7C219.6,228.6,219.8,228.8,219.5,229.3z"/>
		<path class="st9" d="M172.1,229.6c-0.2-0.2-0.4-0.5-0.4-0.8C172.2,228.8,172.4,229.1,172.1,229.6z"/>
		<path class="st9" d="M195.6,230.3c-0.4,0-0.8,0-1.2-0.1C194.9,229.9,195.3,229.8,195.6,230.3z"/>
		<path class="st9" d="M220.9,231.5c-0.1-0.2-0.3-0.4-0.4-0.6c0.1,0,0.3-0.1,0.4,0C221.2,231,221,231.3,220.9,231.5z"/>
		<path class="st9" d="M58,231.6c-0.1-0.1-0.2-0.3-0.3-0.4c0.2,0,0.6-0.1,0.6,0C58.4,231.4,58,231.4,58,231.6z"/>
		<path class="st9" d="M176.2,231.6c0.1-0.2,0.3-0.5,0.4-0.7C176.9,231.4,176.7,231.6,176.2,231.6z"/>
		<path class="st9" d="M104.6,231.2c0,0.4,0,0.8,0,1.2C104.3,231.9,104.3,231.6,104.6,231.2z"/>
		<path class="st9" d="M107.5,154.2c-0.1,0.1-0.2,0.2-0.3,0.3c-0.2,0.1-0.2-0.1-0.1-0.2c0.1-0.1,0.2-0.2,0.3-0.3
			C107.4,154.1,107.5,154.1,107.5,154.2z"/>
		<path class="st9" d="M221.4,153.5c-0.1,0.3-0.4,0.4-0.7,0.4C220.8,153.5,220.9,153.2,221.4,153.5z"/>
		<path class="st9" d="M111.7,152.6c-0.2,0.2-0.4,0.4-0.8,0.4C111,152.5,111.3,152.4,111.7,152.6z"/>
		<path class="st9" d="M265.3,178.2c-0.2-0.3-0.2-0.7-0.2-1C265.7,177.5,265.2,177.9,265.3,178.2z"/>
		<path class="st9" d="M250.3,152.2c-0.2-0.1-0.3-0.2-0.5-0.3c0.3,0,0.3-0.5,0.6-0.2C250.5,151.7,250.3,152,250.3,152.2z"/>
		<path class="st9" d="M177.2,225.8c-0.1,0.1-0.2,0.2-0.4,0.2c-0.1,0-0.1-0.2-0.1-0.2c0.1-0.1,0.2-0.2,0.4-0.2
			C177.1,225.7,177.1,225.7,177.2,225.8z"/>
		<path class="st9" d="M186.5,150.7c-0.4,0-0.9,0-1.2-0.2C185.6,150.5,186.1,150.3,186.5,150.7z"/>
		<path class="st9" d="M247,150.8c-0.3-0.1-0.6-0.2-0.9-0.3C246.3,150.7,246.9,149.9,247,150.8z"/>
		<path class="st9" d="M232.3,149.5c-0.4,0.2-0.8,0.2-1.2,0.2C231.4,149.4,231.8,149.6,232.3,149.5z"/>
		<path class="st9" d="M43.4,226.9c-0.2-0.3-0.4-0.6-0.6-0.9C43.4,226.1,43.4,226.5,43.4,226.9z"/>
		<path class="st9" d="M195.4,176c0.2-0.2,0.3-0.3,0.5-0.5c0,0.2,0.1,0.4,0.1,0.5C195.8,176.3,195.5,176.1,195.4,176z"/>
		<path class="st9" d="M177.6,226c0,0.4-0.2,0.7-0.5,0.9C177.1,226.5,177.2,226.1,177.6,226z"/>
		<path class="st9" d="M255.9,226.7c-0.2-0.2-0.3-0.3-0.5-0.5c0.2,0,0.4-0.3,0.6,0C256,226.3,255.9,226.6,255.9,226.7z"/>
		<path class="st9" d="M155.3,227.2c-0.2-0.2-0.3-0.3-0.5-0.5C155.4,226.5,155.5,226.6,155.3,227.2z"/>
		<path class="st9" d="M122.7,149.3c-0.4,0.2-0.8,0.2-1.2,0.2C121.9,149.2,122.3,149.3,122.7,149.3z"/>
		<path class="st9" d="M55.4,227.5c-0.1-0.2-0.2-0.4-0.4-0.5c0.1,0,0.3-0.1,0.4,0C55.6,227,55.4,227.3,55.4,227.5z"/>
		<path class="st6" d="M200.3,60.8c0,2,0,3.6,0,5.2c0,1.3,0,1.3,1.1,0.7c2.3-1.2,4.7-1.8,7.2-1.6c4,0.3,6.8,2.3,8.4,5.9
			c2.7,6,3.1,12.3,0.4,18.4c-2.2,5-6.2,7.7-11.6,8.3c-4.7,0.5-9.3-0.2-13.8-1.6c-0.8-0.2-1-0.6-1-1.4c0-14.2,0-28.4,0-42.5
			c0-1.1,0.4-1.5,1.4-1.4c1.2,0.1,2.5,0,3.7,0.1c2.4,0.1,3.7,1.4,4,3.8C200.4,56.8,200.2,58.9,200.3,60.8z"/>
		<path class="st6" d="M39.4,75.4c-0.1,2.7,0.1,5.4,0.9,8c1.7,5.2,5.8,7.5,11.1,6c2.6-0.7,4.8-2,7-3.5c0.7-0.5,1.2-0.4,1.8,0.1
			c1.3,1.3,2.5,2.7,3.3,4.4c0.4,0.8,0.2,1.4-0.5,1.9c-4.5,3.6-9.5,5.7-15.2,5.9c-3.2,0.1-6.2-0.3-9.1-1.7c-4.3-2.1-6.7-5.8-8-10.2
			c-2.2-7.1-2.3-14.3,0.1-21.4c2.8-8.2,10.6-12.8,19.2-11.6c4.1,0.5,7.9,1.8,10.8,5c2.3,2.5,3.3,5.5,3,8.9c-0.2,2.5-1.9,4.1-4.5,4.3
			c-1.3,0.1-2.6,0-3.8-0.2c-0.7-0.1-0.9-0.4-0.9-1.1c-0.1-1.9-0.3-3.7-1.1-5.5c-1-2.3-2.6-3.5-5.1-3.8c-2.8-0.3-5.1,0.4-6.7,2.9
			c-1.7,2.6-2,5.5-2.3,8.5C39.4,73.3,39.4,74.3,39.4,75.4z"/>
		<path class="st6" d="M250,82.1c0,2.2,0,4.5,0,6.7c0,1.4,0.3,2.7,1.4,3.7c0.4,0.4,0.4,0.7,0.2,1.2c-0.5,1.3-1.3,2.5-2.2,3.6
			c-0.3,0.4-0.7,0.5-1.2,0.5c-2.1-0.2-3.9-0.9-5.3-2.5c-0.6-0.7-0.9-0.7-1.6-0.1c-3.4,2.8-7.3,3.7-11.5,2.7
			c-4.4-1.1-7.3-5.8-6.6-10.5c0.7-5.2,4-8.4,9.4-9.3c2.3-0.4,4.7-0.3,7-0.1c0.8,0.1,0.9-0.1,0.9-0.8c0.1-3.3-1.3-4.8-4.7-4.6
			c-2.7,0.1-5.4,0.9-8,1.7c-1.1,0.3-1.6,0.1-2-0.9c-0.8-1.5-1.2-3.1-1.4-4.8c-0.1-0.7,0.3-0.8,0.8-1c3-1.1,6.1-1.8,9.3-2.1
			c2.6-0.3,5.3-0.5,7.9,0.1c4.9,1.3,7.6,4.6,7.6,9.7C250.1,77.5,250,79.8,250,82.1C250,82.1,250,82.1,250,82.1z"/>
		<path class="st6" d="M96.5,78.6c0.1,3.2-0.2,7.2,0.2,11.2c0.1,1,0.4,2,1.2,2.7c0.5,0.4,0.5,0.8,0.3,1.3c-0.2,0.4-0.3,0.9-0.6,1.3
			c-1.9,2.9-2,3.2-5.7,1.8c-1.4-0.5-2.5-1.5-3.2-2.8c-0.4-0.7-0.6-0.7-1.3-0.2c-2.2,1.8-4.5,3.4-7.4,3.7c-5.3,0.7-9.1-2.1-10.1-7.4
			c-0.2-1.3-0.3-2.6-0.3-3.8c-0.1-4.8,0.1-9.6-0.1-14.4c-0.1-1.5-0.4-2.9-1.1-4.1c-0.3-0.5-0.2-0.8,0.3-1.1c2.4-1.7,5.1-2,7.8-1
			c2.1,0.7,2.5,2.7,2.6,4.6c0.1,4.8,0,9.5,0,14.3c0,0.9,0.1,1.7,0.2,2.6c0.3,1.4,1.1,2.1,2.5,2.1c1.9,0.1,3.4-0.7,4.8-1.9
			c0.5-0.4,0.5-0.9,0.5-1.5c0-6.3,0-12.7,0-19c0-1,0.4-1.3,1.3-1.4c2.3-0.2,4.7-0.2,7,0c0.9,0.1,1.4,0.3,1.3,1.4
			C96.4,70.6,96.5,74.2,96.5,78.6z"/>
		<path class="st6" d="M159,80.5c0,2.3,0,4.6,0,6.9c0,2.1,0.9,3,3,3c0.7,0,1.5,0.1,2.2,0c1.1-0.1,1.5,0.4,1.7,1.4
			c0.3,1.4,0.4,2.9,0.3,4.3c0,0.6-0.3,0.9-1,1c-3,0.3-6,0.7-9,0.4c-3.9-0.4-6.1-2.7-6.4-6.6c-0.3-4-0.1-8-0.1-12.1
			c0-1.8,0-3.7,0-5.5c0-0.7-0.2-1-0.9-0.9c-1.1,0.1-2.2,0-3.3,0.1c-0.6,0-0.8-0.2-0.9-0.7c-0.2-1.7-0.2-3.4,0-5.1
			c0.1-0.6,0.4-0.8,1-0.8c1,0.1,2,0,3,0.1c0.9,0.1,1.1-0.3,1.1-1.1c-0.1-1.4,0-2.9,0.1-4.3c0.3-2.5,1.3-3.6,3.8-4
			c1.5-0.2,3-0.1,4.6-0.1c0.8,0,0.9,0.5,0.9,1.1c0,2.5,0,4.9,0,7.4c0,0.9,0.2,1.2,1.1,1.1c1.9-0.1,3.8,0,5.6-0.1
			c0.8,0,1.1,0.3,1.2,1c0.2,1.6,0.2,3.1,0,4.7c-0.1,0.7-0.4,1-1.2,1c-1.9-0.1-3.8,0-5.6-0.1c-0.9,0-1.1,0.3-1.1,1.1
			C159.1,75.8,159,78.1,159,80.5z"/>
		<path class="st6" d="M110.6,70.7c0.3-0.1,0.4-0.5,0.5-0.7c2-3.6,5-5.1,9.1-4.5c3.3,0.5,2.7,0,2.3,3.1c-0.2,1.8-0.8,3.5-1.5,5.1
			c-0.3,0.7-0.7,1-1.5,0.7c-2.6-0.7-4.9-0.3-6.8,1.9c-0.6,0.7-0.9,1.4-0.9,2.3c0,5.8,0,11.6,0,17.5c0,1.1-0.4,1.4-1.4,1.5
			c-2.4,0.2-4.8,0.2-7.1,0c-0.8-0.1-1.1-0.3-1.1-1.2c0-6.3,0-12.7,0-19c0-2.5-0.1-5-2.1-6.9c-0.3-0.2-0.2-0.5-0.1-0.8
			c0.4-1.5,1.3-2.7,2.3-3.9c0.4-0.5,1-0.4,1.5-0.3C106.9,66,108.5,67.2,110.6,70.7z"/>
		<path class="st6" d="M185.8,84.2c0,3.9,0,7.9,0,11.8c0,1.1-0.4,1.4-1.4,1.5c-2.3,0.2-4.7,0.2-7,0c-0.9-0.1-1.2-0.4-1.2-1.3
			c0-6.5,0-13.1,0-19.6c0-0.4,0-0.8,0-1.2c-0.2-2-0.9-2.9-3-3c-0.7,0-0.9-0.3-1-0.9c-0.3-1.6-0.2-3.2,0-4.8c0.1-0.6,0.4-0.9,1-0.9
			c2-0.2,3.9-0.2,5.9-0.2c4,0,6.6,2.6,6.7,6.6c0,0.1,0,0.2,0,0.4C185.8,76.4,185.8,80.3,185.8,84.2z"/>
		<path class="st6" d="M140.6,84.1c0,4.1,0,8.1,0,12.2c0,0.9-0.3,1.1-1.1,1.2c-2.4,0.3-4.8,0.2-7.2,0c-0.9-0.1-1.1-0.4-1.1-1.3
			c0-6.4,0-12.8,0-19.2c0-0.6,0-1.2-0.1-1.9c-0.3-1.8-1.1-2.6-2.8-2.6c-0.9,0-1.1-0.4-1.2-1.2c-0.2-1.5-0.2-3,0-4.4
			c0.1-0.7,0.3-1,1.2-1.1c2-0.2,3.9-0.2,5.9-0.2c3.9,0,6.4,2.5,6.6,6.4c0,0.2,0,0.4,0,0.6C140.6,76.4,140.6,80.2,140.6,84.1
			C140.6,84.1,140.6,84.1,140.6,84.1z"/>
		<path class="st6" d="M179.5,61.3c-0.9-0.2-1.9-0.1-2.8-0.3c-1.3-0.2-2-0.9-2.2-2.2c-0.2-1.1-0.3-2.2-0.1-3.4
			c0.4-2.2,0.7-2.6,2.9-2.9c2-0.3,3.9-0.3,5.8,0.3c0.8,0.2,1.2,0.6,1.5,1.5c0.4,1.6,0.4,3.2,0.1,4.9c-0.2,1.1-0.8,1.6-1.8,1.8
			C181.8,61.1,180.7,61.1,179.5,61.3z"/>
		<path class="st6" d="M133.7,61.2c-0.1,0-0.2,0-0.2,0c-1.3-0.1-3,0.1-3.7-1.3c-1-2.1-0.8-4.3,0-6.5c0.2-0.4,0.7-0.5,1.1-0.6
			c2.3-0.7,4.6-0.7,6.9-0.1c0.9,0.2,1.4,0.7,1.7,1.7c0.4,1.6,0.4,3.2,0,4.9c-0.2,0.9-0.7,1.4-1.6,1.6
			C136.5,61.2,135.1,61.2,133.7,61.2z"/>
		<path class="st6" d="M170.3,190.8c0-2.7,0-5.5,0-8.2c0-0.7,0.1-1,0.9-1c4.8,0,9.5,0,14.3,0.1c4.2,0.1,7.8,3.1,8.8,7.2
			c0.9,3.7-1,8-4.4,10c-1.4,0.9-3,1.2-4.7,1.3c-4.7,0-9.3,0-14,0c-0.8,0-1-0.3-0.9-1C170.3,196.4,170.3,193.6,170.3,190.8z"/>
		<path class="st6" d="M170.3,166.1c0-2.5,0-5.1,0-7.6c0-0.7,0.1-1,1-1c4.4,0,8.8,0,13.2,0c4.4,0.1,8.1,3.8,8.3,8.1
			c0.2,4.4-3.3,8.6-7.7,9c-4.7,0.4-9.4,0.1-14.1,0.2c-0.8,0-0.7-0.4-0.7-1C170.3,171.3,170.3,168.7,170.3,166.1z"/>
		<path class="st16" d="M49.1,166.7c0.2,1.7,0.7,3.3,1.5,4.7c-3-2.4-6.4-4.1-10.2-4.8c-1.5-0.3-2.9-0.4-4.4-0.4c0-0.1,0-0.2,0-0.2
			c1.1-0.8,2.5-0.6,3.7-0.9c0.5,1.3,1.3,0.2,1.9,0.2c1.3-0.1,2.4,0.4,3.5,1c0.2,0.1,0.2,0.2,0.2,0.4c0,0.5,0.4,0.6,0.6,0.2
			c0.2-0.4,0.3-0.2,0.5-0.2c1.8,0.2,1.8,0.2,2.1,2.2C48.7,167.9,48.4,167.1,49.1,166.7z"/>
		<path class="st17" d="M58,188.1c0,0.5,0,1,0,1.5c-0.5-0.5-1-0.6-1.6-0.5c-1,0.1-2-0.2-3-0.2c-0.4,0-0.8-0.1-1.3,0.1
			c-0.5,0.2-0.5,0.1-1.7-0.6c-0.1-0.1,0-0.1-0.1,0c-1.3,0.7-1.8-0.8-2.7-1c-0.9-0.8-1.9-1.6-2.7-2.5c-0.3-0.3-0.7-0.5-0.5-1.1
			c1.8,1.1,3.6,2.3,5.6,3C52.6,187.7,55.2,188,58,188.1z"/>
		<path class="st18" d="M44.4,183.7c0.8,1.4,2.2,2.2,3.3,3.3c0.3,0.3,0.8,0.4,0.7,1c-1.2,0.1-1.9-1-2.9-1.3
			c-0.2-0.1-0.4-0.3-0.6-0.3c-0.4-1.2-0.8-2.4-1.5-3.5C43.7,183,44.1,183.4,44.4,183.7z"/>
		<path class="st19" d="M42.4,193.7c1.3-1.4,2.1-3.1,2.4-5c0.1-0.2,0.1-0.4,0.1-0.6c0-0.2,0-0.4,0.3-0.4c0.3,0,0.4,0.2,0.5,0.4
			c0.5,1.1,1.7,2,2.8,2.1c0.3,0,0.6,0.1,0.8,0.3c0.5,0.5,1.1,0.5,1.6,0.1c0.1,0.1,0.2,0.2,0.2,0.2c0.2,0.3,0.4,0.5,0.7,0.7
			c1.6,1.3,3.3,2.6,4.5,4.3c-1,2.8-2.6,5.1-4.7,7.1C48.6,199.9,45.5,196.8,42.4,193.7z"/>
		<path class="st9" d="M31.5,225.3c-0.5,0.1-1,0.3-1.4,0.4C30.4,225.1,30.8,224.9,31.5,225.3z"/>
		<path class="st9" d="M26.6,231.8c0.2,0.4,0.2,0.8,0.2,1.2c-0.2-0.1-0.9,0.1-0.4-0.5C26.5,232.3,26.5,232,26.6,231.8z"/>
		<path class="st9" d="M29.1,236.5c0.6,0.1,1,0.4,1.5,0.7C29.9,237.3,29.4,237.2,29.1,236.5z"/>
		<path class="st9" d="M27.2,234.4c0.3,0.1,0.5,0.4,0.5,0.7C26.7,235.4,27.1,234.9,27.2,234.4z"/>
		<path class="st9" d="M24.4,226.4c-0.2-0.1-0.4-0.3-0.5-0.4c0.2,0,0.4-0.1,0.5-0.1C24.7,226,24.5,226.2,24.4,226.4z"/>
		<path class="st9" d="M28.4,226.9c0,0.2-0.2,0.4-0.4,0.4c0.1-0.2-0.2-0.4,0-0.6C28,226.7,28.2,226.9,28.4,226.9z"/>
		<path class="st9" d="M72.1,233.4c0.3,0.6,0.6,1.2,0.9,1.7C71.5,234.6,71.4,234.5,72.1,233.4z"/>
		<path class="st9" d="M73.4,227.1c-0.1,0.3-0.3,0.6-0.6,0.8c0.1-0.4-0.3-0.7,0-1C73,226.6,73.1,227.1,73.4,227.1z"/>
		<path class="st9" d="M74.9,226c-0.3,0.2-0.6,0.4-1,0.6C74,226,74.4,226,74.9,226z"/>
		<path class="st9" d="M73.9,236.1c0.2,0,0.4,0.2,0.5,0.4c-0.2,0.1-0.4,0.3-0.6,0C73.8,236.5,73.9,236.3,73.9,236.1z"/>
		<path class="st9" d="M70.2,230.9c-0.1-0.1-0.2-0.2-0.3-0.3c0.1-0.2,0.3-0.5,0.5-0.2C70.7,230.7,70.4,230.8,70.2,230.9z"/>
		<path class="st9" d="M59.3,236.8c-0.1,0.1-0.3,0.3-0.3,0.3c-0.4-0.3-0.1-0.6-0.1-0.9C59.2,236.3,59.3,236.5,59.3,236.8z"/>
		<path class="st6" d="M155.3,231.4c0,2.7-1.9,4.7-4.5,4.7c-2.6,0-4.5-2-4.5-4.7c0-2.6,1.9-4.6,4.4-4.6
			C153.3,226.7,155.3,228.7,155.3,231.4z"/>
		<path class="st6" d="M28.2,231.4c0-2.6,1.9-4.7,4.5-4.7c2.6,0,4.5,2,4.5,4.6c0,2.6-1.9,4.7-4.5,4.7
			C30.2,236.1,28.2,234,28.2,231.4z"/>
		<path class="st9" d="M250.5,229c0-2,0-2,1.5-2c2.1,0,3.2,0.7,3.1,2.1c0,1.4-1.1,2-3.3,2C250.5,231.1,250.5,231.1,250.5,229z"/>
		<path class="st9" d="M160.2,228.9c0-2,0-2,2.1-2c0.6,0,1.2,0,1.7,0.4c0.6,0.5,1,1.1,0.9,1.9c-0.1,0.8-0.6,1.4-1.3,1.6
			c-0.9,0.3-1.9,0.2-2.8,0.2c-0.5,0-0.5-0.3-0.5-0.6C160.2,230,160.2,229.4,160.2,228.9z"/>
		<path class="st9" d="M15.8,227.7c0-0.3-0.5-0.5-0.3-0.8c0.2-0.3,0.6,0.1,0.9,0C16.3,227.3,16,227.5,15.8,227.7z"/>
		<path class="st9" d="M17.4,226.2c0.1-0.3,0-1.2,0.7-0.4C17.9,226,17.7,226.1,17.4,226.2z"/>
		<path class="st9" d="M237.4,229c0-2,0-2,1.6-2c2,0,3.1,0.7,3,2.1c0,1.4-1.1,2-3.2,2C237.1,231,237.4,231.3,237.4,229z"/>
		<path class="st9" d="M63.8,237.2c-0.2-0.1-0.4-0.3-0.3-0.6c0.2-3.5,0-7,0.1-10.5c0-0.2,0-0.5,0.2-0.6
			C63.7,229.4,63.7,233.3,63.8,237.2z"/>
		<path class="st20" d="M48.3,188c-0.2-0.3-0.5-0.6-0.7-0.9c0.5,0,0.7,0.4,1,0.7c0.4,0.3,0.7,0.8,1.4,0.4c0.2-0.1,0.6-0.2,0.5,0.4
			c0,0.2,1.3,0.3,1.4,0.2c0.6-0.9,1.5,0.6,2.1-0.3c0.8,1,1.9,0.4,2.9,0.4c0.6,0.1,0.9,0.2,1.1,0.8c0.1,0.4,0,0.8-0.2,1.2
			c-1.8,0-3.7,0-5.5,0.1c-0.4,0-0.6-0.3-0.9-0.5c-0.4-0.4-0.7-1-1.4-1C49.2,189.2,48.6,188.8,48.3,188z"/>
		<path class="st21" d="M48.3,188c0.5,0.5,1.1,0.9,1.6,1.4c0.3,0.4,0.6,0.8,0.9,1.2c-0.5,0.1-0.4,0.7-0.7,1
			c-0.7-0.5-1.1-1.6-2.3-0.9c-0.3,0.2-0.4-0.3-0.7-0.4c-0.6-0.3-0.6-1.4-1.6-1.2c-0.1-0.4-0.2-0.8-0.2-1.3c-0.5,0.1-0.2,0.7-0.6,0.8
			c0-0.8,0-1.5-0.1-2.3c0.8-0.1,1.4,0.4,2.1,0.8C47.4,187.5,47.8,187.8,48.3,188z"/>
		<path class="st21" d="M51.9,191.5c-0.4,0-0.7-0.3-0.7-0.7C51.5,191,51.7,191.2,51.9,191.5z"/>
		<path class="st0" d="M200.3,82.7c0-2.3,0-4.6,0-6.9c0-0.7,0.2-1.2,0.8-1.6c0.7-0.5,1.3-0.9,2.1-1.2c2.4-0.8,4.4,0,5.2,2.4
			c1.4,4.2,1.4,8.5-0.3,12.6c-1,2.4-3,3.4-5.7,3.1c-2.1-0.2-2.1-0.2-2.1-2.4C200.3,86.7,200.3,84.7,200.3,82.7z"/>
		<path class="st0" d="M240.5,86.6c0,0.1,0,0.2,0,0.4c0,1.2,0.2,2.4-1.2,3.1c-1.7,0.8-3.3,1.5-5.1,0.8c-1.4-0.5-1.9-2-1.7-3.9
			c0.2-1.7,1.3-2.9,3.1-3.1c1.4-0.1,2.9,0,4.3-0.1c0.5,0,0.6,0.3,0.6,0.7C240.5,85.2,240.5,85.9,240.5,86.6z"/>
		<path class="st5" d="M38.2,165.6c0.4-0.2,0.7,0.1,1,0.2C38.8,166,38.5,165.9,38.2,165.6z"/>
	</g>
</g>
</svg>
