<?xml version="1.0" encoding="utf-8"?>
<!-- Generator: Adobe Illustrator 19.2.0, SVG Export Plug-In . SVG Version: 6.00 Build 0)  -->
<svg version="1.1" id="Layer_1" xmlns="http://www.w3.org/2000/svg" xmlns:xlink="http://www.w3.org/1999/xlink" x="0px" y="0px"
	 viewBox="0 0 365.5 257" style="enable-background:new 0 0 365.5 257;" xml:space="preserve">
<style type="text/css">
	.st0{fill:#333B79;}
	.st1{fill:#333C79;}
	.st2{fill:#F7F9FB;}
	.st3{fill:#343C75;}
	.st4{fill:#F8F9FA;}
	.st5{fill:#D0C42D;}
	.st6{fill:#D0C32B;}
	.st7{fill:#FDFEF7;}
	.st8{fill:#333C76;}
	.st9{fill:#D1C32B;}
	.st10{fill:#363A6D;}
	.st11{fill:#F9FAFB;}
	.st12{fill:#474D7E;}
	.st13{fill:#F5F7F9;}
	.st14{fill:#FBFCEF;}
	.st15{fill:#393E6F;}
	.st16{fill:#FCFDF5;}
	.st17{fill:#F2F4F8;}
	.st18{fill:#364074;}
	.st19{fill:#E9EBF3;}
	.st20{fill:#FCFBEA;}
	.st21{fill:#FCFDF6;}
	.st22{fill:#FAF9E5;}
	.st23{fill:#F0F2F5;}
	.st24{fill:#F6F6FA;}
	.st25{fill:#FBFAEA;}
	.st26{fill:#FDFDF8;}
	.st27{fill:#333773;}
	.st28{fill:#FCFADC;}
	.st29{fill:#33396B;}
	.st30{fill:#40477A;}
	.st31{fill:#FBF9DF;}
	.st32{fill:#FAFBF7;}
	.st33{fill:#FBFDF6;}
	.st34{fill:#363D66;}
	.st35{fill:#F4F6F8;}
	.st36{fill:#FCFCED;}
	.st37{fill:#FBFBD5;}
	.st38{fill:#FCFCF5;}
	.st39{fill:#FCFBEC;}
	.st40{fill:#FBFCF2;}
	.st41{fill:#FAF8E5;}
	.st42{fill:#F6F7F9;}
	.st43{fill:#3B4174;}
	.st44{fill:#FCFDF7;}
	.st45{fill:#383D76;}
	.st46{fill:#FDFDF7;}
	.st47{fill:#FAF9E9;}
	.st48{fill:#3A4174;}
	.st49{fill:#393C6E;}
	.st50{fill:#CFC746;}
	.st51{fill:#D4C84C;}
	.st52{fill:#F9F6D3;}
	.st53{fill:#FCFEF7;}
	.st54{fill:#F5F7F8;}
	.st55{fill:#F8F8D7;}
	.st56{fill:#F3F4F8;}
	.st57{fill:#F8F7D9;}
	.st58{fill:#8789A2;}
	.st59{fill:#F5F8FB;}
	.st60{fill:#F8FAF9;}
	.st61{fill:#828099;}
	.st62{fill:#7F7F94;}
	.st63{fill:#8182A1;}
	.st64{fill:#FDFDF6;}
	.st65{fill:#F9F9E4;}
	.st66{fill:#F8F8E4;}
	.st67{fill:#F4F7FA;}
	.st68{fill:#F8F6C2;}
	.st69{fill:#FBFCF4;}
	.st70{fill:#F8F8DC;}
	.st71{fill:#F9F6D5;}
	.st72{fill:#FAF8E4;}
	.st73{fill:#FBFDF7;}
	.st74{fill:#FAF8D7;}
	.st75{fill:#FAF9E1;}
	.st76{fill:#373A6D;}
	.st77{fill:#757691;}
	.st78{fill:#3C4275;}
	.st79{fill:#F4F6F6;}
	.st80{fill:#D5D8E9;}
	.st81{fill:#383E7A;}
	.st82{fill:#7B7D8F;}
	.st83{fill:#818397;}
	.st84{fill:#F7F6C9;}
	.st85{fill:#76788D;}
	.st86{fill:#D8DDE7;}
	.st87{fill:#787991;}
	.st88{fill:#6E6F84;}
	.st89{fill:#EBEEF5;}
	.st90{fill:#54536E;}
	.st91{fill:#363C71;}
	.st92{fill:#FCFCF0;}
	.st93{fill:#78788D;}
	.st94{fill:#7D7B95;}
	.st95{fill:#F6F8F9;}
	.st96{fill:#FAF7D4;}
	.st97{fill:#FAF6D2;}
	.st98{fill:#F4F7F7;}
	.st99{fill:#FAFBE5;}
	.st100{fill:#FCFCF3;}
	.st101{fill:#737595;}
	.st102{fill:#F1F4F6;}
	.st103{fill:#83818F;}
	.st104{fill:#FBFBF0;}
	.st105{fill:#D3CA53;}
	.st106{fill:#F1F4FA;}
	.st107{fill:#7C7C9F;}
	.st108{fill:#E3E6EF;}
	.st109{fill:#7C7B99;}
	.st110{fill:#F3F7F9;}
	.st111{fill:#EFF2F5;}
	.st112{fill:#7B7C92;}
	.st113{fill:#FBFEF4;}
	.st114{fill:#7B7B96;}
	.st115{fill:#8D8EA6;}
	.st116{fill:#727484;}
	.st117{fill:#616384;}
	.st118{fill:#74758D;}
	.st119{fill:#7F8299;}
	.st120{fill:#7B7D91;}
	.st121{fill:#7A7A91;}
	.st122{fill:#6B6A82;}
	.st123{fill:#666988;}
	.st124{fill:#FBFBEA;}
	.st125{fill:#55577B;}
	.st126{fill:#565773;}
	.st127{fill:#DFE1E9;}
	.st128{fill:#5B5C74;}
	.st129{fill:#3F4474;}
	.st130{fill:#7A7994;}
	.st131{fill:#828399;}
	.st132{fill:#FCFCEF;}
	.st133{fill:#7A798B;}
	.st134{fill:#FBF9D4;}
	.st135{fill:#FBFCF5;}
	.st136{fill:#CEC648;}
	.st137{fill:#EDF1F5;}
	.st138{fill:#60637F;}
	.st139{fill:#F7F5D8;}
	.st140{fill:#68687C;}
	.st141{fill:#7B7A9E;}
	.st142{fill:#636481;}
	.st143{fill:#575B76;}
	.st144{fill:#8887A1;}
	.st145{fill:#5E5D71;}
	.st146{fill:#8586A7;}
	.st147{fill:#7D7E8F;}
	.st148{fill:#3F4473;}
	.st149{fill:#666881;}
	.st150{fill:#FBFBEB;}
	.st151{fill:#73768B;}
	.st152{fill:#63636B;}
	.st153{fill:#73718A;}
	.st154{fill:#77798D;}
	.st155{fill:#7F7E9B;}
	.st156{fill:#6F738B;}
	.st157{fill:#69697F;}
	.st158{fill:#6C6D85;}
	.st159{fill:#F1F3F6;}
	.st160{fill:#5A5B75;}
	.st161{fill:#65698D;}
	.st162{fill:#65677C;}
	.st163{fill:#777B8D;}
	.st164{fill:#FCFEF1;}
	.st165{fill:#6F708A;}
	.st166{fill:#64647A;}
	.st167{fill:#81829A;}
	.st168{fill:#626381;}
	.st169{fill:#42487B;}
	.st170{fill:#5D5C7C;}
	.st171{fill:#7F7E97;}
	.st172{fill:#606275;}
	.st173{fill:#384175;}
	.st174{fill:#686983;}
	.st175{fill:#60607C;}
	.st176{fill:#6C6C81;}
	.st177{fill:#77767F;}
	.st178{fill:#5D5F78;}
	.st179{fill:#70728F;}
	.st180{fill:#838289;}
	.st181{fill:#797886;}
	.st182{fill:#736F94;}
	.st183{fill:#7B7C8D;}
	.st184{fill:#52527F;}
	.st185{fill:#525683;}
	.st186{fill:#FCFCF1;}
	.st187{fill:#6A6B7E;}
	.st188{fill:#6E6D85;}
	.st189{fill:#5D5F76;}
	.st190{fill:#7F8198;}
	.st191{fill:#737489;}
	.st192{fill:#FBFBFC;}
	.st193{fill:#373E72;}
	.st194{fill:#373E76;}
	.st195{fill:#3E4473;}
	.st196{fill:#333D70;}
	.st197{fill:#333C72;}
	.st198{fill:#FDFDFD;}
	.st199{fill:#40477C;}
	.st200{fill:#3D4478;}
	.st201{fill:#3F4372;}
	.st202{fill:#333C75;}
	.st203{fill:#3B4276;}
	.st204{fill:#303970;}
	.st205{fill:#343B7B;}
	.st206{fill:#343B75;}
	.st207{fill:#333C78;}
	.st208{fill:#353B7B;}
	.st209{fill:#FEFEFE;}
	.st210{fill:#363C6F;}
	.st211{fill:#313A74;}
	.st212{fill:#6D6F86;}
	.st213{fill:#DEE1EF;}
	.st214{fill:#6D6F8A;}
	.st215{fill:#8A8BA4;}
	.st216{fill:#62607B;}
	.st217{fill:#7A7993;}
	.st218{fill:#83859B;}
	.st219{fill:#8F91A2;}
	.st220{fill:#5B607C;}
	.st221{fill:#9B9CA8;}
	.st222{fill:#8F909D;}
	.st223{fill:#65637E;}
	.st224{fill:#353C7B;}
	.st225{fill:#CBCF70;}
	.st226{fill:#D2D46D;}
	.st227{fill:#D0CB59;}
	.st228{fill:#CFC42F;}
	.st229{fill:#D1C43A;}
	.st230{fill:#D1C329;}
	.st231{fill:#FAF7D5;}
	.st232{fill:#CAC859;}
	.st233{fill:#F2EFCA;}
	.st234{fill:#EEEDBE;}
	.st235{fill:#D1C630;}
	.st236{fill:#8A8A9B;}
	.st237{fill:#D0C42A;}
	.st238{fill:#CFC52A;}
	.st239{fill:#C6C649;}
	.st240{fill:#CDC538;}
	.st241{fill:#7E7E94;}
	.st242{fill:#CDC64C;}
	.st243{fill:#D0C42E;}
	.st244{fill:#D1C834;}
	.st245{fill:#CACB5F;}
	.st246{fill:#7B7E97;}
	.st247{fill:#EDEEB2;}
	.st248{fill:#C9C448;}
	.st249{fill:#D2C31C;}
	.st250{fill:#CFC42B;}
	.st251{fill:#D1C41D;}
	.st252{fill:#5B5C78;}
	.st253{fill:#CFC428;}
	.st254{fill:#D0C54C;}
	.st255{fill:#656781;}
	.st256{fill:#8788A4;}
	.st257{fill:#E7ECF5;}
	.st258{fill:#CEC649;}
	.st259{fill:#D6DBE8;}
	.st260{fill:#706E88;}
	.st261{fill:#F7F9FD;}
	.st262{fill:#7C8094;}
	.st263{fill:#868491;}
	.st264{fill:#6A6984;}
	.st265{fill:#E3E8F4;}
	.st266{fill:#333D74;}
	.st267{fill:#CEC515;}
	.st268{fill:#FCFDF3;}
</style>
<g id="W1mZG8_1_">
	<g>
		<path class="st0" d="M120.7,129.4c-0.9-1.4-1.9-2.6-3.1-3.6c-1.8-1.2-2.8-3.2-4.2-4.7l0,0c-0.5-0.2-1-0.6-1.3-1.1
			c-0.3-1-1.3-1.6-1.9-2.4c-0.7-0.7-1.4-1.5-2-2.2c-0.6-0.9-1.6-1.7-2.1-2.6c-2.8-3.3-5.6-6.6-8.4-9.9c-0.6-0.7-0.9-1.6-1.8-2
			c-0.8-0.2-1.3-2-2.3-0.3c0.4,6.4,0.1,12.8,0.2,19.2c0,4.9,0.1,9.9,0,14.8c0,0.4,0,0.9,0.3,1.2c-3.1,1.1-6.3,0.3-9.4,0.4
			c-1.5,0-0.9-1.4-0.9-2.3c0-6.8,0-13.5,0-20.3c0-9.7,0-19.5,0-29.2c0-0.8-0.4-1.7,0.4-2.4c2.6-0.1,5.2,0,7.8,0
			c2.7,2,4.6,4.9,6.8,7.4c0.7,0.8,1.4,1.7,2.3,2.4c3,3.2,5.9,6.5,8.8,9.8c0.3,0.3,0.3,0.8,0.4,1.2c0.4,1,1.5,1.8,0.7,3.1
			c-0.1,0.1-0.2,0.3-0.3,0.4c2.8,1.1,0.8,2.9,0.6,4.5c0,0.3-0.1,0.5,0,0.8c0.3,1.2,5.3,4.5,6.5,4.4c0.5,0,0.2-0.4,0.2-0.7
			c0.6-1.7,1.6-1.6,2.7-0.5c0.8,0.8,1.5,1.7,2.6,2.1c0.4-0.1,1,1.2,1.2,0c0.2-1,0.3-2-0.1-3c0.2-4.6,0.2-9.2,0.1-13.7
			c-0.1-5.5,0.4-10.9,0-16.4c-0.1-2.1,0.5-2.8,2.6-2.6c2,0.2,4,0.1,6,0c2-0.1,2.6,0.9,2.9,2.6c0.1,0.8,0.1,1.6,0.1,2.3
			c0,15.2,0,30.4,0,45.6c0,0.9,0.1,1.7-0.1,2.6c-0.3,1.4-0.9,2.4-2.6,2.3c-1.5-0.1-2.9-0.1-4.4,0.2c-1.2,0.2-2.1-0.3-3-1.2
			C123.9,133.7,122.2,131.6,120.7,129.4z"/>
		<path class="st0" d="M206.8,168.7c0.2-0.5,0-1.2,0.5-1.6c0.5-0.8,0.5-1.8,1.1-2.5l0,0c0.3-1,0.6-2.1,1.2-3
			c1.3-1.1,1.2-2.6,1.4-4.1c0.1-0.5,0.3-0.9,0.6-1.3c2.1-3.3,3.4-6.9,4.5-10.6c1.3-3.6,2.5-7.1,3.8-10.7c1.1-3.2,2-6.5,3.6-9.5
			c0.2-0.5,0-1.2,0.5-1.6c0.4-0.7,0.6-1.8,1.6-1.8c3.6,0.1,7.3-0.5,10.9,0.3c0.1,0.3,0.3,0.7,0.4,1c1.6,2.6,2.5,5.4,3.2,8.4
			c0,1,0.4,1.8,0.9,2.6c1.5,1.4,1.7,3.4,2.2,5.3c1.4,4.1,2.9,8.1,4.3,12.2c0.1,3,2.1,5.3,3,8c0.2,0.5,0,1.2,0.5,1.6
			c1.6,4.6,3.3,9.1,5.5,13.5c0.1,0.3,0.1,0.6,0,0.9c-0.6,1-1.6,1-2.5,1c-1.6,0-3.1-0.1-4.7,0c-3.1,0.3-5.2-0.7-6.2-3.8
			c-1.9-1.6-1.6-4-2.4-6c0-1.6-1.1-1.5-2.2-1.5c-5.9,0-11.8,0-17.7,0c-0.1-0.3,0-0.6,0.3-0.7c1.6-0.9,3.2,0,4.8,0
			c4.2-0.1,8.4,0,12.4,0c0.6,0,0.1-0.5,0.3-0.2c0,0.1,0,0.2-0.2,0.2c-5.1-0.1-10.2,0.4-15.3-0.3c-0.6-0.1-1.2,0.1-1.8,0.2
			c-2.2,1.2-2.4,3.1-1.9,5.3c-0.5,1.6-1.1,3-1.8,4.5l0,0c-0.2,0.2-0.4,0.2-0.6,0.2c-1.7-0.3-2.1,2.1-3.8,1.9
			c-1.9-0.1-3.9,0.7-5.6-0.8c-0.4-0.3-0.8,0-1.2,0.2c-1.1,0.7-1.7,0.1-2.1-0.9c-0.1-0.4,0-0.8,0.4-1l0,0
			C205.1,172.1,205.5,170.2,206.8,168.7z"/>
		<path class="st0" d="M288.2,155.8c0.4,0.8,0.8,1.6,1.2,2.4c0.8,0.6,1.3,1.3,1.6,2.2c-0.2,1.5,1,2.2,1.9,3.1l0,0
			c0.6,2.4,2.2,4.3,3.8,6.1c1.2,1.3,0.9,2.3,0,3.7c-1.7,2.6-3.8,4.1-7,2.8c-2-2.4-3.6-5.1-5.1-7.8c-0.9-3.5-3.3-6.1-5.8-8.5
			c-1.2-0.9-2-2.2-2.6-3.5l0,0c-0.6-0.9-1.4-1.5-1.6-2.6l0,0c-0.2-0.2-0.5-0.4-0.8-0.4c-0.7-0.1-1.4,0.1-2.1,0.1c-3.9,0-3.9,0-3.9,4
			c0,5.5,0,11.1,0,16.6c0,2-0.7,3-2.7,2.7c-1.4-0.2-2.9,0.3-4.4-0.3c-0.9-0.5-1.1-1.4-1.3-2.3l0,0c-1.1-1.6-1.8-3.4-2.1-5.3l0,0
			c-0.6-0.9-0.7-1.9-0.7-3c0.1-12.1,0-24.2,0-36.2c0-2,0.3-4,0.2-6c0-0.8,0.1-1.5,1-1.5c7.8,0.4,15.6-1,23.3,0.8l0,0
			c1.1,0.1,2.3,0.1,3.1,1.1l0,0c1,0.4,2.1,0.6,2.7,1.6c0.2,0.1,0.4,0.3,0.5,0.4c3.9,2.2,5.1,5.9,5.2,10.1c-0.2,3.7-0.8,7.2-3.1,10.3
			c-1.1,1.5-2.4,2.9-4.3,3.5l0,0c-0.6,0.5-0.6,0.9-0.2,1.7C286.3,153,287.5,154.2,288.2,155.8z"/>
		<path class="st0" d="M35,80.9c0.2,0,0.3,0,0.5,0c1.2,0.7,2.5,0.1,3.7,0.4c0.7,0.2,1.5,0.1,2.3,0.2c1.5,0.1,2.4,0.8,2.1,2.5
			c-0.7,2.8,0.5,5.8-0.8,8.7c-0.9-1.6-0.9-1.6-0.9-5.3c-0.1,3.4-0.4,7.3,0.5,10.7c0.8,3.1,1.2,6,1.1,9c-0.1,2.8,0,5.6-1.1,8.2
			c0.3-0.3,0.4-0.6,0.6-0.9c0.7-5,0.5-10,0.5-15c-0.1-6.1-0.2-12.2,0.6-18.3c0.8,0.8,0.4,1.8,0.4,2.7c0,9,0,18.1,0,27.1
			c0,1,0,2.1,0,3.1c0.3,6.4,3.4,11.3,8.1,12.9c5.9,2,11.1,0.4,15.5-4.8c2.5-2,2.5-5,2.6-7.8c0.2-9.5,0-19.1,0.1-28.7
			c0-4,0.3-4.3,4.3-4.2c1,0,2.1,0.2,3-0.5c1.8-0.6,2.4,0.1,2.4,2c-0.1,10.1,0,20.1-0.1,30.2c-0.1,7.5-2.4,14.2-8.5,19
			c-1.4,1.1-2.9,2.2-4.8,2.4c-2.3-0.1-4.3,1.1-6.6,1.4c-2.5,0.4-5-0.1-7.5,0.1c-9.2-0.9-17.6-9.1-17.8-17.4
			c-1.4-12-0.4-24.1-0.7-36.1C34.2,82,34.3,81.3,35,80.9z"/>
		<path class="st0" d="M174.4,154.1c0.5,3,1,6,0.4,9c-0.9,4.7-3.6,8.3-7.6,10.8c-1.2,0.2-2.2,0.9-3.2,1.6c-7.1,3-13.4,1.3-19.4-3
			c-0.6-0.7-1.3-1.1-2-1.7c-0.3-0.3-0.7-0.5-0.9-0.9c-3.3-4-3.2-4.7,1-7.4c1.1-0.7,2.2-1.3,3.2-2.2c1.6-1.4,2.9-1.5,3.9,0.6
			c0.3,0.2,0.5,0.4,0.8,0.7c3.7,4.2,5.7,4.6,10.9,2.5l0,0c1.6-2.3,2.2-4.7,1-7.4c-0.5-0.5-1-1.1-1.5-1.6c-2.5-1-4.7-2.5-6.8-4.2
			c0-0.1,0-0.3-0.1-0.4c-1.5-1.9-4-2-5.8-3.5c-2-1.6-4.1-3.2-4-6.1c0.2-0.6,0.1-1.2,0.5-1.7c1-1,1.6-2.1,1.6-3.5
			c0.1-0.2,0.1-0.5,0.3-0.7c1.4-1.5,1.7-3.4,1.7-5.4c0.5-2.8,2.5-4.9,3.2-7.6c0.2-0.8,1-1,1.7-1c4.3-0.2,8.6-0.6,12.4,2.3l0,0
			c2.6,0.6,3.9,2.7,5.5,4.5c0.9,1.1,0.4,2.1-0.6,2.9c-2.4,1.9-5,3.4-7.6,5l0,0c-1,0.4-1.1-0.4-1.5-0.9c-0.4-0.3-0.7-0.7-1.1-1
			c-0.6-0.2-1.1-0.6-1.5-1.1c-1.4-0.8-2.8-0.9-4.2,0c-1.5,1.2-1.9,2.7-0.8,4.4c0.4,0.5,0.6,1,0.7,1.6c4.4,3.2,9.6,4.7,14.1,7.7
			c0.9,0.7,2.2,1,2.6,2.2c0.1,0.1,0.3,0.3,0.4,0.4C173.3,150.2,174,152.1,174.4,154.1z"/>
		<path class="st1" d="M191.1,176.4c-1.1-0.7-0.5-1.7-0.5-2.6c0-13.4-0.1-26.9,0-40.3c0-2-0.5-2.6-2.6-2.6c-4.4,0-8.8,0.6-13.2-0.3
			c3.9-0.6,7.9-0.2,11.8-0.3c0.4,0,0.8,0.3,1.1,0c-3.3-0.2-6.7,0.2-10.1,0.1c-2.1-0.1-5.1-4.3-4.4-6.2c0.4-1,1.3-1.2,2.2-0.9
			c2.8,1.2,5.7,0.8,8.5,0.8c9.4,0,18.8,0,28.1,0c1.9,0,3.8,0.1,5.7-0.6c1.3-0.5,1.9,0,2,1.4c0.1,3.2-2,5.5-5.2,5.5
			c-4.1,0-8.1,0-11.5,0c4.5,0.3,9.7-0.4,14.9,0.3c-4.7,0.8-9.5,0.3-14.3,0.3c-2.2,0-2.7,0.6-2.7,2.8c0.1,13.5,0,27,0.1,40.4
			c0,1.9-0.4,2.7-2.4,2.5c-2.2-0.2-4.3-0.1-6.5-0.2c-1.2-0.7-0.7-1.8-0.7-2.8c0-14,0-27.9,0-41.5c0.2,0.7,0,1.8,0,2.9
			c0,12.9,0,25.7,0,38.6C191.4,174.5,191.6,175.5,191.1,176.4z"/>
		<path class="st0" d="M309.6,176c-0.1-7-0.1-14-0.2-21c-0.1-7.8,0.3-15.6-0.2-23.4c-3.9-0.6-7.9-0.1-11.8-0.3
			c-1.2,0-2.5,0.5-3.5-0.7c1.8-1.2,3.8-0.9,5.7-0.7c2.5,0.3,4.9,0.3,7.1,0.3c-1.8-0.2-3.9,0.3-5.9-0.3c-1.4-1.1-2.8-1.7-4.3-0.2
			c-1.8-0.1-2-1.4-2.1-2.8c2.3-2.2,4.6-1.4,7-0.1c1.7,1.1,3.5,0.1,5.3,0.6c-1.8-0.6-3.8,0.7-5.5-0.8c0-1.6,1.3-1.5,2.2-1.5
			c4.3,0.1,8.6-0.4,12.9,0.3c0.9,0.1,1.7-0.2,2.6-0.1c1.9,0.1,2.7,1.4,1.5,2.9c-0.6,0.8-0.8,1.2-0.1,1.9c0.1,0.3,0,0.6-0.1,0.9
			c-0.6,1-0.3,2-0.3,3.1c0,13.1-0.1,26.3,0,39.4c0,2.2-0.6,2.9-2.8,2.7C314.6,176,312.1,176.5,309.6,176z"/>
		<path class="st2" d="M146.8,135.2c-0.1,0.1-0.2,0.2-0.1,0.3c-0.2,0.5,0,1.1-0.7,1.4c-0.1,0-0.2-0.1-0.3-0.1
			c-0.4-2.8-1.8,0.3-2.5-0.5c-0.1-0.1-0.2-0.2-0.2-0.3c-0.2-0.8,0.1-1.5,0.3-2.2c1.6-4,3.3-7.9,4.6-12.1c0.1-0.3,0.2-0.6,0.3-0.8
			c0.3-12,0-24,0.1-36c0-2.1-1.3-2.1-2.7-2.1c-1.9,0-3.9-0.5-5.8,0.4c-0.7,1-0.4,2.2-0.4,3.3c0,15.2,0,30.4,0,45.6
			c0,1.3,0.2,2.6-0.4,3.8c-0.1,0.1-0.2,0.2-0.4,0.4c-0.8-0.1-1.5-0.4-1.9-1.1c0.8-16.7,0.4-33.3,0.3-49.8
			c-0.3,16.6-0.2,33.2-0.3,49.8c-0.9,1.3-1.5,2.1-3.3,1.7c-1.2-0.3-2.7-0.1-4,0.2c-1.4,0.3-2.9,0.2-3.8-1.5
			c-0.3-0.6-0.9-1.9-2.2-0.9c-0.3,0.2-0.6-0.1-0.5-0.2c0.8-2.3-1.9-3.2-2-5.1c1.2,1.3,2.8,2.5,3.7,4c2.5,4.1,6.3,2.7,9.8,2.8
			c1,0,0.9-0.8,0.9-1.5c0-1.8,0-3.6,0-5.5c0-15,0-30.1,0-45.1c0-1.9-0.4-2.7-2.5-2.5c-1.8,0.2-3.7,0.2-5.5,0c-2-0.2-2.7,0.4-2.7,2.6
			c0.1,8.9,0.1,17.9,0,26.8c0,0.9-0.1,1.9-0.2,2.8c-0.2-0.3-0.6-0.6-0.5-0.8c0.7-4.2-0.3-8.4,0.3-12.6c0.1-0.5,0.2-1.1,0.1-1.6
			c-0.9-5.3,0.6-10.7-0.2-16c-0.2-1.5,0.3-1.9,1.6-1.9c3-0.2,6.1,0.3,9.1-0.3c0.1,0,0.2-0.1,0.2-0.1c1.3,3.2,3.5,0.5,5.3,0.8
			c2.1,0.3,4.3,0.2,6.5,0c1.9-0.2,3.3,0.2,2.9,2.4c-0.6,3.6-0.3,7.3-0.3,10.9c0.1,8.8-0.4,17.5,0.3,26.3c0.1,1.4-0.6,2.9-0.1,4.7
			c0.6-1.6,1.7-2.7,1-4.4c-0.4-1.1,0-1.1,1.4-0.8c1.9,0.5,3.9,0.2,5.9,0.1c3-0.2,5.7,0.2,7.7,2.8c-3.6-1.6-7.3-2.5-11.3-2
			c-1.5,0.2-2.6,0.6-3.1,2.2c-0.7,2.2-1.6,4.3-2.4,6.5C148.3,131.8,147.9,133.7,146.8,135.2z"/>
		<path class="st3" d="M218,130.6c-5.6,0-11.3,0-16.9,0c0-0.2,0-0.4,0-0.6c4.2,0,8.4,0,12.7,0c3.6,0,5.2-1.5,5.3-5.3
			c0-0.3,0-0.7,0.1-1.4c-1.9,1.9-4.1,1.5-6.2,1.5c-11.2,0-22.5,0-33.7,0c-1.4,0-2.8,0.3-3.9-1c-0.3-0.4-0.9-0.4-1.4-0.1
			c-0.6,0.4-0.3,1.1,0,1.4c0.7,0.9,0.8,2,1.2,3.1c0.4,0.9,0.9,1.9,2.2,1.8c2.3-0.2,4.7,0.2,7-0.3c1.9-0.4,3.8,0.5,5.7-0.2
			c0,0.4,0,0.7,0,1.1c-5.1,0-10.2,0-15.3,0c0,0-0.2,0-0.2,0l-0.2-0.1c-1.4-2.5-3-5-2.8-8.1c0.7-0.8,1.6-0.5,2.4-0.5
			c15.7,0,31.3,0,47,0c0.9,0.4,0.7,1.1,0.3,1.7c-1,1.9-1.4,4.1-2.8,5.9C218.3,129.9,218.5,130.4,218,130.6z"/>
		<path class="st4" d="M187.5,112.2c-0.8-1-2.6-1.8-1.1-3.5c-1.2-0.7-0.7-1.7-0.5-2.7c-0.5-0.6-1.2-0.5-1.9-0.5
			c-1.2,0.3-2.6-0.5-3.8,0.5c-0.2,0.2-0.5,0.5-0.7,0.7c-0.7,0.2-1.3-0.2-1.9-0.5c-1.7-0.9-2.5-0.5-2.6,1.5c-0.1,1.7,0.3,3.5-0.6,5.1
			c-1.2,0.5-2.4,1.2-3.2-0.6c-0.2-0.4-0.3-0.7-0.6-0.2c-0.9,1.4-2,0-3,0.4c-0.1,0-0.2,0-0.3,0c-0.4,0-0.7,0.3-1.1,0.5
			c-0.1,0-0.2,0-0.3,0.1c-0.5,0.2-1,0.3-1.6,0.5c-0.2-0.2-0.4-0.5-0.5-0.8c-0.3-2-0.4-4.1,0-6.1c0.1-0.3,0.3-0.6,0.9-0.8
			c-1.5-0.1-2.8,0.2-4.1-0.2c-0.2-0.1-0.4-0.3-0.6-0.4c0-0.8,0.8-1.7,0-2.5c0.1-0.9,0.7-1.5,1.6-1.7c0.3,0.2,0.6,0.3,0.9,0.5
			c0.9,0.2,1.3-0.9,2.1-1c1-0.3,2-0.3,3-0.1c0.4,0.1,0.7,0.3,0.9,0.6c0.3,0.3,0.5,1,1.2,0.6c0.7-0.5,1.2,0.8,1.9,0.3
			c0.8,0.5,1.6,0.6,2.4,0c0.6-0.5,0.4-1.5,1.1-2c0.8,0.5,0.5,1.4,0.5,2.1c0.8,0.5,0,1.5,0.5,2.1c2.7,0,5.4,0.6,8.1,0.4
			c1-0.1,2.6-1.2,3.3,0.8c-0.8,2-0.4,4-0.2,6C187.8,111.5,187.8,111.9,187.5,112.2z"/>
		<path class="st5" d="M226,70.1c0,0.2,0,0.5,0,0.7c-1,0.9-1.7,0.1-2.5-0.4l0,0c-1.4-0.8-2.5,0.3-3.8,0.5l0,0
			c-1.5,0.6-1.5-0.4-1.4-1.4c0.2-1.2,0.3-2.4-0.6-3.3l0,0c-0.5-0.5-1.5-0.7-1.3-1.7c0.2-0.9,1-0.7,1.7-0.9c1.2-0.3,2.2-0.8,2.7-2.1
			c0.7-1.7,1.8-1.3,2.6,0c0.5,0.8,0.8,1.5,1.9,1.8c3.1,0.8,3.1,1,0.9,3.5C225.5,67.9,225.8,69,226,70.1z"/>
		<path class="st6" d="M242.7,89.4c0.3,1.4,1.6,0.9,2.4,1.2c1,0.4,1.9,0.6,0.8,1.8c-0.8,1-1.4,2-1.2,3.4c0.3,2-0.2,2.2-2.3,1.5
			c-1.1-0.8-2-0.5-3.1,0.1c-1.2,0.7-2.1,0.7-2.1-1.1c0-1.4-0.2-2.9-1.4-4c-0.5-1.2,0.1-1.7,1.2-1.9c1.3-0.2,2.2-0.8,2.9-1.9
			c1.2-2,1.3-2,2.5,0.1C242.5,88.9,242.6,89.2,242.7,89.4z"/>
		<path class="st7" d="M293,120.2c1.1-1,2-0.6,2.9-0.6c11.6,0,23.3,0,34.9,0c1.8,0,3.6,0,5.4-0.8c2.2-0.9,4.2,0,6.2,1
			c0.7,0.4,0.7,1.1,0.5,2.3c-2.1-2.1-4.4-1.7-6.9-1.7c-14,0.3-28,0.1-41.9,0.1C293.8,120.6,293.5,120.4,293,120.2z"/>
		<path class="st8" d="M123.3,116.9c-1.1,0.8-1.3-0.5-1.8-0.8c-2.6-2.1-2.6-2.1-3.4,1.5c-0.6-1.2-1.1-2.3-2.4-1.3
			c-0.4,0.3-1.1,0.2-1.4-0.3c-0.8-1.6-2-2.7-3.6-3.6c-1-0.6,0-1.5,0-2.3c0.1-1,2.7-3-0.9-3c-0.4,0-0.8-0.8-0.4-0.9
			c2.3-0.7,0.6-2.2,0.8-3.4c2.8,2,4.9,4.7,6.9,7.4c1.6,0.8,2.5,2.3,3.5,3.7C121.5,114.8,122.4,115.9,123.3,116.9z"/>
		<path class="st9" d="M226.1,188.6c0,0.3,0,0.5,0,0.8c0,0.1-0.1,0.2-0.1,0.2c-2.2,0.3-4.5-1.2-6.8,0.1c-0.5,0.3-0.8-0.9-0.8-1.6
			c0-1.3,0-2.6-0.9-3.6c-0.4-1.6,0.6-2.1,1.8-2.5c0.5-0.3,0.9-0.8,1.4-1.2c0.8-0.5,1.3-1.9,2.6-0.8c0.7,0.6,1,1.5,1.9,1.9
			c1,0.5,3,0.3,2,2.4c-0.2,0.4-0.6,0.8-1,1.1l0,0C225.7,186.4,225.7,187.5,226.1,188.6z"/>
		<path class="st10" d="M77.8,80.9c-0.6,1.2-1.6,1.3-2.8,1.1C71.3,81.6,71,82,71,85.8c0,9.7,0,19.4,0,29.1c0,2.3-0.7,4.5-1.4,6.7
			c-0.2,0.5-0.5,2.5-1.8,0.6c1.8-3.8,2.3-7.8,2.2-11.9c-0.1-9,0-18.1-0.1-27.1c0-1.8,0.5-2.5,2.3-2.3C74.1,80.9,76,80.9,77.8,80.9z"
			/>
		<path class="st11" d="M171.7,123.2c1.1,2.4,2.2,4.7,2.7,7.3c-0.7-0.2-1.5-0.4-2.4-0.7c1.5,2-0.5,2.1-1.4,2.4
			c-1.3,0.4-2.5,0.5-2.9,2c0,0.2-0.5,0.5-0.5,0.5c-1.8-1.2-2.9,1-4.4,0.9c2.4-1.8,4.7-3.7,7.2-5.4c1.2-0.8,1.1-1.4,0.4-2.5
			c-1.3-1.8-3.2-3.1-4.9-4.6c1.3-1,2.7-2.9,3.8,0.2c0.3,0.8,0.9,0.3,1.2,0c0.5-0.5,0.1-1.4,0.8-1.8
			C171.8,122.1,171.3,122.8,171.7,123.2z"/>
		<path class="st12" d="M309.6,176c2.5,0,5-0.1,7.5,0c2,0.1,2.5-0.6,2.5-2.5c-0.1-13.3,0-26.7,0-40c0-1-0.4-2.1,0.5-3
			c0.9-0.8,2.1-0.7,3.2-0.7c4.2,0,8.5,0,12.7,0c0.9,0,1.9,0.2,2.7-0.6c0.1-0.2,0.3-0.5,0.4-0.7c0.4-2-0.4-4.2,0.6-6.1
			c0.2-0.3,0.5-0.3,0.8-0.2l0.1,0c0.4,2.6,0,5.2,0.2,7.8c0.1,1.5-1,1.4-1.9,1.4c-5.4,0-10.8,0-16.1,0c-0.8,0-1.7-0.2-2.5,0.3
			c-0.1,6.1-0.1,12.2-0.2,18.2c0,8.1-0.1,16.2,0,24.3c0,2.1-0.6,2.8-2.7,2.5C314.8,176.2,312.1,177.4,309.6,176z"/>
		<path class="st13" d="M281.4,122.8c-7.4-1.3-14.9-0.6-22.3-0.8c-1.1,0-1.8,0.2-1.8,1.5c0.2,15-0.3,30,0.3,45
			c-0.5-0.1-0.6-0.5-0.7-1c-0.5-2.7-0.1-5.5-0.2-8.2c-0.2-3,0.3-6-0.3-9c0-0.5,0-1,0-1.6c0.4-4.9,0.4-9.7,0-14.6
			c0.1-3.7,0.2-7.4,0.2-11.1c0-0.9,0.4-1.4,1.2-1.4c7.6,0.2,15.3-0.7,22.9,0.5C280.9,122.3,281.2,122.6,281.4,122.8z"/>
		<path class="st14" d="M129,195.8c2-0.4,3.4,0.1,4.1,2.1c0.3,0.7,0.7,0.6,1.1,0.7c2.9,0.7,3.3,2.2,1.6,4.5c-0.5,0.4-1,0.3-1.5,0.2
			c-0.3-0.3-0.4-0.7-0.3-1.1c0-0.5,1.1-1.4-0.2-1.6c-1.6-0.3-2.4-1.5-3.3-2.9c-1.2,1.3-2.1,2.9-4,3c0,1,0.7,1.4,0.9,2
			c0.4,1,0.1,2.2,0.5,3.4c2.5-1.6,4.5-0.6,6.5,1c0.1,0.2,0.1,0.5,0,0.7c-1.5,0.7-2.7-1.1-4.2-0.5c-0.2,0.5-0.5,0.8-1,0.5
			c-3.5,0-3.8-0.5-2.6-4.2c-2.8-1.4-3.3-2.7-2.1-4.7c1.2-0.2,2.4-0.4,3.6-0.5C128.6,197.7,127.6,196.3,129,195.8z"/>
		<path class="st15" d="M339.9,122.2c0,2.3,0,4.5,0,6.8c-2.1-1-0.9-3-1.6-4.5c-0.6-1.2-1.7-1.1-2.7-1c-13.2,0.1-26.4,0-39.6,0.1
			c-0.9,0-2.9-1-2.8,1.4c0.2,0.6,0.3,1.1,0.3,1.7c0,0.4-0.1,0.8-0.4,1.2c-1.1,0.5-1.4-0.5-1.5-1.1c-0.2-1.1-0.8-2-1.3-3.1
			c0-0.1,0-0.3-0.1-0.4c-0.3-0.6-0.2-1,0.4-1.2c0.5-0.2,1-0.1,1.6-0.1c15.3,0,30.6,0,45.9,0C338.8,121.9,339.4,121.8,339.9,122.2z"
			/>
		<path class="st16" d="M224.5,182.2c-0.6-0.6-1.4-1.1-1.6-2c-1.8-1.9-1.3,1-2.1,1c-0.4,0.3-0.7,0.7-1.1,1c-1,0.6-3.1-0.2-2.5,2.2
			c-0.2,0.2-0.4,0.2-0.6,0c-1-0.1-1.5-0.8-1.4-1.6c0.2-1.2,1.4-1.3,2.4-1.6c0.6,0,1.1-0.1,1.6-0.5c0.3-0.5,1.1-0.8,1-1.6
			c0.3-0.9,1.2-1.3,1.6-2.1c2.6,0,1.4,2.7,2.9,3.6c0.7-1.3,2.3-1.7,3.6-1.4c1.4,0.4,2.5,1.5,4.1,2.5c-1.4,0.6-2.4,0.7-3.1-0.3
			c-0.9-1.4-1.8-0.2-3.1-0.2c0.9,0.5,1.4,0.7,1.9,1c-0.2,0.2-0.5,0.3-0.7,0.4C226.5,182.3,225.4,182.8,224.5,182.2z"/>
		<path class="st17" d="M196.3,84.7c1.2-0.9,2.4-0.1,3.6-0.2c0.2,0,0.5,0.1,0.7,0.3c0.4,0.4-0.4,7.5-0.8,8c-0.2-2.5,0-5-0.1-7.3
			c-0.1,2.2,0.1,4.8-0.1,7.3c-0.8-0.2-0.6-0.9-0.7-1.4c-0.2-1.4-0.6,0-1,0c-0.9-0.8-1.4-2.2-2.8-2.4c-0.5-0.1-0.9-0.3-1.2-0.8
			c-0.3-0.6-0.3-1.2-0.1-1.8C194.2,85.2,195.6,85.5,196.3,84.7z"/>
		<path class="st18" d="M301,175.4c0.9,0.9,0.6,1.1-0.5,1.1c-3.5,0-7.1,0-10.6,0c0-0.2-0.1-0.4-0.1-0.5c1.3,0.4,2.6-1.5,4-0.2
			c0.2,0.2,0.6-0.2,0.7-0.6c0.1-0.3,0.1-0.8,0.4-1c3.8-2.9,1.2-5.1-0.8-7.3c-1-1-1.2-2.3-1.1-3.6c2.2,2.7,4.1,5.6,5.9,8.6
			c0.4,1.2-1.1,1.7-1.2,2.9c1.2,0,0.9-1.7,2.1-1.6C300.1,174.1,300.5,174.8,301,175.4z"/>
		<path class="st4" d="M240.8,166.9c0.8,1.8,1.6,3.6,2.4,5.5c0.9,3.4,3.2,4.4,6.5,3.9c1.8-0.3,3.6,0,5.4,0c0.9,0,1.8,0,1.4-1.4l0,0
			c-0.5-0.3-0.4-0.6-0.1-1c1-0.6,1.4,0.1,1.8,0.8c0.4,0.6,0.1,1.3-0.4,1.6c-0.8,0.5-1.8,1.4-2.7,1.3c-3.8-0.2-7.5,0.2-11.3-0.4
			c-1.4-0.2-1.1-1.2-1.1-2c0-1.4-0.3-2.4-1.4-3.4C240.1,170.5,241.1,168.6,240.8,166.9z"/>
		<path class="st4" d="M259.6,173.8c0.3,0.5,0.7,1.1,1,1.6c2,1.6,4.3,0.7,6.4,0.6c1,0,0.6-1.3,0.6-2c0-6.3,0.1-12.6,0-19
			c0-2,0.6-2.7,2.5-2.4c1.5,0.2,3.1-0.3,4.6,0.3c0,0.1,0,0.3,0,0.4c-1.5,0-3,1-4.6,0.2c-0.7-0.4-1,0.3-1.3,0.9c-0.4,1-0.5,2-0.4,3.1
			c0.2,6-0.3,11.9,0.3,17.9c0.1,0.7-0.2,1.3-0.8,1.4c-2.7,0.4-5.4,0.5-8,0.1C259.2,176.9,258.8,175,259.6,173.8z"/>
		<path class="st19" d="M171.7,123.2c-0.6-0.4-0.5-1-0.5-1.6c16.2,0,32.4,0,48.5,0c0.8,0,1.6-0.2,2.2,0.6c0.2,0.5-0.1,0.6-0.5,0.5
			c-0.5-1.1-1.5-0.6-2.3-0.6c-15,0-30,0-45,0C173.2,122.1,171.8,121.5,171.7,123.2z"/>
		<path class="st20" d="M244.9,120.6c0.9,0.5,0.9,0.4,1.6-0.5c0.7-0.8-0.1-2.4,1.6-2.7c1.1,0.5,1.7,1.5,2.1,2.6c0.2,0.5,0.5,0.8,1,1
			c0.3,0.3,0.3,0.7,0.1,1c-1.7,0.9-2-0.9-3.1-1.6c-1,1.3-2.1,2.6-4.3,2.9c1.3,1.5,1.8,3.2,1.5,5c1.3,0.5,2.8-1.5,3.8,0.4
			c0,0.3-0.1,0.5-0.2,0.7c-1.8-0.7-2.9,1.9-4.7,1c-1-0.5-1.1-1.2-0.5-2.1c-0.1-0.9,1.2-1.9-0.3-2.7c-1-0.5-2.1-1.1-1.8-2.5
			C242.2,121.8,243.3,120.9,244.9,120.6L244.9,120.6z"/>
		<path class="st21" d="M123.2,45.4c2.1-1,4.1-2.1,4.7-4.6c0.2-1,1.1-1.2,2.1-1.1c1.1,0.1,2.2,0.5,2.3,1.7c0.1,1.1,0.7,2,1.7,1.9
			c1.9-0.3,1.8,1.2,2.3,2.2c-0.1,0.1-0.2,0.2-0.2,0.2c-0.2,0.1-0.4,0.1-0.7,0.1c-0.2,0-0.4-0.1-0.6-0.2c-0.9-0.5-1.9-0.5-2.9-0.8
			c-0.9-0.3-1.1-1.6-2.2-1.5c-1.1,1.5-2.7,2-4.3,2.5c-0.6,0.5-0.3,1.1-0.3,1.7c0,0.2-0.2,0.4-0.3,0.5
			C123.6,47.6,123.8,46.3,123.2,45.4L123.2,45.4z"/>
		<path class="st22" d="M88.8,157.2c-0.6,1-1,2-0.5,3.1c0.3,0.5,0.4,1.1,0,1.6c-0.8,0.4-1.6,0.8-2.5,0.3c-1.3-0.8-2.4-0.6-3.8,0.1
			c-1.8,0.9-3-0.2-2.5-2.1c0.4-1.5-0.1-2.3-1-3.4c-0.6-0.7-2-2.2,0.1-2.8c2-0.6,3.6-1.6,5-3c0.5,0.8,0.1,1.5-0.2,2.2
			c-0.6,1.5-2,2-3.6,2.3c0.6,1.4,1.7,2.4,1.6,4.1c-0.1,1.4,1,0.5,1.7,0.5c1.3-0.3,2.3,0.4,3.6,1c0.5-1.4-0.7-3.4,1.5-4
			C88.4,156.9,88.6,157,88.8,157.2z"/>
		<path class="st19" d="M339.9,122.2c-11.8,0-23.6-0.1-35.4-0.1c-4,0-8,0-12,0c-1,0-2-0.1-2.2,1.2c-0.7-0.7-0.6-1.3,0.3-1.5
			c0.6-0.2,1.2-0.1,1.8-0.1c15.2,0,30.4,0,45.6,0c0.8,0,1.8-0.3,2.4,0.5C340.3,122.2,340.1,122.2,339.9,122.2z"/>
		<path class="st13" d="M290.4,123.6c1.7,1,1.3,3.2,2.5,4.5c0.6,0.2,0.7,0.8,0.9,1.2c0.2,0.4,0.2,0.8,0.1,1.2
			c4.3,0.8,8.7,0.1,13,0.4c0.8,0,1.9-0.6,2.3,0.6c-5.5-0.3-10.9,0.4-16.6-0.2c0.4,1.5,0.5,3,0.3,4.5c-0.7-3.9-2-7.5-5.2-10.1
			c0.4,0,1-1,1.3,0.1c0.3,0.9,1,1.3,1.8,2C291.5,126.3,290.2,125,290.4,123.6z"/>
		<path class="st23" d="M223.5,87.2c0,0.1,0,0.2,0,0.4c0,0.6,0,1.2,0,1.9c-0.2,0.8-0.5,1.4-1,2l0,0c-0.7,0.6-1.5,1-2.5,1
			c-1.7,0.1-2.3-0.7-2.2-2.3c0.1-1.2,0-2.4,0.1-3.6c0.9-2.1,2.3-1.3,3.7-0.6C222.3,86.1,222.7,86.8,223.5,87.2z"/>
		<path class="st24" d="M207.3,91.6c-0.7,0.3-1.3,0.6-2,0.8c-0.9-0.3-2.3,0.7-2.8-0.9c-0.2-1.8-0.3-3.6,0.1-5.4
			c1.4-1.7,2.9-0.2,4.3-0.2c0.4,0.1,0.6,0.5,0.8,0.8l0,0.1c0.2,0.4-0.1,0.9,0,1.3c0,0.7,0.1,1.3-0.1,2
			C207.6,90.6,207.2,91,207.3,91.6z"/>
		<path class="st25" d="M167.7,209.5c-0.6,1.5-0.6,3-0.6,4.6c0,0.6,0.6,1.4-0.2,1.9c-0.8,0.5-1.6,0.1-2.1-0.4
			c-1.2-1.2-2.3-1.4-3.9-0.5c-0.8,0.4-1.8,0.7-2.9-0.1c-1.4-1-0.1-1.6,0.1-2.4c0.4-1.3-1-2-1-3.1c0.2-0.2,0.4-0.3,0.6-0.4
			c1.2-0.1,1.9,0.7,1.9,1.7c0,2.3,1,2.6,2.9,1.9c0.8-0.3,1.6,0.6,2.5,0.5c0.8-1.3-0.5-3.8,2.3-3.9
			C167.5,209.3,167.6,209.4,167.7,209.5z"/>
		<path class="st26" d="M257.8,121c0.4-1.3,1.3-1.4,2.3-1.4c4.8,0,9.5,0,14.3,0c0.6,0,1.7-0.2,1.7,0.7c0,1.2-1.1,0.8-1.8,0.8
			c-3.7,0.4-7.4-0.6-11.1-0.6C261.4,120.6,259.7,121.6,257.8,121z"/>
		<path class="st27" d="M191.1,176.4c0-15.1,0-30.2,0-45.6c1.3,1.5,0.5,2.8,0.5,4c0.1,13,0,25.9,0,38.9c0,1,0,1.9,0.5,2.8
			C191.8,176.4,191.5,176.4,191.1,176.4z"/>
		<path class="st28" d="M100.8,71.5c-0.4,0-0.8,0.1-1.1,0.5c-0.8,0.6-1.2,0-1.6-0.5c0-0.2,0-0.3,0-0.5c-0.4-1.6,0-3.5-1.6-4.7l0,0
			c-0.6-0.8-1.4-1.7-0.5-2.8c1.1-1.3,2.5-1.3,4-1.1c0.3,0,0.5,0.1,0.8,0.2c0.2,0.4,0.2,0.7,0.1,1.1c-0.1,0.1-0.1,0.1-0.2,0.2
			c-2.4,1.2-2.4,1.2-0.8,3.4c0.3,0.8-0.4,1.7,0.1,2.6c1.2-0.2,2.5-1.2,3.8-0.4c0.4,0.1,0.9,0.5,1.1,0.2c0.6-0.6-0.1-1.2-0.3-1.8
			c0-0.2,0-0.5,0.1-0.7c0.7-0.6,1.2-1.3,2.3-0.9c0.2,0.4,0.2,0.7-0.1,1c-0.4,0.2-0.5,0.6-0.5,1.1c0.5,0.7,0.1,1.5,0.3,2.2
			c-0.1,1.4-0.8,1.4-1.9,0.9c-1-0.2-2.1-0.4-3.1-0.5C101.5,71.3,101.2,71.6,100.8,71.5z"/>
		<path class="st29" d="M43.3,84.1c0.1-1.5-0.8-1.9-2-2.1c-0.7-0.1-1.6,0.2-2.1-0.5c1-0.7,2.2,0.2,3.1-0.5c0.5-0.1,1.1-0.2,1.6,0.1
			c0,10.6,0,21.1,0,31.7c0,0.9,0.3,1.9-0.5,2.7c-1.2-1.6-0.5-3.4-0.5-5c0.1-4.1,0.2-8.2-0.2-12.4C42.2,93.4,43.2,88.7,43.3,84.1z"/>
		<path class="st21" d="M320.1,131.6c0.5-1.1,1.5-0.6,2.3-0.6c5.3,0,10.6-0.1,15.8,0c1.9,0,2.4-0.6,2.3-2.4c-0.1-2.2,0-4.3,0-6.5
			c0.9,1.4,0.3,2.9,0.4,4.3c0.1,1.7-0.2,3.4,1,4.9c0.6,0.7,0.8,1.8-0.3,2.2c-1.2,0.6-1.4-0.3-1.5-1.3c-0.1-1.2-1.2-0.7-1.9-0.7
			C332.3,131.6,326.2,131.6,320.1,131.6z"/>
		<path class="st17" d="M186.8,91.9c-0.8-2.9-3.3-1.7-5.1-2.1c-0.1-0.3-0.1-0.5,0.1-0.7c0.8-0.5,1.6-0.2,2.4-0.3
			c-0.9-0.1-2,0.3-2.8-0.6c-0.4-0.8-0.5-1.7,0.1-2.5c1.2-0.7,2.6,0.1,3.8-0.5c0.5,0,1.1,0,1.6,0C188.1,87.4,187.8,89.7,186.8,91.9z"
			/>
		<path class="st30" d="M35,80.9c-0.6,0.9-0.5,2-0.5,3c0,9.3,0,18.6,0,27.9c0,2.3,0.9,4.6,0.4,7c-0.8-2.2-0.8-4.6-0.8-6.9
			c0-9.6,0-19.1,0-28.7C34.1,82.4,33.4,81.1,35,80.9z"/>
		<path class="st31" d="M163.4,44.9c-0.7,0-1.4-0.5-2.1,0c-0.6,0.9-1.5,1.8-2.5,1.1c-1.2-0.9-1-2.4-0.2-3.6c1.5,1.8,3.6,0.7,5.4,1.2
			c0.7,0.2,1.2,0,1.2-0.8c-0.1-1.5,0.8-2.6,1.6-3.7c0.1-0.2,0.2-0.5,0.1-0.8c-0.3-0.4-1.1-0.4-0.9-1.2c0.6,0,1.2,0,1.8,0
			c1.2,0.1,1.5,1.1,1.7,2c0.3,1-0.7,1-1.3,1.3c-1.2,0.5-1.8,1-1.3,2.5c0.4,1.2,0.2,2.6-0.9,3.5C165.3,45.8,164.2,45.5,163.4,44.9z"
			/>
		<path class="st32" d="M243.8,128.5c-0.1,0.8,0.2,1.4,0.5,2.1c-0.6,0.7-1.2,1.4-1.8,2.3c-0.1-1.9-2.2-2.4-2.5-4.1
			c0.1,1,0.1,1.9,0.2,2.9c-1.3-2.7-2.4-5.5-3.2-8.4c1.7,1.8,3.8,3,4.7,5.6C242.3,130.9,243,128.5,243.8,128.5z"/>
		<path class="st33" d="M216.7,184.3c0.2,0,0.4,0,0.6,0c0.2-0.2,0.3-0.2,0.5,0c0.8,0.9,1.3,2,1.1,3.3c-0.3,1.4,0.1,2.3,1.7,1.3
			c1.3-0.8,2.4-0.7,3.6,0.1c0.6,0.4,1.2,0.7,2,0.4c0,1.5-1.6,2.3-2.3,2.4c-1.9,0.3-1-1.5-1.2-2.7c-0.5,0.3-0.8,0.5-1,0.6
			c-3.7,2-3.7,2-3.7-2.2C217.8,186.2,217.4,185.3,216.7,184.3z"/>
		<path class="st34" d="M94,135.8c-0.4-0.1-1.2,0.1-1.1-0.4c1.2-5.3,0.3-10.6,0.5-15.9c0.2-6.3,0.1-12.6,0.1-18.9
			c0.9,0.4,0.6,1.1,0.6,1.8c0,10.9,0,21.8,0,32.7C94.2,135.3,94.1,135.5,94,135.8z"/>
		<path class="st35" d="M160.3,105c0.2,0,0.4,0,0.6,0c0.7,0.9,2.2,0.1,2.8,1.2c0.7,2.1-0.4,4.4,0.7,6.5c0,0.2,0.1,0.5,0.1,0.7
			c-1.3,0.1-1.6-0.6-1.6-1.7c0-1.3,0-2.6,0-3.9c0-0.4-0.1-1-0.6-1c-1.1,0,0.3,0.8-0.2,0.9c-1.2,0.2-2.5,0.2-2.3,2
			c-0.2,0.2-0.4,0.3-0.6,0.2c-0.6-0.3-1.2-0.7-1.8-1c-0.5-0.3-1-0.7-1-1.4c-0.3-1,0-1.7,1-2c0.8-0.4,1.6,0.4,2.4,0.1
			C159.9,105.3,160.1,105.1,160.3,105z"/>
		<path class="st36" d="M99.2,181.7c0.4-0.8,0.7-1.5,1.1-2.3c0.3-0.7,0.3-2,1.6-1.5c1,0.3,2.5-0.4,2.7,1.6c0.2,1.8,2.3,1.3,3.4,2.1
			c1.9,1.2,1.3,1.8,0.2,2.8c-0.1,0.1-0.2,0.1-0.3,0.2c-0.2-0.1-0.4-0.2-0.5-0.4c-0.4-2-2.7-0.8-3.5-2.2c-0.1-0.2-0.3-0.4-0.3-0.6
			c-0.4-0.3,0-1.9-1.3-0.9c-0.3,0.5-0.7,0.9-1.2,1.3C100.3,182,99.8,182.2,99.2,181.7z"/>
		<path class="st21" d="M124.3,198.9c-1.4,2.5,1.2,3.2,2.1,4.7c-1.7,0.1-2.9-0.3-3.1-2.3c-0.4-2.8-0.7-2.9-3-1
			c-0.4,0.4-0.7,0.8-1.3,0.4c-0.4-0.3-0.4-1-0.1-1.1c2.2-1.2,3.8-3.7,6.8-3.5C124.6,196.9,123,197.3,124.3,198.9z"/>
		<path class="st37" d="M226,66.8c0-1,1.2-1.2,1.5-2.3c-1.9-0.7-4.1-0.8-4.9-3.3c-0.4-1.1-1.1,0.1-1.3,0.6c-0.5,1.2-1.3,2-2.6,2.1
			c-2,0.1-1.8,1.1-0.9,2.3c-0.4,0-0.7,0-1.1,0c-0.8-0.5-1.6-1-1.1-2.1l0,0c0.4-1,1.5-0.6,2.1-1c1.1-0.2,2.1-0.5,2.6-1.6
			c0.4-0.8,0.5-1.8,1.6-2.1c0.2,0,0.3,0,0.5,0c0.9,0.3,1.5,1,1.7,1.9c0.2,0.4,0,0.9,0.4,1.2l0,0c0.8,0.6,1.8-0.1,2.6,0.5
			c0.7,0.3,1.2,0.9,1.6,1.6c0.2,0.1,0.2,0.2,0.2,0.4c-0.1,0.1-0.1,0.2-0.2,0.2c-0.7,0.4-1.2,0.9-1.6,1.6
			C226.8,67.1,226.4,67.1,226,66.8z"/>
		<path class="st4" d="M167.1,95.6c1.4-0.8,2.1,0.6,3.1,1c0.7,0.6,1,1.5,1.8,1.8c0.8,0.7,2,0.8,2.6,1.9c0.1,0.4,0.1,0.8-0.1,1.1
			c-0.5,0.7-1.2,1-2.1,0.7c-0.8-0.6-1.6-1.2-2.7-0.9c-0.2,0-0.5-0.1-0.7-0.2c-0.4-0.5-0.7-0.9-0.9-1.5c-0.3-0.9-0.5-1.7-0.9-2.6
			C167.1,96.4,166.8,96,167.1,95.6z"/>
		<path class="st21" d="M136.3,45.4c2.2,0.4,0.4-1.4,1.1-2c1.6,0.6,2.3,1.8,1.9,3.4c-0.4,1.4-1.2,2.5-3,2.2
			c-1.2-0.2-2.3,0.2-2.2,1.8c-1.7-0.6-0.9-1.6-0.4-2.6C134.7,47.3,135.5,46.4,136.3,45.4L136.3,45.4z"/>
		<path class="st38" d="M159.2,42.3c-0.2,0.4-0.5,0.8-0.5,1.1c0,0.8-0.4,1.7,0.3,2.2c0.9,0.7,1.5-0.5,2.3-0.7c0.3,2-1.5,1.5-2.4,1.8
			c-0.8,0.3-1.6-0.6-1.6-1.3c-0.1-2.3-1.4-4.5-1.2-6.8c1.5,0.3,2.1,1.9,3.3,2.6C159.6,41.6,159.5,42,159.2,42.3z"/>
		<path class="st39" d="M107,67.3c0-0.4,0-0.7,0-1.1c-0.2-0.7,0.2-1.7-1-1.8c-1.3-0.2-2.2-0.8-2.9-2c-0.9-1.6-1.5,0.7-2.3,0.3
			l-0.1-0.1c-0.1-0.1-0.2-0.2-0.2-0.3c0-0.1,0.1-0.2,0.1-0.2c0.1-1-0.2-2.2,1.2-2.5c1.4-0.3,2.1,0.6,2.5,1.7c0.4,1,1.2,1.4,2.1,1.7
			c0.9,0.3,2.4,0,2.4,1.4C108.9,65.6,108.5,66.9,107,67.3z"/>
		<path class="st40" d="M196.9,196.8c2.1-0.4,4-0.1,5.6,1.5c0.6,0.7,0.8,1.4,0.7,2.1c-0.1,1-1.1,0.4-1.6,0.6
			c-0.7-0.7-1.6-0.8-2.5-1.2C197.8,199.3,196.6,198.5,196.9,196.8z"/>
		<path class="st41" d="M104.4,190.1c-1.1-0.4-2.1-1.6-3.5-0.4c-0.6,0.5-1.5,1.3-2.3,0.7c-0.9-0.6,0.1-1.6-0.2-2.4
			c-0.1-0.4,0.2-1,0.3-1.5c0.2-0.1,0.4-0.1,0.7,0c0.8,0.3-0.3,2.4,1.6,1.7c0.6-0.2,1.3-0.5,1.8-0.3c3,1.4,2.7-0.6,2.8-2.4
			c0-0.2,0.1-0.3,0.1-0.5c0.2-0.4,0.4-0.7,0.8-0.8c0.4-0.1,0.8,0,1.1,0.2l0.1,0.1c0,1.4-0.9,2.7-0.6,4.1l0,0
			c0.6,0.8,0.1,1.2-0.5,1.6l0,0C105.8,190.5,105.1,190.5,104.4,190.1z"/>
		<path class="st42" d="M171.3,89.3c-2.4,1.2-0.2,3.4-1.3,5c-0.8-0.1-1.2-0.8-1.4-1.7c0.3-2.5,0.9-5.1,0-7.6c1.2-1.4,2.5,0.1,3.7,0
			c0,0.1,0,0.2,0,0.4C171.8,86.6,173,88.3,171.3,89.3z"/>
		<path class="st43" d="M144.6,140.8c0.7,3.8,4,7.2,7.8,7.8c1.1,0.2,2.4,0.1,1.7,1.9c-3.8-1.3-6.9-3.7-9.8-6.4
			C142.5,142.8,143.4,141.8,144.6,140.8z"/>
		<path class="st38" d="M100.7,62.1c0,0.2,0,0.3,0,0.5c-0.8,0.2-1.5,0.6-2.3,0.5c-2.6,0-2.5,1.4-1.9,3.2c-0.7-0.5-1.9-1-1.3-1.9
			c1.4-2.1-0.3-2.3-1.6-3C96.1,62.1,98.7,59,100.7,62.1z"/>
		<path class="st44" d="M192.7,208.3c-1.1,1.3-2.5,1.1-4.6,0.8c1.5-0.6,2.8-0.4,2.9-1.7c0.2-1.4-1.1-1-1.8-1.4
			c-0.6-0.3-1-0.8-0.6-1.5c0.8-1.2,1.5-0.3,2.4,0.3c0-1.8-2.3-2.1-2.1-3.8c0.1,0,0.2-0.1,0.4-0.1c0.9,0.1,1.5,0.9,2.1,1.4
			c1.4,1.3,0.6,2.9,0.8,4.4C192.4,207.3,192.4,207.8,192.7,208.3z"/>
		<path class="st4" d="M257.5,168.6c1,1.6,1.6,3.4,2.1,5.3c-1.1-0.1-1.8-3.3-3.3-0.4c-1.8-1.9-2.9-4.1-2.6-6.9c1.4,1,1.7,3,3.4,3.8
			C257.7,169.9,257.3,169.1,257.5,168.6z"/>
		<path class="st45" d="M278.9,159.3c2.1,0.5,3,1.9,3.4,3.9c0.1,0.6,0.2,1.7,1.3,0.6c0.5-0.5,0.9-0.3,0.9,0.6c0.1,1.3,0,2.6,0,3.9
			c-0.8-1.1-1.6-2.1-2.4-3.2C280.5,163.4,279.3,161.5,278.9,159.3z"/>
		<path class="st46" d="M154.5,138.6c-0.3-0.4-0.7-0.7-1-1.1c-0.5-0.2,1.1-0.9-0.2-1.1c-0.6-0.1-0.5-1.2-0.3-1.8
			c0.1-0.6,0.7-0.7,1.2-0.3c2,1,3.2,2.6,4.2,4.5C157,139.9,155.8,136.6,154.5,138.6z"/>
		<path class="st4" d="M278.9,159.3c1.1,1.9,2.2,3.8,3.3,5.7c-1.4-0.1-1.6-2.1-3.2-1.9c-0.1,0-0.3-0.1-0.4-0.2
			c2.4-2.3-0.5-2.5-1.4-3.1c-1.6-1.1-1.2-2.3-0.9-3.7C277.5,156.8,277.8,158.4,278.9,159.3z"/>
		<path class="st47" d="M157.8,209.3c-0.2,0-0.5,0.1-0.7,0.1c-1.7-1-1.9-1.8,0.3-2.5c1.9-0.6,3.1-2.1,4.4-3.5
			c1.2-1.3,2.1-1.2,2.2,0.8c-0.2,0.2-0.3,0.3-0.6,0.4c-1.6,0.4-1.7,2.4-3.1,3C159.3,207.9,158.2,208.1,157.8,209.3z"/>
		<path class="st21" d="M142.7,200.7c-2.4,0.5-3.2,2.2-4.3,3.6c-0.4,0.5-0.7,1.2-1.4,0.5c-0.5-0.5-0.3-0.9,0.2-1.5
			c1-1.1,3.1-1.7,2-4c-0.3-0.7,0.7-1,1.2-0.4C140.8,199.5,141.4,200,142.7,200.7z"/>
		<path class="st48" d="M253.7,166.6c0.6,2.4,1.5,4.7,2.6,6.9c-0.1,0.2,0,0.3,0.1,0.4c0,0.3,0,0.7,0.1,1c-3.2-4-4.3-8.7-5.4-13.5
			C252.6,162.8,252.5,165,253.7,166.6z"/>
		<path class="st49" d="M52.8,136.2c0.6-0.6,1.3-0.4,2-0.4c3.3,0.1,6.6,0.1,9.7-1.3c0.8-0.4,1.7-0.5,2.4,0.2
			C62.3,136.9,57.6,137,52.8,136.2z"/>
		<path class="st50" d="M201.1,46.4c-0.1,0.1-0.2,0.3-0.2,0.4c-0.2,0.6-0.6,1-1.4,0.8c-0.5-0.4-0.6-1.2-1.5-1.2
			c-0.7-0.2-1.4-0.4-1.9-1c-0.8-0.9-1.3-0.2-1.8,0.3c-0.8,0.9-2.5,0.3-2.9,1.9c-0.9-0.4-2.2-0.6-1.4-2.2l0,0c1.4-0.6,3.5-0.1,4-2.2
			c0.9-1.7,1.8-2,2.9-0.2c0.5,0.8,1.2,1.4,1.9,2C199.7,45.5,201.4,44.3,201.1,46.4z"/>
		<path class="st44" d="M189,201c-0.8-2-2-3.7-4.4-4.2c2.9-0.7,5.3,0.5,7.5,2.1C191.8,200.7,189.8,199.9,189,201L189,201z"/>
		<path class="st51" d="M134.1,207.2c-2.1-0.5-4.1-2.1-6.5-0.4c-0.8,0.6-0.8-0.5-0.8-1.1c0-1,0.3-2.1-0.1-3.1
			c0.2-0.2,0.4-0.3,0.6-0.2c0.9,1.6,2.1,2.7,4.1,2.4c2.3,0.4,0.4-1.6,1.2-2c0.2-0.5,0.4-0.9,1-0.9c0.3,0,0.4,0.2,0.6,0.4
			c0,0.3-0.1,0.6-0.1,0.9c-0.1,0.7-0.4,1.5,0,2.2c0,0.3,0.1,0.6,0.1,0.9C134.5,206.6,134.5,206.9,134.1,207.2z"/>
		<path class="st42" d="M171.7,98.7c-1.3-0.1-1.6-1-1.5-2.1c0.2-2.5,3.4-1.5,4.1-3.5c0.3,0.8,1.1,0.8,1.7,1.1
			c-0.4,0.3-0.8,0.6-1.2,0.9c-0.5,0.8-1.6-0.4-2,0.6c-0.4,1.5,1.3,2,1.5,3.1c-0.9,0.6-1.6,0.2-2.3-0.4c-0.1-0.1-0.2-0.3-0.3-0.3
			c-0.3,0.2-0.1-0.1,0.1,0.2c0,0,0.1,0.3,0.1,0.3L171.7,98.7z"/>
		<path class="st32" d="M252.7,125.9c0.3,1.7,0.4,3.4,1.5,4.9c0.5,0.7,0.1,1.5-0.5,1.1c-1.9-1.4-3.3-0.4-5,0.2
			c-0.5,0.2-1.3,0.4-1.9-0.3c0.4-1.4,2.6,0.1,2.7-1.7c1.6-0.4,2.9-0.9,2.2-3C251.6,126.5,251.8,125.7,252.7,125.9z"/>
		<path class="st52" d="M190.1,45.5c-0.1,1.1,0.6,1.6,1.5,2c1,0.2,1.4,1,1.5,1.9c0,0.2,0,0.5-0.1,0.7c-0.5,1.7,1.2,0.9,1.7,1.4
			c0.2,0.2,0.2,0.4,0,0.6c-0.2,0.2-0.3,0.3-0.5,0.5c-1,0.1-2.1,1.8-3.1,0c0-0.9-0.8-1.7,0.1-2.9c0.7-0.9-0.4-1.8-1.2-2.4
			C189.1,46.8,188.1,46,190.1,45.5z"/>
		<path class="st53" d="M123.2,45.4c-0.4,0.1-0.8,0.2-1,0.7c-0.2,0.6-0.4,1.6-1.3,1.1c-0.7-0.4-0.9-1.2-0.4-2
			c1.2-1.8,2.6-3.2,5.4-2.6C124.7,43.5,122.6,43.4,123.2,45.4C123.2,45.4,123.2,45.4,123.2,45.4z"/>
		<path class="st54" d="M204.8,173.9c0,0.3,0,0.7,0,1c0.1,0.6,0.2,1.4,1,1.2c2.6-0.4,5.3,0.4,7.9,0c1.4-0.1,2.6-0.7,3.6-1.6
			c0.1-0.1,0.3-0.1,0.4-0.2c0.6,1.8-0.1,2.6-1.9,2.6c-3.5,0-7,0-10.6,0c-0.7,0-1.5,0-1.5-1C203.7,175.2,203.3,174,204.8,173.9z"/>
		<path class="st55" d="M252.7,125.9c-0.5,0.3-0.5,0.8-0.5,1.4c0.4,3.2,0.4,3.2-2.7,2.8c-0.2-0.2-0.4-0.4-0.5-0.5
			c0-0.2,0-0.4,0.1-0.6c1-0.3,2.4-0.4,1.6-2.1c-0.2-1,0.2-1.7,0.9-2.3c0.9-0.5,1.3-1.5,2.2-2c0.5,0,1.1-0.1,0.9,0.8
			C254.1,124.1,254,125.4,252.7,125.9z"/>
		<path class="st56" d="M192.5,105c1.3-0.2,2.6-0.3,3.8-0.7c1.7-0.6,2.4,0.2,2.6,1.7c-0.3,0.3-0.6,0.3-1,0.2c-0.9-0.4-1.8-1-2.7-0.1
			c-0.5,0.9-0.1,2.1-0.8,3c-0.7-0.3-0.9,0-1,1.4c-0.1,0.1-0.2,0.2-0.3,0.2c-0.1,0-0.3,0-0.4,0c-0.3-0.2-0.4-0.4-0.5-0.7
			C192.2,108.3,192,106.7,192.5,105z"/>
		<path class="st57" d="M201.1,201.1c-0.4,1.7-1.5,3.2-1.3,5.2c0.2,1.5-1.1,2-2.5,1c-0.8-0.5-1.9-0.6-2.7-1.1c0.3-1.3,1.3-1,2.1-0.8
			c1.2,0.3,1.5-0.3,1.6-1.3c0.2-1.6,0.7-2.9,2.5-3.2C200.9,201,201,201.1,201.1,201.1z"/>
		<path class="st58" d="M174.5,112.8c0-1.9-0.1-3.8-0.1-5.7c0-0.8-0.3-2,0.9-2.1c0.9-0.1,2.3-0.8,2.8,0.9c-0.1,0.1-0.1,0.2-0.2,0.3
			c-0.9,0.4-1.9,0.8-2,2c0,0.5-0.9,0.7-0.5,1.4C175,110.7,176.5,112.2,174.5,112.8z"/>
		<path class="st59" d="M161.4,164c-4,3-8.9,1.7-11.6-3.1c2.1-0.3,2.5,2,4,2.8c2.4,1.3,4.1,1.4,6.3,0.4
			C160.5,163.9,161,164,161.4,164z"/>
		<path class="st60" d="M211.7,156.6c-0.3,0.3-0.4,0.6-0.3,1c-0.6,1.4-0.4,3.1-1.7,4.2c-0.7,0.8-0.4,2-1.3,2.7
			c-0.2-2,0.9-3.7,1.5-5.5c0.3-0.9,0.8-1.9,0.7-2.7c-0.3-1.8,0.4-2.5,2-2.8C213,154.8,212.6,155.7,211.7,156.6z"/>
		<path class="st61" d="M207.3,86.2c-1.4,0.5-2.6-0.3-3.9-0.5c-1.1,2-0.4,4.1-0.4,6.2c0.6,0.8,1.8-0.7,2.4,0.6c-1,1-2.2,0.4-3.3,0.5
			c-0.3-2.6-0.4-5.2,0-7.8l0,0c1.1-0.4,2.3-0.2,3.5-0.2C206.4,84.9,207.3,85,207.3,86.2z"/>
		<path class="st62" d="M218.2,86.1c0,1.2,0.1,2.4,0,3.6c-0.2,1.7,0.4,2.5,2.2,2.2c0.3,0.3,0.9,0,1.2,0.5c-4,1.2-4.4,0.9-4.4-3.1
			c0-1.4,0-2.8,0-4.2c0.1-0.2,0.3-0.3,0.5-0.2C218.2,85.3,218,85.8,218.2,86.1z"/>
		<path class="st63" d="M168.7,85c0.4,0.1,1,0.2,1,0.7c-0.3,2.3,1.2,4.9-1,7c-0.6-0.3-0.9-0.7-1-1.3c-0.2-0.3,0-0.6,0.1-0.9
			c0.3-0.7,0.5-1.5,0.9-2.2C168.3,87.2,168,86.1,168.7,85z"/>
		<path class="st64" d="M234.7,119.9c-2.5,0.9-7,0.9-9.3,0C228.3,119.9,231.2,119.9,234.7,119.9z"/>
		<path class="st42" d="M174.4,89.3c-0.4-0.4-0.9-0.8-1.6-1.4c0.1,1.7,0.1,3,0.3,4.4c0.2,1.4-0.5,0.6-1,0.5c-0.7-2.6,0-5.1,0.2-7.7
			c0,0,0.1-0.1,0.1-0.1c0.5-0.1,1.1-0.7,1.6-0.2c0.7,0.6-0.2,1.2-0.1,1.8c0.6,0.7,1.2,1.4,0.8,2.4C174.5,89.2,174.4,89.2,174.4,89.3
			z"/>
		<path class="st59" d="M154,150.9c2.4,1.1,4.9,2.2,6.8,4.2c-0.7,0.3-0.4,1.1-0.7,1.5C158.6,154.1,155.2,153.7,154,150.9z"/>
		<path class="st65" d="M124.8,48c0-0.2,0-0.4,0-0.5c0.3-0.3,0.6-0.4,1-0.4c1.4,0.4,1.8,1.4,1.8,2.7c0,0.6-0.2,1.5,1,1.3
			c0.9-0.2,1.9-0.9,2.6,0.4c-0.1,0.7-0.9,0.3-1.2,0.7c-0.2,0-0.3,0-0.5,0c-0.8,1.9-2,2.1-3.7,1c0.1-1.2,0-2.4,0.3-3.5
			C126.3,48.5,125.8,48.2,124.8,48z"/>
		<path class="st66" d="M194.8,52.2c0-0.2,0-0.3,0-0.5c2.9,0.1,3.6-2.2,4.7-4.1c0.5-0.2,1-0.5,1.5-0.7c0.1,0.5,0,0.9-0.5,1.2
			c-0.9,1.3-0.2,2.6-0.3,3.9c-0.1,0.8,0.2,1.9-1.3,1.3C197.3,53.7,196.3,52,194.8,52.2z"/>
		<path class="st67" d="M221.4,122.7c0.2-0.2,0.4-0.4,0.5-0.5c0.6,0.7,1.4,1.1-0.1,2.1c-1.1,0.8-1.4,2.7-2,4.1
			c-0.3,0.7-0.2,1.7-1.4,1.1C219.6,127.3,219.9,124.8,221.4,122.7z"/>
		<path class="st68" d="M242.7,89.4c-0.5-0.6-1.1-1.3-1.7-2.1c-1,1.9-1.8,3.7-4.3,3.6c-0.8,0-0.7,0.8-0.6,1.4
			c-0.2,0.2-0.4,0.3-0.6,0.1c-0.9-1.1-0.4-1.8,0.7-2.1c1.7-0.5,3.3-1.1,3.9-3c0.2-0.5,0.7-0.9,1.2-0.6
			C242.3,87.4,242.8,88.3,242.7,89.4z"/>
		<path class="st69" d="M130,52.2c0.2-0.4,0.6-0.5,1.1-0.5c0.2-0.3,0.5-0.3,0.9-0.3c0.2,0,0.4,0.1,0.6,0.2c0.6,0.3,1.1,0.6,1.6,1
			c0.2,1-0.4,1.5-1,2.1c-0.7,0.6-1.4,1.8-2.2,0.7c-0.6-0.7,0.3-1.5,1.4-1.9C131.6,52.9,131,52.3,130,52.2z"/>
		<path class="st70" d="M196.9,196.8c0.8,1.5,1.8,2.7,3.7,2.7c1,0,0.9,0.8,1,1.5c-0.1,0-0.3,0-0.4,0.1c0,0-0.1-0.1-0.1-0.1
			c-1.8-0.6-3.6-0.6-4.9-2.5c-1-1.5-1.4,1.1-2.4,0.8c-0.4,0-0.7-0.1-1-0.4c0.2-0.2,0.4-0.3,0.5-0.5c0.7-1.2,0.5-3.1,2.6-3.1
			C196.2,195.8,196.5,196.3,196.9,196.8z"/>
		<path class="st71" d="M166,37.1c0.4,0.8,1.7,0.2,2,1.1c-1.5,0.9-2.9,0.3-4.2-0.5c-0.4-0.3-0.7-0.7-0.9-1.2c-0.2-0.4-0.3-1-0.8-0.2
			c-0.2,0.4-0.4,0.8-0.7,1.1c-0.6,0.5-1.3,0.8-2.1,0.3c-0.1-0.1-0.2-0.3-0.2-0.5c0-0.2,0.1-0.2,0.1-0.2l0,0c0.7-0.4,1.2-0.9,1.6-1.6
			c1.9-2.2,2.2-2.2,3.5,0.2C164.7,36.4,165.1,37.1,166,37.1z"/>
		<path class="st72" d="M163.4,204.2c0.2,0,0.4,0,0.6,0c0.7,1.5,1.5,2.9,3.4,2.4c1.6-0.4,1.9,0.7,2.1,1.6c0.4,1.7-1.1,1.1-1.8,1.3
			c0,0-0.1-0.2-0.1-0.2c-0.7-1.8-3.1-1.3-3.9-3C163.3,205.6,162.8,204.9,163.4,204.2z"/>
		<path class="st44" d="M195.8,195.3c-1.6,0.4-1.2,2.5-2.6,3.1c0-1-1.4-2.3,0.8-2.8c0.3-0.1,0.7-0.4,0.4-0.8c-0.6-1-1-2.2,0.7-2
			C196.4,193,196.4,194.2,195.8,195.3z"/>
		<path class="st73" d="M224.5,62.7c-0.4-0.2-0.5-0.6-0.5-1c-0.3-0.5-0.4-1.1,0-1.6c2.3-0.2,4,2,6.3,1.9c-1.7,1.2-3.4,0.2-5-0.2
			C224.1,61.5,224.7,62.3,224.5,62.7z"/>
		<path class="st74" d="M88.8,157.2c-0.2,0-0.4,0-0.6-0.1c0-0.9,0.4-2.1-1.3-2.1c-0.7,0-1.3-0.5-1.7-1c-0.2-0.2-0.3-0.4-0.4-0.6
			c-0.2-0.8-0.7-1.6-0.3-2.4c1.3,1.4,2.8,2.3,4.6,3C90.9,154.7,90.7,155.7,88.8,157.2z"/>
		<path class="st67" d="M223.5,125.3c-0.8,3.3-2.1,6.5-3.6,9.5C220.1,131.3,221.1,128.1,223.5,125.3z"/>
		<path class="st75" d="M235.5,92.5c0.2,0,0.4,0,0.6-0.1c1.4,0.7,2.1,1.6,1.6,3.3c-0.4,1.6-0.1,2.5,1.7,1.4c0.9-0.6,1.9-0.8,2.9,0
			c0.3,0.2,0.2,0.4,0,0.6c-1.6-1.1-2.6,0.2-3.7,1c-2.1,0.5-1.9-0.8-1.6-2.1c0-0.2,0-0.3,0-0.5c-0.8-0.7-0.3-1.9-1-2.6
			C235.8,93.1,235.7,92.8,235.5,92.5z"/>
		<path class="st22" d="M99.2,186.4c-0.2,0-0.3,0-0.5,0c-0.3-0.4-0.6-0.8-0.9-1.2c-0.7-0.9-2.5-1.3-1.8-2.7c0.5-1.2,2.1-0.8,3.3-0.9
			c0.6-0.2,1.1-0.3,1.7-0.5c0.1,0.1,0.2,0.4,0.2,0.4C98.8,182.6,99,184.5,99.2,186.4z"/>
		<path class="st76" d="M91.9,82c-2.6,0.9-5.2,0.8-7.8,0C86.7,81.4,89.3,81.5,91.9,82z"/>
		<path class="st77" d="M214.1,88.8c1.1-0.2,1.1,0.6,1.1,1.3c0.2,0.3,0.2,0.6-0.1,0.9c-1.7,0.1-3.5,0.4-5.2-0.2c0.6-0.8-0.1-2,1-2.7
			c0.4-0.2,0.6,0,0.9,0.2c0.5,0.7,1.2,0.8,2,0.5C213.9,88.8,214,88.8,214.1,88.8z"/>
		<path class="st65" d="M198.5,45.2c-1.1,0-1.4-0.8-1.7-1.6c-0.7-1.7-1.5-1.6-2.4-0.2c-0.2,0.3-0.4,0.3-0.6,0c0-1.3,1.3-1.7,1.7-3.1
			c1.1,1.9,2.8,2.8,3.5,4.6C198.9,45.1,198.7,45.2,198.5,45.2z"/>
		<path class="st38" d="M192.9,53.7c1.5,0.1,2.7,0.3,3.9,0.3c0.7,0,1.3,0.2,1.3,0.9c0,1-0.9,0.9-1.6,0.9
			C194.9,56,194.1,54.7,192.9,53.7z"/>
		<path class="st48" d="M250.6,159.8c-1.2-2.6-4.2-4.5-3-8C248.9,154.3,250,157,250.6,159.8z"/>
		<path class="st78" d="M211.7,156.6c0.3-1,0.6-2,0.9-3c1.1-2.7,2.3-5.4,3.4-8C215.5,149.5,214.1,153.3,211.7,156.6z"/>
		<path class="st79" d="M201.6,105c0.2-0.2,0.4-0.4,0.6-0.4c1.1-0.1,2.3-0.5,2.9,0.9c0.8,1.9-1.6,1.2-1.9,2.2
			c-0.5,0.4-1,0.5-1.5,0.2c-0.7-0.9-0.5-1.6,0.4-2.2c0.1-0.1,0.5,0,0.5-0.3c-0.1,0.1-0.3,0.1-0.5,0.1
			C201.8,105.2,201.7,105.1,201.6,105z"/>
		<path class="st80" d="M165.5,98.1c0-0.3,0-0.7,0-1c0.5-0.9,1.1-1.2,1.8-0.2c0.3,0.9,0.8,1.7,1,2.6c0,0.3-0.2,0.5-0.4,0.7
			c-0.5,0.3-1,0.3-1.5,0.3c-0.7,0-1.4,0.2-1.7-0.7C164.5,99,165,98.6,165.5,98.1z"/>
		<path class="st38" d="M96.6,66.3c3.3,0.6,1,3.1,1.6,4.7c-0.4-2-1.8-3.1-3.7-3.7C94.5,65.6,96.3,67.4,96.6,66.3z"/>
		<path class="st81" d="M299.6,173.4c-0.3,0.7-0.4,1.5-0.8,2.1c-0.5,0.7-1.5,0.8-2.1,0.4c-1-0.6,0-1.1,0.3-1.6
			c0.6-0.7,1.2-1.4,1.8-2.2C299.2,172.4,299.6,172.8,299.6,173.4z"/>
		<path class="st59" d="M162.4,156.7c2,2.7,1.6,5.1-1,7.4C162.4,161.7,162.1,159.1,162.4,156.7z"/>
		<path class="st82" d="M155.6,101.8c0-1.6-0.1-3.3,0-4.9c0-0.7-0.4-1.9,0.8-1.8c1.1,0.1,2.9-1.1,3.4,1.1c-0.1,0.1-0.2,0.2-0.2,0.2
			c-0.7,0.4-1.6,0.2-2.3,0.6c-0.9,1.1-0.3,2.4-0.3,3.6c0,0.5-0.2,1-0.6,1.3C156.1,102,155.9,102,155.6,101.8z"/>
		<path class="st83" d="M186.8,91.9c0.1-2.3,0.1-4.5,0.2-6.8c0.2-0.1,0.3,0,0.5,0c0.3,0.2,0.6,0.3,0.8,0.7c0.3,0.7,0.3,1.3,0.1,2
			c-0.1,0.5-0.4,1-0.4,1.5c0,0.9,0,1.9-0.1,2.8c0,0.5-0.4,0.8-0.9,0.6C186.9,92.7,186.9,92.2,186.8,91.9z"/>
		<path class="st84" d="M242.3,97.6c0-0.2,0-0.4,0-0.6c1.6,0.8,2.3,0.4,2-1.5c-0.2-1.4,0.2-2.5,1.6-3.1c0,1.2-1.3,2-0.7,3.4
			c0.3,0.8,0.6,2-0.2,2.6C243.9,99.2,243.2,98.1,242.3,97.6z"/>
		<path class="st85" d="M157,92.5c-2.5-2.1-0.9-4.8-1.2-7.2c1.8,1.9-0.4,4.9,1.8,6.7C157.7,92.6,157.5,92.7,157,92.5z"/>
		<path class="st67" d="M236.5,122.3c-3.4-0.5-6.9,0-10.3-0.3c-1.5-0.1-1.4,1.3-2.2,1.7c-0.1-1.2,0.3-2.1,1.7-2.1
			c3.3,0,6.7,0,10,0.1C236,121.7,236.3,122.1,236.5,122.3z"/>
		<path class="st86" d="M188,88.3c0-0.8,0.1-1.7,0.1-2.5c0.6-0.6,1.2-0.4,1.9-0.1c0.3,0,0.5,0.1,0.8,0.1c0.8,1.1,0.9,2-0.4,2.8
			C189.5,88.9,188.7,88.9,188,88.3z"/>
		<path class="st87" d="M181.8,85.7c-0.3,0.8-0.3,1.7-0.1,2.5c0.3,0.4,0.3,0.7,0,1.1c-0.1,0.2-0.1,0.3,0,0.5c0,0.3,0,0.7,0,1
			c0.3,0.4,0.4,0.8,0.2,1.3c-0.5,0.6-1,0.8-1.5,0c0.1-2.3-0.4-4.7,0.2-7c0.2,0,0.3,0,0.5,0C181.4,85.3,181.8,85.4,181.8,85.7z"/>
		<path class="st56" d="M198.3,109c-1.3,0.8-3,1.1-2.7,3.5c0.2,1.1-1,1-1.6,0.3c-0.5-0.5-0.8-1.3-0.9-2.1v0c0.4-0.3,0.1-1.3,1.1-1.1
			c0.2,0.2,0.3,0.4,0.3,0.7c0.4-0.1,0.2-0.4,0.2-0.6c0.2-0.4,0.4-0.7,0.8-0.9C196.6,108.4,197.5,108.3,198.3,109z"/>
		<path class="st88" d="M163.9,87.2c0.1,1.8,0.3,3.7-0.3,6.2c-1.3-3-0.3-5.4-0.7-7.7c0.2-0.2,0.4-0.2,0.6,0
			C164,86.1,163.6,86.7,163.9,87.2z"/>
		<path class="st89" d="M225.6,92.9c-1.1-2.5-1.2-5.3-0.3-7.5c0.7-1.7,3.2-1.2,4.9-0.2c-1.4,0.6-3.1-0.6-4.3,0.9c0,2-0.1,4,0,6
			C225.9,92.4,225.8,92.7,225.6,92.9z"/>
		<path class="st32" d="M243.3,139.6c-1-1.6-1.5-3.5-2.2-5.3c0.3-0.1,0.7-0.3,1-0.3c0.5,0.1,0.8,0.6,0.7,0.9
			C242,136.6,245.2,137.8,243.3,139.6z"/>
		<path class="st90" d="M172.3,85.2c0.1,2.6,0.3,5.1-0.2,7.7c-1.4-0.9-0.3-2.4-0.8-3.6C172.2,88,170.6,86.2,172.3,85.2z"/>
		<path class="st2" d="M144.6,140.8c-0.8,1-1.2,2.1-0.4,3.3c-0.8-0.1-1.9-0.5-1.3-1.3c1.3-1.9,0.6-4.6,2.8-6c0,0,0.1,0.1,0.1,0.1
			c0.7,1.1-0.1,1.8-0.6,2.5C144.7,139.8,144.6,140.3,144.6,140.8z"/>
		<path class="st60" d="M206.8,168.7c-0.3,1.9-1,3.7-2,5.3C204.1,171.7,205.1,169.2,206.8,168.7z"/>
		<path class="st38" d="M198.9,53.3c1.6-0.4,1.1-1.6,0.8-2.5c-0.4-1.2-0.1-2,0.8-2.8c0.1,1.5,0.1,3,0.2,4.5c0.1,0.6,0.7,1.5,0,1.8
			C200,54.7,199.3,54,198.9,53.3z"/>
		<path class="st91" d="M220.9,165c0,0.2,0,0.3,0,0.5c-0.4,1.2-0.8,2.3-1.1,3.5c-0.1,0.4-0.1,0.7-0.6,0.7
			C218.3,166.3,218.6,165.4,220.9,165L220.9,165z"/>
		<path class="st92" d="M254.8,123.2c-0.2-0.4-0.6-0.5-1.1-0.5c-0.7,0.6-1.5,0.7-2.4,0.3c-0.3-0.2-0.3-0.4-0.2-0.7
			c0-0.4,0-0.8,0-1.1c1.1-0.3,2.1,1.1,3.3,0.3C254.7,121.3,256,122.3,254.8,123.2z"/>
		<path class="st93" d="M187.4,111.4c-0.9-1.8-0.3-3.7-0.4-5.6c0-0.6,0.5-0.6,0.9-0.6c0,1.7,0,3.4,0,5.1
			C187.6,110.5,187.9,111.2,187.4,111.4z"/>
		<path class="st94" d="M159.7,91.9c0.2-1.9,0.9-3.8,0.7-5.7c-0.1-0.6,0.3-0.9,0.9-1c0.2,0.2,0.3,0.4,0.2,0.7
			c-0.1,1.5-0.2,3,0.1,4.6c0.1,0.4,0.1,0.8-0.3,1c-0.3,0.3-0.6,0.7-0.9,1C160,92.3,159.8,92.2,159.7,91.9z"/>
		<path class="st95" d="M288.2,155.8c-1.1-1.4-2.1-2.9-3.2-4.3c-0.6-0.8-0.8-1.6,0.6-1.7C286,152,287.7,153.6,288.2,155.8z"/>
		<path class="st21" d="M134.1,207.2c0-0.3,0.1-0.6,0.1-0.9c0.4,0.1,0.9,0,1.3,0.2c0.9,0.5,2,1.7,1.5,2.4c-1,1.4-1.3-0.8-2.1-0.9
			c-0.3,0-0.5-0.1-0.8-0.2C134.2,207.6,134.2,207.4,134.1,207.2z"/>
		<path class="st96" d="M192.7,198.9c0.4,0,0.8,0,1.2,0.1c0,1-0.7,1.3-1.5,1.5c-0.9,0.2-1,0.8-1,1.6c0,0.2-0.2,0.4-0.4,0.6
			c-0.7-0.5-1.3-1.1-2-1.6c0-2.2,2.3-1,3.1-2.1C192.3,198.9,192.5,198.9,192.7,198.9z"/>
		<path class="st69" d="M125.8,53.3c1.3,0,2.7,0.3,3.7-1c0,1.5-0.6,2.4-2.2,2.6C126.1,54.9,125.8,54.3,125.8,53.3z"/>
		<path class="st64" d="M235.3,119.9c0.4-1.1,0.4-2.4,2-2.4c0.5,0,0.8,0.3,0.6,0.9C237.5,119.6,236.8,120.3,235.3,119.9z"/>
		<path class="st33" d="M216.9,179.2c-0.3,0.3-0.4,0.5-0.5,0.5c-1,0.7-2,1.5-3.3,1.4c-0.1,0-0.4-0.6-0.3-0.6
			C213.9,179.8,215.1,178.9,216.9,179.2z"/>
		<path class="st97" d="M217.8,66.3c1.4,0.4,1.2,1.4,1.1,2.5c-0.1,0.8-0.7,2,0.9,2.2c-1.3,1.1-2.3,0.7-1.9-0.9
			C218.2,68.7,218,67.5,217.8,66.3z"/>
		<path class="st98" d="M174.4,154.1c-0.9-1.8-1.5-3.6-2.8-5.2c0.4-0.1,0.8-0.2,1.2-0.2C172.9,150.6,175.3,151.8,174.4,154.1z"/>
		<path class="st38" d="M189.2,49.9c0.9,1.2-0.6,2.3,0,3.8C187.1,51.4,187.1,51.4,189.2,49.9z"/>
		<path class="st99" d="M194.6,206.2c1,0.1,2,0.2,2.7,1.1c-1.7-0.2-3.1,0.7-4.7,1c-0.5-0.2-0.8-0.5-1-1c0.6-0.7,1.6-0.7,2.3-1.2
			C194.2,206.1,194.4,206.1,194.6,206.2z"/>
		<path class="st100" d="M217.6,60c-0.1,0.6-0.1,0.9-0.2,0.9c-0.7,0.7-1.1,1.9-2.3,2c-0.3,0.1-0.5-0.4-0.4-0.8
			C215.1,60.9,216.2,60.5,217.6,60z"/>
		<path class="st101" d="M177.5,90.8c0,0.9-0.3,1.8-1.3,2.1c-0.9-1-1.7-2.1-1-3.5c0.5-0.4,0.9-0.2,1.3,0.1
			C177,89.8,177.3,90.3,177.5,90.8z"/>
		<path class="st102" d="M120.6,113.8c-1.6-0.8-2.1-2.6-3.5-3.7C119.4,110.4,120.3,111.8,120.6,113.8z"/>
		<path class="st103" d="M225.6,92.9c0-0.2,0-0.4,0-0.5c0.2-0.2,0.2-0.6,0.6-0.6c1.3,0.4,2.7-0.2,4.4,0.7
			C228.7,93.2,227.1,92.9,225.6,92.9z"/>
		<path class="st104" d="M237,96.6c0,1.1,0.2,2,1.6,2.1c-0.5,0.6-0.9,1.9-1.8,1.2C235.7,99,235.9,97.6,237,96.6z"/>
		<path class="st105" d="M134.1,52.6c-0.9,0.1-1.5-0.2-2.1-0.9c0.7-1.3,0-3.1,1.4-4.2c0.2-0.1,0.5-0.1,0.7-0.1
			c0.1,0.1,0.2,0.3,0.2,0.4c0,0.2,0,0.2-0.1,0.2c-0.6,0.8-0.9,1.7-0.2,2.6C134.2,51.3,134.2,52,134.1,52.6z"/>
		<path class="st95" d="M285.5,149.8c1.4-1.2,2.9-2.4,4.3-3.5C289.4,148.7,287.8,149.7,285.5,149.8z"/>
		<path class="st106" d="M154,134.2c-1.6,0.4-1,1.5-0.3,2c1.1,0.8-0.5,0.8-0.3,1.3c-1.6-2.5-1.4-3.6,1.1-4.9
			C154.4,133.1,154.2,133.7,154,134.2z"/>
		<path class="st107" d="M180.2,106c0.9-2.2,2.8-0.5,4.1-0.9c0.3,0.3,0.3,0.6,0,0.8c-0.3,0.3-0.6,0.5-1,0.8
			c-0.3-0.1-0.5-0.5-0.8-0.6C181.8,106,181,106,180.2,106z"/>
		<path class="st108" d="M180.7,85.1c0,2.4,0,4.9,0.1,7.3c0,0.1,0.1,0.2,0.1,0.3c-0.1,0.1-0.1,0.2-0.2,0.3c-1-1.2-0.3-2.7-0.5-4
			c-0.1-1,0.4-2.1-0.6-2.9c-0.2-0.3-0.2-0.6,0-0.9C179.9,85.2,180.3,85.1,180.7,85.1z"/>
		<path class="st17" d="M202,85.1c0,2.6,0,5.2,0,7.8C201.4,90.3,200.9,87.7,202,85.1z"/>
		<path class="st11" d="M161.4,134.7c0.5,0.3,1,0.6,1.5,0.9c0.1,0.7,1.6,0.6,1.1,1.6c-0.2,0.5-1.1,0.4-1.1-0.2
			C162.7,135.9,159.5,136.9,161.4,134.7z"/>
		<path class="st109" d="M155.6,101.8c0.2,0,0.4,0,0.6-0.1c1.1-0.7,2.2-0.8,3.4-0.2c0.3,0.2,0.3,0.5,0.1,0.8
			C158.3,102.9,156.8,103.9,155.6,101.8z"/>
		<path class="st110" d="M113.3,121.1c1.6,1.4,3,3,4.2,4.7C115.3,125,114.3,123.1,113.3,121.1z"/>
		<path class="st111" d="M168.6,88.3c0,0.9,0.5,1.9-0.4,2.6c-0.5-0.3-0.9-0.6-1.3-1.1c-0.4-0.7-0.9-1.3-1.3-2c0.5-0.8,1-0.3,1.4,0.1
			C167.4,88.3,167.8,88.8,168.6,88.3z"/>
		<path class="st112" d="M192.6,110.1c0.1,0.2,0.1,0.4,0.2,0.6c-0.4,0.5-0.3,1.4-1.2,1.5c-0.2,0-0.2-0.1-0.2-0.3
			c0.7-2.1-0.2-4.4,0.7-6.4C192.9,106.9,192,108.6,192.6,110.1z"/>
		<path class="st17" d="M207.3,86.2c-1.4-1.8-3.4-1-5.2-1.1c3.9-1.3,5.2-1,5.7,1.6C207.6,86.5,207.5,86.3,207.3,86.2z"/>
		<path class="st113" d="M88.2,161.9c0-0.5,0-1,0-1.6c0.2,0.2,0.4,0.5,0.7,0.7c0.5,0.4,1.6,0.5,1.3,1.6c0,0.2-0.2,0.6-0.4,0.6
			C89,163.3,88.7,162.5,88.2,161.9z"/>
		<path class="st42" d="M176.5,89.9c-0.4-0.2-0.7-0.4-1.1-0.7c-0.1-0.1-0.2-0.2-0.3-0.2c-0.2-0.6-0.7-1.2-0.1-1.9
			c0.6-0.3,1.3-1.5,1.6,0.3c0.1,0.6-0.5,1.3,0.3,1.8C177.2,89.7,177,89.9,176.5,89.9z"/>
		<path class="st114" d="M194.2,86c-0.1,0.8,0,1.7,0.4,2.4c-0.5,0.3-1,0.2-1.4-0.1c-1.1-1.2-0.5-2.1,0.6-3
			C194.2,85.4,194.3,85.6,194.2,86z"/>
		<path class="st115" d="M211.5,88.8c-0.2-0.2-0.4-0.4-0.6-0.6c0.2-1.3,0.3-2.7,2.2-2.6c0.3,0.3,0.2,0.7,0.2,1.1
			C212.8,87.5,212.8,88.6,211.5,88.8z"/>
		<path class="st21" d="M129,195.8c-0.7,0.7-0.2,1.9-1.1,2.6c0.4-1.4-1.6-2.3-0.8-3.9C128.2,194.4,127.9,196.1,129,195.8z"/>
		<path class="st116" d="M199.6,92.8c0-2.5,0-4.9,0-7.4c0.4,2.5,0.7,4.9,0.2,7.4C199.8,92.9,199.6,92.8,199.6,92.8z"/>
		<path class="st117" d="M175.4,109.6c-0.7-0.5-0.5-0.8,0.1-1.2c0.7-0.5,1.4-0.6,2.2-0.7c0.2,0,0.4,0.2,0.5,0.3
			c0.2,0.8-0.9,1.2-0.5,2c-0.1,0-0.2,0-0.3,0C176.8,110.2,176.5,108.6,175.4,109.6z"/>
		<path class="st38" d="M191.1,52.7c1,0.9,2.1-0.2,3.1,0c-0.3,0.4-0.7,0.7-1,1.1c-0.5,0.7-1.2,0.8-2,0.5
			C190.3,53.8,191,53.2,191.1,52.7z"/>
		<path class="st118" d="M195.4,88.8c1.8,0,2.6,0.8,2.6,2.6c-0.2,0.2-0.4,0.4-0.6,0.5c-0.3-0.1-0.6-0.3-0.8-0.5
			c-0.1-0.6-0.1-1.3-0.8-1.6c-0.2-0.2-0.4-0.3-0.7-0.5C195,89.1,195.1,88.9,195.4,88.8z"/>
		<path class="st33" d="M214.4,183.1c-0.2,0.5-0.4,1.2-1.1,1.1c-0.5,0-0.7-0.4-0.7-0.9c0-0.8,0.4-1.1,1.1-1
			C214.1,182.3,214.5,182.5,214.4,183.1z"/>
		<path class="st119" d="M207.3,91.6c-0.8-0.4-0.6-0.9,0-1.4c0.6-0.8,0.4-1.7,0.1-2.5c0.2-0.3,0.3-0.6,0.5-0.9
			C208.8,88.5,209,90.2,207.3,91.6z"/>
		<path class="st56" d="M200.9,111.3c0.8-0.4,3.4,1.7,2.2-1.6c0.1-0.4,0.3-0.7,0.7-0.8c0.7,0.2,1.1,0.6,1.1,1.3
			c-0.1,1-0.7,1.7-1.5,2.3C202.2,112.9,201.2,112.9,200.9,111.3z"/>
		<path class="st2" d="M143.1,136.3c-1.6,1.1-3.2,1.6-4.7,0c0,0,0.2-0.2,0.2-0.2c0.2-0.2,0.5-0.3,0.8-0.4c1.3-0.1,2.6-0.4,3.7,0.5
			L143.1,136.3z"/>
		<path class="st54" d="M219.1,169.7c0.2-0.2,0.4-0.5,0.6-0.7c0.4,2.2-0.9,3.8-2,5.4C218.2,172.8,218.7,171.3,219.1,169.7z"/>
		<path class="st120" d="M201.6,105c0.2,0,0.4,0,0.5,0.1c0.2,0.2,0.6,0.2,0.6,0.5c-0.8,0.4-1.7,0.8-1.1,2c0.2,0.2,0.2,0.4,0.2,0.7
			c-0.1,0.2-0.2,0.4-0.4,0.6c-0.4,0.1-0.7,0-0.8-0.4c0-0.1,0-0.2-0.1-0.3C199.6,106.6,200.4,105.7,201.6,105L201.6,105z"/>
		<path class="st121" d="M226.2,88.1c1.1,0.4,2.4-0.2,3.7,0.6c-1.2,1-2.5,0.3-3.6,0.7C225.8,89,225.8,88.6,226.2,88.1z"/>
		<path class="st122" d="M164.5,100.9c-0.6,0.3-0.3,1.4-1.1,1.4c-0.5,0-0.4-0.6-0.5-0.9c0.6-0.8,1.1-1.7,1.7-2.5
			C164.8,99.5,164.9,100.2,164.5,100.9z"/>
		<path class="st123" d="M164.5,100.9c0-0.7,0-1.4,0-2.1c0.2-0.5,0.6-0.6,1-0.6c-0.1,0.6-0.9,1.3-0.2,1.8c0.8,0.5,1.9,0.4,2.8-0.2
			c0.4,0.3,0.4,0.7,0,1.1C166.9,100.8,165.7,100.8,164.5,100.9z"/>
		<path class="st124" d="M227.6,182.3c0.2,0,0.4,0,0.6-0.1c1.3,2.5-0.8,2.5-2.1,3.1c0-0.4,0.1-0.8,0.5-1.1
			C227.2,183.7,227.5,183.1,227.6,182.3z"/>
		<path class="st125" d="M226.2,88.1c0,0.4,0,0.9,0,1.3c0,0.8,0,1.5,0,2.3c-0.2,0.2-0.4,0.4-0.6,0.6c0-2.3,0-4.5,0-6.8
			c0.5-0.1,0.7,0.1,0.6,0.6C226.2,86.9,226.2,87.5,226.2,88.1z"/>
		<path class="st126" d="M171.7,98.7c0-0.2,0-0.4,0.1-0.5c0,0,0,0,0,0c0.9,0.2,1.7,0.4,2.6,0.7c0.2,0.3,0.4,0.6,0.6,0.9
			c-0.1,0.3-0.3,0.5-0.6,0.5C173.7,99.4,172.3,99.8,171.7,98.7z"/>
		<path class="st127" d="M209.9,90.8c1.7,0.1,3.4,0.1,5.1,0.2c0.4,0.3,0.4,0.6,0.1,0.9c-1.3-0.8-2.6-0.7-4-0.3
			C210.3,91.8,210,91.7,209.9,90.8z"/>
		<path class="st128" d="M182.6,106c0.3,0.2,0.5,0.4,0.8,0.6c0,2,0,3.9,0,5.9c-0.3,0-0.5,0-0.8,0C182.6,110.3,182.6,108.2,182.6,106
			z"/>
		<path class="st111" d="M161.2,91.3c0-0.3,0-0.7,0.1-1c-0.3-1.5-0.3-3.1,0-4.6c0-0.2,0-0.4,0-0.5C162.6,87.2,162.2,89.3,161.2,91.3
			z"/>
		<path class="st129" d="M292.9,163.4c-1.3-0.6-3-0.9-2.1-3c0.2-0.3,0.3-0.3,0.5,0.1C291.8,161.5,292.4,162.5,292.9,163.4z"/>
		<path class="st97" d="M219.8,71c1.2-0.7,2.2-2.5,3.8-0.5C222.3,70.8,221.1,71.2,219.8,71z"/>
		<path class="st56" d="M201.6,105c-0.9,0.8-1.4,1.9-1.1,3.1c-0.5,0.2-1.1,0.3-1.6,0.5c-0.5-0.8-0.1-1.4,0.4-2
			C200.1,106.2,200.3,104.8,201.6,105z"/>
		<path class="st30" d="M42.3,80.9c-0.9,1-2.1,0.4-3.1,0.5c-1.2-0.2-2.6,0.5-3.7-0.6C37.8,80.7,40,80.6,42.3,80.9z"/>
		<path class="st130" d="M159.3,109.6c0.2,0,0.3,0,0.5-0.1c0.1,0.1,0.2,0.1,0.4,0.1c0.7,0.7,0.6,1.3,0.1,2c-0.2,0.2-0.3,0.4-0.5,0.6
			c-0.6,0.3-1.1,0.4-1-0.6c0.4-0.5,0.4-1,0-1.5C158.6,109.7,158.8,109.5,159.3,109.6z"/>
		<path class="st131" d="M194.2,86c-0.1-0.2-0.3-0.4-0.4-0.6c0.8-0.4,1.6-0.8,2.5-0.6c0.3,0.3,0.9,0.5,0.9,0.8
			c0,0.9-0.6,0.4-1.1,0.4C195.5,85.9,194.8,86,194.2,86z"/>
		<path class="st132" d="M107,188.5c-1.2-1.6,0.2-2.8,0.6-4.1c0.2,0,0.3,0,0.5,0C107.8,185.7,107.4,187.1,107,188.5z"/>
		<path class="st38" d="M98.2,71.5c0.5,0.2,1,0.3,1.6,0.5c0,0.7,0.2,1.5-0.6,2.4C98.4,73.5,98.2,72.6,98.2,71.5z"/>
		<path class="st66" d="M198.5,45.2c0.2-0.1,0.3-0.2,0.5-0.3c0.8,0.3,1.1-1.4,2-0.5c0.5,0.6,1,1.3,0.2,2
			C200.8,44.9,199.3,45.7,198.5,45.2z"/>
		<path class="st16" d="M229.2,176.7c0,0.7-0.4,1.1-1.1,1.2c-0.3,0-0.8,0-0.7-0.5c0.1-0.7,0.5-1.1,1.1-1.3
			C228.8,176.1,229.1,176.3,229.2,176.7z"/>
		<path class="st17" d="M185.4,91.9c0.7,0.8,0.6,1.5-0.5,1.5c-1.4,0-2.9,0.5-4.2-0.4c0,0,0.1-0.2,0.1-0.2c1.4-0.6,2.9-0.4,4.3-0.9
			C185.2,91.9,185.3,91.9,185.4,91.9z"/>
		<path class="st95" d="M291.3,160.5c-0.2,0-0.3,0-0.5-0.1c-0.7-0.6-1.1-1.4-1.4-2.2C291.8,157.5,291.1,159.3,291.3,160.5z"/>
		<path class="st133" d="M191.4,111.9c0.1,0.1,0.2,0.2,0.2,0.3c-1.2,1.3-2.4,1.3-3.6,0.1c0.1-0.2,0.2-0.4,0.4-0.4
			C189.4,112.3,190.4,112.1,191.4,111.9z"/>
		<path class="st134" d="M159.2,41.3c-1.8,0-2.2-1.6-3.1-2.6c0-0.2,0-0.3,0-0.5c0.3-0.3,0.6-0.3,1-0.2c0.9,0.8,1.6,1.7,2.3,2.7
			C159.4,40.9,159.4,41.1,159.2,41.3z"/>
		<path class="st135" d="M281.7,168.3c-0.5-0.7-1.4-1-0.9-2.1c0.2-0.4,0.5-0.4,0.8-0.2C282.5,166.7,282.5,167.4,281.7,168.3z"/>
		<path class="st136" d="M84.4,151c0.2,0.8,0.5,1.6,0.7,2.5c-0.9,0.3-1.6-0.1-2.3-0.5c0.2-0.7,0.5-1.3,0.7-2
			C83.9,151,84.2,151,84.4,151z"/>
		<path class="st100" d="M221.9,59.5c-0.5,0.7-1,1.4-1.6,2.1C219.8,60.1,219.6,58.9,221.9,59.5z"/>
		<path class="st42" d="M175.4,89.3c-0.7,1.4,0.3,2.4,0.7,3.6c-1.7-0.6-1.7-2.1-1.8-3.6c0,0,0.1-0.1,0.1-0.1
			C174.8,89,175.2,89,175.4,89.3L175.4,89.3z"/>
		<path class="st13" d="M284.5,123.9c-1-0.4-2.1-0.7-3.1-1.1C282.8,122.2,284,122,284.5,123.9z"/>
		<path class="st137" d="M195.8,89.8c1.1,0,1.1,0.8,1.1,1.6c0.2,0.9-0.7,0.9-1.2,1.2c-0.5,0-1.1,0.2-1-0.7
			C195.1,91.2,196.7,91.1,195.8,89.8z"/>
		<path class="st138" d="M218.2,86.1c-0.1-0.3-0.3-0.6-0.4-0.9c1.2-0.5,2.4-0.6,3.6,0c0.2,0.2,0.4,0.3,0.5,0.5
			c0.1,0.1,0.2,0.3,0.1,0.4c-0.1,0.1-0.1,0.2-0.2,0.2C220.7,86.2,219.5,85.2,218.2,86.1z"/>
		<path class="st139" d="M193.7,43.3c0.2,0,0.4,0,0.6,0c-0.5,2.5-2.5,2-4.2,2.1C191.1,44.5,193.2,45.2,193.7,43.3z"/>
		<path class="st132" d="M106.5,190.1c0.2-0.5,0.3-1,0.5-1.6c2.1,0.5-0.6,2.2,1.7,2.7C106.8,191.5,107.2,190.2,106.5,190.1z"/>
		<path class="st56" d="M204.1,112.7c-0.9,1-2.1,0.7-3,0.5c-0.9-0.2-1.7-0.9-0.5-1.9C201.3,113.1,203,112.2,204.1,112.7z"/>
		<path class="st140" d="M226.1,86.2c-0.2-0.2-0.4-0.4-0.6-0.6c1.5-1.1,3.1-0.5,4.6-0.4C229.1,86.5,227.3,85.2,226.1,86.2z"/>
		<path class="st141" d="M175.5,89.3c-0.3,0-0.7-0.1-1-0.1c-0.2-0.9-0.4-1.7-0.6-2.6c0.5-0.1,0.9,0.1,1.2,0.6
			C175.2,87.9,175.3,88.6,175.5,89.3z"/>
		<path class="st142" d="M192.6,110.1c-0.9-1.5-0.2-3.2-0.5-4.7c0.1-0.1,0.3-0.3,0.4-0.4C192.8,106.7,192.8,108.4,192.6,110.1z"/>
		<path class="st143" d="M188,88.3c0.9,0.3,1.7,0.1,2.6,0c0.2-0.2,0.4-0.2,0.6,0c-0.2,0.2-0.3,0.4-0.5,0.5c-0.5,0.4-1.1,0.2-1.6,0.4
			c-0.3,0-0.7,0.1-1,0.1C187.5,89,187.4,88.7,188,88.3z"/>
		<path class="st144" d="M161.9,97.6c0.8,0.9,0.8,1.8-0.1,2.6c-0.3,0.2-0.5,0.1-0.7-0.1c-0.5-0.8-0.5-1.6,0-2.4
			C161.4,97.5,161.6,97.4,161.9,97.6z"/>
		<path class="st145" d="M158.7,111.7c0.2,0.4,0.6,0.5,1,0.6c-1,1.1-2.2,0.5-3.4,0.6C156.9,111.8,157.8,111.8,158.7,111.7z"/>
		<path class="st146" d="M167.2,97.1c-0.6-0.7-1.1-0.1-1.6,0c-0.7-1.7,0.5-1.6,1.5-1.6c0.2,0.3,0.4,0.7,0.6,1
			C167.9,97.1,167.6,97.2,167.2,97.1z"/>
		<path class="st79" d="M204.7,109.9c-0.3-0.3-0.5-0.5-0.8-0.8c-0.4,0-0.4-0.2-0.3-0.5c2.1,0.3,2.8,1.2,1.4,3.1
			C204.6,111.1,204.7,110.5,204.7,109.9z"/>
		<path class="st147" d="M159.7,91.9c0.2,0.2,0.4,0.3,0.6,0.5c-1,1.1-2.2,1-3.3,0.2c0.2-0.2,0.5-0.3,0.7-0.5
			C158.4,92.3,159,92,159.7,91.9z"/>
		<path class="st73" d="M228.7,65.3c0-0.2,0-0.3,0-0.5c0.3-0.1,0.6-0.3,0.9-0.4c0.6-0.1,1.4-0.3,1.4,0.5c0,0.9-0.8,0.6-1.4,0.5
			C229.4,65.3,229,65.3,228.7,65.3z"/>
		<path class="st148" d="M164,175.5c0.9-0.8,1.4-2.5,3.2-1.6C166.2,174.8,165.3,175.4,164,175.5z"/>
		<path class="st33" d="M221.9,177c0,1.1-0.7,1.6-1.6,2.1C219.2,177.2,221.3,177.6,221.9,177z"/>
		<path class="st38" d="M100.8,71.5c0.2-0.4,0.6-0.5,1-0.5c-0.1,0.7,0.2,1.5-0.6,2.3C100.6,72.8,100.8,72.1,100.8,71.5z"/>
		<path class="st98" d="M171.2,148.5c-0.9-0.7-1.8-1.5-2.6-2.2C169.6,146.8,171.5,146.3,171.2,148.5z"/>
		<path class="st149" d="M163.9,87.2c-0.6-0.5-0.5-1.2-0.6-1.8c0.8-0.9,1.3-0.6,1.6,0.4C164.9,86.5,164.3,86.8,163.9,87.2z"/>
		<path class="st150" d="M157.2,38.1c-0.3,0-0.7,0-1,0c0.9-0.8,2-1,3.1-1.1c0,0.2,0,0.4,0,0.6C158.8,39,158,38.6,157.2,38.1z"/>
		<path class="st151" d="M156.5,107.6c0.4,0.3,0.8,0.7,1.2,1c0,0.4-0.2,0.6-0.5,0.8c-1-0.3-2-0.5-1.1-1.9
			C156.2,107.3,156.4,107.3,156.5,107.6z"/>
		<path class="st152" d="M177.6,110.2c0.1,0,0.2,0,0.3,0c0.8,0.6,1.2,1.4,1.7,2.9C178.1,112.1,177.7,111.2,177.6,110.2z"/>
		<path class="st104" d="M236,93.5c1.2,0.5,1,1.6,1,2.6C235.4,95.7,236.2,94.4,236,93.5z"/>
		<path class="st13" d="M287.1,125.5c-0.9-0.5-1.8-1.1-2.7-1.6C285.7,123.8,286.9,123.8,287.1,125.5z"/>
		<path class="st153" d="M178.4,108.2L178.4,108.2c-0.9-0.7-0.6-1.4-0.3-2.2c0,0,0-0.1,0-0.1c0.7-0.2,1.1,0.3,1.5,0.7
			C179.3,107.3,179.7,108.4,178.4,108.2z"/>
		<path class="st154" d="M156.5,107.6c-0.2,0-0.3,0-0.5,0c-0.8-1.4-0.2-2.1,1.1-2.5c0.2,0.1,0.5,0.2,0.6,0.5
			C157.1,106,156.3,106.5,156.5,107.6z"/>
		<path class="st155" d="M179,87.2c-0.3,0.7-0.3,1.6-0.9,2.2c-0.3-0.1-0.5-0.3-0.6-0.6c0-0.9,0.2-1.7,1-2.2
			C178.8,86.6,178.9,86.9,179,87.2z"/>
		<path class="st156" d="M174.4,100.3c0.2-0.2,0.4-0.4,0.6-0.5c0.2,0,0.3,0,0.5,0c0.1,0.9,0.5,1.8-0.6,2.4c-0.4-0.1-0.6-0.4-0.4-0.8
			C174.4,101,174.4,100.6,174.4,100.3z"/>
		<path class="st157" d="M204.1,112.7c-1.3-0.1-3.3,1.4-3.5-1.4c0,0,0.2,0,0.2,0c0.7,0.9,1.6,1,2.6,0.9c0.3-0.2,0.5-0.2,0.7,0.1
			C204.2,112.4,204.2,112.6,204.1,112.7z"/>
		<path class="st92" d="M250.1,120.1c-0.7-0.9-1.4-1.7-2.1-2.6C249.9,117.4,250,118.7,250.1,120.1z"/>
		<path class="st17" d="M181.7,91.9c0-0.4,0-0.7,0-1.1c1.2,0.3,2.5,0.7,3.7,1c0,0-0.1,0.1-0.1,0.1C184.1,92.6,182.9,92.6,181.7,91.9
			z"/>
		<path class="st158" d="M204.2,112.3c-0.2,0-0.5-0.1-0.7-0.1c0.4-0.8,0.8-1.5,1.2-2.3c0.7,0.5,0.4,1.1,0.4,1.8
			C204.8,111.9,204.5,112.1,204.2,112.3z"/>
		<path class="st159" d="M106,112.8c0.9,0.7,1.9,1.4,2.1,2.6C107.1,114.8,106.1,114.1,106,112.8z"/>
		<path class="st160" d="M157.2,109.4c0.2-0.3,0.3-0.6,0.5-0.8c0.7,0,1.2,0.4,1.6,1.1c-0.2,0.2-0.4,0.4-0.6,0.6
			C158.2,110,157.9,109.3,157.2,109.4z"/>
		<path class="st161" d="M198.3,109c-1,0.1-2,0.2-3,0.2c-0.2-0.2-0.2-0.5-0.1-0.7c0.9-0.6,1.8-0.8,2.9-0.7c0.3,0.1,0.3,0.3,0.2,0.6
			C198.4,108.6,198.4,108.8,198.3,109z"/>
		<path class="st100" d="M226,66.8c0.4,0,0.7,0,1.1,0c-1.2,0.8-1,2.1-1.1,3.3C225.6,69,225,67.9,226,66.8z"/>
		<path class="st100" d="M215.7,64.2c-0.1,0.9,0.7,1.4,1.1,2.1C215.3,66.5,215,65.8,215.7,64.2z"/>
		<path class="st162" d="M198.4,108.4c0-0.1,0-0.3,0-0.4c-0.4-0.5-0.7-1-0.6-1.6c0-0.1,0.1-0.2,0.2-0.3c0.3,0,0.7,0,1,0
			c0.1,0.2,0.2,0.4,0.4,0.6c-0.1,0.7-0.3,1.3-0.4,2C198.7,108.6,198.5,108.5,198.4,108.4z"/>
		<path class="st163" d="M161.4,100.3c0.2,0,0.3,0,0.5,0c0,0.2,0,0.3,0.1,0.5c-0.5,0.6-1.1,1.1-1.6,1.7c-0.2,0-0.3-0.1-0.5-0.1
			c0-0.2,0-0.4,0-0.5C159.7,100.6,160.6,100.5,161.4,100.3z"/>
		<path class="st100" d="M224,60c0,0.5,0,1.1,0,1.6c-0.5-0.7-1-1.4-1.6-2.1C223.1,59.1,223.7,59.2,224,60z"/>
		<path class="st164" d="M176.5,103.9c-1.6-0.3-0.1-1.5-0.5-2.1C177.7,102.1,176.8,103.1,176.5,103.9z"/>
		<path class="st165" d="M191.2,88.3c-0.2,0-0.4,0-0.6,0c0.7-0.8,0.3-1.7,0.2-2.5C192.2,86.3,191.9,87.3,191.2,88.3z"/>
		<path class="st166" d="M181.8,85.7c-0.2-0.2-0.4-0.4-0.6-0.6c1.4,0,2.8,0,4.1,0C184.3,86.3,183,85.5,181.8,85.7z"/>
		<path class="st167" d="M223.1,89.3c0-0.6-0.4-1.4,0.4-1.8c0.8,1,0.8,1.9,0,2.9C223.1,90.2,223.3,89.7,223.1,89.3z"/>
		<path class="st137" d="M195.4,88.8c-0.1,0.2-0.1,0.3-0.2,0.5c-0.6-0.4-2.1,0.9-2-1c0.5,0,1,0,1.4,0.1
			C194.9,88.5,195.1,88.7,195.4,88.8z"/>
		<path class="st23" d="M221.4,85.2c-1.2-0.2-2.4-0.3-3.6,0c-0.2,0-0.3,0-0.5,0C218.6,84.3,220,84.2,221.4,85.2z"/>
		<path class="st168" d="M177.5,88.7c0.2,0.2,0.4,0.4,0.6,0.6c-0.2,0.5-0.4,1-0.6,1.5c-0.3-0.3-0.6-0.6-0.9-0.9
			c0.3-0.1,0.5-0.3,0.4-0.7C177.1,89.1,177.3,88.9,177.5,88.7z"/>
		<path class="st111" d="M164.9,85.8c-0.5-0.2-0.8-1.2-1.6-0.4c-0.1,0.1-0.2,0.2-0.4,0.3c-0.3-1.4,0.8-1,1.5-1
			C165.6,84.6,165.1,85.3,164.9,85.8z"/>
		<path class="st169" d="M101,91.8c-1.2-0.4-2-1.2-2.3-2.4C99.7,89.9,100.4,90.9,101,91.8z"/>
		<path class="st4" d="M274.7,153.5c0.8,0.7,1.4,1.5,1.6,2.6C275.4,155.4,274,155.1,274.7,153.5z"/>
		<path class="st170" d="M190.4,90.3c0.4,0.8,1.6,1.2,1.1,2.5c-1-0.6-1.2-1.5-1.3-2.5L190.4,90.3z"/>
		<path class="st159" d="M110.2,117.6c1,0.5,1.7,1.4,2.3,2.4c-0.2,0.2-0.4,0.3-0.7,0.1C111.4,119.2,110.2,118.8,110.2,117.6z"/>
		<path class="st39" d="M104.9,71.5c0.8,0,1.5,0,1.6-1.1c0.2-0.2,0.3-0.2,0.5,0l0,0c0.4,0.5,0.4,1,0,1.6
			C106.2,72.6,105.4,72.6,104.9,71.5z"/>
		<path class="st171" d="M161.9,97.6c-0.2,0-0.4,0-0.6,0c-1,0-1.6-0.5-1.5-1.6c0,0,0,0.1,0,0.1C161.6,95.1,161.6,96.6,161.9,97.6z"
			/>
		<path class="st172" d="M172.8,95.7c-0.2-0.1-0.6-0.1-0.7-0.2c-0.2-0.2-0.1-0.5,0.3-0.5c0.8,0,1.7,0.1,2.5,0.1
			C174.6,96.7,173.4,95.2,172.8,95.7z"/>
		<path class="st11" d="M159.3,134.2c0.2,0.5,0.5,1-0.2,1.3c-0.4,0.2-0.7,0-0.8-0.4C158.2,134.4,158.7,134.3,159.3,134.2
			L159.3,134.2z"/>
		<path class="st173" d="M95.9,100.8c1.4-0.1,1.5,1,1.8,2C96.9,102.3,96.3,101.7,95.9,100.8z"/>
		<path class="st174" d="M213.1,86.7c0-0.4,0-0.7,0-1.1c0.9,0.9,1.4,1.9,1,3.2c0,0,0-0.1,0-0.1C212.7,88.6,212.9,87.6,213.1,86.7z"
			/>
		<path class="st14" d="M135.8,197.5c-0.2,0.1-0.5,0.3-0.8,0.3c-0.4,0-0.7-0.3-0.4-0.6c0.2-0.2,0.6-0.2,0.9-0.3
			C135.7,196.9,136,197,135.8,197.5z"/>
		<path class="st175" d="M165.5,87.8c1,0.3,1.3,1.2,1.7,2c-0.2,0.2-0.4,0.2-0.6,0C165.9,89.3,165.5,88.7,165.5,87.8z"/>
		<path class="st176" d="M157.8,105.6c-0.2-0.2-0.4-0.3-0.6-0.5c1-0.4,1.8-0.1,2.6,0.5C159.1,106.4,158.5,105.6,157.8,105.6z"/>
		<path class="st21" d="M134.2,205.3c-0.5-0.7-0.8-1.5,0-2.2c0.5,0,1.1,0,1.6,0C135.1,203.7,133.9,204,134.2,205.3z"/>
		<path class="st177" d="M194.8,91.9c0.3,0.1,0.6,0.3,0.9,0.4c0.5-0.2,0.7,0,0.7,0.5c-0.6,0-1.1,0.1-1.7,0.1c-0.4,0-0.7-0.2-0.6-0.6
			C194.1,92.2,194.5,92.1,194.8,91.9z"/>
		<path class="st97" d="M223.5,70.4c0.9,0,1.6,0.8,2.5,0.4C225.4,72,224.7,71.9,223.5,70.4z"/>
		<path class="st178" d="M215.1,91.9c0-0.3,0-0.6-0.1-0.9c0.1-0.3,0.1-0.6,0.2-0.9c0.3,0.6,0.7,1.1,0.9,1.7c0.1,0.2,0.2,0.8-0.3,0.7
			C215.5,92.5,215.3,92.1,215.1,91.9z"/>
		<path class="st38" d="M163.4,44.9c1.1,0.2,2.1,0.5,2.6,1.6C165,46.3,164,46,163.4,44.9z"/>
		<path class="st179" d="M203.6,108.6c0.1,0.2,0.2,0.3,0.3,0.5c-0.1,0.4-0.4,0.5-0.8,0.6c-0.2-0.1-0.3-0.1-0.5-0.2
			c-0.5-0.2-1.1,0-1.1-0.8c0-0.2,0.1-0.5,0.1-0.7C202.3,108,203,108.2,203.6,108.6L203.6,108.6z"/>
		<path class="st38" d="M94.5,67.3c-0.1,0.6,0.2,1.4-0.8,1.8C93.4,68.2,93.4,67.6,94.5,67.3z"/>
		<path class="st21" d="M129,207.8c0.3-0.2,0.7-0.3,1-0.5c0.3,0.2,1,0.5,0.5,0.9C130.1,208.6,129.4,208.4,129,207.8z"/>
		<path class="st124" d="M226.1,188.6c-0.5-1.1-1.1-2.2,0-3.3C226.1,186.4,226.1,187.5,226.1,188.6z"/>
		<path class="st180" d="M184.3,105.9c0-0.3,0-0.6,0-0.8c0.7,0,1.7-0.4,1.5,1C185.4,105.9,184.8,105.9,184.3,105.9z"/>
		<path class="st56" d="M203.6,108.6c-0.7-0.2-1.4-0.4-2-0.6c0-0.1,0-0.3,0-0.4c0.5,0,1,0,1.5,0
			C203.3,107.9,203.5,108.3,203.6,108.6z"/>
		<path class="st56" d="M201.5,108.7c0.4,0.3,0.8,0.6,1.1,0.8c-1.2,0.5-1.7-0.2-2-1.2C200.9,108.5,201.2,108.6,201.5,108.7z"/>
		<path class="st35" d="M160.2,111.7c0-0.7,0-1.3-0.1-2C161.7,110.3,161.7,111,160.2,111.7z"/>
		<path class="st181" d="M188.5,111.8c-0.1,0.1-0.3,0.3-0.4,0.4c0,0-0.3,0-0.3,0s-0.3,0-0.3,0c0-0.3-0.1-0.6-0.1-0.8
			c0.2-0.4,0.3-0.8,0.5-1.2C188.1,110.7,188.3,111.3,188.5,111.8z"/>
		<path class="st4" d="M167.7,112.3c0.2,0.3,0.3,0.5,0.5,0.8c-0.8,0.4-1.5,0.4-2.1-0.3c0,0,0.1-0.1,0.1-0.1
			C166.6,112.6,166.9,111.9,167.7,112.3L167.7,112.3z"/>
		<path class="st110" d="M111.7,120.1c0.2,0,0.5,0,0.7-0.1c0.3,0.4,0.6,0.7,0.9,1.1C112.3,121.6,111.9,121,111.7,120.1z"/>
		<path class="st182" d="M221.6,92.5c-0.4-0.2-0.8-0.4-1.2-0.5c0.7-0.2,1.4-0.4,2.1-0.6C222.4,91.9,222.3,92.5,221.6,92.5z"/>
		<path class="st183" d="M223.1,89.3c0.2,0.4,0.3,0.7,0.5,1.1c0,0.8-0.5,0.9-1.1,1C222.6,90.7,222.9,90,223.1,89.3z"/>
		<path class="st184" d="M190.4,90.3c0,0-0.2,0-0.2,0c-0.7,0-0.7-0.8-1.1-1.1c0.4-0.6,1-0.4,1.6-0.4
			C190.3,89.3,190.1,89.8,190.4,90.3z"/>
		<path class="st33" d="M219.3,180.7c-0.4,0.6-0.7,1.5-1.6,0.5C217.9,179.8,218.8,180.9,219.3,180.7z"/>
		<path class="st33" d="M218.8,178.7c-0.2,0.3-0.2,0.6-0.4,0.6c-0.4,0.1-0.6-0.2-0.5-0.6c0-0.2,0.3-0.4,0.4-0.5
			C218.4,178.3,218.6,178.6,218.8,178.7z"/>
		<path class="st73" d="M230.7,66.9c-0.3,0.2-0.5,0.3-0.7,0.3c-0.4,0-0.6-0.2-0.4-0.6c0.1-0.1,0.4-0.2,0.6-0.2
			C230.3,66.5,230.5,66.7,230.7,66.9z"/>
		<path class="st185" d="M142.6,170.7c1,0.2,1.6,0.8,2,1.7C143.7,172.1,143,171.6,142.6,170.7z"/>
		<path class="st60" d="M208.4,164.5c-0.1,1-0.3,1.9-1.1,2.5C207.3,166,207.5,165.1,208.4,164.5z"/>
		<path class="st186" d="M107,72.1c0-0.5,0-1,0-1.6c0.5,0.1,1,0.2,0.9,0.9C107.9,71.9,107.5,72,107,72.1z"/>
		<path class="st4" d="M273.1,156.1c0.8,0.6,1.3,1,1.8,1.4C273.9,157.8,273.5,157.4,273.1,156.1z"/>
		<path class="st11" d="M158.7,132.6c0.7,0.1,1.3,0.3,1.5,1.1c-0.3,0.2-0.7,0.3-1,0.5c0,0,0,0,0,0
			C159.1,133.7,158.9,133.1,158.7,132.6z"/>
		<path class="st187" d="M179,87.2c-0.2-0.2-0.3-0.4-0.5-0.6c0.1-0.6-0.2-1.6,1-1.4c0,0.3,0,0.6,0,0.9
			C179.3,86.5,179.2,86.8,179,87.2z"/>
		<path class="st150" d="M160.8,35.5c-0.1,1-0.6,1.5-1.6,1.6C159.6,36.4,160.1,35.8,160.8,35.5z"/>
		<path class="st100" d="M227.1,63.2c-0.9-0.1-1.9,0.3-2.6-0.5C225.4,62.8,226.4,62.3,227.1,63.2z"/>
		<path class="st100" d="M217.7,63.2c-0.7,0.3-1.4,0.7-2.1,1c0-0.3,0-0.7,0-1C216.4,63.2,217,63.2,217.7,63.2z"/>
		<path class="st38" d="M93.1,65.2c-0.1-0.1-0.3-0.3-0.4-0.5c0.2-0.1,0.4-0.3,0.5-0.3c0.1,0,0.3,0.2,0.4,0.3
			C93.7,65.1,93.4,65.2,93.1,65.2z"/>
		<path class="st188" d="M221.9,86.3c0-0.2,0-0.4,0-0.6c0.8,0.1,1.2,0.8,1.6,1.4C222.6,87.5,222.3,86.9,221.9,86.3z"/>
		<path class="st189" d="M190,85.6c-0.6,0-1.3,0.1-1.9,0.1c-0.2-0.2-0.4-0.4-0.6-0.6C188.3,85.2,189.3,84.6,190,85.6z"/>
		<path class="st132" d="M104.4,190.1c0.7,0,1.4,0,2.1,0C105.8,190.8,105.1,191.4,104.4,190.1z"/>
		<path class="st186" d="M107,70.5c-0.2,0-0.3,0-0.5,0c0-0.7,0-1.4,0-2.1C107.8,68.8,107,69.8,107,70.5z"/>
		<path class="st20" d="M244.9,120.6c0.1-0.5-0.2-1.1,0.4-1.3c0.1,0,0.3,0.1,0.4,0.2C245.8,120.2,245.3,120.4,244.9,120.6
			C244.9,120.6,244.9,120.6,244.9,120.6z"/>
		<path class="st190" d="M166.7,89.8c0.2,0,0.4,0,0.6,0c0.5,0.2,0.7,0.6,0.9,1.1c-0.2,0.2-0.3,0.3-0.5,0.5
			C167.1,90.9,166.7,90.5,166.7,89.8z"/>
		<path class="st191" d="M196.3,92.8c-0.2-0.2-0.5-0.3-0.7-0.5c0.4-0.3,0.9-0.6,1.3-1c0.2,0.2,0.3,0.4,0.5,0.5
			C197.2,92.5,196.9,92.8,196.3,92.8z"/>
		<path class="st47" d="M161.9,201c0.2,0.1,0.4,0.2,0.6,0.3c-0.3,0.2-0.5,0.4-0.8,0.5c-0.1,0-0.3-0.3-0.4-0.5
			C161.4,201.2,161.6,201.1,161.9,201z"/>
		<path class="st192" d="M226.1,148.8l0.1-0.1l0-0.2c0.5-3.9,2.3-7.4,3.3-11.1c0.2-0.5,0.4-1.3,1.2-1.1c0.6,0.1,0.9,0.6,1.2,1.3
			c1.1,2.9,1.9,5.8,2.6,8.8c-0.1,0.2,0,0.3,0.1,0.4c1.7,1.7,2,4,2.5,6.2c0.3,1.5-0.6,2.3-2.1,2.3c-3-0.2-5.9,0-8.9-0.1
			c-1.6,0-2.3-0.9-1.8-2.4C224.7,151.4,224.6,149.7,226.1,148.8z"/>
		<path class="st193" d="M226.1,148.8c-0.4,1.2-0.6,2.5-1.1,3.7c-0.6,1.4-0.5,2,1.3,2c2.9-0.1,5.9-0.1,8.8,0c1.6,0,1.8-0.5,1.3-1.8
			c-0.7-2-1.3-3.9-1.9-5.9c0.9,0,1.7,0.1,2,1.2c0.4,1.7,1,3.3,1.2,5c0.2,1.9-1.1,3.3-2.7,3c-2.9-0.5-5.9-0.2-8.8-0.3
			c-2.9-0.2-3.1-0.8-2.9-3.6C223.4,149.8,224.2,149.1,226.1,148.8z"/>
		<path class="st194" d="M234.4,146.4c-1.2-3.2-2.4-6.5-3.7-10.2c-1.6,4.4-3.1,8.4-4.5,12.3c-0.4-2.9,0.7-5.6,1.8-8.2
			c0.2-0.6,0.5-1.1,0.6-1.7c0.2-1.7,0.6-3.4,2.5-3.4c1.3,0,0.9,2,1.8,2.8c0.8,0.1,1.1-1.7,2.1-0.7c1.1,1.1,0.6,2.5,0.4,3.9
			c-1.3-0.5-0.4-1.8-1.2-2.5C232.4,141.4,235.3,143.8,234.4,146.4z"/>
		<path class="st91" d="M220.9,165c0.2-1.3,1.5-1.6,2.2-1.3c4.6,1.7,9.3,0.3,13.9,0.8c1,0.1,2.1,0,3.1,0.6
			C233.6,165,227.3,165,220.9,165C220.9,165,220.9,165,220.9,165z"/>
		<path class="st195" d="M256.5,174.8c0.8,1,0.8,1.7-0.8,1.7c-3.3,0-6.6,0.1-9.9-0.1c-2.5-0.1-1.9-2.6-2.6-4.1
			c0.2,0.1,0.4,0.3,0.6,0.4c1.1,0.8,0.7,3,2.4,3.1c3.3,0.1,6.5,0.4,9.8-0.2C256.2,175.6,256.3,175.1,256.5,174.8z"/>
		<path class="st196" d="M214.1,176.4c-2.9,0-5.7,0.1-8.6,0.1c-1.5,0-1.8-0.5-0.7-1.6c0.5,0.2,0.8,1.6,1.5,0.3
			c1-1.9,1.3-1.1,2.3,0.1c1.2,1.4,3.3,0.3,5,0.6C214.1,175.7,214.1,176,214.1,176.4z"/>
		<path class="st197" d="M214.1,176.4c-0.2-0.1-0.3-0.3-0.5-0.4c0.6-0.6,1.7-0.8,2-1.9c0.1-0.5,0.1-1.2,0.9-1
			c0.7,0.2,0.8,0.8,0.9,1.5C217.2,176.9,215.7,176.7,214.1,176.4z"/>
		<path class="st78" d="M209.7,161.8c0.6-1.4,1.1-2.8,1.7-4.2C211,159,212.3,161.2,209.7,161.8z"/>
		<path class="st198" d="M280.4,142c-1.5,0.5-2.4,2.1-4.1,2.1c-2.4,0.5-4.8,0.1-7.2,0.2c-1.2,0.1-1.4-0.6-1.4-1.6
			c0-3.5,0-6.9,0-10.4c0-0.8,0-1.6,1.2-1.6c2.6,0.2,5.3-0.4,7.9,0.3c1.7,0.7,3.4,1.6,4.6,3.1C282.9,137.1,282.7,139.7,280.4,142z"/>
		<path class="st199" d="M274.6,153.1c-1.6,0-3.3,0.1-4.9,0c-1.6-0.1-2,0.6-2,2.1c0.1,5.6,0,11.3,0,16.9c0,4.6,0,4.6-4.7,4.5
			c-0.9,0-2.2,0.6-2.4-1.1c1.8,0.9,3.7,0.5,5.6,0.5c1.5,0,1.1-1.3,1.1-2.2c0-6.2,0.1-12.5,0-18.7c0-2.1,0.6-2.9,2.6-2.6
			C271.5,152.7,273.2,151.9,274.6,153.1z"/>
		<path class="st200" d="M276.7,131.1c-2.5-0.1-5-0.1-7.5-0.3c-1.1,0-1.5,0.4-1.5,1.5c0,3.5,0.1,6.9,0,10.4c0,1.2,0.5,1.5,1.6,1.5
			c2.3-0.1,4.7-0.1,7-0.1c-2.6,1.1-5.3,0.4-7.9,0.4c-1.1,0-1-1-1-1.8c-0.1-3.6-0.1-7.3-0.2-10.9c0-0.8,0.2-1.3,0.9-1.3
			C271,130.8,273.9,129.8,276.7,131.1z"/>
		<path class="st201" d="M280.4,142c1.8-2.4,2-5,0.9-7.8c1.7,2.1,1.6,6.1-0.2,7.9C281,142.3,280.6,142.1,280.4,142z"/>
		<path class="st202" d="M43.3,84.1c0,10.4,0,20.9,0,31.3c-1,0.3-0.9,1.2-1,2c-1.3-0.7-1.3-1.6-1-2.4c1.6-4.2,1.5-8.6,1.4-13
			c0-0.6,0.8-2.1-1.1-1.6c-0.4,0.1-0.4-0.7-0.4-1.1c0-5,0-9.9,0.1-14.9c0-0.2,0.2-0.4,0.5-1c0.9,3,0.1,5.7,0.7,8.6
			C43.4,89.3,42,86.6,43.3,84.1z"/>
		<path class="st203" d="M146.8,135.2c0.4-1.9,1.1-3.6,2-5.3C148.9,132,148.7,134,146.8,135.2z"/>
		<path class="st203" d="M145.1,139.4c0.2-0.8,0.4-1.7,0.6-2.5c0.3-0.4,0.6-0.9,0.9-1.3C146.8,137.1,146.7,138.5,145.1,139.4z"/>
		<path class="st204" d="M200.2,131.5c0,14.6,0,29.2,0,43.8c-0.1,0-0.1,0-0.2,0c0-14.6,0-29.2,0-43.8
			C200.1,131.5,200.1,131.5,200.2,131.5z"/>
		<path class="st205" d="M339.4,124.8c-0.2,1.4-0.3,2.9,0.5,4.2c0,0.2,0,0.3,0,0.5c-0.2,0.4-0.5,0.7-1,0.7c-6.3,0-12.6,0.3-18.8-0.2
			c-0.7-0.2-1.6,1-2-0.2c-0.4-1.1,0.6-1.5,1.4-1.8c0.6-0.2,1.2-0.4,0.9-1.2c-0.2-0.7-0.8-0.9-1.4-0.9c-5.2,0-10.5,0-15.7,0
			c-0.8,0-1.8-0.2-2,1c-2.3,0-4.5-1-6.8,0c-0.5,0.2-1,0.5-1.6,0c0-0.5,0-1,0-1.6c0.4-1.6,1.7-1.3,2.7-1.3c12.3-0.1,24.5-0.1,36.8,0
			c1,0,1.8,0.2,2.9-0.6C337,122.3,338.4,122.9,339.4,124.8z"/>
		<path class="st10" d="M293.8,130.6c-0.5-0.2-0.5-0.6-0.4-1c-0.4-1.1-0.1-1.6,1-1c0.7,0.4,1.1,1.3,2.2,1c1.2-0.4,2.4-0.7,3.6-0.2
			c2.8,1,5.8,0.3,8.7,1.1C303.9,130.6,298.9,130.6,293.8,130.6z"/>
		<path class="st15" d="M320.1,130c5.6,0,11.2,0,16.8,0c1,0,2.1,0.1,3-0.5c-0.2,1.5-1.4,1-2.3,1c-5.9,0-11.7,0-17.6,0
			C320.1,130.3,320.1,130.2,320.1,130z"/>
		<path class="st205" d="M301.3,127.1c2.7-0.2,5.4-0.6,8,0.4C306.6,127.7,303.9,128.6,301.3,127.1z"/>
		<path class="st205" d="M300.2,129.5c-1.1,0.7-2.4,0.5-3.7,0.5c-0.2-0.1-0.2-0.2-0.2-0.3c0.1-0.1,0.1-0.2,0.2-0.2
			C298.1,127.3,299.1,127.3,300.2,129.5z"/>
		<path class="st206" d="M296.6,129.5c0,0.2,0,0.3,0,0.5c-0.9,0-1.7,0-2.4-0.9c-0.6-0.8-0.6,0.2-0.8,0.5c-0.4-0.4-0.5-1-0.6-1.5
			c0-0.4,0.1-0.8,0.1-1.2c0.5,0.2,1-0.6,1.6,0C295.2,127.8,295.1,129.3,296.6,129.5z"/>
		<path class="st207" d="M145.1,82.1c3.8-0.3,3.8-0.3,3.8,3.5c0,11.1,0,22.2,0,33.2c0,1,0.3,2.1-0.5,3c-0.9-2.6-1-5.4-0.8-8
			c0.8-9.3,0.2-18.5,0.4-25.7c0,4.8,0,11.6,0,18.5c0,1.6-0.1,3.3-0.5,4.9c-0.6,0.8-1,0-1.7-0.5c0.5,2.2-1.1,4.4,1.1,6.1
			c0.8,0.5,1.4,1.2,0.8,2.2c-0.6,0.7-1.1,1.6-2.2,1.5c-0.8-0.3-1.5-0.8-1.9-1.7c-1.2-3.6-1.4-7.3-0.1-11c0.4-1.2,0.2-2.4,0.2-3.6
			c0-1.8,0-3.5,1.4-4.8c0.7-0.6,0.6-1.6,0.7-2.5c0-2.7,0-5.4,0-8.1c0-0.6,0-1.2-0.3-1.8c-0.5-0.9-1.2-2.1-2.2-1.9
			c-1,0.1-0.6,1.5-0.6,2.3c0,1.9,0,3.8-0.8,5.6c-0.3,0.7-0.3,1.5-0.2,2.3c0.9,11.9,0.3,23.8,0.4,35.6c0,3.1-0.7,3.7-3.1,2.7
			c-0.4-1.1-0.2-2.2-0.2-3.4c0-14.6,0-29.2,0-43.8c0-4.2,0-4.2,4.2-4.6C143.8,82.2,144.5,82.4,145.1,82.1z"/>
		<path class="st208" d="M145.7,120.6c0.5-0.5,1-1,1.6-1.6c1.4,0.7,0.4,2.2,1,3.1c-1.3,4.1-2.9,8.1-4.7,12c-0.8,0.8-1.5,1.7-2.8,1.5
			c-0.9-0.1-1.8-0.2-1.3-1.5c1.6,0.2,2.1-0.4,2.1-2c-0.1-11,0.4-22.1-0.2-33.1c-0.3-4.7,1.5-9.1,0.8-13.8c-0.1-0.8,0.5-2,1.2-1.4
			c1.3,1,3.4,1.6,3.4,3.6c0.1,3.8,0,7.6,0,11.5c0,0.5-0.1,1.4-0.2,1.4c-3,0.4-1.8,2.8-1.8,4.3c0.1,3.6-1.6,7-1.3,10.7
			c0.1,1.5,2,2.7,0.7,4.3c0.2,2.2,0.3,4.4-0.2,6.2C144.7,124.4,144.5,122.3,145.7,120.6z"/>
		<path class="st209" d="M136.3,135.2c-1.1-4.1-0.7-50.1,0.4-52c1,0.8,1.2,1.9,1.2,3.2c0,15.2,0,30.4,0,45.6
			C137.9,133.4,137.7,134.6,136.3,135.2z"/>
		<path class="st210" d="M139.4,134.2c1.4,2.7,2.8-0.1,4.1,0c-0.2,0.7-0.4,1.3-0.6,2c-1.4,0-2.7,0.3-4.1-0.2c-0.4-0.6-0.2-1.4-0.2-2
			c0-16.6,0-33.2,0-49.8c0-0.7-0.2-1.4,0.2-2c2.1-0.5,4.2-0.2,6.2-0.1c-0.8,0.8-1.9,0.6-2.7,0.6c-2.9,0-3.1,1.6-3.1,4
			C139.5,102.6,139.4,118.4,139.4,134.2z"/>
		<path class="st207" d="M138.9,82.2c0,17.9,0,35.9,0,53.8c-0.1,0.1-0.2,0.1-0.4,0.1c0-17.1,0-34.1,0-51.2
			C138.6,84,138.2,83,138.9,82.2z"/>
		<path class="st211" d="M148.2,122.2c-0.9-0.9-0.2-2.2-1-3.1c0.9-0.9,0-1.2-0.5-1.6c-1.1-1.9-1.2-3.8,0-5.7c0.7-1.4,1-2.9,1-4.4
			c0-7.8,0-15.6,0.6-23.4c0,12.6,0,25.3,0,37.9C148.4,122,148.4,122.1,148.2,122.2z"/>
		<path class="st212" d="M164.4,112.6c-1.1,0.2-1-0.6-1-1.3c0-1.8-0.1-3.5-0.1-5.3c0.4-0.3,0.8-0.3,1.2,0
			C164.5,108.2,164.4,110.4,164.4,112.6z"/>
		<path class="st213" d="M171.8,108.7l0,0.2c0,1-0.4,1.6-1.5,1.6c-0.9,0-2,0.2-2-1.3c0.3-0.9,0.5-1.9,1.1-2.6
			c0.8-0.4,1.1,0.3,1.4,0.8C171.1,107.8,171.4,108.3,171.8,108.7z"/>
		<path class="st214" d="M168.5,108.6c0.2,0.6-0.1,1.4,0.9,1.5c1.1,0.1,1.9-0.2,2.4-1.2c0.6,0.7,0.9,1.5,1.1,2.4
			c-0.2,0.2-0.5,0.3-0.8,0.1c-1.4-1.1-3.2-0.1-4.9-0.7c0.1-0.8,0.2-1.5,1-2L168.5,108.6z"/>
		<path class="st215" d="M164.5,106c-0.4,0-0.8,0-1.2,0c-0.8-0.3-2.2,0.7-2.4-1c1.9,0,3.8,0,6.1,0
			C166.2,106.3,165.3,105.9,164.5,106z"/>
		<path class="st216" d="M174.4,101.3c0.1,0.3,0.3,0.5,0.4,0.8c-1.3,1.4-2.5,0.9-3.8-0.1c0.4-0.3,0.8-0.5,1.2-0.3
			C173.1,101.9,173.8,101.7,174.4,101.3z"/>
		<path class="st217" d="M170.7,107.6c-0.3-0.3-0.6-0.7-1-1c-0.6,0.3-0.8-0.1-1-0.6c1.6-1.5,2.1-0.3,2.4,1.1
			C171.1,107.3,171,107.5,170.7,107.6z"/>
		<path class="st42" d="M172.3,101.7c-0.4,0.1-0.8,0.2-1.2,0.3c-0.3,0.2-0.4-0.9-0.9-0.2c-0.7-0.1-0.8-0.5-0.6-1.1
			C170.6,100.8,171.7,100.6,172.3,101.7z"/>
		<path class="st218" d="M168.8,106c0.3,0.2,0.7,0.4,1,0.6c-0.5,0.6-0.4,1.7-1.3,2c0,0-0.2,0-0.2,0
			C168.4,107.8,168.6,106.9,168.8,106z"/>
		<path class="st219" d="M169.6,100.8c0.2,0.4,0.4,0.7,0.6,1.1c-0.1,0.4-0.1,1-0.7,0.8c-0.6-0.2-0.8-0.8-0.8-1.5
			c0.2-0.2,0.2-0.5,0.5-0.6C169.3,100.8,169.5,100.8,169.6,100.8z"/>
		<path class="st220" d="M169.2,100.7c-0.2,0.2-0.4,0.4-0.5,0.6c-0.2-0.2-0.4-0.4-0.5-0.5c0-0.4,0-0.7,0-1.1c0-0.1-0.1-0.3-0.1-0.4
			c0.2-0.2,0.4-0.2,0.5,0C168.8,99.7,169,100.2,169.2,100.7z"/>
		<path class="st221" d="M167.6,112.3c-0.4,0.3-0.9,0.7-1.5,0.5c0.2-0.5,0.2-1.3,0.9-1.4C167.7,111.3,167.5,111.9,167.6,112.3z"/>
		<path class="st222" d="M172.1,111.4c0.3,0,0.5-0.1,0.8-0.1c0.4,0.4,0.9,1.1,0.3,1.4C172.3,112.9,172.3,111.9,172.1,111.4z"/>
		<path class="st223" d="M170.7,107.6c0.1-0.2,0.3-0.3,0.4-0.5c0.2,0.5,0.4,1.1,0.7,1.6C171.1,108.7,170.7,108.3,170.7,107.6z"/>
		<path class="st224" d="M118.4,113.3c-0.1,0.5-0.3,0.7-0.9,0.7c-1.9,0-4.2-2.8-3.7-4.5c0.1-0.6,0.5-0.6,0.9-0.6
			C115,108.9,118.4,112.9,118.4,113.3z"/>
		<path class="st225" d="M217.7,184.3l-0.3,0c0,0-0.3,0-0.3,0c-1.1-2-1.1-2.1,2.6-2.1C219.3,183,217.3,182.5,217.7,184.3z"/>
		<path class="st226" d="M227.6,182.3c0.7,1.2,0,1.7-1,2c1-2.3-1.7-1-2-2.1C225.6,182.2,226.6,182.2,227.6,182.3z"/>
		<path class="st227" d="M220.9,181.2c0.2-1,0.3-2.1,1.5-2.2c0.5-0.1,0.7,0.7,0.6,1.2C221.7,179.4,221.7,181.2,220.9,181.2z"/>
		<path class="st228" d="M127.4,202.6c-0.2,0-0.4,0.1-0.7,0.1c-0.6-0.7-1.2-1.4-2.3-2.6c3.2,0.3,4.8-1.2,5.8-4.2
			c1.3,2.3,2.1,4.4,4.9,4.2c0.9-0.1,0.9,0.4-0.8,2.1c0-0.1,0-0.2-0.1-0.3c-0.6-0.9-1.5-0.3-2.2-0.5c-0.2,0-0.5-0.1-0.7-0.2
			c-0.9-1.1-1.8-1.2-2.6,0.2C128.4,201.9,128,202.3,127.4,202.6z"/>
		<path class="st206" d="M339.4,124.8c-0.5-0.5-0.9-1.1-1.5-1.4c-0.9-0.5-2,0-2.7,0.6c-0.7,0.6,1,0.7,0.7,1.7
			c-4.3-1.7-8.7-0.8-13.1-0.9c-9-0.2-18.1-0.1-27.1,0c-0.9,0-1.9-0.3-2.7,0.5c-0.8-0.4-1.2-1-0.9-1.9c0.3-0.9,1.1-0.7,1.8-0.7
			c14.5,0,29,0,43.4,0C338.7,122.7,339.5,123.2,339.4,124.8z"/>
		<path class="st229" d="M251.1,122.3c0,0.1,0,0.2,0.1,0.4c0.1,0.1,0.2,0.3,0.1,0.4c0,0.2-0.1,0.2-0.1,0.2c-0.6,0.4-1.2,0.2-1.7-0.2
			c-1.3-1.3-2.4-0.1-3.5,0.4c-1.5,0.7,0,1.6-0.1,2.4c-0.1,0.5-0.1,1,0.4,1.7c1.5-0.9,3.3,0.4,4.9-0.8c0.5,0.8,0.8,1.7,0.2,2.4
			c-0.7,0.8-1.5-0.4-2.3-0.3c-1.6-1.2-2.6,1-4.2,0.6c0-2,0.4-4.2-1.7-5.7c-0.5-0.4-0.2-1,0.5-1c1.9,0,3.2-0.9,3.9-2.7
			c0.4-1.1,1.1-0.9,1.6,0.1C249.6,121,249.8,122.2,251.1,122.3z"/>
		<path class="st230" d="M134.1,47.5c-0.9,0.5-1.1,1.4-1,2.4c0,0.8,0.1,1.7-1.1,1.9c0,0,0,0,0,0c-1.2-1.1-2.4-1.2-3.6,0
			c-1.7,1-1.7-0.2-1.5-1.3c0.3-1.3,0.1-2.3-1.1-3c-1.1-0.7-1.1-1.4-0.1-2.2c2,0,3.2-1.1,3.9-2.9c1.9-0.5,1.5,1.5,2.4,2.1
			c0.3,0.3,0.7,0.5,1.1,0.7C134.2,45.6,135.8,45.9,134.1,47.5z"/>
		<path class="st231" d="M129.6,42.3c-0.3,2.1-1.4,3.4-3.8,3.1c-0.4,0.3-0.8,0.3-1.1-0.1C126.6,44.7,128.5,44.2,129.6,42.3z"/>
		<path class="st232" d="M134.1,47.5c1-1.8-1.1-1.3-1.5-2.1c0.9-0.7,1.7-0.3,2.6,0c0.1,0.1,0.3,0.1,0.4,0.1c0.7,1.4-0.4,1.7-1.4,2.1
			L134.1,47.5z"/>
		<path class="st233" d="M135.2,45.4c-0.9,0-1.7,0-2.6,0c-0.4-0.2-0.6-0.5-0.6-1C133.2,44.3,134.4,44.4,135.2,45.4z"/>
		<path class="st234" d="M124.8,45.4c0.4,0,0.7,0,1.1,0.1c-0.7,0.7-0.3,1.4,0,2.1c-0.3,0-0.7,0-1,0
			C124.5,46.8,123.9,46.1,124.8,45.4z"/>
		<path class="st233" d="M134.3,47.6c0.7-0.5,1.5-1,1.4-2.1c0.2,0,0.4,0,0.6-0.1c0.1,1.4-0.6,2.3-2,2.7
			C134.3,47.9,134.3,47.8,134.3,47.6z"/>
		<path class="st235" d="M82.9,153c0.9-0.6,1.7-0.1,2.3,0.5c0,0,0,0,0,0c0.3,1.8,2.8,0.8,3.1,2.3c0.2,1.2-1.7,1.9-1.3,3.4
			c0.4,1.6-0.3,2.1-1.8,1.3c-0.7-0.3-1.4-0.8-2.1,0c-0.7,0.5-1.4,1.3-2.3,0.7c-0.6-0.4-0.3-1.3,0-1.9c0.4-1.3-0.5-1.9-1.2-2.7
			c-0.4-0.4-1.1-0.8-0.7-1.5c0.3-0.5,0.9-0.5,1.4-0.5C81.5,154.7,82.3,154,82.9,153z"/>
		<path class="st136" d="M83.1,160.4c1.1-1.5,2.1,0,3.4,0c0.5-1.3-0.1-3,1.2-4.2c0.7-0.6-0.1-1.1-0.7-1.1c-1-0.1-1.9-0.4-1.8-1.7
			c0.6,0.4,1.1,1.1,2,1c2.7,0,2.4,1.1,1,2.6c-1.2,0.7-1,1.7-0.7,2.7c0.1,0.5,0.3,1-0.1,1.5c-0.6,0.6-1.1,0-1.6-0.2
			C84.9,160.7,84.1,160.2,83.1,160.4z"/>
		<path class="st236" d="M203,91.9c-0.4-2.1-1.1-4.2,0.4-6.2C202.6,87.7,203.2,89.8,203,91.9z"/>
		<path class="st127" d="M207.3,87.7c0.6,0.9,0.7,1.7-0.1,2.5C207.3,89.4,207.3,88.5,207.3,87.7z"/>
		<path class="st237" d="M164,206.2c0.7,0.7,1.5,1.2,2.5,1.1c1.6,0,1.3,1,1,1.9c-2.8,0.9-0.9,3.3-1.8,5.2c-2-1.6-4.2-1.5-6.2,0
			c-1-1.8,1-4.3-1.8-5.2c-1.2-3,1.4-1.6,2.4-2.1c0.5-0.2,1-0.5,1.2-1C162.3,204.6,163.1,205,164,206.2z"/>
		<path class="st238" d="M105,67.5c0.1,0.1,0,0.2,0,0.2c0.6,0.9,1.6,1.8-0.3,2.5c-1-0.4-1.8-1.1-3.1-0.6c-2.2,0.9-2.3,0.8-1.8-1.6
			c0.1-0.3,0-0.5-0.2-0.6c-0.1-0.1-0.2-0.1-0.2-0.2c-0.6-0.9-2.3-1.5-1.9-2.5c0.4-1.1,2.1-0.7,3.2-1c1.5-2.1,1.5-2.1,3.3-0.3
			c0.5,0.5,1,0.6,1.6,0.6c0.6,0,1.2,0.1,1.5,0.8c0.3,0.7-0.4,1-0.8,1.4C105.9,66.7,105.3,67,105,67.5z"/>
		<path class="st239" d="M105,67.5c0.2-0.5,0.3-1.1,0.7-1.4c1.7-1.3,1.2-1.8-0.6-1.9c-0.4,0-1-0.2-1.1-0.4c-1-2.7-2.1-0.9-3.2-0.1
			c0-0.3,0.1-0.7,0.1-1c1.6-2.3,1.6-2.3,3.2,0.1c0.5,0.8,1.2,0.9,2,1c2,0.2,2.5,0.9,1,2.5C106.4,66.7,105.7,67.1,105,67.5z"/>
		<path class="st240" d="M99.6,67.4c0.5,0.2,0.6,0.5,0.4,1c-0.4,1.3,0,1.7,1.2,1c1.3-0.7,2.3-0.6,3.3,0.5c-0.2,0.2-0.4,0.3-0.6,0.1
			c-0.9-0.3-1.8-0.3-2.7,0.2c-0.5,0.3-1.2,1-1.9,0.5c-0.8-0.5-0.1-1.4-0.1-2.1C99.3,68.2,99.5,67.8,99.6,67.4z"/>
		<path class="st239" d="M103.9,70c0.2,0,0.4,0,0.6-0.1c1.9-0.3,0.5-1.4,0.6-2.2c1.4,0.6,1.3,2,0.8,2.8
			C105.3,71.3,104.4,70.5,103.9,70z"/>
		<path class="st241" d="M181.7,89.3c0-0.4,0-0.7,0-1.1c1.1,0.1,2.2-0.2,3.7,0.5C184,89.6,182.8,89.2,181.7,89.3z"/>
		<path class="st237" d="M159.2,41.3c0-0.2,0-0.4,0-0.5c-0.3-0.7-1.1-1.1-1.1-2c0.9-0.8,2.6-0.3,3.1-1.8c0-0.4,0-0.8,0.4-1
			c0.6-0.5,1.2-0.9,1.7,0.1c0.2,0.4,0.4,0.7,0.5,1.1c0.8,1.4,2.5,1,3.7,1.6c-0.7,1.7-2.5,3.1-1.6,5.4c0.2,0.6-0.5,0.9-1,0.5
			c-1.9-1.3-3.6-0.6-5.3,0.3c-0.7-0.9-0.2-1.8-0.4-2.6C159.2,41.9,159.2,41.6,159.2,41.3z"/>
		<path class="st242" d="M167.7,38.7c-1.4-0.2-3.1,0.4-3.7-1.6c1.3,0.7,2.7,1,4.1,1.1C167.9,38.4,167.8,38.5,167.7,38.7z"/>
		<path class="st243" d="M99.2,186.4c-0.3-1.2,0.6-4.1,1.7-5.2c0.3-0.4,0.6-0.8,0.9-1.1c1.3-0.7,1.6,0.4,2.2,1.1
			c0.1,0.1,0.1,0.2,0.1,0.4c0.2,1.2,1.3,0.8,2,1.1c0.9,0.3,1.7,0.7,0.5,1.7c-0.2,0.2-0.3,0.3-0.5,0.5c-0.2,2.6-1.3,4.1-4.2,3.3
			c-0.2-0.1-0.5,0.1-0.7,0.1c-0.4,0-0.3-0.5-0.6-0.6c0.1,0.2,0.1,0.4,0.3,0.6c0,0.1,0.1,0.2,0.1,0.3
			C99.2,189.4,99.2,189.4,99.2,186.4z"/>
		<path class="st244" d="M106.5,184.3c0.6-1.1-0.4-1.3-1.1-1.5c-0.7-0.2-1.6-0.1-1.5-1.3c0.8,0.7,1.7,0.7,2.7,0.8
			c1.5,0.1,1.3,1,0.8,1.9C107.2,184.3,106.8,184.3,106.5,184.3z"/>
		<path class="st245" d="M103.9,181.2c-0.7-0.3-1.3-1.1-2.2-1.1c0.1-0.5,0.3-1.3,0.8-1.1C103.5,179.2,103.8,180.2,103.9,181.2z"/>
		<path class="st246" d="M168.6,99.2c-0.2,0-0.4,0-0.5,0c-0.6-0.6-0.8-1.3-0.9-2.1c0.2-0.2,0.3-0.4,0.5-0.5
			C168.2,97.4,168.4,98.3,168.6,99.2z"/>
		<path class="st244" d="M100.8,188c2.2-0.3,4.7,0,5.2-3.1c0,0.2,0,0.3,0,0.5c0,2.3,0.7,5.3-3.4,2.9c-0.4-0.2-1.2,0.2-1.7,0.3
			c0,0-0.2-0.2-0.2-0.2c-0.1-0.1-0.1-0.2-0.1-0.3C100.7,188,100.7,188,100.8,188z"/>
		<path class="st247" d="M194.2,206.2c-0.5,1.2-1.6,1.1-2.6,1c-0.4-1.5,0.9-3.3-0.6-4.6c0-0.2,0.1-0.4,0.1-0.6
			c1.7-0.4,1.8,0.9,2,1.9C193.2,204.9,193.3,205.7,194.2,206.2z"/>
		<path class="st248" d="M164,206.2c-0.8-0.4-1.7-1.4-2.3,0.3c-0.2,0.6-0.8,0.8-1.5,0.8c0.5-0.8,1.1-1.6,1.6-2.5
			c0.4-0.7,0.8-1.1,1.6-0.6C163.6,204.9,163.8,205.5,164,206.2z"/>
		<path class="st249" d="M192.6,50c-0.1-0.1-0.1-0.3,0-0.4c2.8-0.5,1.4-2.7,1.6-4.2c0.7-1.3,1.2-3.1,2.4-0.3
			c0.2,0.6,1.1,0.7,1.8,0.8c1,1.5,0,3-0.4,4.1c-0.6,1.7-3,0.8-4.6,1.3C192.5,51.6,192.3,50.8,192.6,50z"/>
		<path class="st250" d="M192.6,50c0.5,2.1,2,0.6,2.6,0.4c0.8-0.3,1.5-0.5,2.7,0.3c-1.3-2.1,0.4-3.3,0.4-4.8
			c1.4-0.2,1.6,0.5,1.1,1.6c-0.1,0.2-0.4,0.5-0.4,0.7c0.6,3.8-1.6,3.9-4.4,3.4C193.7,51.6,191.1,53.4,192.6,50z"/>
		<path class="st250" d="M194.2,45.4c0,1.1,1.8,1.2,1,3c-0.8,1.7-1.4,1.4-2.6,1.2c0-0.9-0.6-1.4-1-2.1
			C191,44.9,193.6,46.5,194.2,45.4z"/>
		<path class="st251" d="M131.6,201c0.6-0.1,1.2-0.2,1.7-0.3c1.6-0.5,0.8,0.7,0.8,1.3c-0.3,0.2-0.7,0.4-1,0.7
			c-0.4,0.5-0.2,1.2-0.3,1.8c-0.1,0.8-0.3,1.4-1.3,0.9c-0.1,0-0.2,0-0.3,0c-2.3,0.6-4.1,0.5-3.9-2.6c0-0.7,0.4-1.1,0.8-1.6
			C130.1,198.6,130.1,198.6,131.6,201c-0.3,0.3-0.6,0.5-0.9,0.8C131,201.6,131.3,201.3,131.6,201z"/>
		<path class="st228" d="M131.6,205.2c1.7-0.1,0.5-2.1,1.5-2.6c0,0.8,0.1,1.5,0,2.3C133,206.7,132.2,205.8,131.6,205.2z"/>
		<path class="st252" d="M171.8,98.1c-1.2-0.4-1.1-1.1-0.4-2.1C172,96.8,171.7,97.5,171.8,98.1C171.7,98.2,171.8,98.1,171.8,98.1z"
			/>
		<path class="st253" d="M251.2,126.8c-0.1,0.7-0.1,2.1-1.1,1.5c-1.7-0.9-3-0.1-4.5,0.4c-0.3-1.9,0.3-3.9-1.4-5.1
			c2.4-1.2,4.6-3,7-0.4c0.5-0.3,1-0.4,1.4,0c0.5,0.6-0.2,1.1-0.4,1.6C251.4,125.2,251.2,125.9,251.2,126.8z"/>
		<path class="st254" d="M252.2,124.8c0.2-0.9,0.4-1.8-1-1.6c0-0.2,0-0.4,0-0.6c0.8,0,1.7,0.1,2.5,0.1
			C253.8,123.8,253.1,124.4,252.2,124.8z"/>
		<path class="st255" d="M195.4,108.4c0,0.3,0,0.5-0.1,0.8c-0.1,0.9-0.3,1.9-0.4,3c-0.8-0.8-0.2-1.8-0.6-2.5
			c-0.2-0.1-0.2-0.2-0.2-0.3c0.1-0.1,0.1-0.2,0.2-0.2c0.4-1.2-0.3-2.6,0.5-3.8c0.4,0.1,0.7,0.4,0.9,0.8
			C195.9,106.9,196,107.7,195.4,108.4z"/>
		<path class="st256" d="M195.4,106c-0.2-0.2-0.4-0.4-0.6-0.7c1.2-0.5,2.4-1.2,3.1,0.7c0,0,0,0,0,0
			C197.1,106.7,196.2,106.7,195.4,106z"/>
		<path class="st209" d="M194.3,109.1c0,0.2,0,0.3,0,0.5c-0.4,0.3-0.7,0.7-1.1,1c0-0.9,0-1.7,0-2.9
			C193.7,108.4,194,108.8,194.3,109.1z"/>
		<path class="st237" d="M194.2,206.2c-1.2,0.3-2.5,0.9-1.8-1.4c0.4-1.2,0.1-2.4-1.3-2.8c-0.9-1.1-1.3-1.9,0.7-2c0.8,0,1.6-0.2,2-1
			c1-0.5,0.7-1.8,2-2.5c0.4,3.1,3.4,3,5.2,4.6c-1.4,0.9-2.5,2-2.1,4c0.3,1.6-0.2,2.1-1.7,1.2c-0.8-0.5-1.7-0.9-2.5,0
			c0,0-0.2,0-0.2,0L194.2,206.2z"/>
		<path class="st257" d="M178.1,106c0.3,0.7,0.5,1.4,0.3,2.1c-0.9,0.3-1.8,0.5-2.8,0.4C174.9,106.1,176.2,105.8,178.1,106z"/>
		<path class="st105" d="M128.5,51.8c1.2-1.7,2.4-1.7,3.6,0c-0.3,0-0.7,0-1,0C130.2,50.6,129.4,51.9,128.5,51.8z"/>
		<path class="st258" d="M161.3,37c-0.1,1.8-1.7,1.4-2.7,1.8c0.2,0.7,0.5,1.3,0.7,1.9c-1-0.7-2-1.2-2.1-2.6c0.7-0.1,1.5,0.1,2.1-0.4
			C160.1,37.8,160.7,37.5,161.3,37z"/>
		<path class="st242" d="M163.4,36c-0.5-0.4-1.1-0.2-1.7-0.1c0.2-0.5,0.2-1.3,1.1-1.2C163.4,34.9,163.5,35.5,163.4,36z"/>
		<path class="st259" d="M213.1,86.7c0.5,0.6,0.3,1.6,1,2.1c0.2,1.1-0.6,1.2-1.4,1.2c-0.8,0-1.3-0.2-1.2-1.1
			C212.2,88.2,212,87,213.1,86.7z"/>
		<path class="st260" d="M202.7,105.6c-0.2-0.2-0.4-0.4-0.6-0.5c0.3,0,0.7-0.1,1-0.1c0.5,0,1.3,0.1,0.9,0.8
			C203.8,106.2,203.2,105.7,202.7,105.6z"/>
		<path class="st261" d="M159.8,96.1c0.5,0.5,1,1.1,1.5,1.6c0,0.9,0,1.7,0.1,2.6c-0.5,0.5-1.1,1-1.6,1.5c-1.2,0-2.3,0-3.5,0
			c0.1-0.3,0.2-0.7,0.3-1c-0.2-1.6-0.4-3.1,0.1-4.7C157.7,96.1,158.8,96.1,159.8,96.1z"/>
		<path class="st262" d="M156.7,96.1c0,1.6-0.1,3.1-0.1,4.7C155.9,99.2,155.7,97.6,156.7,96.1z"/>
		<path class="st263" d="M181.7,91.9c1.2,0,2.4,0,3.6,0c-1.2,2.1-3.1,0.6-4.6,0.9c0-0.1,0-0.3,0-0.4
			C181.2,92.4,181.5,92.3,181.7,91.9z"/>
		<path class="st264" d="M161.3,85.7c0,1.5,0,3.1,0,4.6C160.6,88.8,160.6,87.2,161.3,85.7z"/>
		<path class="st265" d="M195.4,106c0.8,0,1.7,0,2.5,0c0.2,0.7,0.3,1.3,0.5,2c-1,0.4-1.9,0.7-3,0.4
			C195.4,107.6,195.4,106.8,195.4,106z"/>
		<path class="st266" d="M145.7,120.6c0.1,2.7-1,4.9-2.8,7c1.4-2.6,0-5.5,1.2-8C144.9,119.6,145.4,119.9,145.7,120.6z"/>
		<path class="st208" d="M146.7,111.7c0,1.9,0,3.8,0,5.7c-1,0.1-1.6-0.3-1.6-1.5c0-1.4,0-2.7,0-4.1c0-0.9-0.3-2.4,0.8-2.4
			C147.3,109.5,146.5,111,146.7,111.7z"/>
		<path class="st207" d="M142.6,107.2c-0.7-1.2-0.7-2.3,0-4C143.3,104.9,143.1,106,142.6,107.2z"/>
		<path class="st267" d="M100.8,188c0,0.1,0,0.3-0.1,0.4c-0.7-0.6-0.3-1.3-0.4-2.2C101,186.9,100.7,187.5,100.8,188z"/>
		<path class="st228" d="M131.6,201c0,0.1,0,0.2,0,0.3c-0.3,0.8-0.3,1.8-1.5,1.7c-0.4,0-0.5-0.4-0.5-0.8
			C129.8,201.1,130.7,201,131.6,201C131.6,201,131.6,201,131.6,201z"/>
		<path class="st268" d="M159.9,98.5c0.3,1.6-0.3,2.2-2.2,2.2C158.4,99.6,159.5,99.4,159.9,98.5z"/>
	</g>
</g>
</svg>
