<?xml version="1.0" encoding="utf-8"?>
<!-- Generator: Adobe Illustrator 19.2.0, SVG Export Plug-In . SVG Version: 6.00 Build 0)  -->
<svg version="1.1" xmlns="http://www.w3.org/2000/svg" xmlns:xlink="http://www.w3.org/1999/xlink" x="0px" y="0px"
	 viewBox="0 0 294.5 162.7" style="enable-background:new 0 0 294.5 162.7;" xml:space="preserve">
<style type="text/css">
	.st0{fill:#FFFFFF;stroke:#255F8E;stroke-width:3;stroke-miterlimit:10;}
	.st1{fill:#255F8E;}
	.st2{fill:#FFFFFF;}
	.st3{font-family:'Helvetica-Bold';}
	.st4{font-size:23px;}
</style>
<g id="Layer_1">
</g>
<g id="Layer_2">
	<g>
		<rect x="111.8" y="55.3" class="st0" width="163" height="88.2"/>
		<rect x="19.7" y="19.2" class="st1" width="163" height="88.2"/>
		<rect x="152.2" y="56.8" class="st2" width="119.5" height="84.6"/>
		<text transform="matrix(1 0 0 1 162.25 96.2504)"><tspan x="0" y="0" class="st3 st4">Business</tspan><tspan x="0" y="24" class="st3 st4">Partner</tspan></text>
		<g>
			<path class="st2" d="M36.1,41.9v2.8h19.7v-2.8H36.1z M58.6,41.9v2.8h28c0,0-2.9-2.8-6.7-2.8H58.6z M92.1,41.9v2.8h17l-1-2.8H92.1
				z M121.3,41.9l-1,2.8h16.8v-2.8H121.3z M36.1,47.3V50h19.7v-2.8H36.1z M58.6,47.3V50h31.3c0,0-0.4-2.1-1-2.8H58.6z M92.1,47.3V50
				H111l-0.9-2.8H92.1z M119.2,47.3l-0.9,2.8h18.8v-2.8H119.2z M41.8,52.7v2.8h8.5v-2.8H41.8z M64.2,52.7v2.8h8.5v-2.8H64.2z
				 M81,52.7v2.8h8.5c0,0,0.5-1.5,0.5-2.8H81z M97.8,52.7v2.8h15.1l-1-2.8H97.8z M117.4,52.7l-1,2.8h15.2v-2.8H117.4z M41.8,58v2.8
				h8.5V58H41.8z M64.2,58v2.8H86c0,0,1.8-1.4,2.4-2.8H64.2z M97.8,58v2.8h8.5v-1.5l0.5,1.5h15.6l0.6-1.5v1.5h8.5V58h-16l-0.8,2.3
				l-0.9-2.3H97.8z M41.8,63.4v2.8h8.5v-2.8H41.8z M64.2,63.4v2.8h24.2c-0.6-1.3-2.4-2.8-2.4-2.8H64.2z M97.8,63.4v2.8h8.5v-2.8
				H97.8z M107.9,63.4l1,2.8h11.7l1-2.8H107.9z M123,63.4v2.8h8.5v-2.8H123z M41.8,68.8v2.8h8.5v-2.8H41.8z M64.2,68.8v2.8h8.5v-2.8
				H64.2z M81,68.8v2.8h9.1c0-1.3-0.5-2.8-0.5-2.8H81z M97.8,68.8v2.8h8.5v-2.8H97.8z M109.8,68.8l1,2.8h7.8l1-2.8H109.8z M123,68.8
				v2.8h8.5v-2.8H123z M36.3,74.2V77h19.7v-2.8H36.3z M58.6,74.2V77h30.3c0.6-0.6,1-2.8,1-2.8H58.6z M92.3,74.2V77h14v-2.8H92.3z
				 M111.7,74.2l1,2.8h4l1-2.8H111.7z M123,74.2V77h14.2v-2.8H123z M36.3,79.6v2.8h19.7v-2.8H36.3z M58.6,79.6v2.8H80
				c3.8,0,6.7-2.8,6.7-2.8H58.6z M92.3,79.6v2.8h14v-2.8H92.3z M113.7,79.6l1,2.8l0.2,0l1-2.8H113.7z M123,79.6v2.8h14.2v-2.8H123z"
				/>
		</g>
	</g>
</g>
</svg>
