<?xml version="1.0" encoding="utf-8"?>
<!-- Generator: Adobe Illustrator 19.2.0, SVG Export Plug-In . SVG Version: 6.00 Build 0)  -->
<svg version="1.1" id="Layer_1" xmlns="http://www.w3.org/2000/svg" xmlns:xlink="http://www.w3.org/1999/xlink" x="0px" y="0px"
	 viewBox="0 0 384.1 162.7" style="enable-background:new 0 0 384.1 162.7;" xml:space="preserve">
<style type="text/css">
	.st0{fill:#156A81;}
	.st1{fill:#89B3BF;}
	.st2{fill:#4F8FA0;}
	.st3{fill:#1F7086;}
	.st4{fill:#217287;}
	.st5{fill:#227287;}
	.st6{fill:#237388;}
	.st7{fill:#247389;}
	.st8{fill:#237288;}
	.st9{fill:#1D6F85;}
	.st10{fill:#27758A;}
	.st11{fill:#257489;}
	.st12{fill:#28768B;}
	.st13{fill:#227288;}
	.st14{fill:#29768B;}
	.st15{fill:#2A778C;}
	.st16{fill:#F1F5F7;}
	.st17{fill:#156A80;}
	.st18{fill:#D9E6EA;}
	.st19{fill:#3A8194;}
	.st20{fill:#3C8295;}
	.st21{fill:#2C788D;}
	.st22{fill:#408598;}
	.st23{fill:#367F92;}
	.st24{fill:#44889A;}
	.st25{fill:#3F8597;}
	.st26{fill:#5D98A7;}
	.st27{fill:#FDFEFE;}
	.st28{fill:#FBFCFC;}
	.st29{fill:#FDFDFD;}
</style>
<g id="j3bfov.tif">
	<g>
		<path class="st0" d="M253.4,23.1c0.7,1.2,2,0.7,3,0.9c11.6,2.7,19.3,10.9,19.6,22.8c0.5,20.5,0.2,40.9,0.3,61.4
			c0,1.7-0.7,2.1-2.2,2c-3.7-0.1-7.4-0.2-11.1,0c-2.8,0.2-3.8-0.5-3.7-3.6c0.2-18.5,0.1-36.9,0.1-55.4c0-9-3-12.1-12.1-12.1
			c-3.3,0-6.7-0.3-10,0.4c-4.6,1-7,3.5-7.4,8.2c-0.2,2-0.3,4-0.3,6c0,17.7-0.1,35.3,0,53c0,2.6-0.6,3.6-3.3,3.4
			c-3.6-0.3-7.2-0.2-10.7,0c-2.6,0.2-3.1-0.8-3.1-3.2c0.1-18.8,0.1-37.6,0.1-56.4c0-8.2-3-11.3-11.3-11.5c-2.5-0.1-4.9-0.1-7.4,0
			c-7.7,0.3-11,3.6-11,11.3c0,13.9,0,27.7,0,41.6c0,5.1-0.1,10.3,0,15.4c0,1.9-0.3,2.8-2.5,2.7c-4-0.2-8.1-0.1-12.1,0
			c-1.8,0-2.6-0.3-2.6-2.4c0.2-20.1-0.5-40.3,0.4-60.4c0.6-12.5,8.5-21.3,20.8-23.7c0.7-0.1,1.6,0.3,2-0.7c0.4,0,0.9,0,1.3,0
			c4.9,0.6,9.8,0.6,14.8,0c0.7,0,1.3,0,2,0c4.5,0.6,8.9,1.5,12.7,4.3c1,0.7,2.2,0.7,3.1,0c3.6-2.9,8-3.6,12.4-4.2c0.9,0,1.8,0,2.7,0
			c4.7,0.6,9.4,0.6,14.1,0C252.5,23.1,252.9,23.1,253.4,23.1z"/>
		<path class="st0" d="M38.5,84.9c0.8,6.4,3.7,9.1,10.1,9.2c8.7,0.1,17.4,0.1,26.1,0c2.3,0,3.2,0.5,3,2.9c-0.2,3.7-0.1,7.4-0.1,11.1
			c0,1.2,0.1,2.2-1.6,2.2c-10.3-0.2-20.6,0.7-30.8-0.4c-13.4-1.4-20.1-7.6-23.3-20.7c-0.1-0.6,0.1-1.4-0.8-1.6c0-0.4,0-0.9,0-1.3
			c0.7-1.2,0.3-2.4,0.3-3.6c0-17.9,0.1-35.7,0-53.6c0-2.7,0.5-3.8,3.4-3.6c3.2,0.3,6.5,0.1,9.7,0.1c3.7,0,3.7,0,3.7,3.5
			c0,17.4,0,34.8,0,52.3C38.3,82.5,38.1,83.7,38.5,84.9z"/>
		<path class="st1" d="M38.5,84.9C37.6,83.7,38,82.3,38,81c0-17.3-0.1-34.6,0-51.9c0-2.5-0.5-3.6-3.3-3.4c-3.1,0.3-6.3,0.2-9.4,0
			c-2.7-0.2-3.6,0.6-3.6,3.5c0.1,17.9,0.1,35.7,0,53.6c0,1.1,0.6,2.5-0.6,3.4c0-20.4,0-40.7,0-61.1c4.9,0,9.8,0.1,14.7,0
			c2,0,2.8,0.5,2.8,2.6C38.5,46.8,38.5,65.8,38.5,84.9z"/>
		<path class="st2" d="M205.1,23.1c-4.9,1.1-9.8,1.1-14.8,0C195.2,23.1,200.1,23.1,205.1,23.1z"/>
		<path class="st2" d="M252,23.1c-4.7,1.1-9.4,1.1-14.1,0C242.6,23.1,247.3,23.1,252,23.1z"/>
		<path class="st0" d="M153.5,58.3c0,8.8,0,17.7,0,26.5c-0.1,16.9-10.5,27.4-27.4,27.4c-5.4,0-10.7,0.4-16-0.7
			c-12.3-2.5-20-12-20.1-25.3c-0.1-19.3,0-38.7-0.1-58c0-2.2,0.5-3,2.8-2.9c3.5,0.2,6.9,0.2,10.4,0c2.9-0.2,3.8,0.6,3.8,3.6
			c-0.2,18.1-0.1,36.2-0.1,54.3c0,1.4,0,2.9,0.2,4.3c0.6,5.2,3.4,8.1,8.7,8.5c3.9,0.3,7.8,0.2,11.7,0c5.3-0.3,8.2-3,9-8.3
			c0.4-2.4,0.3-4.9,0.3-7.4c0-17.3,0.1-34.7,0-52c0-2.4,0.5-3.4,3.1-3.2c3.6,0.2,7.2,0.2,10.7,0c2.5-0.1,3.2,0.6,3.2,3.1
			C153.4,38.4,153.5,48.4,153.5,58.3z"/>
		<path class="st0" d="M324.9,76.5c-5.9,0-11.8,0.1-17.8,0c-2,0-2.9,0.5-2.7,2.6c0.1,1,0,2,0,3c0,8.2,3.9,12.1,12.1,12.1
			c8.6,0.1,17.2,0.1,25.8,0c2.2,0,3.2,0.4,3,2.9c-0.2,3.7-0.1,7.4,0,11.1c0,1.2-0.1,2.2-1.8,2.1c-10.4-0.2-20.8,0.7-31.2-0.4
			c-14.7-1.6-22.9-9.9-23.7-24.7c-0.7-11.8-0.6-23.7,0.1-35.5c0.9-15,11.2-24,26.3-24.2c9.2-0.1,18.3,0,27.5-0.1
			c2.3,0,2.9,0.7,2.8,2.9c-0.2,3.6-0.2,7.2,0,10.7c0.1,2.3-0.5,3-2.9,3c-8.6-0.1-17.2-0.1-25.8-0.1c-9.8,0-15,7-12.2,16.4
			c0.5,1.9,2,1.1,3,1.1c11.3,0.1,22.6,0.2,33.9-0.1c3.6-0.1,4.4,1.1,4.1,4.3c-0.3,3.3-0.2,6.7,0,10.1c0.1,2.2-0.6,2.9-2.8,2.8
			C336.8,76.4,330.8,76.5,324.9,76.5z"/>
		<path class="st3" d="M310.1,143.2c-1.8,0.1-3.4-0.4-4.4-1.9c-2.2-3.4-1.4-6.9,0.3-10.1c1.5-2.9,4.1-4.4,7.4-4.1
			c1.5,0.1,2.9,0.7,3.7,2c2,3.2,1.2,6.4-0.2,9.6C315.6,141.6,313.3,143.2,310.1,143.2z"/>
		<path class="st4" d="M322.3,142.8c1-4.9,2-9.9,2.9-14.8c0.1-0.7,1-1,1.1-0.7c0.7,3.8,2.4,0.6,3.3,0.3c2.3-0.7,4.4-1.1,5.7,1.6
			c0.2,0.5,0.3,1.1,1,0.5c1.2-0.9,1.6-0.1,0.9,0.7c-2.6,3.3-2.6,7.3-3.7,11c-0.2,0.7,0,1.9-1.2,1.7c-1.2-0.2-0.5-1.3-0.4-1.9
			c0.6-3,1.3-5.9,1.9-8.8c0.2-1.3,0.5-2.8-1-3.6c-1.4-0.7-2.6,0-3.8,0.6c-3.2,1.9-3.8,5.1-4.5,8.3c-0.4,1.8-0.4,3.9-1.6,5.4
			C322.8,143,322.5,142.9,322.3,142.8z"/>
		<path class="st5" d="M219.7,134.2c-0.2-1.7,0.8-3,1.7-4.3c1.7-2.5,5.7-3.6,8.4-2.4c3.1,1.4,3.5,4.1,3.1,7
			c-0.2,1.6-0.4,3.3-1.7,4.6c-0.6,0.2-0.9-0.2-1.1-0.7c-0.4-1.9,0.5-3.7,0.3-5.6c-0.4-2.9-2.2-4.1-4.9-3c-3.1,1.3-5,6-3.7,9
			c1,2.2,3,1.9,4.9,2.2c0.7,0.2,1.4,0.4,1.3,1.3c-4.5,1.6-6.6,0.9-8.1-2.6C219.2,138,219.4,136.1,219.7,134.2z"/>
		<path class="st5" d="M201,142.5c-4.5,1.6-6.6,0.9-8.1-2.6c-0.6-1.9-0.4-3.8-0.1-5.7c-0.2-1.7,0.8-3,1.7-4.3
			c1.7-2.5,5.7-3.6,8.4-2.4c3.1,1.4,3.5,4.1,3.1,7c-0.2,1.6-0.4,3.3-1.7,4.6c-0.6,0.2-0.9-0.2-1.1-0.7c-0.4-1.9,0.5-3.7,0.3-5.6
			c-0.4-2.9-2.2-4.1-4.9-3c-3.1,1.3-5,6-3.7,9c1,2.2,3,1.9,4.9,2.2C200.4,141.4,201.1,141.5,201,142.5z"/>
		<path class="st6" d="M154.1,133.9c-1.4,1.6-3.4,1.5-5.2,2c-1.1,0.3-3.2-0.9-3.1,1.7c0.1,2.4,1.2,3.9,3.7,4.4
			c1.5,0.3,2.9-1,4.8-0.4c-2,2.2-4.3,2-6.6,1.5c-2.2-0.5-3.3-2.4-3.5-4.4c-0.3-4.1,0.6-7.8,4.4-10.1c0.6-0.3,0.9,0,1.1,0.5
			c0.3,1.9-1.8,2.7-2.1,4.5c2.1,0.7,3.9-0.8,5.9-0.5C153.9,133,154.3,133.2,154.1,133.9z"/>
		<path class="st7" d="M300.2,141.2c-4.1,3.1-8.3,2.5-9.8-0.8c-1.6-3.6-0.6-7,1.5-10.1c1.8-2.7,4.5-3.4,7.6-3.1
			c0.8,0.1,1.5,0.3,2.4,1.7c-3.3-0.3-6.3-0.8-8.4,1.7c-2,2.4-2.6,5.2-2,8.2C292.7,143.2,296.2,141.7,300.2,141.2z"/>
		<path class="st7" d="M169.4,141.4c-2.9,2.8-7.3,2.4-8.9-0.6c-2-3.6-0.9-7.2,1.2-10.4c1.9-3,4.9-3.7,8.2-3.2
			c0.6,0.1,1.3,0.2,1.6,1.6c-3.4-0.6-6.6-0.7-8.7,2.6c-1.3,2.1-1.7,4.4-1.4,6.7C162.1,143.3,166,141.6,169.4,141.4z"/>
		<path class="st8" d="M271.5,140.5c-0.6,2.6-2.6,2.7-4.7,2.7c-1.8,0-2.9-1-3.5-2.6c-1.5-4,0.8-10.7,4.5-12.6
			c2.1-1.1,4.4-1.8,6.3,0.5c-0.1,0.5-0.4,0.8-1,1c-5.2,0-8,3.3-7.6,8.6c0.2,2.3,1.2,3.3,3.5,2.5c0.6-0.2,1.3-0.4,1.9-0.3
			C271.2,140.3,271.3,140.4,271.5,140.5z"/>
		<path class="st9" d="M138.7,126c0.4,2.5,3.1,0.1,3.9,1.7c-4.4,1.8-4.4,1.8-5.7,7.4c-0.1,0.5-0.3,1.1-0.4,1.6
			c-0.9,4.5-0.8,4.7,3.5,5.5c-1.2,1.4-2.7,1.2-4,0.6c-1.4-0.6-1.7-2-1.5-3.4c0.5-2.8,1-5.7,1.8-8.5c0.5-1.8,0.1-2.7-2.7-2.6
			c2.2-1.3,4.3-1.6,4.4-3.8C139.4,124.5,138.8,125.4,138.7,126z"/>
		<path class="st10" d="M179.6,129.8c1-3.2,3.6-3,6-2.5c2.4,0.5,2.9,2.5,2.5,4.7c-0.6,3.3-1.4,6.5-2.2,9.8c-0.1,0.6-0.2,1.5-1.1,1.3
			c-0.9-0.2-0.5-1.1-0.4-1.7c0.6-2.7,1.3-5.4,1.8-8.2c0.3-1.5,1-3.2-0.6-4.3c-1.5-1.1-3-0.2-4.4,0.3
			C180.6,129.5,180.1,129.6,179.6,129.8L179.6,129.8z"/>
		<path class="st10" d="M337.1,129c2.7-2,4.7-2.5,6.7-1.3c1.9,1.2,1.7,3.3,1.2,5.2c-0.9,3.5-1.1,7.1-2.9,11.2c-1.3-2.3-0.2-3.7,0-5
			c0.3-2.1,0.9-4.1,1.3-6.2c0.6-3.9-0.2-4.7-4-3.8C338.9,129,338.5,129,337.1,129z"/>
		<path class="st11" d="M273.5,129.2c0.2-0.2,0.4-0.5,0.7-0.7c2,1.9,1.3-1.4,3.2-1.2c-1.1,5.4-2.2,10.6-3.3,15.9
			c-2.1-0.1,0-3.3-2.6-2.7c0,0,0.1,0.1,0.1,0.1c-0.3-0.5-0.3-1.1-0.1-1.6C273.1,135.9,273.3,132.6,273.5,129.2z"/>
		<path class="st12" d="M210.3,143c1.5-7.6,2.8-15.2,4.8-22.6c0.4,0.1,0.7,0.2,1.1,0.2c-1.5,7.6-3.1,15.1-4.6,22.7
			C211.2,143.2,210.8,143.1,210.3,143z"/>
		<path class="st13" d="M242,127.8c2.4-0.9,6.4-1.1,9.9-0.3c0.1,1-0.7,1-1.3,0.9c-1.9-0.2-1.8,0.5-1.5,2.1c0.5,2.4-0.1,4.6-2.3,6.1
			c-0.6,0.3-0.9,0-1.1-0.5c-0.2-0.7,0.1-1.3,0.4-1.9c1.3-3.7,0.9-4.3-2.9-5.1C242.5,128.9,241.9,128.7,242,127.8z"/>
		<path class="st14" d="M246.8,148c-2.1,3.2-9.1,3.7-11.4,0.9c-1.5-1.8-1-3.7,1.3-5c0.1,0.1,0.2,0.2,0.3,0.3
			c1.3,4.3,1.9,4.6,6.4,3.6c0.9-0.2,1.7-0.5,2.6-0.4C246.3,147.6,246.6,147.7,246.8,148z"/>
		<path class="st13" d="M179.6,129.7c-2.4,4.2-2.9,9.1-4.4,13.6c-0.4-0.1-0.8-0.2-1.1-0.3c1.1-5.3,2.2-10.5,3.3-15.8
			C179.3,127.5,177.2,130.3,179.6,129.7C179.6,129.8,179.6,129.7,179.6,129.7z"/>
		<path class="st12" d="M254.4,143.4c-0.8-1.9,0.2-3.6,0.5-5.2c0.5-3.3,1.3-6.5,2-9.8c0.1-0.6,0.4-1.4,1.3-1.1
			c0.5,0.1,0.4,0.7,0.3,1.1c-1,4.8-2.1,9.6-3.1,14.4C255.3,142.9,254.9,143,254.4,143.4z"/>
		<path class="st11" d="M246,135.9c0.3,0.2,0.5,0.5,0.8,0.7c-2.1,2.1-5.1,0.9-7.5,2l-0.1-0.1c0.5-0.8,1-1.3,0.3-2.5
			c-1.9-3.4-1-5.8,2.5-8.1c0.3,0.5,0.8,0.6,1.3,0.6c0.3,1.1-0.7,1.5-1.2,2.2c-0.9,1.1-1.5,2.2-0.8,3.6c0.6,1.3,1.9,1.4,3.1,1.3
			C245,135.5,245.5,135.5,246,135.9z"/>
		<path class="st11" d="M246.8,148c-0.3,0-0.6,0-0.9-0.1c0.4-4.6-3.5-3.9-6-4.8c-1-0.2-0.9-1.3-1.4-1.8c-1-1.3-0.6-2.2,0.7-2.8
			c0,0,0.1,0.1,0.1,0.1c-0.2,1.7,0.3,2.7,2.3,2.7c1.3,0,2.5,0.3,3.8,0.7C248.5,142.7,249.1,145.5,246.8,148z"/>
		<path class="st15" d="M149.4,129.1c-0.3-0.3-0.5-0.5-0.8-0.8c2.2-1.7,4.6-2.2,6.5,0c1.7,1.9,1,3.9-1,5.4c-0.3-0.2-0.5-0.5-0.8-0.7
			C153.8,130,151.7,129.4,149.4,129.1z"/>
		<path class="st16" d="M358.7,108.4c-0.2-1.5,0.5-2.8,0.7-4.2c0.8-0.5,0.4-2.5,2.1-1.7c0.4,2.6,1.5,5.2-0.7,7.5
			C359.9,109.7,358.2,110.7,358.7,108.4z"/>
		<path class="st15" d="M366.3,106.3c0.4-1.8,0.7-3.7,2.3-5.2c0,3,0,6,0,9.3c-1.1-2-0.2-3.9-0.8-5.7c-0.4,0.6-0.8,1-1.1,1.5
			C366.6,106.3,366.5,106.3,366.3,106.3z"/>
		<path class="st17" d="M362.2,101c0.8,0,1.4,0.6,1.2,1.2c-1.1,2.6,0.1,5.5-1.2,8.1C361.6,107.2,361.5,104.1,362.2,101z"/>
		<path class="st18" d="M362.2,101c0,3.1,0,6.2,0,9.3c-0.5,0-0.9,0-1.4,0.1c-0.2-0.1-0.3-0.3-0.2-0.5c0.1-0.2,0.1-0.2,0.2-0.2
			c1.1-2.4,1-4.9,0.1-7.4c-0.5-0.4-0.5-0.9-0.1-1.4C361.3,100.9,361.7,101,362.2,101z"/>
		<path class="st11" d="M203.6,138.2c0.3,0.3,0.5,0.6,0.8,1c-0.6,1.7-1.7,2.7-3.4,3.3c-0.5-0.2-0.9-0.4-1.4-0.6
			C200.2,139.8,201.7,138.8,203.6,138.2z"/>
		<path class="st11" d="M227.9,142.5c-0.5-0.2-0.9-0.4-1.4-0.6c0.6-2,2.1-3,3.9-3.6c0.3,0.3,0.5,0.6,0.8,1
			C230.7,140.9,229.5,141.9,227.9,142.5z"/>
		<path class="st19" d="M366.3,106.3c0.1,0,0.3,0,0.4,0c0.2,1.5-0.4,2.7-1,4.1C362.7,108.2,366.4,107.6,366.3,106.3z"/>
		<path class="st15" d="M281.7,143.2c-0.8-0.2-1-0.7-0.8-1.4c0.1-0.7,0.6-1.2,1.3-1.1c0.9,0.1,0.9,0.8,0.8,1.4
			C282.9,142.7,282.5,143.2,281.7,143.2z"/>
		<path class="st20" d="M360.8,100.9c0,0.5,0.1,0.9,0.1,1.4c-0.4,0.7-0.4,1.6-1.4,1.9c0.5-1.6,0.6-3-1.7-3.2
			C358.8,100.9,359.8,100.9,360.8,100.9z"/>
		<path class="st19" d="M258.8,123.8c-0.7-0.1-0.9-0.6-0.9-1.2c0-0.7,0.2-1.4,1-1.5c0.8-0.1,1.2,0.5,1.1,1.3
			C259.9,123.2,259.6,123.7,258.8,123.8z"/>
		<path class="st21" d="M238.5,141.2c0.5,0.4,1,0.9,1.5,1.3c-0.6,1.9-1.8,2-3.4,1.3c0,0,0.1,0,0.1,0
			C236.4,142.4,238.6,142.7,238.5,141.2z"/>
		<path class="st22" d="M373.7,101.4c-1.4,0.2-2.7,0.5-3.1,2.1C370.8,100.9,370.8,100.9,373.7,101.4z"/>
		<path class="st23" d="M360.8,109.7c0,0.2,0,0.5,0,0.7c-1.1-0.3-2.5,0.7-3.2-0.7c-0.3-0.5,0.4-1.2,1.2-1.3
			C358.5,110.3,360,109.4,360.8,109.7z"/>
		<path class="st11" d="M219.7,134.2c0,1.9,0,3.8,0.1,5.7C218.8,138,218.9,136.1,219.7,134.2z"/>
		<path class="st11" d="M192.9,134.2c0,1.9,0,3.8,0.1,5.7C192,138,192.1,136.1,192.9,134.2z"/>
		<path class="st24" d="M369.5,109.5c1.8,0.1,2.6,0.2,4.4,0.3C372,110.5,371.2,110.6,369.5,109.5z"/>
		<path class="st25" d="M138.7,126c-0.2-0.5-0.4-1-0.6-1.5c0.1-0.6,0.5-1.6,1-1.1C139.7,124,139.2,125.1,138.7,126z"/>
		<path class="st26" d="M374.1,106.9c-1.2,0-1.9-0.5-1.8-1.1c0.2-1,0.8-0.2,1.1,0C373.7,106,373.8,106.4,374.1,106.9z"/>
		<path class="st27" d="M316.5,133.5c-0.1,2.9-0.8,5.5-3.3,7.3c-1.5,1.1-3.2,1.4-5,0.6c-1.7-0.8-2.1-2.3-2.1-3.9
			c-0.1-2.6,0.5-5.1,2.3-7.1c1.5-1.6,3.4-2.5,5.7-1.6C316.3,129.7,316.6,131.5,316.5,133.5z"/>
		<path class="st27" d="M230.4,138.2c-1,1.5-2.3,2.7-3.9,3.6c-4.1,0-5.8-1.1-5.8-3.6c0-5.8,2.6-9.7,6.5-9.7c2.3,0,3.8,1.1,4.1,3.5
			C231.5,134.1,231,136.2,230.4,138.2z"/>
		<path class="st27" d="M203.6,138.2c-1,1.5-2.3,2.7-3.9,3.6c-4.1,0-5.8-1.1-5.8-3.6c0-5.8,2.6-9.7,6.5-9.7c2.3,0,3.8,1.1,4.1,3.5
			C204.7,134.1,204.2,136.2,203.6,138.2z"/>
		<path class="st28" d="M149.4,129.1c1.4-0.4,3-1.4,4.2,0.1c1.2,1.3,0.4,2.6-0.3,3.9c-2.2,0.9-4.4,1.6-6.9,1.3
			C146.4,132,148,130.6,149.4,129.1z"/>
		<path class="st29" d="M273.5,129.2c2.3,4.3-0.4,7.7-2,11.4c-2.1,0.1-4.2,2.9-6.3,0.1c-1.4-1.9-0.5-7.2,1.5-9.8
			C268.5,128.6,270.7,127.7,273.5,129.2z"/>
		<path class="st28" d="M246,135.9c-2.1,0.7-4.3,1.4-5.4-1.2c-1.3-2.9,0.4-4.8,2.7-6.2c1.6,0,3.2-0.1,4,1.6
			C248.2,132.2,247.4,134.2,246,135.9z"/>
		<path class="st28" d="M236.6,143.9c1.3,0,2.4-0.6,3.4-1.3c1.7,0.2,3.5,0.2,5.1,0.8c2.7,0.9,1.5,2.8,0.8,4.6
			c-1.1,0.4-2.2,1-3.4,1.2C238,150,236.2,148.4,236.6,143.9z"/>
	</g>
</g>
</svg>
