<?xml version="1.0" encoding="utf-8"?>
<!-- Generator: Adobe Illustrator 19.2.0, SVG Export Plug-In . SVG Version: 6.00 Build 0)  -->
<svg version="1.1" id="Layer_1" xmlns="http://www.w3.org/2000/svg" xmlns:xlink="http://www.w3.org/1999/xlink" x="0px" y="0px"
	 viewBox="0 0 203.2 130" style="enable-background:new 0 0 203.2 130;" xml:space="preserve">
<style type="text/css">
	.st0{fill:#9DCE79;}
	.st1{fill:#71BE44;}
	.st2{fill:#72BE44;}
	.st3{fill:#004281;}
	.st4{fill:#004282;}
	.st5{fill:#A2D37B;}
	.st6{fill:#13457D;}
	.st7{fill:#2A5563;}
	.st8{fill:#1F5288;}
	.st9{fill:#76B653;}
	.st10{fill:#FEFEFE;}
	.st11{fill:#002C1E;}
	.st12{fill:#1A5285;}
	.st13{fill:#002318;}
	.st14{fill:#00377B;}
	.st15{fill:#FBFCFC;}
	.st16{fill:#479A21;}
	.st17{fill:#01260A;}
	.st18{fill:#1A487D;}
	.st19{fill:#022D1F;}
	.st20{fill:#012C1F;}
	.st21{fill:#489B22;}
	.st22{fill:#113222;}
	.st23{fill:#61A73A;}
	.st24{fill:#479B21;}
	.st25{fill:#243A27;}
	.st26{fill:#2A5B79;}
	.st27{fill:#235881;}
	.st28{fill:#1B527F;}
	.st29{fill:#002509;}
	.st30{fill:#012509;}
	.st31{fill:#001142;}
	.st32{fill:#2D555F;}
	.st33{fill:#295466;}
	.st34{fill:#021343;}
	.st35{fill:#FDFEFD;}
	.st36{fill:#FDFDFE;}
	.st37{fill:#FDFDFD;}
	.st38{fill:#01250A;}
	.st39{fill:#265367;}
	.st40{fill:#114D86;}
	.st41{fill:#FDFEFE;}
	.st42{fill:#02270B;}
	.st43{fill:#71B84A;}
	.st44{fill:#31534A;}
	.st45{fill:#012609;}
	.st46{fill:#244031;}
	.st47{fill:#011242;}
	.st48{fill:#253762;}
	.st49{fill:#063125;}
	.st50{fill:#163D31;}
	.st51{fill:#FCFCFC;}
	.st52{fill:#FDFDFC;}
	.st53{fill:#2E4636;}
	.st54{fill:#011903;}
	.st55{fill:#122C16;}
	.st56{fill:#021A03;}
	.st57{fill:#1B3624;}
</style>
<g id="m3qZ3V.tif">
	<g>
		<path class="st0" d="M81.9,87.1c-0.7,0.5-1.4,0.6-2.2,0.6c-2.9,0-5.9,0-8.8,0c-0.7,0-1.4,0-2-0.2c-0.9-0.7-1.2-1.6-1.2-2.7
			c0-8.7,0-17.5,0-26.2c0-2.2,0.7-2.8,2.8-2.9c1.9,0,3.8,0.2,5.6-0.1c0.2,0.1,0.3,0.3,0.3,0.5c0.1,1.5,0.1,3,0.1,4.6
			c0,4.5,0,9,0,13.5c0,1,0.2,1.8,1.3,2.2c1.5,0.4,3,0.2,4.4,0.1c0.1,0,0.2-0.1,0.3-0.1c0.1,0,0.2,0,0.4,0c1.2,0.1,2.4-0.2,3.5,0.2
			c0.1,0.1,0.1,0.2,0.1,0.3c-0.1,0-0.1,0-0.2,0c-0.8,0.5-1.6,0.2-2.4,0.2c-0.8,0-1.1,0.3-1.1,1.1c0,2.3,0,4.6,0,6.9
			C82.8,85.9,82.8,86.7,81.9,87.1z"/>
		<path class="st0" d="M49.4,76.1c-0.3-0.7-0.2-1.4-0.1-2c0-0.9-0.3-1.1-1.1-1c-1.7,0.1-3.4,0-5.2,0c-1.6,0-2.3-0.7-2.3-2.3
			c0-11.3,0-22.7,0-34c0-1.6,0.7-2.2,2.2-2.3c1.6,0,3.3-0.1,4.9-0.1c0.4,0.4,0.3,0.9,0.3,1.3c0,2.7,0,5.3,0,8c0,0.4,0,0.9,0.1,1.3
			c0.4,1.2,0.7,1.4,2,1.5c1.3,0,2.6,0,3.8,0c0.9,0,1.9-0.2,2.8,0.2c0.1,0.7-0.5,0.5-0.7,0.5c-1.7,0.2-1.7,0.2-1.7,2
			c0,0.8,0.3,1,1.1,1c0.6,0,1.3-0.1,1.8,0.2c0.1,0.1,0.1,0.2,0,0.3c-1.1,0.4-2.2,0.2-3.3,0.2c-0.9,0-1.7,0-2.6,0
			c-1.1,0-1.5,0.5-1.8,1.5c-0.1,0.3-0.1,0.5-0.1,0.8c0,4.3-0.1,8.5,0,12.8c0.1,2.3,0.1,4.7,0.1,7c0,0.7,0,1.4,0,2.2
			C49.7,75.5,49.7,75.9,49.4,76.1z"/>
		<path class="st1" d="M104,40.5c0-1.3,0-2.6,0-3.9c-0.1-0.2-0.1-0.4,0.1-0.5c0.7,0,1.4,0.2,2.2,0.1c1.2-0.2,1.7-0.8,1.8-2
			c0-0.2,0-0.5,0-0.7c0-7.8,0-15.6,0-23.4c0-0.2,0-0.5,0.1-0.7c0.1-0.1,0.2-0.2,0.3-0.1c2.1,0,4.2,0,6.3,0c2,0,2.7,0.7,2.7,2.7
			c0,6.8,0,13.6,0,20.4c0,0.4,0,0.7,0,1.1c0.3,0.4,0.3,0.9,0.3,1.3c0,3.5,0,7,0,10.5c0,0.5,0.1,1-0.4,1.3c-0.5-0.4-0.4-0.9-0.4-1.4
			c0-3.3,0-6.5,0-9.8c0-0.6,0.3-1.3-0.6-1.5c-0.8-0.2-1.9,0.4-2.2,1.2c-0.2,0.5-0.2,1-0.2,1.5c0,3.2,0,6.3,0,9.5
			c0,1.3,0.1,1.5,1.3,1.5c0.3,0,0.5,0.1,0.7,0.3c0,0.5-0.5,0.5-0.8,0.5c-0.5,0.1-1.1,0-1.6,0c-2.1,0-4.3,0.2-6.4-0.1
			c-0.1-0.1-0.2-0.1-0.3-0.2c-0.3-1.1-0.1-2.2-0.1-3.3c0-0.6,0-1.3,0-1.9c-0.1-1.2-0.6-1.8-1.8-1.9c-0.3,0-0.7,0-1-0.2
			C104.1,40.6,104,40.5,104,40.5z"/>
		<path class="st0" d="M157.8,49.4c0.9,0.3,1.4,1,1.4,1.9c0,1,0.1,2,0,3c0,0.7,0.2,0.9,0.9,0.9c0.9,0,1.8-0.2,2.6,0.1
			c-0.4,0.5-0.9,0.4-1.4,0.4c-0.7,0-1.4,0-2,0c-0.3,0-0.6-0.1-0.9-0.1c-0.7,0-1.2,0.3-1.2,1.1c0,0.5,0,0.9,0,1.4c0,3,0,6,0,9
			c0,2.1,0,2.1,2.1,2.2c0.7,0,1.5,0,2.2,0c0.4,0,0.8,0,1,0.4c-0.8,0.2-1.6,0.1-2.3,0.1c-0.8,0-1,0.3-1,1c0,2,0,4,0,5.9
			c0,1.6-0.8,2.4-2.4,2.4c-2.8,0-5.7,0.1-8.5,0c-1,0-1.4,0.3-1.2,1.3c0,0.2,0.1,0.5-0.1,0.7c-0.5-0.7-0.3-1.5-0.3-2.2
			c-0.1-4.3,0-8.6,0-12.9c0-0.4,0-0.7,0.2-1.1c0.1-0.3,0.5-0.4,0.7-0.6c0.6-0.4,0.5-1,0.5-1.6c0-3.8,0-7.5,0-11.3
			c0-0.5-0.1-1.1,0.3-1.5c0.4,0,0.3,0.3,0.3,0.5c0,4.3,0,8.7,0,13c0,0,0,0.1-0.1,0.1c0.3-0.2,0.1-0.5,0.1-0.7c0-4.2,0-8.4,0-12.6
			c0-0.5,0-0.8,0.6-0.8c2.8,0,5.6,0,8.4,0C157.7,49.3,157.7,49.4,157.8,49.4z"/>
		<path class="st0" d="M104,36.1c0,0.1,0,0.3,0,0.4c-2.3,0-4.6,0-6.8,0c-1.7,0-2.5-0.7-2.5-2.5c0-8.3,0-16.5,0-24.8
			c0-1.7,0.8-2.5,2.5-2.5c2.9,0,5.7,0,8.6,0c1.9,0,2.5,0.6,2.7,2.5c-0.1,0-0.2,0-0.2,0.1c-0.4,0.3-0.9,0.3-1.3,0.3
			c-1.9,0.1-2.5,0.7-2.5,2.6c0,7.4,0,14.8,0,22.3C104.3,35.1,104.4,35.6,104,36.1z"/>
		<path class="st0" d="M113.7,48.1c0.8-0.2,1.7,0.2,2.5-0.2c0.3-0.5,0.7-0.9,1.2-1.2c0.3-0.3,0.2-0.8,0.2-1.1c0-4,0-8,0-12
			c1.6,0,3.2,0,4.8,0c0.8,0,0.8-0.4,0.8-1c0-4.7,0-9.4,0-14.2c0-0.4,0-0.7,0.1-1.1c0.7,0.2,0.5,0.7,0.5,1.1c0,4.9,0,9.8,0,14.7
			c0,0.1,0,0.2,0,0.4c0,1.8,0,3.7,0,5.5c0,0.9,0.3,1.5,1.2,1.8c0.5,0.2,1.1,0.1,1.6,0.2c0.4,0,0.8-0.1,1.2,0.3
			c0,0.1,0.1,0.1,0.1,0.2c0.2,2.7,0.3,5.3,0,8c-0.6,0.7-1.6,0.2-2.3,0.5c-0.7,0.2-1.1,0.7-1.3,1.4c-0.1,2.5,0,4.9,0,7.4
			c0,0.5,0.1,0.9-0.2,1.4c-0.4,0.5-1,0.3-1.5,0.3c-0.1,0-0.1,0-0.2,0c-2.8,0-2.8,0-3,2.7c0,0.2-0.1,0.3-0.3,0.5
			c-0.5-0.4-1-0.2-1.5-0.2c-0.1,0.1-0.2,0-0.3-0.1c-0.3-0.4-0.2-1-0.2-1.4c0-2.5,0-5,0-7.5c0-1.4-1-2-2.3-1.5
			c-0.5,0.2-0.4,0.6-0.4,1c0,2.1,0,4.2,0,6.3c0,0.5,0,0.9-0.1,1.4c-0.2,0.3-0.3,0.4-0.5,0c-0.2-0.3-0.1-0.7-0.1-1.1c0-2.3,0-4.7,0-7
			c0-0.1,0-0.1-0.1-0.3c-0.3,0.2-0.4,0.8-0.9,0.7c0.4,0.1,0.7,0.3,0.7,0.7c0,0.7,0.2,1.4,0.2,2c0,1.3,0.1,2.6-0.1,3.8
			c-0.1,0.8,0.2,1.5,0.7,2.1c0.6,0.6,1.2,1.2,0.1,2c0.8-0.3,1-0.8,0.9-1.5c0.8-0.2,1.5,0,2.2,0.2c0.4,1.2,0,2.5,0,3.7
			c0,0.6,0.2,1.3,0,2c-0.2,0.8-0.6,1-1.4,0.5c-1.4-0.9-1.4-0.9-2.8,0.2c-0.8,0.6-0.9,0.5-1.1-0.4c-0.2-1.2,0-2.3-0.2-3.5
			c-0.2-0.8,0.5-1.6,1.4-2c-1.3-0.7-1.4-0.7-2.4,0.4c-0.1-0.1-0.2-0.1-0.2-0.3c-0.2-1.5-0.1-2.9-0.1-4.4c0-2.1,0-4.1,0-6.2
			c0.2-0.8,0.8-1,1.5-1c1.9,0,1.8,0,1.8-1.9C113.4,49.5,113.3,48.7,113.7,48.1z"/>
		<path class="st2" d="M86.5,76.8c0,0,0-0.1,0-0.1c0,0,0.1-0.1,0.1-0.1c1.4-0.5,1.8-1.5,1.8-2.9c-0.1-5.8,0-11.5,0-17.3
			c0-0.5,0-1,0.1-1.5c0-0.1,0.1-0.2,0.2-0.3c2,0,4,0,5.9,0c0.1-0.1,0.2,0,0.3,0.1c0.1,3,0,6,0,9.1c0,1.5,0.1,2.8,1.4,3.8
			c-0.7,1.2-0.5,2.5-0.5,3.8c0,4.7,0,9.3,0,14c0,0.5,0,0.9,0.1,1.4c0.2,0.7,0.9,1.1,1.8,0.9c0.8-0.1,0.7-0.7,0.7-1.2
			c0-5.6,0-11.3,0-16.9c0-0.4,0-0.9,0.1-1.3c0.1-0.2,0.1-0.6,0.5-0.4c0.3,0.4,0.3,0.9,0.3,1.3c0,5.8,0,11.7,0,17.5
			c0,0.5,0,1-0.3,1.4c-0.4,1.4-0.9,1.9-2.3,1.9c-2.6,0-5.2,0-7.7,0c-1.5,0-2.2-0.7-2.2-2.2C86.5,84,86.5,80.4,86.5,76.8z"/>
		<path class="st3" d="M68.9,24.4c0-6.3-0.1-12.6-0.1-18.9c0-1.2,0.7-1.9,1.9-1.9c2.8,0,5.7,0,8.5,0c1.2,0,1.7,0.5,2,1.8
			c0,5.9,0,11.7,0,17.6c-0.5,0.6-1.1,0.4-1.7,0.4c-1.6,0-1.9,0.3-1.9,1.9c0,1.4,0,2.8,0,4.2c0,0.4,0,0.7-0.2,1.1
			c-0.1,0.1-0.2,0.2-0.3,0.1c-0.7,0-1.5,0-2.2,0c0,0-0.1-0.1-0.1-0.1c-0.4-1.1-0.2-2.2-0.2-3.3c0-1.2-0.4-2-1.5-2.4
			c-1-0.3-2.1-0.1-3.1-0.1C69.7,24.7,69.2,24.8,68.9,24.4z"/>
		<path class="st3" d="M75,30.8c0,6.5,0.1,13,0.1,19.5c0,1.3-0.8,2-2.2,2c-2.2,0-4.4,0-6.6,0c-0.4,0-0.7,0-1.1,0.1
			c-0.1,0-0.2-0.1-0.3-0.2c-0.3-1.2-0.1-2.4-0.1-3.6c0-1.6,0-3.2,0-4.7c0-1.3-0.2-1.5-1.5-1.6c-0.3,0-0.6,0-0.9-0.2
			c-0.1-0.1-0.2-0.2-0.2-0.3C62,41.4,62,41,62,40.6c0-3.4,0-6.8,0-10.3c0-0.4,0-0.8,0.1-1.2c0.3-0.4,0.7-0.4,1.1-0.4
			c0.7,0,1.3,0,2,0c0.6-0.1,1-0.4,1.4-0.9c0.3-0.5,0.1-1.1,0.2-1.6c0-0.5-0.1-1,0.2-1.4c0.6-0.1,1.2-0.1,1.8,0
			c0.4,0.3,0.3,0.7,0.3,1.1c0,0.7,0,1.5,0,2.2c0,1.1,0.3,1.9,1.3,2.3c1,0.4,2.1,0.1,3.1,0.2C74.1,30.5,74.6,30.4,75,30.8z"/>
		<path class="st3" d="M123.3,33.3c0-5,0-10-0.1-14.9c0-0.4,0.1-0.7-0.1-1.1c0-0.4,0-0.7,0-1.1c0.1-1.3,0.7-2,2-2c2.8,0,5.7,0,8.5,0
			c1.3,0,2,0.7,2,2.2c0,5.3,0,10.5,0,15.8c-0.1,0.1-0.2,0.1-0.3,0.2c-1,0.2-2.1-0.2-3.1,0.3c-0.9,0.5-1.1,1.2-1.1,2.1
			c0,1.7,0,3.4,0,5.1c0,0.5,0.1,0.9-0.3,1.3c-0.9,0.3-1.8,0.2-2.6,0.1c-0.7,0-0.8-0.6-0.8-1.2c0-1.5,0.1-3-0.1-4.5
			c-0.3-1-0.8-1.7-1.9-2C124.7,33.4,123.9,33.9,123.3,33.3z"/>
		<path class="st3" d="M94.9,54.6c-0.1,0-0.1,0-0.2-0.1c0-3.8,0-7.7,0-11.5c0-1.9,0.6-2.5,2.6-2.5c2.2,0,4.5,0,6.7,0
			c0,0,0,0.1,0.1,0.1c0.3,0.4,0.2,0.8,0.2,1.2c0,1.2,0,2.4,0,3.6c0,1.1,0.5,2,1.6,2.4c1.4,0.4,1.4,0.4,1.4,1.8c0,4.3,0,8.7,0,13
			c0,0.4,0,0.8-0.1,1.2c-0.2,0.4-0.6,0.4-0.9,0.4c-1.1,0.2-1.3,0.4-1.3,1.6c0,0.6,0.1,1.2-0.1,1.8c0,0.1-0.1,0.2-0.2,0.3
			c-1.9,0-3.7,0.1-5.6-0.2c-0.1,0-0.2-0.1-0.3-0.2c-0.2-1.3,0-2.6-0.1-3.9c0-2,0-4,0-6c0-1.9-0.6-2.5-2.5-2.6
			C95.6,54.9,95.2,54.9,94.9,54.6z"/>
		<path class="st2" d="M81.2,23c0-5.5,0-11.1,0-16.6c0-0.4,0-0.7,0.1-1.1c0,1.8,0.1,3.6,0.1,5.3c0,3.7,0,7.5,0,11.2
			c0,0.9,0.3,1.1,1.1,1c1-0.1,2,0,3.1,0c1.5,0,2,0.6,2,2.1c0,7.7,0,15.5,0,23.2c0,0.6,0,1.1,0,1.7c-0.1,0.1-0.2,0.2-0.3,0.2
			c-3.2,0.1-6.4,0.2-9.5,0c-0.1,0-0.2-0.1-0.3-0.2c0-5.3,0-10.6,0-16c0-0.4,0-0.7,0-1.1c0,0,0-0.1,0-0.1c-0.1-2.2-0.2-2.3,1.8-2.2
			c0.2,0,0.3-0.1,0.5-0.1c1.1-0.5,1.5-1.4,1.5-2.5C81.1,26.2,81,24.6,81.2,23z"/>
		<path class="st3" d="M48,45c-0.2-1.4-0.1-2.8-0.1-4.2c0-2.1,0-4.3,0-6.4c0-4.1,0-8.1,0-12.2c0-1.9,0.6-2.5,2.5-2.5
			c2.3,0,4.6,0,6.9,0c0.2,0,0.4,0.2,0.5,0.4c0.2,2,0.1,4.1,0.1,6.1c0,2.2,0,2.2,2.2,2.6c0.1,0,0.2,0.1,0.3,0.1
			c0.1,0.1,0.2,0.2,0.2,0.3c0.1,0.2,0.1,0.3,0.1,0.5c0,4,0.1,7.9,0,11.9c0,0.1-0.1,0.2-0.1,0.3c-0.4,0.4-1,0.3-1.5,0.3
			c-0.9,0.1-1.2,0.4-1.3,1.3c-0.1,1,0.1,2-0.1,3c0,0.1-0.1,0.2-0.2,0.3c-0.2,0.1-0.3,0.1-0.5,0c-1,0-1.9-0.1-2.9-0.1
			c-0.4-0.4-0.3-0.9-0.3-1.4c0-2.7,0-5.4,0-8.1c0-1.8-0.5-2.2-2.2-2.2c-0.6,0-1.3,0-1.9,0c-1.1,0-1.2,0.1-1.2,1.2c0,2.5,0,5.1,0,7.6
			C48.3,44.1,48.4,44.7,48,45z"/>
		<path class="st3" d="M76.4,109.2c1.1,2,2.3,4.1,3.4,6.1c0.6,1,1.1,2,1.7,3.1c0.3-0.2,0.1-0.5,0.1-0.7c0-3.1,0-6.1,0-9.2
			c0-1.2,0.1-1.3,1.3-1.3c3.1,0,2.7-0.4,2.7,2.7c0,5.3,0,10.6,0,15.9c0,1.3-0.1,1.3-1.4,1.4c-1.6,0.2-2.5-0.4-3.2-1.8
			c-1.1-2.2-2.4-4.2-3.6-6.3c-0.7-1.3-1.4-2.5-2.2-4.1c0,0.5-0.1,0.8-0.1,1.1c0,3.2,0,6.5,0,9.7c0,1.2-0.1,1.3-1.3,1.3
			c-3.1,0-2.7,0.3-2.7-2.7c0-5.3,0-10.6,0-15.9c0-1.3,0.1-1.3,1.3-1.4C74.2,107,75.7,107.3,76.4,109.2z"/>
		<path class="st1" d="M197.7,108.6c0.9,0.9,1.6,1.9,2.2,3c0.6,1.9,0.9,3.9,0.9,5.9c0,0.9-0.3,1.2-1.2,1.2c-3,0-6,0-9,0
			c-0.9,0-1,0.3-1,1.1c0.3,2.8,2.3,4.1,5.4,3.6c1-0.2,2-0.5,2.9-0.9c0.8-0.4,1.2-0.2,1.5,0.6c0.1,0.4,0.3,0.7,0.5,1.1
			c0.5,1.2,0.5,1.5-0.8,2.1c-2.8,1.2-5.7,1.7-8.7,0.9c-2.5-0.7-4.1-2.3-5-4.7c-1-2.9-1.1-5.9-0.2-8.9
			C186.9,107.6,192.4,105.5,197.7,108.6z"/>
		<path class="st3" d="M29.2,125.4c-0.6,0.4-1,0.9-1.5,1.2c-2.1,1.3-4.4,1.4-6.6,0.2c-2.2-1.2-2.8-3.4-2.6-5.8
			c0.2-2.5,1.5-4.2,3.8-5c1.7-0.7,3.5-0.8,5.4-0.8c0.6,0,0.9-0.2,0.8-0.8c0-0.4,0-0.7,0-1.1c-0.1-1.3-0.7-1.9-2.1-2.1
			c-1.4-0.1-2.7,0.2-4,0.7c-1.7,0.6-1.7,0.6-2.2-1.1c-0.7-2.1-0.6-2.2,1.5-2.8c1.9-0.5,3.8-0.7,5.8-0.6c3.7,0.3,5.5,2.1,5.6,5.8
			c0.1,2.6,0,5.2,0,7.8c0,1.5,0.1,2.9,0.8,4.2c0.3,0.6,0.2,0.9-0.4,1.1c-0.8,0.3-1.6,0.6-2.3,1c-0.9,0.5-1.3,0.1-1.5-0.7
			C29.5,126.3,29.4,125.9,29.2,125.4z"/>
		<path class="st3" d="M63.6,125.3c-1.2,1.2-2.5,2-4,2.2c-3,0.4-5.5-1-6.4-3.8c-1-3.1,0.2-6.2,2.9-7.5c1.9-0.9,3.9-1.1,5.9-1.1
			c0.8,0,1-0.2,1-1c-0.1-2.5-0.8-3.2-3.3-3.1c-1.2,0.1-2.4,0.5-3.5,0.9c-0.7,0.3-1.1,0.2-1.3-0.6c-0.1-0.6-0.3-1.1-0.6-1.7
			c-0.3-0.7-0.1-1.2,0.6-1.4c3.1-1.1,6.2-1.6,9.4-0.6c1.7,0.5,2.6,1.8,3,3.5c0.2,0.9,0.2,1.8,0.2,2.7c0,2.7,0,5.5,0.1,8.2
			c0,1.1,0.3,2.1,0.7,3.1c0.3,0.6,0.2,0.9-0.4,1.1c-0.7,0.3-1.5,0.5-2.2,0.9c-0.9,0.5-1.4,0.2-1.6-0.7
			C63.9,126.2,63.8,125.9,63.6,125.3z"/>
		<path class="st2" d="M141.3,107.2c0.4,0.2,0.8,0.1,1.3,0.2c3.1,0.5,4.8,2.3,5.4,5.3c0.6,3,0.6,6-0.1,9c-0.8,3.2-2.6,4.8-5.9,5.2
			c-2.5,0.3-5.1,0.1-7.6,0.1c-0.3-0.4-0.4-0.8-0.4-1.3c0-5.7,0-11.4,0-17.1c0-1.1,0.2-1.3,1.3-1.3
			C137.3,107.2,139.3,107.2,141.3,107.2z"/>
		<path class="st2" d="M176.6,126.8c-2.4,0.3-4.8,0.2-7.2,0.2c-1.2,0-1.3-0.1-1.3-1.3c0-5.8,0-11.5,0-17.3c0-1,0.4-1.3,1.3-1.2
			c2.6,0.1,5.1-0.1,7.7,0.2c3.5,0.9,4.8,3.4,5.2,6.8c0.2,1.8,0.2,3.7,0,5.5C181.9,123.2,180.4,125.9,176.6,126.8z"/>
		<path class="st3" d="M36.9,117c0-2.9,0-5.7,0-8.6c0-0.9,0.3-1.3,1.2-1.2c2.4,0.1,4.8-0.1,7.1,0.2c2.5,0.3,4,1.5,4.6,3.7
			c0.7,2.7,0,5.3-2,6.6c-0.8,0.5-0.7,0.9-0.3,1.6c1.2,2,2.3,4.1,3.5,6.1c0.5,0.9,0.4,1.1-0.6,1.4c-3.4,0.9-2.7,1.4-4.4-1.8
			c-0.9-1.7-1.8-3.5-2.6-5.2c-0.4-1-1.2-0.7-1.8-0.7c-0.5,0-0.3,0.5-0.3,0.8c0,1.9,0,3.9,0,5.8c0,0.9-0.3,1.3-1.3,1.3
			c-3.6-0.1-3.1,0.5-3.1-3.1C36.9,121.7,36.9,119.3,36.9,117C36.9,117,36.9,117,36.9,117z"/>
		<path class="st1" d="M135.6,32.2c1.5,0.3,3.1,0.1,4.6,0.1c1.7,0,2.3,0.6,2.3,2.3c0,4.2,0,8.3,0,12.5c0,0.8,0.2,1.1,1,1.1
			c1.3,0,2.6-0.1,3.8,0.1c-0.3,0.5-0.7,0.4-1.1,0.4c-1.1,0-2.2,0-3.3,0c-0.1,0-0.2,0-0.4,0c-0.4-0.1-0.8-0.2-1.2-0.1
			c-0.7,0.2-0.8,0.8-0.8,1.4c0,2,0,4.1,0,6.1c0,1.3-0.2,1.5-1.5,1.5c-0.5,0-0.9,0-1.4,0c-1.5,0-1.7-0.1-1.7-1.6c0-1.3,0-2.6,0-3.9
			c0-0.4,0-0.8-0.2-1.1c-0.3-0.4-0.7-0.7-1.2-0.8c-0.9-0.2-1.9,0-2.8-0.1c-0.4,0-0.9,0.1-1.2-0.3c-0.1-0.2-0.2-0.4-0.2-0.7
			c0-2.3,0-4.6,0-7c0-0.2,0.1-0.4,0.1-0.6c0.1-0.1,0.2-0.2,0.3-0.2c0.7-0.3,1.4-0.1,2.2-0.2c1.6-0.1,2.2-0.6,2.2-2.3
			c0-2.1-0.1-4.2,0.1-6.2c0-0.1,0.1-0.2,0.2-0.3C135.6,32.1,135.6,32.2,135.6,32.2z"/>
		<path class="st2" d="M60.3,41.9c0-0.1,0.1-0.1,0.1-0.2c0.5-0.2,1.1-0.1,1.6,0c0.1,0,0.2,0.1,0.2,0.2c0,0,0.1,0,0.1,0
			c0.3,0.4,0.2,0.9,0.2,1.3c0,1.9,0,3.8,0,5.8c0,2.5,0.1,2.6,2.5,3.3c0,0.1,0,0.1,0.1,0.2c0,10.2,0,20.3,0.1,30.5c0,1.7-0.3,2-2,2
			c-1.4,0-2.8,0-4.2,0c-1.3,0-1.7-0.4-1.7-1.7c0-1.6,0-3.1,0-4.7c0-0.8-0.2-1-1-1c-1.8,0-3.7,0.1-5.5-0.1c0.3-0.4,0.7-0.4,1.2-0.4
			c1.7,0,3.5,0,5.2,0c0.7,0,1.4,0,2.1,0c1.6,0,2-0.4,2-2.1c0-0.8,0-1.6,0-2.4c0-6.3,0-12.6,0-18.9c0-0.4,0-0.8,0-1.2
			c-0.1-1-0.6-1.5-1.6-1.6c-0.7-0.1-1.5,0.1-2.2-0.2c-0.1-0.1-0.2-0.1-0.3-0.3c0,0,0-0.1,0-0.1c-0.4-1.2-0.4-2.5,0-3.7
			c0-0.1,0-0.1,0.1-0.1c0.2-0.2,0.5-0.2,0.8-0.2c1.3-0.1,1.7-0.6,1.8-2C60.1,43.6,59.9,42.7,60.3,41.9z"/>
		<path class="st3" d="M7.9,107.2c1.9,0,3.8-0.1,5.6,0.3c2,0.5,3.2,1.8,3.6,3.9c0.7,4.7-2,7.8-6.7,7.9c-2.5,0-2.5,0-2.5,2.5
			c0,1.4,0,2.8,0,4.3c0,0.7-0.3,1-1,1c-0.8,0-1.7,0-2.5,0c-0.7,0-0.9-0.3-0.9-1c0-6,0-11.9,0-17.9c0-0.7,0.3-1,1-1
			C5.7,107.2,6.8,107.2,7.9,107.2z"/>
		<path class="st2" d="M62.3,41.9c-0.1,0-0.1,0-0.2,0c-0.3-0.4-0.2-0.9-0.2-1.4c0-3,0-6,0-9c0-1.2,0-2.2-1.5-2.5c0,0-0.1,0-0.1-0.1
			c-0.3-0.4-0.2-0.8-0.2-1.2c0-1.6,0-3.1,0-4.7c0-2.5-0.1-2.6-2.5-3.2c-0.1,0-0.2-0.1-0.3-0.1c0.3-0.3,0.2-0.8,0.2-1.1
			c0-2.7-0.1-5.4-0.1-8.1c0-1.6,0.5-2,2-2c1.8,0,3.7,0,5.5,0c1.5,0,2,0.5,2,1.9c0,4.4,0,8.7,0,13.1c0,0.4-0.1,0.8,0.1,1.2
			c0,0-0.1,0.1-0.1,0.1c-0.1,0.1-0.2,0.1-0.3,0.1c-0.7,0.1-1.4,0-2.2,0.1c-1.2,0-1.8,0.6-2.1,1.8c-0.1,0.7,0.1,1.5-0.1,2.2
			c0,3.9,0,7.9,0,11.8C62.3,41.1,62.3,41.5,62.3,41.9z"/>
		<path class="st2" d="M109.6,126c-3.2-2.9-3.4-6.7-3.1-10.6c0.2-2.3,0.9-4.4,2.3-6.2c2.7-2.5,5.7-3.1,9.1-1.5
			c0.4,0.2,0.9,0.5,1.3,0.8c0.7,0.5,0.9,1.2,0.3,2c-0.1,0.1-0.1,0.2-0.2,0.3c-1.1,1.7-1.1,1.7-3,0.7c-2-1.1-4.1-0.3-4.7,1.9
			c-0.7,2.5-0.6,5.1,0.1,7.6c0.6,2,2.1,2.7,4.1,2.2c0.3-0.1,0.5-0.2,0.8-0.2c0.6-0.2,1.2-0.9,1.9-0.4c0.8,0.6,1.1,1.5,1.4,2.4
			c0.2,0.7-0.4,1.2-0.9,1.4c-2.9,1.5-5.7,1.6-8.6,0.1C110.1,126.3,109.9,126.1,109.6,126z"/>
		<path class="st3" d="M87.4,49.9c0.1,0,0.1,0,0.2-0.1c0.9,0.5,1.2,1.2,1.2,2.2c0,0.8,0,1.7,0,2.5c0,0.1-0.1,0.1-0.1,0.2
			c-1.5,0.5-1.8,1.6-1.8,3.1c0.1,5.7,0,11.3,0,17c0,0.5,0.1,1.1-0.3,1.6c-1.3,0.1-2.5,0.1-3.8,0c-0.3-0.4-0.2-0.9-0.2-1.3
			c0-2.8,0-5.7,0-8.5c0-2.8,0.1-5.6-0.1-8.4c-0.3-1-0.7-1.9-1.9-2.2c-1-0.2-2.1,0-3.1-0.1c-0.4,0-0.9,0-1.2-0.4c0-1.2,0-2.5,0-3.7
			c0-0.9,0.5-1.4,1.2-1.8c0,0.1,0,0.1,0.1,0.2c0.2,0.2,0.2,0.4,0.3,0.6c0.2,0.8,0.7,1.1,1.5,1.1c2.2,0,4.4,0,6.5,0
			c0.9,0,1.4-0.4,1.5-1.3C87.2,50.3,87.3,50.1,87.4,49.9z"/>
		<path class="st2" d="M126.9,107.3c1.1,0,2.1,0,3.2,0c0.8,0,1.2,0.3,1.1,1.1c0,0.3,0,0.7,0,1c0.1,0.9-0.3,1.3-1.2,1.1
			c-0.8-0.1-1,0.3-1,1c0,3.7,0,7.5,0,11.2c0,0.7,0.2,1.1,1,1c0.9-0.1,1.2,0.3,1.2,1.2c0,2,0,2-2.1,2c-1.8,0-3.6,0-5.5,0
			c-0.8,0-1.2-0.3-1.1-1.1c0-0.3,0-0.6,0-0.9c-0.1-0.9,0.3-1.4,1.2-1.3c0.7,0.1,0.9-0.3,0.9-0.9c0-3.8,0-7.5,0-11.3
			c0-0.7-0.2-1.1-1-1c-0.9,0.1-1.2-0.3-1.2-1.2c0-0.1,0-0.2,0-0.3c0-1.8,0-1.8,1.7-1.8C125.2,107.3,126,107.3,126.9,107.3
			C126.9,107.3,126.9,107.3,126.9,107.3z"/>
		<path class="st3" d="M57.4,77.4c-2.2,0-4.4,0.1-6.6,0.1c-0.8-0.1-1.3-0.6-1.5-1.3c0-1,0-2.1,0.1-3.1c0.6-0.5,1.3-0.3,2-0.3
			c1.8,0,2.4-0.6,2.4-2.4c0-4.9,0-9.8,0-14.8c0-1.2-0.2-2.5-0.2-3.8c0-0.4,0-0.9,0.3-1.2c1.1,0,2.2-0.1,3.4-0.1c0,0,0,0.1,0,0.1
			c0.3,0.4,0.3,0.9,0.3,1.3c0,8.1,0,16.1,0,24.2C57.7,76.6,57.7,77,57.4,77.4z"/>
		<path class="st1" d="M135.9,50.4c0.5,0.3,0.5,0.7,0.5,1.2c0,1.5,0,3.1,0,4.6c0,0.7,0.2,0.9,0.9,0.9c0.7,0,1.4-0.1,2.1,0
			c0.8,0.1,1-0.2,1-1c-0.1-2.2,0-4.4,0-6.6c0-0.8,0.2-1.5,1.2-1.5c-0.7,0.9-0.7,2-0.6,3.1c0.1,2.1,0,4.3,0,6.4c0,1.2,0,2.4,0,3.6
			c0,0.1,0,0.2,0,0.3c0.1,1-0.3,2,0.5,2.9c0.1,0.1,0.2,0.1,0.3,0.2c0.7,0.2,1.5,0.1,2.2,0.1c1.5,0,1.7,0.1,1.7,1.6
			c0,3.2,0,6.3,0,9.5c0,0.4,0,0.8,0.1,1.2c0.2,0.7,0.8,1.2,1.2,1.8c0,0.7,0,1.5,0,2.2c-0.2,0.7-0.7,0.8-1.3,0.8
			c-1.2,0-2.4,0.1-3.6,0c-0.8-0.1-1,0.3-1,0.9c-0.4-0.2-0.3-0.6-0.3-1c-0.1-3.4,0-6.8,0-10.3c0-0.7,0-1.3-0.7-1.7
			c-0.1-0.1-0.2-0.2-0.2-0.3c-0.1-2.3-0.2-4.6,0-6.8c0.1-1.2,0.7-2.4,0.5-3.7c0-0.3,0-0.7-0.1-1c-0.2-0.4-0.6-0.3-1-0.3
			c-0.9,0-1.9,0-2.8,0c-0.1,0-0.2-0.1-0.3-0.2c-0.3-0.7-0.2-1.4-0.2-2.2C135.9,53.7,135.7,52,135.9,50.4z"/>
		<path class="st2" d="M118.9,63.5c0-0.1,0-0.3,0-0.4c0.3-0.3,0.8-0.3,1.2-0.3c1.2,0.1,2.4-0.3,3.6,0.2c0.3,0.4,0.2,0.9,0.2,1.4
			c0,3.5,0,6.9,0,10.3c0.1,0.6,0.4,1.1,0.9,1.4c0.3,0.2,0.7,0.2,1,0.3c0.1,0,0.1,0.1,0.2,0.2c0,0.8,0,1.7,0,2.5c0,1-0.4,1.4-1.4,1.4
			c-1.4,0-2.8,0-4.3,0c-1.1,0-1.4-0.4-1.4-1.4C118.9,73.9,118.9,68.7,118.9,63.5z"/>
		<path class="st4" d="M91.5,11.5c0,1.9,0,3.8,0,5.8c0,1.1-0.3,1.4-1.3,1.4c-1.3,0-2.6,0-4,0c-0.9,0-1.3-0.4-1.3-1.3
			c0-3.9,0-7.9,0-11.8c0-0.8,0.4-1.2,1.2-1.2c1.4,0,2.8,0,4.2,0c0.9,0,1.2,0.4,1.2,1.3C91.5,7.6,91.5,9.5,91.5,11.5
			C91.5,11.5,91.5,11.5,91.5,11.5z"/>
		<path class="st3" d="M140.9,81.7c0,0.3,0.1,0.6,0.1,1c0,0.8-0.5,1.1-1.2,1.1c-1.4,0-2.8,0-4.2,0c-0.9,0-1.2-0.4-1.2-1.3
			c0-1.7,0-3.4,0-5c0-0.7-0.2-0.8-0.8-0.8c-2.5,0-5,0-7.5,0.1c0,0,0-0.1,0-0.1c0-0.1,0.1-0.2,0.2-0.3c1.2-0.3,2.4-0.1,3.6-0.1
			c1,0,2,0,3,0c0.8,0,1.1-0.3,1.1-1.1c0-1.5-0.1-3,0-4.4c0.1-1.3,0.9-1.8,2.1-1.3c0,0.6-0.6,0.4-0.8,0.7c-0.3,0.3-0.4,0.7-0.5,1.2
			c0,1.4,0,2.8,0,4.3c0,0.3-0.1,0.6,0.3,0.7c0.3,0.1,0.5-0.2,0.6-0.4c0.3-0.4,0.3-0.9,0.3-1.4c0-1.1,0-2.2,0-3.3
			c0-0.4,0-0.9,0.2-1.3c0.1-0.2,0.2-0.3,0.4-0.3c1.1-0.1,2.2-0.4,3.3,0.2c0.1,0,0.1,0.1,0.2,0.1c0.4,0.4,0.3,0.9,0.3,1.4
			c0,2.9,0,5.8,0,8.7C140.2,80.4,140.4,81.1,140.9,81.7z"/>
		<path class="st3" d="M104.6,67.7c0-0.1,0-0.2,0-0.2c0.7-0.4,1.6-0.3,2.1-0.9c0.4-0.5,0.4-1,0.4-1.6c0-0.7,0.4-1.1,1.1-1.1
			c0.2,0,0.3,0,0.5,0c1.4,0,1.5,0.1,1.5,1.5c0,2,0,4,0,6c0.1,0.5,0.4,0.9,0.9,1.1c0.1,0.1,0.1,0.3,0,0.4c0,1.3,0,2.6,0,3.9
			c0,0.4,0,0.8-0.2,1.2c-0.7,0.4-1.5,0.3-2.2,0.3c-1.2,0-2.4,0.1-3.6-0.1c-0.4,0-0.5-0.2-0.6-0.6c-0.1-2.6,0-5.2,0-7.8
			c0-0.5,0-0.9-0.1-1.4C104.4,68.1,104.4,67.9,104.6,67.7z"/>
		<path class="st3" d="M159.1,55.4c1.2,0,2.4-0.1,3.6-0.1c0.5,0.2,0.7,0.7,0.7,1.2c0,3.9,0,7.9,0,11.8c0,0.6-0.2,1.1-0.9,1.2
			c-1.1,0-2.2-0.1-3.4-0.1c-0.3-0.4-0.3-0.9-0.3-1.3c0-3.8,0-7.6,0-11.4C158.9,56.3,158.8,55.8,159.1,55.4z"/>
		<path class="st3" d="M140.7,61.4c-0.1-1.3-0.1-2.6,0-3.9c0.6-0.4,1.4-0.7,1.6-1.6c0.1-2.1,0-4.3,0.1-6.4c0-0.5-0.1-0.9,0.3-1.3
			c1.6,0,3.1-0.1,4.7-0.1c0.5,0.2,0.8,0.5,0.9,1.1c0.1,0.1,0,0.2-0.1,0.3c-0.2,0.1-0.5,0.1-0.7,0.1c-1.2,0.2-1.7,0.8-1.7,2.1
			c0,2.7,0,5.3,0,8c0,0.5,0.1,1.1-0.2,1.5c-0.1,0.1-0.2,0.2-0.3,0.2C143.7,61.6,142.2,61.8,140.7,61.4z"/>
		<path class="st0" d="M111.2,72.8c0-0.1-0.1-0.2-0.1-0.3c-0.3-0.4-0.2-0.8-0.2-1.2c0-1.7,0-3.5,0-5.2c0-0.6-0.1-1.2-0.3-1.7
			c0-0.1,0-0.2,0-0.4c0.1-1.2,0.5-1.4,1.6-1c0.1,0.1,0.3,0.1,0.5,0.1c0.2,0,0.6-0.3,0.6,0.1c0.1,0.3-0.1,0.6-0.5,0.8
			c-1,0.5-1.1,1.2-0.9,2.3c0.2,0.9-0.2,1.9,0,2.8c0.1,0.2-0.1,0.5,0.2,0.7c0.4-0.7,1.3-0.8,1.8-1.4c0.2-0.3,0.5-0.3,0.8,0
			c0.2,0.2,0.4,0.3,0.6,0.5c0.4,0.3,0.7,0.9,1.1,0.6c0.4-0.3,0.4-1,0.4-1.6c-0.2-1.5,0-3,0.2-4.4l0,0c0.1,0,0.2,0,0.2,0
			c0,2.5,0,5,0,7.5c0,1.5-0.3,1.8-1.8,1.8C114.1,72.7,112.6,72.5,111.2,72.8z"/>
		<path class="st5" d="M148.2,49.4c0-0.1,0-0.1,0.1-0.2c2.8,0,5.6,0,8.4,0c0.4,0,0.8-0.1,1.1,0.2c-2.7,0-5.4,0-8,0
			c-0.9,0-1.1,0.2-1.1,1.1c0,4.1,0,8.1,0,12.2c0,0.3,0,0.6,0,1.1c-0.3-0.4-0.2-0.6-0.2-0.9c0-4,0-8,0-12c0-0.4,0.1-0.7-0.1-1.1
			C148.1,49.7,148.1,49.6,148.2,49.4z"/>
		<path class="st6" d="M68.8,24.8c-0.6,0-1.2,0-1.7,0L67,24.8l0-0.1c0,0,0-0.1,0-0.1c0.6-0.1,1.2,0.2,1.8-0.2c1.2,0,2.4,0,3.7,0
			c0.3,0,0.7-0.1,0.9,0.2c-0.3,0.3-0.6,0.3-1,0.3C71.2,24.9,70,25,68.8,24.8z"/>
		<path class="st7" d="M76.2,55.4c1.1,0.4,2.2,0.1,3.3,0.2c0.4,0,0.9-0.2,1.2,0.2c-0.2,0.3-0.6,0.3-0.9,0.3c-1.2,0-2.4,0.1-3.6-0.1
			c0-0.1,0-0.3-0.1-0.4C76.2,55.5,76.2,55.5,76.2,55.4z"/>
		<path class="st8" d="M75,30.8c-1.3,0-2.6,0-3.8,0c-0.3,0-0.7,0.1-0.9-0.2c0.3-0.3,0.7-0.3,1.1-0.3c1.2,0.1,2.4-0.2,3.6,0.2
			c0,0,0,0.1,0.1,0.1C75.1,30.7,75.1,30.7,75,30.8z"/>
		<path class="st9" d="M79.8,30.6c-0.4,0.4-0.9,0.2-1.4,0.2c-0.7,0-1.1,0.2-1,1c0,0.3,0,0.7,0,1.1c-0.2-0.7,0-1.5-0.2-2.2
			c0.1,0,0.1-0.1,0.2-0.1C78.2,30.2,79,30.1,79.8,30.6z"/>
		<path class="st3" d="M99,125.3c-1.2,1.3-2.6,2.1-4.3,2.2c-3.1,0.3-5.5-1.3-6.2-4c-0.8-3.4,0.5-6.3,3.4-7.5
			c1.7-0.7,3.6-0.9,5.4-0.9c0.8,0,1.1-0.3,1-1c-0.1-0.4,0-0.9-0.1-1.3c-0.1-0.9-0.7-1.5-1.6-1.7c-1.6-0.3-3.1,0.1-4.6,0.7
			c-1.5,0.5-1.5,0.5-2-1c-0.8-2.3-0.7-2.4,1.7-3c2-0.5,4.1-0.8,6.2-0.5c3.4,0.5,4.9,2.3,4.9,5.7c0,2.5,0,5.1,0,7.6
			c0,1.6,0.1,3.1,0.8,4.5c0.3,0.5,0.1,0.9-0.4,1.1c-0.8,0.3-1.6,0.6-2.4,1c-0.7,0.4-1.2,0.2-1.4-0.6C99.4,126.2,99.2,125.8,99,125.3
			z"/>
		<path class="st0" d="M104.8,77.8c0.1,0.1,0.2,0.2,0.3,0.4c-0.4,0.2-0.3,0.6-0.3,1c0,2.4,0,4.7,0,7.1c0,1.3-0.4,1.7-1.7,1.7
			c-1.4,0-2.8,0-4.3,0c0-6.2,0-12.5,0-18.7c0-0.5,0-1.1,0-1.6c-0.1,0-0.1-0.1,0-0.1c0,0,0-0.1,0.1-0.1c1.9,0,3.8-0.2,5.7,0.2
			c0,0.2,0,0.4,0,0.6c0.1,2.8,0,5.6,0.1,8.4C104.7,77,104.6,77.4,104.8,77.8z"/>
		<path class="st10" d="M81.9,87.1c0.5-0.7,0.6-1.4,0.6-2.2c0-2.4,0-4.8,0-7.2c0-0.6,0.2-0.9,0.8-0.8c1,0.1,2,0,3,0.1
			c0,3.6,0,7.2,0,11c-1-1.1-2.2-0.6-3.3-0.6C82.6,87.2,82.3,87.5,81.9,87.1z"/>
		<path class="st2" d="M158,106.9c0.2,0,0.3,0,0.5,0c4.3,0.1,6.3,2,6.3,6.4c0,2.5,0,5,0,7.5c0,1.4,0.2,2.7,0.8,4
			c0.4,0.7,0.1,1.1-0.6,1.3c-0.7,0.2-1.3,0.5-2,0.8c-1.1,0.4-1.2,0.4-1.7-0.7c-0.5-1.1-0.4-1.1-1.4-0.3c-2.1,1.7-4.4,1.9-6.8,0.8
			c-2.3-1.1-3-3.2-3-5.6c0.1-2.5,1.3-4.3,3.6-5.3c1.8-0.7,3.6-0.9,5.5-0.9c0.7,0,0.9-0.2,0.9-1c-0.1-2.6-1-3.4-3.5-3.1
			c-1.2,0.2-2.3,0.6-3.4,1c-0.6,0.2-0.9,0.1-1.1-0.5c-0.1-0.5-0.3-1-0.5-1.5c-0.5-1.1-0.5-1.4,0.9-1.9
			C154.3,107.2,156.1,107,158,106.9z"/>
		<path class="st11" d="M76.2,56c1.1-0.4,2.2-0.1,3.3-0.2c0.4,0,0.8,0,1.3,0c1.1,0.2,1.5,1.1,1.8,2c0.2,1.3,0.1,2.6,0.1,3.9
			c0,1.6,0,3.2,0,4.8c0,3.1,0,6.1,0,9.2c0,0.3,0.1,0.7-0.1,0.9l-0.1,0l-0.1,0c-1.5,0-3,0-4.6,0c-1.1-0.3-1.6-0.8-1.6-2
			c0-4.5,0-9,0-13.6C76.2,59.3,76.2,57.7,76.2,56z"/>
		<path class="st12" d="M82.5,76.6c0-3.4,0-6.8,0-10.1c0.1-0.1,0.1-0.1,0.2,0c0,3.3,0,6.6,0,9.9c0.1,0,0.1,0.1,0.1,0.1
			c0,0,0,0.1-0.1,0.1C82.7,76.6,82.6,76.6,82.5,76.6z"/>
		<path class="st13" d="M77.8,76.6c1.5-0.3,3.1-0.3,4.6,0C80.8,76.8,79.3,76.8,77.8,76.6z"/>
		<path class="st14" d="M82.8,76.6c0-0.1,0-0.1,0-0.2c1.3,0,2.5,0,3.8,0c0.1,0,0.1,0.1,0.1,0.2c0,0,0,0.1,0,0.1
			C85.3,76.7,84,76.6,82.8,76.6z"/>
		<path class="st11" d="M54,50.6c0.2,6.6,0.1,13.1,0.2,19.7c0,2.1-0.6,2.7-2.8,2.7c-0.7,0-1.3,0-2,0c0-2.3-0.1-4.7-0.1-7
			c0-4.3,0-8.6,0-12.9c0-2,0.6-2.6,2.6-2.6C52.6,50.6,53.3,50.6,54,50.6z"/>
		<path class="st11" d="M48,45c0-3.2,0-6.3,0-9.5c0-0.7,0.2-1.1,1-1c1,0.1,2,0,3.1,0c1.3,0,2,0.7,2,2c0,3.4,0,6.7,0,10.1
			c-1.4,0-2.9,0.1-4.3,0C48.7,46.6,48.1,46,48,45z"/>
		<path class="st15" d="M57.3,46.7c0,1.2,0,2.5,0,3.7c-0.8,0-1.6,0-2.5,0c-0.5,0-0.8-0.1-0.7-0.7c0,0,0-0.1,0-0.1
			c0.1-0.9-0.4-2,0.2-2.7c0.5-0.6,1.7,0,2.5-0.3C57,46.7,57.2,46.7,57.3,46.7z"/>
		<path class="st16" d="M104,36.1c0-8.1,0-16.2,0-24.3c0-1.7,0.8-2.5,2.5-2.5c0.6,0,1.1,0,1.7,0c0.2,0.3,0.2,0.7,0.2,1
			c0,7.9,0,15.8,0,23.7c0,1.5-0.7,2.4-2.2,2.4C105.4,36.5,104.6,36.8,104,36.1z"/>
		<path class="st10" d="M113.7,48.1c0,1.1,0,2.1,0,3.2c0.1,0.9-0.2,1.2-1.1,1.1c-0.5-0.1-0.9,0-1.4,0c-0.4,0-0.8,0.1-0.9,0.6
			c-0.2,2.1,0,4.1-0.1,6.2c0,1.6,0.1,3.2-0.1,4.8c-0.1,0,0,0-0.1,0c-1,0-2.1,0.4-2.8-0.1c-0.6-0.5-0.2-1.7-0.2-2.7c0-4,0-8.1,0-12.1
			c0-0.3-0.1-0.7,0.1-1C109.4,48.1,111.5,48.1,113.7,48.1z"/>
		<path class="st16" d="M117.3,46.7c-0.2,0.6-0.6,1-1.2,1.2c-2.4-0.1-2.4-0.1-2.4-2.6c0-3,0-6.1,0-9.1c0-1.9,0.8-2.6,2.6-2.7
			c0.7,0,1,0.2,1,0.9c0,3.9,0,7.7,0,11.6C117.3,46.3,117.3,46.5,117.3,46.7z"/>
		<path class="st17" d="M105.6,48c-1.1-0.4-1.5-1.3-1.6-2.4c0-1.7,0-3.3,0-5c2.2-0.4,3.1,0.3,3.1,2.5c0,1.6,0,3.1,0,4.7
			C106.6,48.4,106.1,48.1,105.6,48z"/>
		<path class="st18" d="M105.6,48c0.5-0.1,1,0.1,1.5-0.2c0,0.1,0.1,0.1,0.1,0.2c0,5.1,0,10.1,0,15.2c0,0.6,0.2,0.7,0.8,0.7
			c0.7,0,1.5,0,2.2,0c0.1-0.1,0.2-0.1,0.2,0c0.1,0,0.1,0,0.2,0c0,0,0,0.1,0,0.1c-0.1,2.1,0,4.3-0.1,6.4c0,0.5,0.1,1-0.3,1.4
			c-0.3-0.3-0.2-0.7-0.2-1c0-1.9-0.1-3.7,0-5.6c0-1-0.3-1.2-1.2-1.1c-0.2,0-0.3,0-0.5,0c-0.7-0.1-1,0.2-1,0.9c0,0.7,0.1,1.4-0.6,1.8
			c-0.1-1,0.2-2,0.2-3c0-5,0-9.9,0-14.9c0-0.6-0.1-0.9-0.8-0.8C106,48.3,105.7,48.2,105.6,48z"/>
		<path class="st19" d="M148.2,49.4c0.1,0.1,0.1,0.3,0.2,0.4c0,2.8,0,5.5-0.1,8.3c0,1.7,0,3.4,0,5.1c0,0.6-0.1,1.1-0.8,1.3
			c-0.9,0.2-0.7-0.5-0.7-1c-0.1-0.6,0.3-1.4-0.5-1.9c-0.3-0.1-0.6-0.2-0.8-0.4c0,0,0-0.1-0.1-0.1c0-3.2,0-6.4,0-9.7
			C145.5,49.9,146.6,49,148.2,49.4z"/>
		<path class="st20" d="M159.1,55.4c0,4.7,0,9.4,0,14c-0.4,0-0.9,0.1-1.3,0.1c-0.7,0-1.1-0.4-1.1-1c0-4.1,0-8.1,0-12.2
			C156.8,55.3,157.7,55,159.1,55.4z"/>
		<path class="st21" d="M146.9,78.8c-0.7-0.2-1-0.9-1.4-1.4c0-0.1-0.1-0.2-0.1-0.3c0-4.1,0-8.3,0-12.4c0.5-0.4,1-0.4,1.5,0
			C146.9,69.4,146.9,74.1,146.9,78.8z"/>
		<path class="st22" d="M146.9,64.7c-0.5,0-0.9,0-1.4,0c-1.4,0.1-2.8,0.2-4.2-0.1c0-0.1,0-0.1,0-0.2c0.8-0.5,1.6-0.3,2.5-0.3
			c0.8,0,1.2-0.2,1.4-1c0.3-0.3,0.4-0.1,0.5,0.1c0.1,0.2,0.1,0.5,0.3,0.7c0.5,0.2,0.5-0.2,0.5-0.5c0.1-0.7,0-1.4-0.2-2
			c0-0.1,0-0.2,0.1-0.3c0.8,0.3,0.8,0.9,0.8,1.6c0.1,0.5-0.4,1.3,0.4,1.6C147.3,64.6,147.1,64.7,146.9,64.7z"/>
		<path class="st11" d="M123.8,51c0.1-0.7,0.6-1,1.2-1.2c3.1-0.1,2.6-0.4,2.6,2.4c0,3.1,0,6.2,0,9.3c-0.1,0.7-0.5,1.4-1.3,1.6
			c-0.5,0-0.6-0.4-0.6-0.8c0-0.4,0-0.8-0.1-1.2c-0.1-0.2-0.3-0.4-0.5-0.5c-0.3-0.2-0.6-0.1-0.8-0.1c-0.3,0-0.7-0.1-0.6-0.5
			c0-2.6,0-5.2,0-7.9C123.8,51.6,123.7,51.3,123.8,51z"/>
		<path class="st23" d="M113.7,61.7c0-2.8,0-5.7,0-8.5c0-0.7,0.2-0.8,0.9-0.8c2.7,0,2.6-0.2,2.6,2.5c0,2.8,0,5.6,0,8.4c0,0,0,0,0,0
			c-0.8,0.1-1.6-0.1-2.4-0.2C114.1,62.9,113.7,62.4,113.7,61.7z"/>
		<path class="st11" d="M125.6,33.5c0.9,0.3,1.5,0.9,1.8,1.8c0.2,1.8,0,3.6,0.1,5.4c0,0.4-0.3,0.5-0.6,0.4c-0.8,0-1.5,0-2.3,0
			c-0.8-0.2-1.4-0.7-1.4-1.5c-0.1-2-0.1-4,0-6C124,33.3,124.8,33.4,125.6,33.5z"/>
		<path class="st10" d="M130.8,41.3c0,2.8,0,5.5,0,8.3c-1.1,0.5-2.2,0.5-3.4,0c0-2.8,0-5.5,0-8.3C128.6,41.1,129.7,41.1,130.8,41.3z
			"/>
		<path class="st24" d="M123.6,63.1c-1.6,0-3.2,0-4.7,0c-0.1-2.9-0.1-2.9,2.9-3c0.6,0,1.3,0,1.9,0C124.1,61.2,124.1,62.1,123.6,63.1
			z"/>
		<path class="st0" d="M113.7,61.7c0.2,0.5,0.6,0.9,1,1.4c0.8,0.5,0.8,0.5,0.1,0.9c-0.1,0.1-0.2,0.2-0.1,0.3c0.1,0.4,0,0.6-0.4,0.6
			c-0.3,0-0.7-0.1-0.8-0.4c-0.1-0.4,0.3-0.4,0.6-0.6c0.6-0.3,0.2-0.7,0-0.8c-1.5-1.2-1.1-2.8-1.1-4.4c0-1,0.3-2-0.2-2.9
			c0-0.1-0.1-0.2-0.1-0.3c0.5-1.1-0.1-1.5-1.2-1.7c0.8-0.1,1.5-0.1,1.5-1.1c0-0.1,0.3-0.1,0.4,0c0.3,0.2,0.2,0.5,0.2,0.7
			c0,2.3,0,4.6,0,6.9C113.5,60.8,113.3,61.3,113.7,61.7z"/>
		<path class="st25" d="M123.6,63.1c0-1,0-2,0-3c0-2.7,0-5.4,0-8.1c0-0.4-0.1-0.7,0.2-1c0,3,0,6.1,0,9.1c0.1,0.1,0.1,0.2,0.2,0.3
			c0.1,0.4,0.1,0.8,0.1,1.2c-0.1,0.8,0.1,1.4,1.1,1.3c0.2,0,0.3,0.1,0.5,0.2c0.2,0.2,0.3,0.4,0.1,0.6c-1.6,0.5-1.6,0.5-1.6,2.2
			c0,2.7,0,5.3,0,8c0,0.5,0.1,1-0.3,1.4c-0.3-0.3-0.2-0.8-0.2-1.1C123.7,70.4,123.6,66.8,123.6,63.1z"/>
		<path class="st26" d="M127.4,49.6c1.1,0,2.2,0,3.4,0c1.4,0.2,2.7-0.2,4.1,0.2c-0.3,0.4-0.7,0.3-1.1,0.3c-1,0-2,0-3,0
			c-0.6,0-1.2,0-1.8,0c-0.8,0-1.1,0.3-1.1,1.1c0,2.4,0,4.7,0,7.1c0,0.8,0,1.6,0,2.5c0,0.4,0.1,0.8-0.5,0.9c0-3.6,0-7.2,0-10.8
			c0-1-0.3-1.3-1.2-1.2c-0.4,0.1-0.8,0-1.2,0C125.8,49.4,126.7,49.7,127.4,49.6z"/>
		<path class="st27" d="M130.8,41.3c-1.1,0-2.2,0-3.4,0c-0.9-0.1-1.9,0.2-2.8-0.1c0.6,0,1.2-0.1,1.9,0c0.7,0,0.9-0.2,0.9-0.9
			c0-1.6,0-3.3,0-4.9c0.4,0.8,0.1,1.7,0.2,2.5c0,0.1,0,0.1,0,0.2c0.1,1-0.4,2.3,0.2,2.8c0.7,0.6,2,0.2,3,0.1c0.1,0,0.1,0.1,0.2,0.1
			C130.9,41.2,130.9,41.2,130.8,41.3z"/>
		<path class="st0" d="M112.1,59.4c-0.1,0.2-0.1,0.5-0.2,0.7c-0.1,0.2-0.2,0.4-0.5,0.4c-0.3,0-0.3-0.3-0.3-0.5c0-0.5,0-1-0.1-1.5
			c0-0.2-0.1-0.5,0.2-0.5c0.2,0,0.5,0.1,0.6,0.3C112,58.6,112,59,112.1,59.4z"/>
		<path class="st0" d="M110.4,63.9c-0.1,0-0.1,0-0.2,0c0-3.3,0-6.5,0-9.8c0-0.4-0.1-0.8,0.2-1.1C110.3,56.6,110.3,60.2,110.4,63.9z"
			/>
		<path class="st0" d="M115.3,66.1c0.4,0.1,1-0.1,0.9,0.6c0,0.3-0.1,0.7-0.5,0.5c-0.4-0.2-1.1-0.1-1.1-0.7
			C114.6,66.1,115,65.9,115.3,66.1z"/>
		<path class="st0" d="M112.1,61.7c0,0.2-0.2,0.3-0.3,0.3c-0.3,0-0.4-0.3-0.4-0.6c0-0.2,0.1-0.3,0.3-0.2
			C111.9,61.3,112.1,61.5,112.1,61.7z"/>
		<path class="st28" d="M125.6,33.5c-0.8,0-1.6,0-2.4,0c0-0.1,0-0.2,0-0.2C124,33.4,124.9,33.1,125.6,33.5z"/>
		<path class="st16" d="M98.8,67.5c0,0.1,0,0.1,0,0.2c-0.3,0.3-0.2,0.8-0.2,1.1c0,5.9,0,11.8,0,17.7c0,0.5,0.5,1.3-0.6,1.4
			c-1.5,0.1-2.4-0.3-2.5-1.3c-0.1-0.3,0-0.6,0-0.9c0-5.4,0-10.7,0-16.1c0-0.9,0.1-1.6,0.8-2.2c0.8-0.5,1.6-0.4,2.4-0.1
			C98.7,67.4,98.8,67.5,98.8,67.5z"/>
		<path class="st29" d="M98.7,67.4c-0.8,0-1.6,0.1-2.4,0.1c-1-0.3-1.5-1-1.5-2.1c0-3.4,0-6.9,0-10.3c0-0.2,0.1-0.4,0.2-0.6
			c0.6,0,1.3-0.1,1.9,0c1.2,0.1,2,0.7,2,1.9c0.1,3.6,0,7.1,0,10.7C98.8,67.2,98.7,67.3,98.7,67.4z"/>
		<path class="st30" d="M86.6,76.6c0-0.1,0-0.1-0.1-0.2c0-6.5,0-13,0-19.5c0-1.6,0.7-2.3,2.1-2.2c0,0.2,0.1,0.4,0.1,0.6
			c0,6.4,0,12.8,0,19.2C88.7,76,87.9,76.8,86.6,76.6z"/>
		<path class="st31" d="M75,30.5c-1.6,0-3.2,0.1-4.7,0.1c-1.2-0.5-1.5-1.5-1.4-2.7c0.1-1,0-2,0-3c0.9-0.4,1.9-0.1,2.9-0.2
			c0.6,0,1.1,0,1.7,0c1.2,0.4,1.7,1.4,1.6,2.6C75,28.3,75,29.4,75,30.5z"/>
		<path class="st29" d="M79.8,30.6c-0.8,0-1.6-0.1-2.4-0.1c0-2,0-4,0-5.9c0-1,0.5-1.5,1.5-1.5c0.8,0,1.5,0,2.3,0
			c0.4,0.8,0.1,1.6,0.2,2.4c0,0.9,0,1.7,0,2.6C81.4,29.2,81,30.1,79.8,30.6z"/>
		<path class="st29" d="M65.1,52.2c-1.8,0.3-2.8-0.5-2.8-2.3c0-2.7-0.1-5.4,0.1-8.1c2.7-0.1,2.7-0.1,2.7,2.7
			C65.1,47.1,65.1,49.7,65.1,52.2z"/>
		<path class="st29" d="M62.3,28.9c-0.3-0.8-0.2-1.7-0.1-2.5c0.2-1.1,0.9-1.7,2-1.8c0.9,0,1.7,0,2.6,0c0.2,1.1,0.2,2.2,0,3.3
			c-0.4,0.7-1.1,1-1.9,1C64.1,28.9,63.2,28.9,62.3,28.9z"/>
		<path class="st32" d="M66.9,28c0-1.1,0-2.2,0-3.3c0.1,0,0.1,0,0.2,0c0,0,0,0.1,0,0.2C67,25.9,67.3,27,66.9,28z"/>
		<path class="st29" d="M131,41.2c-0.1,0-0.1-0.1-0.2-0.1c0-2.1,0-4.3,0-6.4c0-1.1,0.3-1.9,1.4-2.3c1.1-0.1,2.3-0.2,3.4,0.1
			c0,2.3,0.1,4.6,0,6.9c0,1.2-0.7,1.8-1.9,1.9C132.8,41.3,131.9,41.2,131,41.2z"/>
		<path class="st33" d="M135.5,32.4c-1.1,0-2.2,0-3.4-0.1c1.1-0.4,2.2-0.1,3.4-0.2C135.5,32.2,135.5,32.3,135.5,32.4z"/>
		<path class="st34" d="M107,63.9c0.4,1,0.1,2-0.2,3c-0.6,0.5-1.3,0.7-2.1,0.6c0-0.6,0-1.2,0-1.9c0-1.3,0.3-1.7,1.7-1.7
			C106.5,63.9,106.7,63.9,107,63.9z"/>
		<path class="st29" d="M87.4,49.9c0.3,1.3-0.3,2.1-1.5,2.1c-2.1,0-4.3,0-6.4,0c-1.6,0-2-0.5-2-2c0.2-0.2,0.5-0.2,0.7-0.2
			c2.9,0,5.8,0,8.6,0C87,49.8,87.2,49.9,87.4,49.9z"/>
		<path class="st29" d="M57.6,19.8c1.7-0.4,2.8,0.4,2.8,2c0,2.3,0,4.7,0,7c-0.4,0-0.9,0.1-1.3,0c-0.9-0.1-1.4-0.6-1.4-1.5
			C57.5,24.9,57.6,22.4,57.6,19.8z"/>
		<path class="st15" d="M60.4,29c1.8-0.1,1.8-0.1,1.8,1.7c0,3.3,0,6.7,0,10c0,0.4,0.1,0.8-0.1,1.2c-0.6,0-1.1-0.1-1.7-0.1
			C60.4,37.5,60.4,33.2,60.4,29z"/>
		<path class="st29" d="M60.3,41.9c0.2,1,0.1,2,0,3.1c-0.1,1.3-1,1.8-2.9,1.6c0-1,0-2,0-3.1c0-1.3,0.4-1.6,1.6-1.6
			C59.4,41.9,59.9,41.9,60.3,41.9z"/>
		<path class="st35" d="M192.5,115.1c-0.8,0-1.6,0-2.4,0c-0.3,0-0.5,0-0.6-0.4c-0.3-1.8,1.3-3.9,3.1-3.9c1.6-0.1,2.6,0.9,2.9,2.8
			c0.2,1.6,0.2,1.6-1.3,1.6C193.6,115.1,193,115.1,192.5,115.1C192.5,115.1,192.5,115.1,192.5,115.1z"/>
		<path class="st36" d="M28.5,120.5c0,0.2,0,0.5,0,0.7c0,1.6-0.9,2.6-2.5,2.8c-1.4,0.2-2.5-0.6-2.8-1.9c-0.4-1.4,0.3-2.8,1.8-3.3
			c0.3-0.1,0.7-0.2,1-0.3C28.5,118,28.5,118,28.5,120.5z"/>
		<path class="st36" d="M62.9,120.5c0,2.2-0.5,3-2.3,3.4c-1.2,0.3-2.4-0.2-2.9-1.3c-0.5-1.1-0.3-2.6,0.7-3.3c1.2-0.9,2.6-1,4.1-1
			c0.4,0,0.4,0.3,0.4,0.5C62.9,119.4,62.9,120,62.9,120.5z"/>
		<path class="st10" d="M143.9,116.8c-0.1,1.4-0.1,2.6-0.4,3.9c-0.4,1.8-1.3,2.6-3.1,2.7c-0.4,0-0.7,0-1.1,0
			c-0.7,0.1-0.9-0.2-0.9-0.9c0-3.6,0-7.2,0-10.8c0-0.7,0.2-1,0.9-1c3,0,4.2,1,4.4,4.1C143.8,115.5,143.8,116.2,143.9,116.8z"/>
		<path class="st37" d="M172.4,117.1c0-1.8,0-3.6,0-5.3c0-0.9,0.3-1.1,1.1-1c0.4,0,0.7,0,1.1,0c1.5,0.1,2.5,0.8,2.8,2.3
			c0.7,2.6,0.6,5.3,0,7.9c-0.5,1.8-2.9,3-4.6,2.3c-0.4-0.2-0.3-0.5-0.3-0.7C172.4,120.8,172.4,119,172.4,117.1
			C172.4,117.1,172.4,117.1,172.4,117.1z"/>
		<path class="st37" d="M41.3,113.1c0-0.1,0-0.3,0-0.4c0.3-0.6-0.7-1.8,0.7-2c2.6-0.3,3.5,0.2,3.7,1.7c0.2,1.8-0.4,2.8-1.9,3
			C41.4,115.9,41.3,115.8,41.3,113.1z"/>
		<path class="st29" d="M130.8,49.9c1.4-0.2,2.7,0,4.1-0.1c0.3,0.2,0.6,0.4,1,0.7c0.5,1.2,0.2,2.4,0.3,3.6c0,1.2,0,2.3,0,3.5
			c0,0-0.1,0.1-0.1,0.1c-1.2,0.4-2.5,0.3-3.7,0.1c-0.9-0.1-1.6-0.9-1.6-1.8c-0.1-1.9,0-3.7-0.1-5.6C130.6,50.2,130.7,50,130.8,49.9z
			"/>
		<path class="st38" d="M142.5,56.4c-0.4,0.6-0.9,1.2-1.7,1.1c0-1.9,0-3.7-0.1-5.6c0-0.6,0-1.2-0.1-1.9c-0.1-0.9,0.1-1.6,1-1.9
			c0.3,0.1,0.6,0.1,0.9,0.2c0.2,0.2,0.1,0.5,0.1,0.7c0,2.2,0,4.4,0,6.6C142.6,55.9,142.7,56.1,142.5,56.4z"/>
		<path class="st39" d="M142.5,56.4c0-2.7,0-5.4,0-8.1c0.1,0,0.1,0,0.2,0c0,2.4,0,4.9,0,7.3C142.7,55.8,142.8,56.2,142.5,56.4z"/>
		<path class="st29" d="M57.4,77.4c0-0.2-0.1-0.5-0.1-0.7c0-8.5,0-17,0-25.5c0-0.2,0-0.4,0-0.6c0.7,0,1.3-0.1,2-0.1
			c1.7,0,2.3,0.6,2.3,2.3c0,5.8,0,11.6,0,17.3c0,1.8,0,3.5,0,5.3c0,1.3-0.6,2-1.9,2C59,77.4,58.2,77.4,57.4,77.4z"/>
		<path class="st37" d="M8,113.3C8,113.3,7.9,113.2,8,113.3c0.1-0.9-0.4-2.2,0.3-2.4c1.2-0.4,2.6-0.4,3.8,0.2c1,0.5,0.8,1.6,0.7,2.6
			c-0.1,1-0.5,1.7-1.6,1.9c-0.9,0.2-1.8,0.1-2.8,0.1c-0.4,0-0.5-0.3-0.5-0.6C8,114.6,8,113.9,8,113.3C8,113.3,8,113.3,8,113.3z"/>
		<path class="st40" d="M82.8,66.5c-0.1,0-0.1,0-0.2,0c0-2.9,0-5.8,0-8.7c0.3,0.3,0.2,0.7,0.2,1C82.8,61.4,82.8,63.9,82.8,66.5z"/>
		<path class="st41" d="M139.8,69.5c-1.1,0-2.3,0-3.4,0.1c-0.1,0-0.2-0.1-0.3-0.2c-0.2-0.4-0.2-0.8-0.2-1.2c0-3.1,0-6.1,0-9.2
			c0-0.5,0-0.9,0.3-1.3c0,0,0.1,0,0.1,0c0.1,0,0.1,0,0.2,0c1.4,0,2.7-0.1,4.1,0c0,1.2,0,2.3,0.1,3.5c0,0.1,0,0.2,0,0.2
			c-1.3,1.6-0.5,3.5-0.7,5.3C139.8,67.5,140,68.5,139.8,69.5z"/>
		<path class="st30" d="M145.3,63.1c0,1.4,0,1.4-1.4,1.4c-0.9,0-1.8,0-2.6,0c-0.7-0.3-0.6-0.9-0.6-1.5c0-0.5,0-1,0-1.5
			c1.5-0.3,3-0.1,4.6-0.1C145.7,62,145.7,62.6,145.3,63.1z"/>
		<path class="st42" d="M140.9,81.7c-0.7-0.1-1-0.5-1-1.2c0-3.7,0-7.3,0-11c0.7,0,1,0.4,1,1C140.9,74.3,140.9,78,140.9,81.7z"/>
		<path class="st43" d="M141.3,64.7c1.4,0,2.8,0,4.2,0.1c0,4.2,0,8.5,0,12.7c-0.4-0.3-0.2-0.7-0.2-1c0-3.5,0-7,0-10.5
			c0-0.8-0.2-1-1-1C143.3,64.9,142.3,65.2,141.3,64.7z"/>
		<path class="st44" d="M145.3,61.5c-1.5,0-3,0-4.6,0c0-0.1,0-0.1,0-0.2c1.2,0,2.4,0,3.6,0c0.4,0,0.8,0,1.1-0.2c0,0,0,0,0,0
			c0.1,0.1,0.1,0.3,0,0.4C145.4,61.6,145.4,61.6,145.3,61.5z"/>
		<path class="st1" d="M140.5,57.5c-1.4,0-2.7,0-4.1,0C137.7,57.3,139.1,57.2,140.5,57.5z"/>
		<path class="st45" d="M123.9,75.2c0-3.4,0-6.9,0-10.3c0-1.4,0-1.4,1.5-1.4c0.2,0,0.3,0,0.5,0c0.3,0.2,0.3,0.6,0.3,0.9
			c0,3.7,0,7.3,0,11c0,1.1-0.2,1.1-1.3,1C124.3,76.2,123.9,75.8,123.9,75.2z"/>
		<path class="st46" d="M124.8,76.4c0.7,0.1,1-0.1,1-1c0-4,0-8,0-11.9c-0.1-0.1-0.1-0.3-0.2-0.4c-0.1-0.8-0.3-1.6,0.2-2.4
			c0.4,0.4,0.1,1,0.2,1.4c0,0.3-0.1,0.7,0.4,0.8c-0.2,4,0,8-0.1,12c0,0.5,0.1,1.1-0.3,1.5c0,0.1,0,0.1-0.1,0.1
			C125.6,76.7,125.2,76.7,124.8,76.4z"/>
		<path class="st3" d="M126,76.4c0-4.2,0-8.3,0-12.5c0-0.4,0.1-0.8,0.4-1c0.5-0.3,0.7-0.7,1-1.2c0.3-0.3,0.2-0.7,0.2-1
			c0-3.3,0-6.6,0-9.9c0-0.7,0.1-1.1,1-1c0.7,0.1,1.5,0,2.3,0.1c0.2,2,0.1,4,0.1,6c0,1,0.8,1.6,1.8,1.7c1.1,0,2.2,0,3.3,0
			c0,4,0,7.9,0.1,11.9c-0.1,0.1-0.2,0.1-0.2,0c-1.2-0.4-1.8,0-1.8,1.2c0,1.6,0,3.2,0,4.9c0,0.7-0.2,0.9-0.9,0.9
			C130.9,76.4,128.4,76.4,126,76.4z"/>
		<path class="st47" d="M136.1,69.7c0,1.6,0,3.2,0,4.8c0,0.8-0.3,1.4-0.9,1.9c-0.4,0.3-0.8,0.2-0.8-0.3c0-1.9-0.1-3.8,0.1-5.6
			c0-0.3,0.1-0.7,0.5-0.8C135.4,69.5,135.7,69.5,136.1,69.7z"/>
		<path class="st48" d="M136.1,69.7c-0.4,0-0.8,0-1.2,0c0.3-0.3,0.7-0.1,1-0.2c0.1,0,0.2,0,0.2,0c0.1,0,0.1,0,0.1,0.1
			C136.3,69.6,136.2,69.6,136.1,69.7z"/>
		<path class="st49" d="M110.2,71.8c0-2.3,0-4.5,0-6.8c0-0.4-0.2-0.8,0.4-1c0.4,0.2,0.6,0.5,0.6,0.9c0,2.5,0,5-0.1,7.5
			C110.5,72.7,110.5,72.1,110.2,71.8z"/>
		<path class="st50" d="M104.8,77.8c-0.2-0.1-0.2-0.2-0.2-0.4c0-3-0.1-6,0.1-9.1c0.3,0.3,0.2,0.7,0.2,1
			C104.8,72.1,104.8,74.9,104.8,77.8z"/>
		<path class="st51" d="M98.3,120.5c0,2.2-0.6,3.2-2.4,3.4c-1.2,0.2-2.3-0.4-2.8-1.5c-0.5-1.2-0.2-2.6,0.8-3.3
			c1.2-0.9,2.6-0.9,4-0.9c0.4,0,0.4,0.3,0.4,0.6C98.3,119.3,98.3,119.9,98.3,120.5z"/>
		<path class="st52" d="M160.1,120.2c0,2.2-0.3,2.8-1.9,3.3c-1.3,0.4-2.6,0-3.2-1.1c-0.7-1.2-0.4-2.8,0.8-3.5
			c1.2-0.8,2.6-0.8,3.9-0.9c0.4,0,0.4,0.3,0.4,0.6C160.1,119.1,160.1,119.7,160.1,120.2z"/>
		<path class="st53" d="M145.5,61.5c0-0.1,0-0.3,0-0.4c0.3,0.1,0.5,0.1,0.8,0.2c0,0.1,0,0.1,0,0.2c-0.1,0.2-0.3,0.2-0.6,0.2
			C145.6,61.7,145.5,61.6,145.5,61.5z"/>
		<path class="st54" d="M145.7,61.5c0.2,0,0.4,0,0.6,0c0.7,0.8,0.4,1.7,0.4,2.6c0,0.6-0.6,0.3-0.9,0.4
			C145.6,63.5,145.3,62.5,145.7,61.5z"/>
		<path class="st55" d="M145.7,61.5c0,1,0,2,0,3c-0.5-0.4,0-1-0.4-1.4c0-0.5,0-1,0-1.6c0.1,0,0.1,0,0.2,0
			C145.5,61.5,145.6,61.5,145.7,61.5z"/>
		<path class="st56" d="M125.8,60.7c-0.1,0.8,0.2,1.6-0.2,2.4c-1.8,0-1.8,0-1.8-1.8c0-0.3,0-0.6,0-1c0.5-0.2,1.1-0.2,1.6,0
			C125.6,60.5,125.7,60.6,125.8,60.7z"/>
		<path class="st57" d="M125.4,60.3c-0.5,0-1.1,0-1.6,0c0-0.1,0-0.2,0-0.2C124.4,60.4,125,59.7,125.4,60.3z"/>
	</g>
</g>
</svg>
