<?xml version="1.0" encoding="utf-8"?>
<!-- Generator: Adobe Illustrator 19.2.0, SVG Export Plug-In . SVG Version: 6.00 Build 0)  -->
<svg version="1.1" id="Layer_1" xmlns="http://www.w3.org/2000/svg" xmlns:xlink="http://www.w3.org/1999/xlink" x="0px" y="0px"
	 viewBox="0 0 384.1 162.7" style="enable-background:new 0 0 384.1 162.7;" xml:space="preserve">
<style type="text/css">
	.st0{fill:#008B2C;}
	.st1{fill:#1B1918;}
	.st2{fill:#94BE0A;}
	.st3{fill:#009DDF;}
	.st4{fill:#6F7071;}
	.st5{fill:#1C1A19;}
	.st6{fill:#1D1B1A;}
	.st7{fill:#1C1B1A;}
	.st8{fill:#1E1C1B;}
	.st9{fill:#211F1E;}
	.st10{fill:#008C2D;}
	.st11{fill:#019EDF;}
	.st12{fill:#94BE0B;}
	.st13{fill:#94BE0C;}
	.st14{fill:#018C2D;}
	.st15{fill:#018C2E;}
	.st16{fill:#049FDF;}
	.st17{fill:#7EBC43;}
	.st18{fill:#5CAF49;}
	.st19{fill:#13985C;}
	.st20{fill:#089040;}
	.st21{fill:#5CB04A;}
	.st22{fill:#72B31D;}
	.st23{fill:#64B55C;}
	.st24{fill:#1BA8E1;}
	.st25{fill:#5CAF48;}
	.st26{fill:#76B836;}
	.st27{fill:#32B1E4;}
	.st28{fill:#67B234;}
	.st29{fill:#5DB046;}
	.st30{fill:#66B44B;}
	.st31{fill:#64B137;}
	.st32{fill:#5DB150;}
	.st33{fill:#5CAF47;}
	.st34{fill:#59AF4B;}
	.st35{fill:#5CB04B;}
	.st36{fill:#67B33F;}
	.st37{fill:#7DBC48;}
	.st38{fill:#6AB22E;}
	.st39{fill:#94CFB3;}
	.st40{fill:#5DB04C;}
	.st41{fill:#7EBF5C;}
	.st42{fill:#88C681;}
	.st43{fill:#89BA0F;}
	.st44{fill:#67B133;}
	.st45{fill:#71B31C;}
	.st46{fill:#23ABE2;}
	.st47{fill:#67B131;}
	.st48{fill:#6FC3BD;}
	.st49{fill:#5CAF46;}
	.st50{fill:#7FC594;}
	.st51{fill:#6FB533;}
	.st52{fill:#5DB151;}
	.st53{fill:#80C274;}
	.st54{fill:#66B23A;}
	.st55{fill:#66B239;}
	.st56{fill:#66B132;}
	.st57{fill:#6CB435;}
	.st58{fill:#58B9AF;}
	.st59{fill:#65B135;}
	.st60{fill:#73B41C;}
	.st61{fill:#87D1EE;}
	.st62{fill:#47B9E6;}
	.st63{fill:#65B138;}
	.st64{fill:#5FB14A;}
	.st65{fill:#44B09E;}
	.st66{fill:#4EB4A9;}
	.st67{fill:#5DAF44;}
	.st68{fill:#71C9EB;}
	.st69{fill:#7FCEED;}
	.st70{fill:#74BD72;}
	.st71{fill:#74B41B;}
	.st72{fill:#69B22E;}
	.st73{fill:#64B135;}
	.st74{fill:#65B139;}
	.st75{fill:#73B41B;}
	.st76{fill:#67B130;}
	.st77{fill:#6AB33C;}
	.st78{fill:#67C5EA;}
	.st79{fill:#6CB64F;}
	.st80{fill:#6AB755;}
	.st81{fill:#33A88C;}
	.st82{fill:#3AAB94;}
	.st83{fill:#67B237;}
	.st84{fill:#FEFEFE;}
	.st85{fill:#FCFCFC;}
	.st86{fill:#1F1D1C;}
	.st87{fill:#22201F;}
	.st88{fill:#D5D5D4;}
</style>
<g id="zTPQh0.tif">
</g>
<g id="MntXWk.tif">
	<g>
		<path class="st0" d="M25.4,114.1c3.3-3.2,6.5-6.3,9.9-9.6c0,1.3,0,2.5,0,3.7c0,0.9,0,0.9,0.9,0.7c3.3-0.7,6.2-2.1,8.8-4.2
			c0.2-0.1,0.3-0.2,0.5-0.4c0.8-0.3,1.6,0,2.4,0c0.7,0,1.4,0.1,2.1,0.2c0.3,0,0.6,0.1,0.8,0.3c-2.6,3.4-5.6,6.5-9.6,8.3
			c-1.3,0.6-2.6,1-4,1.2c-0.4,0.1-0.6,0.2-0.4,0.7c0.5,1,1,2.1,1.6,3.3c-4.4-1.4-8.7-2.8-13-4.1C25.4,114.2,25.4,114.1,25.4,114.1z"
			/>
		<path class="st1" d="M349.3,76.7c1-2.8,2-5.5,3-8.2c1.6-4.3,3.2-8.6,4.7-12.9c0.2-0.5,0.3-0.7,0.9-0.7c1.3,0.1,2.5,0,3.8,0
			c0.6,0,0.8,0.1,0.5,0.7c-2.2,5.6-4.4,11.2-6.6,16.8c-2.4,6-4.7,12-7.1,18.1c0,0.1-0.1,0.2-0.1,0.3c1.7,0,3.4-0.1,5,0.1
			c2.5,0.3,4.9,0.8,7.2,1.8c0.5,0.2,0.6,0.4,0.6,0.9c0,2,0,4.1,0,6.1c0,0.3,0.2,0.7-0.1,0.8c-0.4,0.1-0.8,0.1-1.2-0.2
			c-1.2-1-2.5-1.7-4-2.3c-2.3-0.9-4.7-1.3-7.1-0.8c-0.8,0.2-1.6,0.5-2.3,1c-1.4,1.3-1.2,3.1,0.5,4c1.1,0.5,2.3,0.8,3.5,1.1
			c2.2,0.5,4.4,1.1,6.6,1.9c7.1,2.9,6.3,11.8,2.3,15.2c-2.3,2-5,3-8,3.4c-4.8,0.6-9.5-0.2-14-2c-0.5-0.2-0.7-0.4-0.7-1
			c0-2.1,0-4.2,0-6.3c0-0.3-0.2-0.7,0.1-0.8c0.4-0.1,0.8-0.1,1.2,0.2c1.5,1.3,3.2,2.2,5.1,2.9c2.6,0.9,5.2,1.4,7.9,0.7
			c1.2-0.3,2.3-0.9,2.6-2.3c0.2-1-0.1-1.8-0.9-2.4c-1.1-0.8-2.4-1.1-3.7-1.4c-2.2-0.5-4.4-0.9-6.5-1.9c-3.4-1.5-5.4-4.1-5.6-7.9
			c-0.2-3.7,1.3-6.5,4.4-8.5c0.7-0.4,1.1-0.9,1.4-1.6c1.1-2.7,2.3-5.3,3.4-8c0.2-0.4,0.2-0.7,0-1.1c-2.9-7.5-5.8-15.1-8.6-22.6
			c-0.2-0.6-0.5-0.7-1.1-0.7c-3,0-5.9,0-8.9,0c-0.5,0-0.7,0.1-0.7,0.6c0,5.4,0,10.7,0,16.1c0,0.6,0.1,1.1,0.2,1.7
			c0.4,2,1.7,3,3.8,3.1c1.5,0.1,2.9-0.2,4.3-0.7c0.8-0.3,0.8-0.3,0.8,0.6c0,1.1,0,2.2,0,3.2c0,0.3,0,0.5-0.4,0.6
			c-2.6,0.6-5.2,1.1-7.8,0.5c-3.2-0.7-5.3-3-5.8-6.5c-0.1-0.9-0.2-1.7-0.2-2.6c0-5.3,0-10.5,0-15.8c0-0.7-0.2-0.8-0.8-0.8
			c-0.7,0.1-1.4,0-2.1,0c-0.3,0-0.5,0-0.5-0.4c0-1.1,0-2.2,0-3.2c0-0.4,0.1-0.5,0.5-0.5c0.7,0,1.4,0,2.2,0c0.6,0.1,0.8-0.2,0.7-0.8
			c0-2.3,0-4.6,0-7c0-0.5,0.1-0.8,0.7-0.7c1.2,0.1,2.5,0,3.7,0c0.5,0,0.6,0.1,0.6,0.6c0,2.4,0,4.8,0,7.2c0,0.5,0.1,0.7,0.7,0.7
			c4.3,0,8.6,0,12.8,0c0.5,0,0.7,0.2,0.9,0.7c2.5,6.8,5,13.6,7.5,20.4C349.1,76.3,349.2,76.4,349.3,76.7z"/>
		<path class="st1" d="M170.9,58.2c0.7-0.6,1.3-1.1,1.9-1.6c2.9-2.4,6.1-3.1,9.7-1.7c1.9,0.7,2.8,1.7,4.2,4.3
			c0.9-0.9,1.7-1.7,2.7-2.5c2.2-1.8,4.7-2.8,7.6-2.4c3.8,0.5,6.2,2.8,7,6.8c0.2,1.1,0.3,2.1,0.3,3.2c0,6.5,0,13,0,19.5
			c0,0.7-0.2,0.8-0.8,0.8c-1.2-0.1-2.3-0.1-3.5,0c-0.6,0-0.7-0.2-0.7-0.7c0-5.8,0-11.6,0-17.4c0-1.5-0.1-3-0.5-4.4
			c-0.5-1.9-1.8-2.8-3.7-3c-2.4-0.2-4.2,0.9-6,2.2c-1.1,0.8-1.6,1.6-1.6,3.1c0.1,6.5,0,12.9,0.1,19.4c0,0.6-0.1,0.9-0.8,0.8
			c-1.1-0.1-2.3-0.1-3.4,0c-0.7,0-0.8-0.2-0.8-0.9c0-5.8,0-11.5,0-17.3c0-1.5-0.1-2.9-0.4-4.4c-0.5-2-1.8-2.9-3.8-3
			c-2.3-0.2-4,0.9-5.8,2.1c-1.2,0.8-1.7,1.8-1.7,3.4c0.1,6.4,0,12.8,0.1,19.2c0,0.6-0.1,0.8-0.8,0.8c-1.2-0.1-2.4,0-3.6,0
			c-0.4,0-0.6-0.1-0.6-0.6c0-9.5,0-18.9,0-28.4c0-0.4,0.1-0.6,0.5-0.6c1.3,0,2.6,0,3.9,0c0.5,0,0.6,0.2,0.6,0.6
			C170.8,56.5,170.9,57.3,170.9,58.2z"/>
		<path class="st1" d="M159.5,50.2c0,0.9,0,1.7,0,2.6c0,0.2,0.1,0.4-0.1,0.6c-0.3,0.1-0.4-0.1-0.6-0.2c-2.1-1.7-4.4-2.9-6.9-3.5
			c-2.6-0.6-5.1-0.7-7.7,0.2c-3.4,1.3-4.8,4.3-3.8,7.6c0.7,2.1,2.3,3.2,4.3,3.8c2.8,0.8,5.6,1.4,8.4,2.2c1.9,0.5,3.6,1.3,5,2.6
			c2.3,2.1,3.1,4.8,2.9,7.8c-0.4,6.1-4.7,10.5-10.9,11.2c-5.4,0.6-10.4-0.2-15.3-2.6c-0.4-0.2-0.5-0.4-0.5-0.8c0-1.8,0-3.6,0-5.4
			c0-0.2-0.2-0.5,0.1-0.6c0.3-0.1,0.4,0.2,0.6,0.3c3.2,2.8,7,4.5,11.3,4.7c2,0.1,3.9-0.1,5.7-1c2.5-1.3,3.6-3.4,3.5-6.2
			c-0.1-2.4-1.5-4.2-4.1-5.1c-2.5-0.9-5-1.3-7.5-2c-2.6-0.7-5.1-1.7-7-3.7c-3.1-3.4-3.8-11,1.7-15.3c3-2.3,6.4-3,10.1-2.9
			c3.4,0.1,6.8,0.8,10,2.1c0.6,0.2,0.9,0.5,0.8,1.2C159.4,48.6,159.5,49.4,159.5,50.2z"/>
		<path class="st1" d="M305,51c0,0.9,0,1.7,0,2.6c0,0.2,0.1,0.5-0.1,0.6c-0.3,0.1-0.5-0.1-0.7-0.3c-1.8-1.7-3.7-3.1-6.1-3.9
			c-4.2-1.5-8.2-1.5-12,1.2c-2.6,1.9-4,4.6-4.8,7.6c-1.1,4.8-1.2,9.5,0.7,14.1c1.7,4.4,4.8,7.2,9.7,7.7c3.6,0.4,7-0.7,10-2.7
			c0.9-0.6,1.7-1.3,2.5-2c0.2-0.2,0.3-0.4,0.6-0.3c0.3,0.1,0.2,0.4,0.2,0.6c0,1.7,0,3.3,0,5c0,0.3,0,0.6-0.4,0.8
			c-2.9,1.4-5.9,2.7-9.1,3c-5,0.5-9.7-0.2-13.8-3.5c-3-2.4-4.7-5.5-5.6-9.2c-1.4-5.9-1.5-11.7,0.8-17.4c3-7.3,9.3-10.9,17.2-10.5
			c3.6,0.2,7,1.2,10.2,2.9c0.5,0.3,0.8,0.6,0.7,1.2C304.9,49.4,305,50.2,305,51z"/>
		<path class="st1" d="M227.7,81.4c-1.3,0.9-2.4,1.9-3.8,2.6c-3,1.5-6.1,1.9-9.2,0.6c-3.5-1.4-5.1-4.2-5.5-7.7
			c-0.3-2.7,0.2-5.2,2.1-7.3c1.6-1.8,3.8-2.7,6.2-3.3c3.1-0.8,6.3-0.9,9.4-1.1c0.7,0,0.9-0.2,0.8-0.9c-0.1-0.5,0-1-0.1-1.5
			c-0.4-2.3-2-3.5-4.6-3.9c-3.7-0.4-7.1,0.4-10.5,1.7c-0.9,0.3-0.9,0.3-0.9-0.6c0-1.3,0-2.5,0-3.8c0-0.3,0-0.5,0.3-0.6
			c4.8-1.2,9.6-1.9,14.4-0.6c3.8,1,6,3.8,6.3,7.8c0.1,1.7,0.1,3.4,0.1,5.2c0,5.3,0,10.6,0,15.8c0,0.6-0.2,0.8-0.8,0.8
			c-1.2,0-2.4,0-3.6,0c-0.4,0-0.6-0.1-0.6-0.6C227.7,83.1,227.7,82.3,227.7,81.4z"/>
		<path class="st1" d="M259.3,68.8c0-3.4,0-6.2,0-8.9c0-0.5-0.1-0.7-0.7-0.7c-0.7,0.1-1.4,0-2.1,0c-0.5,0-0.6-0.2-0.6-0.6
			c0-1,0-1.9,0-2.9c0-0.5,0.1-0.7,0.7-0.7c0.7,0,1.4,0,2.1,0c0.5,0,0.6-0.2,0.6-0.6c0-2.4,0-4.8,0-7.2c0-0.5,0.1-0.7,0.7-0.7
			c1.2,0,2.4,0.1,3.6,0c0.6,0,0.7,0.2,0.7,0.7c0,2.3,0,4.6,0,7c0,0.6,0.1,0.8,0.7,0.8c2.5,0,5.1,0,7.7,0c0.6,0,0.8,0.2,0.8,0.8
			c0,0.9,0,1.9,0,2.8c0,0.5-0.2,0.6-0.7,0.6c-2.6,0-5.2,0-7.8,0c-0.5,0-0.7,0.1-0.7,0.7c0,5.3,0,10.5,0.1,15.8c0,1,0.1,1.9,0.4,2.8
			c0.6,1.7,2,2.1,3.6,2.3c1.5,0.1,3-0.2,4.4-0.8c0.5-0.2,0.7-0.2,0.7,0.4c0,1.1,0,2.3,0,3.4c0,0.3,0,0.6-0.4,0.6
			c-2.6,0.6-5.2,1.1-7.9,0.4c-3.3-0.8-5.3-3.3-5.7-6.9C259.1,74.6,259.4,71.4,259.3,68.8z"/>
		<path class="st2" d="M99.5,117.6c-1-1.7-1.4-3.5-1.9-5.4c-0.7-3.1-1-6.4-1.6-9.5c-0.7-4.1-1.7-8-4.5-11.2c-0.6-0.7-1.4-1.4-2.1-2
			c-0.4-0.3-0.6-0.4-0.9,0.1c-0.8,1.2-1.7,2.4-2.7,3.7c-0.4-0.8-0.4-1.6-0.5-2.4c-0.6-3.4-1.2-6.9-1.8-10.3
			c-0.1-0.3-0.1-0.7,0.4-0.6c1,0.2,2,0.3,2.9,0.5c0.3,0.1,0.6,0,0.8,0.1c2.4,0.2,4.7,0.6,7.1,1c0.3,0.1,0.6,0,0.8,0.1
			c0.8,0,1.7,0.2,2.7,0.3c-1.5,1-2.9,1.8-4.3,2.7c3.9,2.8,5.7,6.7,6.1,11.3c0.2,0.3,0,0.7,0.1,1.1c0,0.2,0,0.3,0,0.5
			c0.1,0.4,0,0.9,0.1,1.3c0,0.4-0.1,0.9,0.1,1.3c0,1.3,0,2.6,0,3.9c-0.1,1.8-0.1,3.7,0,5.5c0,0.3,0,0.7,0,1c0.2,0.5,0,1.1,0.1,1.6
			c0.3,2,0.6,4.1,1.3,6c-0.4,0.4-0.8,0-1.2-0.1C100.1,118,99.7,117.9,99.5,117.6z"/>
		<path class="st1" d="M244.5,59.3c1-0.8,1.9-1.5,2.9-2.2c2.2-1.5,4.5-2.4,7.2-2c0.4,0.1,0.5,0.2,0.5,0.6c0,1.4,0,2.8,0,4.2
			c0,0.4-0.1,0.5-0.5,0.4c-3.7-0.7-6.9,0.4-9.6,2.8c-0.4,0.3-0.5,0.7-0.5,1.1c0,6.5,0,12.9,0,19.4c0,0.7-0.2,0.9-0.9,0.8
			c-1.2-0.1-2.3,0-3.5,0c-0.5,0-0.7-0.1-0.7-0.7c0-3.1,0-6.1,0-9.2c0-6.3,0-12.6,0-18.9c0-0.6,0.1-0.8,0.8-0.8
			c1.2,0.1,2.4,0.1,3.6,0c0.6,0,0.7,0.2,0.7,0.7C244.5,56.9,244.5,58,244.5,59.3z"/>
		<path class="st2" d="M129.3,107.5c0,0.3,0,0.6,0,0.9c-0.1,0.3,0,0.7-0.1,1c0,0.5,0.1,1.1-0.1,1.6c0,0.3,0,0.6,0,0.9
			c-0.1,0.3,0,0.7-0.1,1c0,0.5,0.1,1.1-0.1,1.6c0,0.3,0,0.6,0,0.9c-0.1,0.3,0,0.6-0.1,0.9c-0.2,0.2-0.2-0.1-0.2-0.1
			c-3.2-5.7-6.3-11.3-9.5-17c0.2-0.1,0.4-0.1,0.6,0c1.1,0.4,2.2,0.7,3.3,1.1c0.3,0.1,0.5,0.2,0.4-0.3c-1.6-6.5-4.1-12.6-8.3-17.9
			c-3.3-4.1-7.5-6.6-12.8-7.1c-2.2-0.2-4.5-0.3-6.7-0.3c-0.4,0.2-0.8,0-1.2,0.1c-1.2,0.1-2.3,0.2-3.5,0.3c-0.2,0-0.3,0.2-0.4-0.1
			c1.5-0.5,3.1-0.7,4.7-0.9c2-0.3,4-0.3,6.1-0.2c6.2,0.3,11.4,2.8,15.6,7.5c4.5,5.1,7.2,11.1,9,17.6c0.1,0.3,0.1,0.5,0.2,0.9
			c1.3-2.6,2.5-5.1,3.7-7.5c0,1.7,0.2,3.5-0.1,5.2c-0.1,0.3,0,0.7-0.1,1c0,0.6,0.1,1.2-0.1,1.7c0,0.3,0,0.5,0,0.8
			c-0.1,0.3,0,0.7-0.1,1c0,0.5,0.1,1.1-0.1,1.6c0,0.3,0,0.6,0,0.9c-0.1,0.3,0,0.7-0.1,1C129.3,106.4,129.4,106.9,129.3,107.5z"/>
		<path class="st3" d="M108.3,53.1c2.7-3.7,5.3-7.4,8.9-10.2c2.4-1.9,5.2-3.3,8.3-3.8c0.5-0.1,0.6-0.2,0.4-0.7c-0.5-1-1-2.1-1.6-3.3
			c4.4,1.4,8.7,2.8,13,4.2c-3.3,3.2-6.6,6.4-9.9,9.7c0-1.3-0.1-2.6,0-3.8c0.1-0.8-0.2-0.8-0.8-0.7c-3.8,0.7-7,2.6-9.9,5
			c-1.9,1.5-3.5,3.3-5.3,5c-0.3,0.1-0.6,0-0.8-0.2C109.8,53.8,108.9,53.7,108.3,53.1z"/>
		<path class="st2" d="M69.1,75.4c-0.3,0-0.5,0-0.8,0c-0.3,0.2-0.6,0-0.9,0.1c-0.3,0-0.5,0-0.8,0c-0.4,0.2-0.8,0-1.2,0.1
			c-0.2,0-0.3,0-0.5,0c-0.4,0.2-0.8,0-1.2,0.1c-0.2,0-0.3,0-0.5,0c-0.4,0.2-0.8,0-1.2,0.1c-0.1,0-0.3,0-0.4,0
			c-0.4,0.2-0.8,0-1.2,0.1c-0.2,0-0.3,0-0.5,0c-0.4,0.2-0.8,0-1.2,0.1c-1.8,0.2-3.6,0.4-5.4,0.5c-0.3,0.2-0.6,0-0.9,0.1
			c-0.4,0-0.9,0.1-1.3,0.1c0,0,0-0.1-0.1-0.1c2.5-1.3,4.9-2.7,7.5-4.1c-1.8-0.4-3.5-0.8-5.2-1.3c-6-1.9-11.5-4.6-16-9.1
			c-2.2-2.2-3.8-4.7-4.8-7.5c0-0.1-0.1-0.3-0.1-0.4c0.2-0.4,0.4-0.6,0.9-0.5c0.7,1.9,1.7,3.7,3.1,5.3c1.4,1.5,2.9,2.9,4.6,4.1
			c4.3,2.8,9,4.7,14,6c1.1,0.3,2.1,0.5,3.2,0.7c0.1,0,0.3,0.2,0.4,0c0.1-0.1,0-0.3,0-0.4c-0.4-1.1-0.9-2.2-1.3-3.3
			c0-0.1,0-0.2-0.1-0.4c0.6,0.2,17.3,8.5,17.9,8.9c-1.8,0.1-3.4,0.3-5.1,0.4C69.7,75.4,69.4,75.2,69.1,75.4z"/>
		<path class="st1" d="M314.5,69.8c0,4.6,0,9.3,0,13.9c0,0.6-0.1,0.9-0.8,0.9c-1.2-0.1-2.4,0-3.6,0c-0.4,0-0.6-0.1-0.6-0.6
			c0-9.4,0-18.9,0-28.3c0-0.5,0.2-0.6,0.6-0.6c1.2,0,2.5,0,3.7,0c0.6,0,0.7,0.2,0.7,0.7C314.5,60.4,314.5,65.1,314.5,69.8z"/>
		<path class="st3" d="M52.2,45.6c-1.9-2.4-2.9-5.2-2.9-8.3c-1.5,0.7-3,1.3-4.7,2.1c2.3-4.6,4.5-8.9,6.7-13.4
			c3.2,3.2,6.4,6.3,9.7,9.5c-1.7,0.1-3.2,0.2-4.7,0.2c-0.7,0-0.7,0.2-0.6,0.8c0.2,2.7,1.1,5.1,2.5,7.4c0.1,0.1,0.1,0.3,0.2,0.5
			c-0.1,0.2-0.3,0.3-0.5,0.3c-1.7,0.3-3.4,0.6-5,1C52.7,45.6,52.4,45.6,52.2,45.6z"/>
		<path class="st4" d="M184.5,133.8c-0.8,3.2-1.9,6.3-2.8,9.4c-0.2,0.5-0.4,0.7-0.9,0.7c-1.7,0-1.8,0-2.2-1.7
			c-0.7-2.7-1.6-5.4-2.1-8.1c0,0-0.1-0.1-0.2-0.2c-0.1,1.9-0.2,3.7-0.2,5.5c-0.1,1.3-0.1,2.7-0.2,4c0,0.5-0.1,0.6-0.6,0.6
			c-0.6,0-1.2,0-1.8,0c-0.4,0-0.5-0.1-0.5-0.5c0.2-3.4,0.4-6.7,0.7-10.1c0-0.7,0.1-1.5,0.1-2.2c0-0.5,0.2-0.7,0.7-0.7
			c1,0.1,1.9,0,2.9,0c0.5,0,0.7,0.1,0.8,0.6c0.7,2.7,1.6,5.3,2.1,8.1c0,0.2,0.1,0.3,0.2,0.7c0.7-3,1.6-5.8,2.5-8.6
			c0.2-0.6,0.4-0.8,1-0.8c0.9,0.1,1.8,0,2.6,0c0.5,0,0.7,0.1,0.7,0.6c0.2,3.3,0.4,6.5,0.5,9.8c0,0.8,0.1,1.7,0.2,2.5
			c0,0.4-0.1,0.6-0.5,0.6c-2.5,0.1-2.5,0.1-2.6-2.4c-0.1-2.4-0.1-4.7-0.2-7.1C184.7,134.3,184.7,134,184.5,133.8z"/>
		<path class="st2" d="M52.2,45.6c1.5-0.6,3.1-0.8,4.7-1.1c0.5-0.1,1-0.2,1.5-0.2c0.7,0.9,1.4,1.8,2.2,2.7c2.3,2.6,4.9,4.8,7.4,7.1
			c2.3,2.2,4.4,4.6,5.8,7.4c0.7,1.4,0.9,3,1.2,4.5c0.6,2.4,1,4.8,1.5,7.3c-0.7-0.1-1.2-0.4-1.7-0.6c-0.2,0-0.2-0.2-0.2-0.4
			c0.9-5.6-1.6-9.8-5.6-13.3c-2.8-2.5-6.1-4.4-9.1-6.6c-2.6-1.8-5.1-3.6-7.1-6C52.6,46.1,52.4,45.8,52.2,45.6z"/>
		<path class="st0" d="M81.4,110.7c1,5.8,2.4,11.4,4.1,17c0.5,1.5,1,2.9,1.5,4.6c0.7-0.9,1.4-1.7,2.1-2.6c1.2,4.6,2.5,9,3.7,13.7
			c-4-3-7.8-5.8-11.8-8.8c1.2-0.3,2.2-0.5,3.3-0.7c0.6-0.1,0.7-0.3,0.5-0.8c-1.7-5.8-3.1-11.7-4-17.6c-0.3-1.6-0.6-3.3-0.7-5
			C80.7,110.3,81.1,110.5,81.4,110.7z"/>
		<path class="st3" d="M76.1,43.9c-0.6-2.5-1.1-5.1-1.7-7.6c-1-4.3-2.3-8.6-3.8-12.8c-0.8,0.8-1.3,1.6-2.1,2.5
			c-1.2-4.6-2.5-9-3.7-13.5c0,0,0.1-0.1,0.1-0.1c3.8,2.8,7.6,5.7,11.6,8.6c-1.2,0.3-2.3,0.5-3.3,0.7c-0.5,0.1-0.7,0.3-0.5,0.8
			c1.7,5.7,3,11.4,4,17.2c0.2,1.4,0.4,2.8,0.6,4.2C76.8,44.3,76.5,44.1,76.1,43.9z"/>
		<path class="st4" d="M256.8,137.6c0.8,0.5,1.3,1.2,1.6,2.1c0.4,1.4,0.8,2.8,1.2,4.2c-1,0-1.9,0-2.8,0c-0.4,0-0.5-0.3-0.5-0.5
			c-0.3-1-0.5-2-0.8-3c-0.4-1.4-1-1.8-2.5-1.8c-0.4,0-0.6,0.2-0.6,0.6c0,1.3,0,2.7,0,4c0,0.5-0.1,0.7-0.7,0.7
			c-0.7-0.1-1.7,0.2-2.2-0.1c-0.5-0.4-0.2-1.4-0.2-2.1c0-3.5,0-7,0-10.4c0-0.4,0-0.7,0.5-0.8c2.1-0.2,4.2-0.4,6.2,0.1
			c1.8,0.4,2.8,1.4,3,3.2c0.2,1.5-0.5,2.8-2,3.7C257,137.4,256.9,137.5,256.8,137.6z"/>
		<path class="st5" d="M263.6,108.5c0-5.4,0-10.8,0-16.1c0-0.8,0.1-1,1-1c2.1,0.1,4.1,0,6.2,0c0.5,0,0.6,0.1,0.6,0.6
			c0,10.3,0,20.5,0,30.8c0,0.5-0.2,0.6-0.7,0.6c-2.2,0-4.4,0-6.6,0c-0.5,0-0.8-0.2-1.1-0.6c-3.6-6.6-7.3-13.2-10.9-19.8
			c-0.1-0.2-0.3-0.5-0.5-0.7c0,0.2,0,0.5,0,0.7c0,6.5,0,13,0,19.6c0,0.6-0.1,0.8-0.8,0.8c-2,0-4.1,0-6.1,0c-0.7,0-0.8-0.2-0.8-0.8
			c0-10.1,0-20.2,0-30.4c0-0.6,0.1-0.8,0.7-0.8c2.9,0,5.8,0,8.7,0c0.5,0,0.8,0.2,1,0.6c2.9,5.3,5.9,10.6,8.8,15.9
			c0.1,0.2,0.2,0.4,0.4,0.6C263.5,108.5,263.6,108.5,263.6,108.5z"/>
		<path class="st2" d="M61.2,61.5c-0.2,0-0.3,0-0.5,0c-0.3-0.2-0.6,0-0.9-0.1c-2.5-0.2-4.9-0.7-7.1-2.2c-0.9-0.6-1.6-1.4-2.1-2.3
			c-0.6,0.6-1.2,1.2-1.7,1.9c-0.2,0.1-0.2,0-0.2-0.2c0-2-0.1-3.9,0.1-5.9c0-0.6,0-1.2,0-1.9c2.6,0.7,5.2,1.5,7.8,2.2
			c-0.7,0.6-1.5,0.8-2.3,1.1c-0.5,0.2-0.5,0.4-0.2,0.8c1.4,2,3.4,3.1,5.7,3.8c2.4,0.7,4.9,1.3,7.3,2c2.7,0.9,5.1,2.2,6.3,4.9
			c0,0.1,0.1,0.2,0.1,0.3c0.1,0.2,0,0.2-0.2,0.2c-1.8-2.6-4.5-3.5-7.4-4c-0.7-0.1-1.5-0.2-2.2-0.3c-0.3-0.1-0.7,0-1-0.1
			c-0.1,0-0.3,0-0.4,0C62,61.5,61.6,61.7,61.2,61.5z"/>
		<path class="st2" d="M109.8,101.3c-0.1,1.4-0.6,2.7-1.2,4c-1.3,2.6-2.7,5.1-3.9,7.7c-0.8,1.8-1.3,3.8-1.1,5.8
			c-0.3,0.3-0.4,0-0.6-0.1c-0.2-0.5-0.3-1-0.3-1.5c-0.1-0.7-0.1-1.3,0-2c0.1-2,0.8-3.9,1.5-5.7c0.7-1.9,1.4-3.8,1.8-5.8
			c0.4-1.9,0.3-3.8-0.6-5.7c-0.8,0.4-1.5,0.9-2.3,1.3c-0.1,0.1-0.3,0.1-0.4,0.1c-0.2-0.1,0-0.3,0-0.4c0.7-2.2,1.5-4.4,2.2-6.6
			c0.1-0.4,0.4-0.5,0.8-0.3c2.1,1.4,4.1,2.7,6.1,4.1c0,0,0,0.1,0,0.2c-0.9,0.1-1.8,0.3-2.8,0.4c0.3,0.7,0.6,1.3,0.6,2.1
			C109.9,99.7,109.9,100.5,109.8,101.3z"/>
		<path class="st4" d="M214.4,137.1c0-2,0-4.1,0-6.1c0-0.5,0.1-0.6,0.6-0.6c2.4,0,4.8,0,7.2,0c0.5,0,0.6,0.2,0.6,0.7
			c0,1.9,0,1.9-1.8,1.9c-1,0-1.9,0-2.9,0c-0.4,0-0.6,0.1-0.6,0.6c0,2.2-0.1,2.2,2.1,2.2c0.8,0,1.6,0,2.4,0c0.4,0,0.5,0.1,0.5,0.5
			c0.2,2,0.2,2-1.8,2c-0.9,0-1.8,0-2.6,0c-0.4,0-0.6,0.1-0.5,0.5c0,0.7,0,1.4,0,2.2c0,0.4,0.2,0.5,0.6,0.5c1.5,0,2.9,0,4.4,0
			c0.4,0,0.6,0.1,0.6,0.6c0,2,0,2-1.9,2c-2,0-4,0-6,0c-0.7,0-0.8-0.2-0.8-0.8C214.5,141.1,214.4,139.1,214.4,137.1z"/>
		<path class="st4" d="M141,133.2c-0.4,1.6-0.8,3.2-1.2,4.8c-0.5,1.8-0.9,3.5-1.4,5.3c-0.1,0.5-0.4,0.7-0.9,0.7c-0.6,0-1.3,0-1.9,0
			c-0.4,0-0.6-0.1-0.4-0.5c1.3-4.2,2.6-8.4,3.9-12.6c0.1-0.3,0.2-0.4,0.5-0.4c1.1,0,2.2,0,3.2,0c0.4,0,0.5,0.1,0.6,0.5
			c1.3,4.2,2.6,8.3,3.9,12.5c0.2,0.5,0,0.6-0.4,0.6c-0.7,0-1.4,0-2.1,0c-0.5,0-0.7-0.2-0.9-0.6c-1-3.2-1.7-6.5-2.5-9.7
			c0-0.1-0.1-0.2-0.1-0.3C141.1,133.3,141.1,133.2,141,133.2z"/>
		<path class="st4" d="M356.7,132.9c-0.6,2.2-1.1,4.2-1.6,6.2c-0.4,1.4-0.8,2.8-1.1,4.3c-0.1,0.5-0.4,0.7-0.9,0.7
			c-0.6,0-1.2,0-1.8,0c-0.6,0.1-0.7-0.1-0.5-0.7c1.1-3.6,2.2-7.1,3.3-10.7c0.2-0.7,0.2-1.7,0.8-2c0.5-0.3,1.4-0.1,2.1-0.1
			c1.9,0,1.9,0,2.4,1.7c1.2,3.7,2.3,7.4,3.5,11.1c0.2,0.5,0.1,0.7-0.5,0.7c-0.6,0-1.3-0.1-1.9,0c-0.6,0.1-0.8-0.2-0.9-0.7
			c-1-3.1-1.7-6.3-2.5-9.5C356.9,133.5,356.8,133.3,356.7,132.9z"/>
		<path class="st6" d="M278.6,107.3c0-5.1,0-10.1,0-15.2c0-0.6,0.2-0.7,0.7-0.7c6.8,0,13.5,0,20.3,0c0.5,0,0.8,0.1,0.8,0.7
			c0,1.7,0,3.4,0,5.1c0,0.6-0.2,0.7-0.7,0.7c-4,0-8,0-12,0c-0.7,0-0.8,0.2-0.8,0.8c0.1,1.2,0.1,2.4,0,3.6c0,0.7,0.2,0.8,0.8,0.8
			c3.6,0,7.2,0,10.8,0c0.7,0,0.8,0.2,0.8,0.8c0,1.7,0,3.4,0,5.1c0,0.5-0.1,0.6-0.6,0.6c-3.7,0-7.4,0-11.1,0c-0.5,0-0.7,0.1-0.7,0.7
			c0,2.1,0,4.1,0,6.2c0,0.6,0.1,0.7,0.7,0.7c4,0,7.9,0,11.9,0c0.7,0,0.9,0.2,0.9,0.9c0,1.6,0,3.3,0,4.9c0,0.4-0.1,0.6-0.6,0.6
			c-6.9,0-13.8,0-20.7,0c-0.6,0-0.5-0.3-0.5-0.7C278.6,117.6,278.6,112.5,278.6,107.3z"/>
		<path class="st7" d="M192.5,102.8c0,3.4,0.1,6.8,0,10.2c-0.2,6-3.9,10-9.8,10.8c-3.3,0.5-6.6,0.4-9.8-0.7
			c-4.1-1.5-6.3-4.5-6.9-8.7c-0.1-0.9-0.2-1.8-0.2-2.7c0-6.5,0-12.9,0-19.4c0-0.7,0.2-0.8,0.9-0.8c2.2,0,4.4,0,6.6,0
			c0.7,0,0.9,0.1,0.9,0.9c0,6.2,0,12.4,0,18.5c0,0.8,0,1.6,0.1,2.5c0.5,3.2,2.3,4.6,5.9,4.2c2.6-0.3,3.8-1.9,4.1-4.7
			c0.1-0.7,0.1-1.4,0.1-2.1c0-6.2,0-12.3,0-18.5c0-0.6,0.1-0.9,0.8-0.9c2.3,0.1,4.5,0,6.8,0c0.6,0,0.8,0.2,0.8,0.8
			C192.6,95.7,192.6,99.2,192.5,102.8C192.5,102.8,192.5,102.8,192.5,102.8z"/>
		<path class="st4" d="M321.8,144.2c-2.4,0-4.6-0.6-6-2.8c-3-4.4-0.2-10.5,5.1-11.1c1.4-0.2,2.7-0.1,4,0.3c0.4,0.1,0.6,0.3,0.4,0.8
			c-0.2,0.6-0.2,1.3-0.5,1.7c-0.4,0.5-1-0.1-1.6-0.2c-2.2-0.3-4.1,0.5-4.9,2.2c-0.9,1.9-0.4,4.4,1,5.6c1.3,1.1,2.7,1.1,4.2,0.8
			c1.2-0.2,1.2-0.2,1.5,1c0.2,1.2,0.2,1.2-1,1.5c-0.4,0.1-0.8,0.1-1.2,0.2C322.5,144.2,322.1,144.2,321.8,144.2z"/>
		<path class="st1" d="M197.8,117.5c0-1,0-2.1,0-3.1c0-0.3-0.2-0.7,0.2-0.8c0.4-0.1,0.8-0.1,1.2,0.2c0.5,0.5,1.1,0.9,1.7,1.3
			c2.7,1.7,5.7,2.7,8.9,2.7c1.2,0,2.4-0.1,3.5-0.7c0.9-0.5,1.6-1.2,1.6-2.3c0-1.1-0.6-1.8-1.5-2.3c-1.4-0.8-3.1-1-4.6-1.4
			c-1.7-0.4-3.4-0.8-5-1.5c-3.2-1.4-5.3-3.7-5.7-7.3c-0.4-3.9,1-6.9,4.3-9.1c2.3-1.5,4.8-2.2,7.5-2.4c4-0.2,7.8,0.4,11.6,1.8
			c0.6,0.2,0.8,0.5,0.8,1.2c0,2,0,3.9,0,5.9c0,0.3,0.2,0.7-0.2,0.8c-0.4,0.1-0.8,0.1-1.2-0.2c-1.5-1.3-3.3-2.2-5.2-2.7
			c-2.1-0.6-4.3-0.9-6.5-0.2c-0.7,0.2-1.3,0.5-1.8,1c-1.3,1.2-1,3,0.5,3.8c1.4,0.7,2.9,0.9,4.4,1.3c2.1,0.5,4.2,1,6.2,1.9
			c4.3,2,5.6,5.6,4.8,10c-0.8,4.3-3.9,6.7-7.9,7.8c-5.3,1.5-10.5,0.9-15.7-1c-1.8-0.7-1.8-0.7-1.8-2.7
			C197.8,118.9,197.8,118.2,197.8,117.5z"/>
		<path class="st1" d="M305.8,117.5c0-1,0-2.1,0-3.1c0-0.3-0.2-0.7,0.2-0.8c0.4-0.1,0.8-0.1,1.2,0.2c1.1,0.9,2.3,1.7,3.6,2.3
			c3,1.4,6.1,2.1,9.4,1.4c0.7-0.1,1.3-0.4,1.8-0.9c1.3-1.1,1.3-2.9-0.2-3.9c-1.1-0.8-2.4-1-3.7-1.3c-2.4-0.5-4.8-1.1-7.1-2.1
			c-6.2-2.7-6.7-11.8-1.5-15.5c2.5-1.8,5.2-2.7,8.2-2.9c4-0.3,7.9,0.4,11.6,1.8c0.5,0.2,0.7,0.5,0.7,1.1c0,2,0,4,0,5.9
			c0,0.3,0.2,0.7-0.1,0.8c-0.4,0.1-0.8,0.1-1.2-0.3c-1.4-1.2-3-2-4.7-2.6c-2.1-0.7-4.2-1-6.3-0.5c-0.9,0.2-1.8,0.5-2.5,1.2
			c-1.1,1.2-0.9,2.9,0.6,3.6c1.6,0.8,3.4,1,5.1,1.5c2.3,0.6,4.6,1.2,6.7,2.5c2.9,1.8,3.9,4.5,3.8,7.8c-0.2,5.6-4.3,8.4-8,9.4
			c-5.4,1.5-10.6,0.9-15.8-1c-1.8-0.7-1.8-0.7-1.8-2.6C305.8,118.9,305.8,118.2,305.8,117.5z"/>
		<path class="st2" d="M50.7,104.9c-1.8-0.2-3.5-0.3-5.3-0.5c3.7-3.1,6.9-6.8,10.4-10.1c3.1-2.9,6.6-5.1,10.8-6.2
			c2.4-0.6,4.7-1.4,7.1-2.2c-0.3,0.6-0.6,1.2-0.8,1.7c-0.7,0.3-1.4,0-2.1,0.2c-1.2,0.3-2.4,0.5-3.6,0.9c-1.8,0.6-3.4,1.6-4.9,2.7
			c-2.1,1.6-3.8,3.5-5.4,5.5c-2,2.5-3.8,5.1-5.8,7.6C51,104.6,50.9,104.8,50.7,104.9z"/>
		<path class="st2" d="M93.3,47.4c-1.5,5.4-3.6,10.5-6.4,15.3c-0.2,0.3-0.4,0.5-0.4,0.9c1.1-0.1,2.2-0.3,3.3-0.4c0,0,0,0.1,0.1,0.1
			c-2.9,2.3-5.9,4.6-9,7c0.8-3.3,1.5-6.4,2.3-9.5c0.4,0.4,0.6,0.8,0.9,1.2c0.5,0.8,0.5,0.8,1,0c1.4-2.2,2.6-4.4,3.7-6.8
			c1.3-2.7,2.3-5.5,3.3-8.3C92.5,46.7,93,46.9,93.3,47.4z"/>
		<path class="st2" d="M64.6,106.5c0.6-2.1,1.5-4.1,2.4-6c0.9-2,1.9-3.8,3.1-5.7c-0.4,0-0.7,0-1,0c-0.3,0.1-0.6,0-0.8,0.1
			c-0.1,0-0.2,0-0.3,0c-0.3,0.2-0.6,0-0.9,0.1c-0.1,0-0.2,0.1-0.4,0.1c0,0-0.1-0.1-0.1-0.1c0.6-0.5,1.2-1,1.8-1.4
			c2.2-1.7,4.5-3.4,6.8-5.2c0.3,0,0.3,0.1,0.2,0.4c-0.4,2-0.9,3.9-1.3,5.9c-0.2,1-0.5,1.9-0.7,3c-0.5-0.7-0.8-1.3-1.3-2
			c-2.5,3.5-4.2,7.3-5.8,11.2C65.6,107.1,65.1,107,64.6,106.5z"/>
		<path class="st3" d="M101.6,50.3c0.4-2,1.1-3.9,2.4-5.6c0.6-0.8,1.5-1.4,2.4-2.1c-0.6-0.5-1.2-0.9-2-1.5c2.8-0.3,5.5-0.6,8.3-1
			c-0.9,2.5-1.7,4.8-2.6,7.2c-0.5-0.5-0.7-1.1-1-1.7c-0.2-0.5-0.4-0.6-0.9-0.2c-1.8,1.3-3,3.1-3.9,5.1c-0.1,0.2-0.2,0.5-0.3,0.7
			C103,51.1,102.3,50.8,101.6,50.3z"/>
		<path class="st2" d="M112.4,70.6c-2.3-2.9-5.4-3.9-9-3.6c-4.6,0.4-8.6,2.4-12.4,4.7c-0.5,0.3-1.2,0.5-1.6,1.1
			c0.7,0.2,1.3,0.4,2,0.6c0,0.1,0,0.1,0.1,0.2c-3.7,1.4-7.4,2.9-11.1,4.3c0-0.1-0.1-0.1-0.1-0.2c3.2-3.3,6.5-6.7,9.7-10
			c0.1,0,0.1,0.1,0.2,0.1c-0.5,1.3-1.1,2.6-1.7,4c0.8-0.4,1.4-0.8,2.1-1.2c3.3-1.8,6.7-3.3,10.4-4c3.5-0.6,6.9-0.2,9.8,2
			c0.7,0.5,1.3,1.1,1.7,1.9C112.6,70.6,112.6,70.6,112.4,70.6z"/>
		<path class="st8" d="M154.5,105.8c3.2,1,5.5,2.7,6,6.1c0.8,5.4-2.2,9.7-7.5,11c-1.4,0.3-2.7,0.5-4.1,0.5c-4.4,0-8.8,0-13.1,0
			c-0.6,0-0.7-0.2-0.7-0.7c0-10.2,0-20.4,0-30.5c0-0.6,0.1-0.7,0.7-0.7c4.6,0,9.1-0.1,13.7,0.1c2,0.1,3.9,0.4,5.7,1.3
			c4.5,2.3,4.3,8.6,1.6,11.4C156,104.8,155.3,105.3,154.5,105.8z"/>
		<path class="st2" d="M51.8,86.5c1.3,0.6,2.6,1,4,1.1c0.7,0.1,1.4,0.1,2,0c2.3-0.2,4.3-1.1,6.3-2.1c2.9-1.5,5.5-3.4,7.9-5.5
			c0.2-0.1,0.3-0.2,0.6-0.5c-0.9-0.1-1.6-0.3-2.2-0.2c-0.1-0.3,0.2-0.3,0.3-0.4c3-1.8,6-3.6,9.1-5.3c0.2-0.1,0.4-0.4,0.6-0.2
			c0.2,0.2-0.1,0.4-0.2,0.5c-1.4,2.1-2.9,4.1-4.3,6.2c-1.1,1.6-2.2,3.2-3.5,4.7c0.3-1.4,0.7-2.8,1.1-4.3c-0.8,0.4-1.3,1-1.9,1.4
			c-2.1,1.7-4.4,3.2-6.8,4.4c-2.2,1.1-4.5,1.9-7,2.1c-0.5,0-1-0.1-1.5-0.1c-0.3-0.2-0.6,0.1-0.9-0.1c-1.4-0.1-2.6-0.6-3.7-1.4
			C51.6,86.5,51.7,86.5,51.8,86.5z"/>
		<path class="st2" d="M108.3,53.1c1,0.4,2,0.9,3,1.3c-3.2,3.4-6.5,6.8-10.6,9.1c-1,0.6-2.2,0.9-3.3,1.2c-2.8,0.9-5.7,1.8-8.7,2.8
			c0.3-0.7,0.6-1.1,0.8-1.6c0.1-0.2,0.2-0.2,0.4-0.2c4.3,0.1,8-1.7,11.2-4.4c2.6-2.2,4.7-4.9,6.7-7.6
			C108,53.5,108.2,53.3,108.3,53.1z"/>
		<path class="st0" d="M60.1,105.8c-0.7,2.1-2.1,3.8-4,5c0.7,0.5,1.3,0.9,2.1,1.5c-2.8,0.3-5.5,0.6-8.3,0.9c0.9-2.4,1.7-4.8,2.6-7.2
			c0.4,0.7,0.7,1.2,1,1.8c0.2,0.4,0.4,0.5,0.8,0.2c1.1-0.8,1.9-1.7,2.7-2.7C58.1,105.4,59.1,105.4,60.1,105.8z"/>
		<path class="st4" d="M288.5,137.2c0,2,0,4.1,0,6.1c0,0.6-0.2,0.7-0.7,0.7c-0.8-0.1-1.8,0.2-2.2-0.1c-0.5-0.4-0.2-1.4-0.2-2.2
			c0-3.5,0-6.9,0-10.4c0-0.7,0.2-0.8,0.8-0.8c0.6,0.1,1.1,0,1.7,0c0.5,0,0.6,0.1,0.6,0.6C288.5,133.1,288.5,135.1,288.5,137.2z"/>
		<path class="st9" d="M236.7,107.3c0,5.1,0,10.2,0,15.3c0,0.7-0.2,0.8-0.9,0.8c-2.2,0-4.3,0-6.5,0c-0.5,0-0.6-0.1-0.6-0.6
			c0-10.4,0-20.8,0-31.1c0-0.5,0.2-0.6,0.6-0.6c2.2,0,4.4,0,6.6,0c0.6,0,0.7,0.2,0.7,0.7C236.7,96.9,236.7,102.1,236.7,107.3z"/>
		<path class="st10" d="M64.6,106.5c0.5,0.2,1.1,0.3,1.6,0.3c-1.3,3.3-2.5,6.6-3.2,10.1c-1.2,6.4-0.5,12.6,2,18.6
			c0,0.1,0.1,0.2,0.1,0.3c0.1,0.2,0.1,0.3-0.1,0.3c-1.7-3.4-2.7-6.9-3.3-10.7c-0.9-6,0.4-11.7,2.2-17.4
			C64.2,107.5,64.5,107,64.6,106.5z"/>
		<path class="st2" d="M60.1,105.8c-1-0.1-2.1-0.1-3.1-0.5c1.7-2.8,2.4-6,3.6-9c1-2.7,2.5-4.9,5-6.4c0.1-0.1,0.3-0.1,0.5-0.2
			c0.1-0.1,0.2,0,0.2,0.1c-2.2,1.5-3.3,3.7-4,6.2c-0.7,2.5-0.9,5.2-1.5,7.7C60.6,104.5,60.4,105.2,60.1,105.8z"/>
		<path class="st1" d="M311.9,50.1c-0.7,0-1.4,0-2.2,0c-0.4,0-0.6-0.1-0.6-0.5c0-1.4,0-2.8,0-4.2c0-0.4,0.2-0.5,0.5-0.5
			c1.5,0,3,0,4.6,0c0.4,0,0.6,0.1,0.5,0.6c0,1.4,0,2.7,0,4.1c0,0.5-0.2,0.6-0.6,0.5C313.5,50.1,312.7,50.1,311.9,50.1z"/>
		<path class="st11" d="M93.3,47.4c-0.4-0.3-0.9-0.3-1.4-0.5c0.9-2.7,1.6-5.3,1.9-8.1c0.5-4.3,0-8.6-1.3-12.7
			c-0.5-1.5-1.1-2.9-1.7-4.4c-0.1-0.1-0.1-0.3,0.1-0.3c2.1,4,3.3,8.2,3.8,12.7C95.2,38.7,94.6,43.1,93.3,47.4z"/>
		<path class="st12" d="M101.6,50.3c0.8,0.3,1.5,0.6,2.3,0.9c-0.9,2.6-1.6,5.2-2.8,7.6c-1,2-2.4,3.7-4.5,4.7c-0.2,0.1-0.2,0-0.2-0.2
			c2.6-2,3.6-4.8,4.2-7.8C101,53.8,101.3,52,101.6,50.3z"/>
		<path class="st13" d="M76.1,43.9c0.4,0,0.8,0.1,1.2,0.1C78,49,78.4,54,78.5,59c0.1,2.4,0,4.8,0,7.2c-0.1,0-0.2,0-0.2-0.1
			c-0.1-0.9,0.1-1.8-0.1-2.7c-0.3-6.4-1-12.7-2.2-18.9C76.1,44.2,76.1,44.1,76.1,43.9z"/>
		<path class="st14" d="M99.5,117.6c0.8,0.1,1.4,0.6,2.2,0.6c1.3,3.2,3.4,5.6,6.5,7.1c0.3,0.2,0.4,0.3,0.3,0.6
			c-0.2,0.5-0.1,1-0.4,1.5c-1.5-1.6-3-3.2-4.5-4.7c-1-1-1.9-2.1-2.9-3.1C100.1,119,99.7,118.3,99.5,117.6z"/>
		<path class="st13" d="M81.4,110.7c-0.4,0.1-0.8-0.2-1.2-0.3c0,0,0,0,0,0c-0.2-0.3,0-0.6-0.1-0.9c-0.2-1.1-0.3-2.2-0.3-3.3
			c-0.2-0.4,0-0.8-0.1-1.2c0-0.2,0-0.3,0-0.5c-0.2-0.5,0-0.9-0.1-1.4c0-0.2,0-0.3,0-0.5c-0.2-0.5,0-1.1-0.1-1.7c0-0.3,0-0.5,0-0.8
			c-0.2-0.5,0-1-0.1-1.5c0-0.3,0.1-0.7-0.1-1c0-0.4,0-0.7,0-1.1c-0.1-0.7-0.1-1.4-0.1-2.1c0-2.2-0.1-4.4,0.1-6.6c0-0.7,0-1.3,0-2
			c0.1,0,0.1,0,0.2,0c0,1.7,0,3.4,0,5.1c0.2,0.7,0,1.5,0.1,2.2c0,0.5,0,1,0,1.5c0.2,0.4,0,0.9,0.1,1.3c0,0.3,0,0.6,0,0.9
			c0.2,0.3,0,0.7,0.1,1.1c0,0.3,0,0.5,0,0.8c0.2,0.4,0,0.8,0.1,1.2c0,0.1,0,0.3,0,0.4c0.2,0.3,0,0.6,0.1,0.9c0,0.1,0,0.3,0,0.4
			c0.2,0.3,0,0.6,0.1,0.9c0,0.1,0,0.2,0,0.3c0.2,0.3,0,0.6,0.1,0.9c0.3,2,0.6,4,0.9,5.9C81.4,110.3,81.4,110.5,81.4,110.7z"/>
		<path class="st6" d="M355.6,89.4c-1.5,0-2.6-1.1-2.6-2.5c0-1.5,1.1-2.6,2.6-2.6c1.4,0,2.5,1.1,2.6,2.5
			C358.1,88.3,357,89.4,355.6,89.4z"/>
		<path class="st15" d="M33.2,54c-0.3,0.2-0.6,0.3-0.9,0.5c-0.8-2-1.1-4.2-1.3-6.3c-0.1-1,0-1.1,0.8-0.7
			C32.1,49.6,32.5,51.8,33.2,54z"/>
		<path class="st16" d="M31.8,47.4c-0.7-0.2-0.8,0.1-0.8,0.7c-0.2-1.8-0.1-3.7,0.1-5.5c0.1-1.7,0.4-3.3,0.7-4.9c0-0.1,0.1-0.1,0.1,0
			C31.7,40.9,31.6,44.2,31.8,47.4z"/>
		<path class="st17" d="M112.4,70.6c0.1-0.1,0.1-0.1,0.2-0.2c0.5,0.6,0.7,1.4,1.1,2.1c0.5,1,1.1,1.9,1.7,2.8c0.1,0.2,0,0.2-0.1,0.1
			C114,74.1,113.3,72.3,112.4,70.6z"/>
		<path class="st18" d="M79.2,88c0,2.9,0,5.8,0,8.7C78.9,96.2,79,95.6,79,95c0-2.2,0-4.4,0-6.5C79,88.3,79,88.1,79.2,88z"/>
		<path class="st19" d="M65.1,136c0.1-0.1,0.1-0.2,0.1-0.3c0.7,1.3,1.3,2.6,2,3.9C66.3,138.5,65.6,137.3,65.1,136z"/>
		<path class="st20" d="M102.9,118.7c0.2,0.1,0.4,0.2,0.6,0.1c0.1,0.8,0.4,1.7,0.7,2.5C103.6,120.5,103.2,119.6,102.9,118.7z"/>
		<path class="st21" d="M48.7,52.6c0,1.8,0,3.5,0,5.3c0,0.3-0.1,0.6,0.2,0.8c-0.4,0.4-0.3,0-0.3-0.2c0-1,0-2.1,0-3.1
			C48.6,54.4,48.5,53.5,48.7,52.6z"/>
		<path class="st22" d="M100.2,109.6c-0.3-1-0.1-2-0.1-3c0-0.9-0.2-1.7,0.1-2.6C100.2,105.9,100.2,107.7,100.2,109.6z"/>
		<path class="st23" d="M78.5,67.7c0,0.7,0,1.4-0.1,2.1c-0.1,0-0.1,0-0.2,0c0-1.1,0-2.1,0-3.2c0.1,0,0.1,0,0.2,0.1
			C78.5,67,78.4,67.3,78.5,67.7z"/>
		<path class="st24" d="M91,21.5c0,0.1-0.1,0.2-0.1,0.3c-0.4-0.7-0.7-1.4-1.1-2.1c-0.1-0.2,0-0.2,0.1-0.2
			C90.3,20.1,90.7,20.8,91,21.5z"/>
		<path class="st25" d="M78.4,66.6c0,0-0.1,0-0.1,0c0-1.1,0-2.2,0-3.2c0.3,0.9,0.1,1.9,0.1,2.8C78.5,66.3,78.5,66.4,78.4,66.6z"/>
		<path class="st26" d="M51.8,86.5c-0.1,0.1-0.1,0.1-0.2,0.2c-0.5-0.2-0.9-0.6-1.3-1.1c0.1-0.1,0.1-0.1,0.2,0
			C51,85.9,51.4,86.2,51.8,86.5z"/>
		<path class="st27" d="M90,19.5c0,0.1-0.1,0.1-0.1,0.2c-0.3-0.6-0.7-1.1-1-1.7c0.1-0.1,0.1-0.1,0.2,0C89.3,18.4,89.7,18.9,90,19.5z
			"/>
		<path class="st28" d="M109.8,101.3c0-0.8,0-1.6,0-2.4C110,99.7,110,100.5,109.8,101.3z"/>
		<path class="st29" d="M79.5,93.3c-0.3-0.7-0.1-1.5-0.1-2.2C79.6,91.8,79.5,92.6,79.5,93.3z"/>
		<path class="st30" d="M89.9,75.4c-0.5,0.2-1.1,0.3-1.6,0.3c0.5-0.2,1-0.3,1.5-0.4C89.7,75.3,89.8,75.3,89.9,75.4z"/>
		<path class="st31" d="M70.8,87.7c0.7-0.3,1.4-0.1,2.1-0.2C72.3,87.9,71.5,87.7,70.8,87.7z"/>
		<path class="st32" d="M57.8,87.6c-0.7,0.2-1.4,0.2-2,0C56.5,87.6,57.2,87.6,57.8,87.6z"/>
		<path class="st33" d="M129.6,100.4c0-0.6,0-1.2,0-1.8c0-0.1,0.1-0.1,0.1,0C129.7,99.2,129.8,99.8,129.6,100.4z"/>
		<path class="st34" d="M102.7,115.2c0,0.7,0,1.3,0,2C102.4,116.5,102.4,115.9,102.7,115.2z"/>
		<path class="st35" d="M129.3,107.5c0-0.6,0-1.2,0-1.7c0-0.1,0.1-0.1,0.1,0C129.4,106.3,129.5,106.9,129.3,107.5z"/>
		<path class="st36" d="M50.6,85.6c-0.1,0-0.1,0-0.2,0c-0.3-0.2-0.6-0.5-0.8-0.9c0.1-0.1,0.1-0.1,0.2,0C50,85,50.3,85.3,50.6,85.6z"
			/>
		<path class="st37" d="M96.5,63.3c0.1,0.1,0.1,0.1,0.2,0.2c-0.3,0.2-0.6,0.4-1.1,0.4C95.9,63.7,96.2,63.5,96.5,63.3z"/>
		<path class="st35" d="M129.1,111c0-0.6,0-1.2,0-1.7c0-0.1,0.1-0.1,0.1,0C129.3,109.8,129.3,110.4,129.1,111z"/>
		<path class="st25" d="M129.4,103.9c0-0.6,0-1.2,0-1.8c0-0.1,0.1-0.1,0.1,0C129.6,102.7,129.6,103.3,129.4,103.9z"/>
		<path class="st38" d="M79.3,101.1c0.3,0.5,0.1,1.1,0.1,1.7C79.2,102.2,79.3,101.6,79.3,101.1z"/>
		<path class="st39" d="M120.6,78.8c0.5,0,1,0,1.4-0.1c-0.4,0.3-0.9,0.1-1.4,0.2C120.5,78.9,120.5,78.9,120.6,78.8
			C120.6,78.8,120.6,78.8,120.6,78.8z"/>
		<path class="st35" d="M129,114.6c0-0.6,0-1.2,0-1.7c0-0.1,0.1-0.1,0.1,0C129.1,113.4,129.2,114,129,114.6z"/>
		<path class="st40" d="M79.3,98.8c0,0.5,0,1,0,1.6c-0.2-0.5-0.1-1-0.1-1.6C79.2,98.7,79.3,98.7,79.3,98.8z"/>
		<path class="st41" d="M115.2,75.6c0,0,0.1-0.1,0.1-0.1c0.2,0.3,0.4,0.5,0.6,0.8C115.6,76.1,115.4,75.9,115.2,75.6z"/>
		<path class="st42" d="M118.8,78.6c-0.3-0.1-0.6-0.2-0.8-0.6c0.4,0.1,0.7,0.3,0.9,0.4C118.9,78.6,118.8,78.6,118.8,78.6z"/>
		<path class="st43" d="M89.9,75.4c-0.1,0-0.1-0.1-0.2-0.1c0.3,0,0.5-0.2,0.8-0.1c0.1,0,0.2,0.1,0.4,0.1
			C90.5,75.5,90.2,75.4,89.9,75.4z"/>
		<path class="st44" d="M100.3,112.2c-0.3-0.5-0.1-1.1-0.1-1.6C100.4,111.1,100.3,111.6,100.3,112.2z"/>
		<path class="st45" d="M78.4,66.6c0-0.2,0-0.3,0-0.5c0,0,0.1,0,0.1,0c0,0.5,0,1,0,1.5C78.3,67.3,78.5,66.9,78.4,66.6z"/>
		<path class="st46" d="M32,37.7c0,0-0.1,0-0.1,0c0.1-0.4,0.1-0.7,0.2-1.1c0-0.1,0.1-0.1,0.1,0C32.2,37,32.2,37.3,32,37.7z"/>
		<path class="st47" d="M79.5,103.2c0.3,0.4,0.1,0.9,0.1,1.4C79.4,104.2,79.5,103.7,79.5,103.2z"/>
		<path class="st48" d="M71.6,145.8c-0.2-0.2-0.4-0.4-0.6-0.6C71.4,145.2,71.6,145.5,71.6,145.8z"/>
		<path class="st49" d="M100.1,98.9c0-0.5,0-0.9,0-1.4c0.2,0.4,0.1,0.9,0.1,1.4C100.1,99,100.1,99,100.1,98.9z"/>
		<path class="st50" d="M120.6,78.8c0,0,0,0.1,0,0.1c-0.4,0-0.7,0.1-1.1-0.1c-0.1,0-0.1-0.1-0.1-0.1c0,0,0,0,0.1,0
			C119.9,78.7,120.2,78.8,120.6,78.8z"/>
		<path class="st51" d="M66.3,89.9c-0.1,0-0.1-0.1-0.2-0.1c0.3-0.2,0.6-0.4,1-0.5C66.9,89.7,66.6,89.8,66.3,89.9z"/>
		<path class="st52" d="M94.3,74.9c0.4-0.3,0.8-0.1,1.2-0.1C95.1,75,94.7,74.9,94.3,74.9z"/>
		<path class="st53" d="M117.8,78c-0.4,0-0.5-0.2-0.7-0.5C117.5,77.5,117.6,77.7,117.8,78z"/>
		<path class="st54" d="M58.6,76.3c0.4-0.2,0.8-0.1,1.2-0.1C59.5,76.4,59,76.3,58.6,76.3z"/>
		<path class="st54" d="M60.3,76.2c0.4-0.2,0.8-0.1,1.2-0.1C61.2,76.3,60.7,76.2,60.3,76.2z"/>
		<path class="st55" d="M79.7,105.1c0.2,0.4,0.1,0.8,0.1,1.2C79.5,105.9,79.7,105.5,79.7,105.1z"/>
		<path class="st56" d="M62,76c0.4-0.3,0.8-0.1,1.2-0.1C62.9,76.1,62.4,76,62,76z"/>
		<path class="st57" d="M73.3,66.1c0.1-0.1,0.1-0.1,0.2-0.2c0.2,0.3,0.4,0.5,0.3,1C73.5,66.6,73.4,66.4,73.3,66.1z"/>
		<path class="st56" d="M63.7,75.8c0.4-0.3,0.8-0.1,1.2-0.1C64.6,76,64.1,75.9,63.7,75.8z"/>
		<path class="st58" d="M70.2,144.1c0.3,0.1,0.5,0.4,0.6,0.7C70.5,144.6,70.2,144.4,70.2,144.1L70.2,144.1z"/>
		<path class="st52" d="M79.6,96.1c-0.3-0.4-0.1-0.9-0.1-1.3C79.7,95.2,79.6,95.7,79.6,96.1z"/>
		<path class="st59" d="M79.9,100.1c-0.3-0.4-0.1-0.8-0.1-1.2C80,99.3,79.9,99.7,79.9,100.1z"/>
		<path class="st60" d="M100.1,98.9c0,0,0.1,0,0.1,0c0,0.4,0,0.8,0,1.2C99.9,99.7,100.1,99.3,100.1,98.9z"/>
		<path class="st61" d="M84.9,12.7c0.3,0,0.5,0.2,0.5,0.6C85.2,13,85.1,12.8,84.9,12.7z"/>
		<path class="st56" d="M65.4,75.7c0.4-0.3,0.8-0.1,1.2-0.1C66.3,75.8,65.8,75.7,65.4,75.7z"/>
		<path class="st62" d="M89,17.9c-0.1,0-0.1,0-0.2,0c-0.1-0.2-0.3-0.3-0.3-0.6C88.8,17.4,88.9,17.7,89,17.9z"/>
		<path class="st63" d="M61.2,61.5c0.4,0,0.7-0.1,1.1,0.1C61.9,61.6,61.6,61.7,61.2,61.5z"/>
		<path class="st56" d="M100,97c-0.2-0.3-0.1-0.7-0.1-1.1C100.1,96.3,100,96.7,100,97z"/>
		<path class="st64" d="M79.8,98.1c-0.2-0.3-0.1-0.7-0.1-1.1C79.9,97.4,79.8,97.8,79.8,98.1z"/>
		<path class="st65" d="M69.2,142.6c0.2,0.2,0.4,0.3,0.4,0.6C69.3,143.1,69.2,142.9,69.2,142.6L69.2,142.6z"/>
		<path class="st66" d="M70.2,144c-0.2-0.1-0.4-0.2-0.5-0.6C70.1,143.6,70.1,143.8,70.2,144C70.2,144.1,70.2,144,70.2,144z"/>
		<path class="st67" d="M69.1,75.4c0.3-0.2,0.6-0.1,0.9-0.1C69.7,75.5,69.4,75.4,69.1,75.4z"/>
		<path class="st68" d="M86.9,15c-0.2-0.1-0.4-0.2-0.4-0.6C86.8,14.5,86.8,14.7,86.9,15L86.9,15z"/>
		<path class="st69" d="M32.2,36.6c0,0-0.1,0-0.1,0c0-0.2,0.1-0.4,0.2-0.6C32.4,36.3,32.4,36.5,32.2,36.6z"/>
		<path class="st67" d="M52.3,76.9c0.3-0.2,0.6-0.1,0.9-0.1C52.9,77,52.6,76.9,52.3,76.9z"/>
		<path class="st60" d="M128.8,116.4c0-0.3-0.1-0.6,0.1-0.9C128.9,115.8,129.1,116.1,128.8,116.4z"/>
		<path class="st70" d="M119.5,78.7c0,0,0,0.1,0,0.1c-0.3,0.1-0.5-0.1-0.8-0.2c0.1,0,0.1-0.1,0.2-0.1
			C119.1,78.5,119.3,78.6,119.5,78.7z"/>
		<path class="st67" d="M67.4,75.5c0.3-0.2,0.6-0.1,0.9-0.1C68,75.6,67.7,75.5,67.4,75.5z"/>
		<path class="st71" d="M129.7,98.6c0,0-0.1,0-0.1,0c0-0.3-0.1-0.6,0.1-0.9C129.7,98,129.7,98.3,129.7,98.6z"/>
		<path class="st60" d="M79.3,98.8c0,0-0.1,0-0.1,0c0-0.3,0-0.6,0-0.9C79.4,98.1,79.3,98.4,79.3,98.8z"/>
		<path class="st72" d="M67.1,95c0.3-0.2,0.6-0.1,0.9-0.1C67.8,95.1,67.4,95,67.1,95z"/>
		<path class="st73" d="M80.1,101.5c-0.2-0.3-0.1-0.6-0.1-0.9C80.2,100.9,80.1,101.2,80.1,101.5z"/>
		<path class="st73" d="M59.8,61.3c0.3,0,0.6-0.1,0.9,0.1C60.5,61.5,60.1,61.6,59.8,61.3z"/>
		<path class="st71" d="M129.5,102.2c0,0-0.1,0-0.1,0c0-0.3-0.1-0.6,0.1-0.9C129.5,101.5,129.5,101.8,129.5,102.2z"/>
		<path class="st44" d="M80.2,102.9c-0.2-0.3-0.1-0.6-0.1-0.9C80.3,102.3,80.2,102.6,80.2,102.9z"/>
		<path class="st73" d="M62.7,61.7c0.3,0,0.7-0.1,1,0.1C63.4,61.8,63,61.9,62.7,61.7z"/>
		<path class="st74" d="M80.4,104.1c-0.2-0.3-0.1-0.6-0.1-0.9C80.5,103.5,80.4,103.8,80.4,104.1z"/>
		<path class="st75" d="M129.4,105.7c0,0-0.1,0-0.1,0c0-0.3-0.1-0.6,0.1-0.9C129.4,105.1,129.4,105.4,129.4,105.7z"/>
		<path class="st76" d="M55.4,88.1c0.3,0,0.6-0.1,0.9,0.1C56,88.2,55.6,88.3,55.4,88.1z"/>
		<path class="st60" d="M129.2,109.3c0,0-0.1,0-0.1,0c0-0.3-0.1-0.6,0.1-0.9C129.2,108.6,129.2,109,129.2,109.3z"/>
		<path class="st74" d="M80.1,109.6c0.2,0.3,0.1,0.6,0.1,0.9C80,110.2,80.1,109.9,80.1,109.6z"/>
		<path class="st60" d="M129.1,112.8c0,0-0.1,0-0.1,0c0-0.3-0.1-0.6,0.1-0.9C129.1,112.2,129.1,112.5,129.1,112.8z"/>
		<path class="st77" d="M75.5,88.7c0-0.1,0-0.3-0.2-0.4c0.1-0.1,0.2-0.1,0.3-0.2C75.7,88.4,75.7,88.6,75.5,88.7z"/>
		<path class="st78" d="M86.9,15c0.2,0,0.3,0.2,0.4,0.5C87,15.3,86.9,15.2,86.9,15C86.9,15,86.9,15,86.9,15z"/>
		<path class="st79" d="M49.8,84.7c-0.1,0-0.1,0-0.2,0c-0.1-0.1-0.3-0.2-0.2-0.5C49.6,84.3,49.7,84.5,49.8,84.7z"/>
		<path class="st80" d="M48.9,83.5c0.2,0.1,0.3,0.2,0.3,0.4C48.9,83.9,49,83.7,48.9,83.5z"/>
		<path class="st74" d="M68.4,94.9c0.2-0.2,0.5-0.1,0.8-0.1C68.9,94.9,68.6,94.9,68.4,94.9z"/>
		<path class="st81" d="M68.8,142.2c-0.2-0.1-0.3-0.2-0.3-0.5C68.7,141.8,68.8,141.9,68.8,142.2C68.8,142.2,68.8,142.2,68.8,142.2z"
			/>
		<path class="st82" d="M69.2,142.6C69.2,142.6,69.2,142.6,69.2,142.6c-0.3,0-0.3-0.2-0.4-0.4c0,0,0,0,0.1-0.1
			C69,142.3,69.2,142.4,69.2,142.6z"/>
		<path class="st74" d="M95.5,81.6c-0.3,0-0.6,0.1-0.8-0.1C94.9,81.4,95.2,81.4,95.5,81.6z"/>
		<path class="st83" d="M87.6,80.5c-0.3,0-0.6,0.1-0.8-0.1C87,80.3,87.3,80.3,87.6,80.5z"/>
		<path class="st84" d="M337.3,117.6c0-1,0-2,0-2.9c0-0.2-0.1-0.5,0.1-0.6c0.2-0.1,0.4,0.1,0.6,0.2c2.2,1.8,4.6,2.9,7.4,3.5
			c1.9,0.4,3.9,0.5,5.8,0.1c1.9-0.4,3-1.6,3.1-3.1c0.1-1.1-0.4-1.9-1.3-2.5c-1.4-1-3.1-1.2-4.6-1.5c-1.9-0.4-3.8-0.9-5.6-1.7
			c-3.3-1.4-5.1-3.9-5.3-7.5c-0.2-3.5,1.4-6.2,4.3-8.1c2.1-1.3,4.3-2,6.8-2.2c4-0.3,7.8,0.3,11.5,1.7c0.5,0.2,0.7,0.5,0.7,1
			c0,1.8,0,3.6,0,5.4c0,0.2,0.1,0.5-0.1,0.6c-0.3,0.2-0.5-0.1-0.7-0.2c-2.6-1.9-5.4-3.1-8.7-3.3c-1.5-0.1-2.9,0.1-4.3,0.8
			c-0.9,0.5-1.7,1.1-1.9,2.2c-0.2,1.3,0.4,2.4,1.7,3c1.6,0.7,3.4,1,5.1,1.4c1.7,0.4,3.3,0.9,4.8,1.5c7,2.8,6.1,11.6,1.9,14.9
			c-2.8,2.2-5.9,2.9-9.3,3.1c-4,0.2-7.8-0.6-11.5-2c-0.5-0.2-0.7-0.4-0.7-1C337.4,119.5,337.3,118.6,337.3,117.6z"/>
		<path class="st84" d="M227.7,73.1c0,1.2,0,2.3,0,3.5c0,0.3,0,0.6-0.2,0.8c-2.4,2-5,3.6-8.4,3.3c-2.4-0.2-4-1.3-4.5-3.3
			c-0.7-2.5,0-4.6,2-6c1.6-1.1,3.4-1.5,5.2-1.7c1.8-0.2,3.6-0.4,5.4-0.6c0.4,0,0.5,0.1,0.5,0.5C227.6,70.8,227.7,72,227.7,73.1z"/>
		<path class="st84" d="M252.4,134.5c0-0.1,0-0.3,0-0.4c0.2-0.5-0.4-1.3,0.5-1.5c1.4-0.3,2.7,0.2,3,1.1c0.3,0.8,0,1.8-0.7,2.2
			c-0.8,0.5-1.6,0.4-2.5,0.4c-0.3,0-0.3-0.3-0.3-0.5C252.4,135.4,252.4,135,252.4,134.5z"/>
		<path class="st84" d="M264.1,110.2c0-0.2,0-0.5,0-0.7c0-5.6,0-11.3,0-16.9c0-0.6,0.2-0.8,0.8-0.8c1.8,0,3.7,0,5.5,0
			c0.5,0,0.6,0.1,0.6,0.6c0,10,0,20,0,30c0,0.4-0.1,0.6-0.6,0.6c-2.1,0-4.1,0-6.2,0c-0.5,0-0.7-0.2-0.9-0.6
			c-3.7-6.7-7.4-13.4-11.1-20.1c-0.2-0.3-0.3-0.6-0.5-0.9c-0.1-0.1-0.1-0.3-0.3-0.2c-0.2,0.1-0.2,0.2-0.2,0.4c0,0.2,0,0.4,0,0.5
			c0,6.7,0,13.4,0,20.2c0,0.6-0.1,0.8-0.7,0.8c-1.8,0-3.6,0-5.3,0c-0.5,0-0.8-0.1-0.8-0.7c0-9.9,0-19.8,0-29.7
			c0-0.5,0.1-0.7,0.7-0.7c2.7,0,5.4,0,8,0c0.5,0,0.8,0.2,1,0.6c3.2,5.8,6.4,11.5,9.6,17.3c0.1,0.2,0.2,0.4,0.3,0.5
			C264,110.2,264,110.2,264.1,110.2z"/>
		<path class="st84" d="M279,107.3c0-4.9,0-9.8,0-14.8c0-0.7,0.2-0.8,0.8-0.8c6.4,0,12.9,0,19.3,0c0.6,0,0.8,0.2,0.8,0.8
			c-0.1,1.4,0,2.8,0,4.2c0,0.5-0.1,0.7-0.7,0.7c-4,0-8,0-12,0c-0.7,0-0.8,0.2-0.8,0.9c0.1,1.4,0.1,2.9,0,4.3c0,0.7,0.2,0.8,0.9,0.8
			c3.6,0,7.3,0,10.9,0c0.5,0,0.7,0.1,0.7,0.7c0,1.4-0.1,2.8,0,4.2c0,0.6-0.2,0.7-0.7,0.7c-3.7,0-7.3,0-11,0c-0.6,0-0.7,0.2-0.7,0.7
			c0,2.3,0,4.7,0,7c0,0.6,0.2,0.7,0.7,0.7c4,0,8,0,12,0c0.7,0,0.8,0.2,0.8,0.9c0,1.4,0,2.8,0,4.2c0,0.4-0.1,0.6-0.5,0.6
			c-6.6,0-13.2,0-19.8,0c-0.6,0-0.6-0.3-0.6-0.7C279,117.3,279,112.3,279,107.3z"/>
		<path class="st84" d="M166.2,102.9c0-3.5,0-6.9,0-10.4c0-0.6,0.1-0.8,0.7-0.7c2,0,4,0,6,0c0.7,0,0.7,0.2,0.7,0.8
			c0,6.1,0,12.2,0,18.3c0,1.1,0.1,2.1,0.3,3.1c0.7,3.1,2.7,4.1,5.5,4c3.4-0.2,5-2,5.1-5.6c0.1-3.4,0-6.8,0-10.2c0-3.2,0-6.5,0-9.7
			c0-0.5,0.1-0.7,0.7-0.7c2.1,0,4.2,0,6.3,0c0.5,0,0.6,0.1,0.6,0.6c0,6.6,0,13.1,0,19.7c0,2.1-0.4,4.1-1.4,6
			c-1.4,2.6-3.7,4.1-6.5,4.9c-3.4,0.9-6.8,0.9-10.2,0c-4.9-1.3-7.8-5.2-7.8-10.5C166.2,109.3,166.2,106.1,166.2,102.9z"/>
		<path class="st84" d="M198.2,117.6c0-1,0-2,0-3c0-0.2-0.1-0.4,0.1-0.5c0.2-0.1,0.4,0.1,0.6,0.2c1.1,0.9,2.2,1.6,3.5,2.2
			c3.1,1.4,6.2,2.1,9.6,1.4c0.8-0.2,1.6-0.5,2.2-1c1.4-1.2,1.4-3.2,0-4.4c-1-0.8-2.3-1.1-3.5-1.4c-2.4-0.6-4.8-1-7-2
			c-2.9-1.3-4.7-3.4-5.1-6.7c-0.4-3.6,0.8-6.5,3.7-8.6c2.4-1.7,5-2.4,7.9-2.6c3.7-0.2,7.3,0.4,10.8,1.7c0.6,0.2,0.8,0.5,0.8,1.2
			c0,1.8,0,3.6,0,5.3c0,0.2,0.1,0.5-0.1,0.6c-0.3,0.1-0.5-0.1-0.7-0.3c-2.6-1.9-5.4-3.1-8.7-3.3c-1.5-0.1-2.9,0.1-4.3,0.8
			c-1,0.5-1.7,1.2-1.9,2.4c-0.2,1.4,0.5,2.3,1.8,2.9c1.8,0.8,3.8,1,5.7,1.5c2.3,0.6,4.5,1.3,6.4,2.7c2.5,1.9,3.2,4.6,2.8,7.6
			c-0.5,4.5-3.4,7-7.4,8.2c-4.8,1.5-9.7,1.1-14.5-0.5c-0.9-0.3-2.1-0.4-2.6-1.1c-0.5-0.7-0.1-1.8-0.1-2.7
			C198.2,118.1,198.2,117.9,198.2,117.6z"/>
		<path class="st84" d="M306.3,117.6c0-1,0-1.9,0-2.9c0-0.2-0.2-0.5,0.1-0.7c0.3-0.1,0.5,0.1,0.7,0.3c2,1.6,4.2,2.7,6.7,3.4
			c2.1,0.6,4.2,0.7,6.3,0.2c0.8-0.2,1.5-0.5,2.1-0.9c1.6-1.2,1.5-3.4-0.1-4.6c-1.2-0.9-2.7-1.1-4.1-1.5c-2.2-0.5-4.4-0.9-6.4-1.9
			c-5.1-2.4-6.8-8.7-3.5-13.1c1.9-2.4,4.5-3.8,7.4-4.3c4.7-0.9,9.3-0.2,13.7,1.4c0.4,0.2,0.5,0.4,0.5,0.8c0,1.8,0,3.7,0,5.5
			c0,0.2,0.1,0.6-0.1,0.7c-0.3,0.2-0.5-0.1-0.7-0.3c-2.6-1.9-5.4-3.1-8.6-3.2c-1.5-0.1-3,0.1-4.3,0.8c-1,0.5-1.7,1.2-1.8,2.4
			c-0.1,1.4,0.5,2.2,1.8,2.8c1.6,0.7,3.4,1,5.1,1.4c1.9,0.4,3.7,1,5.5,1.8c6.2,2.9,5.5,11.2,1.4,14.5c-2.5,2-5.4,2.9-8.5,3.1
			c-4.3,0.3-8.4-0.4-12.3-2c-0.5-0.2-0.8-0.5-0.8-1.1C306.3,119.5,306.3,118.5,306.3,117.6z"/>
		<path class="st84" d="M135.4,107.4c0-4.9,0-9.9,0-14.8c0-0.4-0.1-0.8,0.6-0.8c4.7,0.1,9.4-0.1,14.1,0.2c2.1,0.1,4.1,0.6,5.8,1.9
			c3.3,2.5,3.1,9.1-1.4,11.4c-0.1,0-0.2,0.1-0.3,0.1c-0.2,0.1-0.4,0.1-0.4,0.4c0,0.3,0.2,0.3,0.4,0.3c1.1,0.3,2.1,0.6,3,1.2
			c2.6,1.7,3.3,4.3,3,7.2c-0.5,4.1-3.5,7.1-7.8,7.9c-1.3,0.3-2.6,0.4-4,0.4c-4,0-8,0-12.1,0c-0.8,0-0.9-0.2-0.9-0.9
			C135.4,117.1,135.4,112.3,135.4,107.4z"/>
		<path class="st84" d="M229.2,107.2c0-5,0-10,0-15c0-0.6,0.1-0.7,0.7-0.7c1.9,0,3.9,0,5.8,0c0.4,0,0.6,0.1,0.6,0.5
			c0,10.1,0,20.2,0,30.4c0,0.5-0.2,0.6-0.6,0.6c-1.9,0-3.8,0-5.6,0c-0.6,0-0.8-0.2-0.8-0.8C229.2,117.2,229.2,112.2,229.2,107.2z"/>
		<path class="st85" d="M357,88c-0.5,0.8-1.4,1-2.3,0.6c-0.9-0.4-1.3-1.5-1-2.4c0.3-0.9,1.3-1.5,2.1-1.3c0.8,0.2,1.4,0.6,1.6,1.4
			C357.6,86.9,357.6,87.6,357,88c-0.8-0.4-0.9-0.6-0.7-1.6c0.1-0.5-0.2-0.7-0.6-0.8c-0.4-0.1-0.8-0.2-0.9,0.4
			c-0.1,0.5-0.1,1.1,0,1.6c0.2,0,0.3-0.1,0.3-0.2c0.2-0.5,0.5-0.4,0.7-0.1C356.1,87.7,356.5,87.9,357,88z"/>
		<path class="st86" d="M142.8,113.4c0-1.2,0-2.4,0-3.6c0-0.3,0-0.5,0.4-0.5c1.9,0.1,3.8-0.1,5.7,0.2c2,0.3,3.2,1.4,3.4,3.3
			c0.2,2.2-0.7,3.7-2.6,4.4c-1.4,0.5-2.8,0.4-4.2,0.4c-0.7,0-1.5,0-2.2,0c-0.4,0-0.5-0.1-0.5-0.5
			C142.9,115.9,142.8,114.6,142.8,113.4z"/>
		<path class="st86" d="M142.8,100.7c0-1,0-2,0-3c0-0.3-0.1-0.5,0.4-0.5c1.4,0,2.9-0.1,4.3,0.1c1.9,0.3,2.9,1.4,2.9,3.2
			c0,2.1-0.9,3.3-2.9,3.7c-1.5,0.3-2.9,0.1-4.4,0.2c-0.4,0-0.3-0.3-0.3-0.5C142.8,102.8,142.8,101.7,142.8,100.7z"/>
		<path class="st87" d="M357,88c-0.9,0.3-1.1-0.4-1.6-0.9c-0.3,0.2-0.1,0.4-0.1,0.6c0,0.3-0.1,0.3-0.3,0.3c-0.2,0-0.3-0.1-0.3-0.3
			c0-0.7,0-1.3,0-2c0-0.2,0.1-0.3,0.3-0.3c0.4,0,0.8,0,1.1,0.1c0.5,0.2,0.7,0.6,0.4,0.9c-0.5,0.6-0.1,0.8,0.2,1.2
			C356.8,87.8,356.9,87.9,357,88C357,88.1,357,88,357,88z"/>
		<path class="st84" d="M143.3,113.4c0-1.1,0-2.2,0-3.2c0-0.3,0-0.5,0.4-0.5c1.8,0.1,3.7-0.1,5.5,0.2c1.8,0.3,2.8,1.3,2.9,2.9
			c0.2,2.1-0.6,3.3-2.3,3.9c-1.4,0.5-2.9,0.4-4.3,0.4c-0.7,0-1.5,0.3-1.9-0.1c-0.4-0.4-0.1-1.3-0.1-1.9
			C143.2,114.5,143.3,114,143.3,113.4z"/>
		<path class="st84" d="M143.3,100.7c0-0.8,0-1.7,0-2.5c0-0.3,0-0.5,0.4-0.5c1.4,0.1,2.8-0.1,4.2,0.2c1.3,0.3,2,1.1,2.1,2.4
			c0.2,1.6-0.4,2.7-1.6,3.3c-1.2,0.6-2.5,0.3-3.8,0.4c-0.3,0-0.6,0-0.8,0c-0.4,0-0.5-0.1-0.5-0.5
			C143.3,102.5,143.3,101.6,143.3,100.7z"/>
		<path class="st88" d="M355.5,86c0.2,0,0.4,0.1,0.4,0.3c0,0.3-0.2,0.3-0.4,0.4c-0.2,0-0.2-0.1-0.2-0.3
			C355.2,86.2,355.2,86,355.5,86z"/>
	</g>
</g>
</svg>
